<?xml version="1.0" encoding="UTF-8"?>
<svg version="1.1" xmlns="http://www.w3.org/2000/svg" width="128" height="128">
<path d="M0 0 C0.86424088 -0.00671722 1.72848175 -0.01343445 2.61891174 -0.02035522 C5.46499442 -0.0392925 8.31084072 -0.04325733 11.15698242 -0.04541016 C13.14466955 -0.05184127 15.13235573 -0.05856987 17.12004089 -0.06558228 C21.2835001 -0.07754453 25.44687639 -0.0812642 29.61035156 -0.08007812 C34.92979263 -0.07987505 40.24869877 -0.10717026 45.56801319 -0.14162254 C49.67313551 -0.16392566 53.77812981 -0.16791461 57.8833065 -0.16685867 C59.8436028 -0.16920975 61.80390289 -0.17800534 63.76413918 -0.19352341 C66.51370684 -0.21325163 69.26213029 -0.20731867 72.01171875 -0.1953125 C72.81150146 -0.20655151 73.61128418 -0.21779053 74.43530273 -0.22937012 C82.69368819 -0.13832979 88.96891394 2.97581911 95.19995117 8.29052734 C96.18995117 8.62052734 97.17995117 8.95052734 98.19995117 9.29052734 C100.0293695 12.08877169 100.45056567 14.31195715 100.45391846 17.61694336 C100.46237793 18.90388596 100.46237793 18.90388596 100.4710083 20.21682739 C100.46493561 21.61649246 100.46493561 21.61649246 100.45874023 23.04443359 C100.46399719 24.52796829 100.46399719 24.52796829 100.46936035 26.04147339 C100.4781658 29.31206268 100.47233261 32.58243583 100.46557617 35.85302734 C100.46692316 38.12459352 100.46886398 40.39615942 100.47137451 42.66772461 C100.47432417 47.42906437 100.47003315 52.19032911 100.46069336 56.95166016 C100.44929898 63.05843579 100.45585929 69.16503563 100.46783829 75.27180481 C100.47506111 79.9626193 100.472767 84.65339203 100.4675827 89.34420776 C100.46624738 91.59610006 100.46788982 93.84799614 100.47254181 96.09988403 C100.47761389 99.24556541 100.46988699 102.39096103 100.45874023 105.53662109 C100.4627887 106.46973114 100.46683716 107.40284119 100.4710083 108.36422729 C100.46536865 109.22218903 100.459729 110.08015076 100.45391846 110.96411133 C100.45278738 112.07906227 100.45278738 112.07906227 100.45163345 113.21653748 C100.15786511 115.63733789 99.49556728 117.23068549 98.19995117 119.29052734 C96.54297739 119.98093309 94.87437507 120.64359084 93.19995117 121.29052734 C92.23057617 122.11552734 91.26120117 122.94052734 90.26245117 123.79052734 C84.67459918 128.35203917 79.31094493 128.58882776 72.39990234 128.58105469 C71.53566147 128.58777191 70.67142059 128.59448914 69.7809906 128.60140991 C66.93490792 128.62034718 64.08906162 128.62431201 61.24291992 128.62646484 C59.2552328 128.63289596 57.26754661 128.63962455 55.27986145 128.64663696 C51.11640225 128.65859921 46.95302595 128.66231889 42.78955078 128.66113281 C37.47010971 128.66092974 32.15120357 128.68822495 26.83188915 128.72267723 C22.72676683 128.74498034 18.62177253 128.7489693 14.51659584 128.74791336 C12.55629954 128.75026444 10.59599945 128.75906003 8.63576317 128.77457809 C5.8861955 128.79430631 3.13777206 128.78837336 0.38818359 128.77636719 C-0.41159912 128.7876062 -1.21138184 128.79884521 -2.03540039 128.8104248 C-10.29378584 128.71938447 -16.56901159 125.60523557 -22.80004883 120.29052734 C-23.79004883 119.96052734 -24.78004883 119.63052734 -25.80004883 119.29052734 C-27.62946716 116.49228299 -28.05066333 114.26909754 -28.05401611 110.96411133 C-28.05965576 110.1061496 -28.06529541 109.24818787 -28.07110596 108.36422729 C-28.0670575 107.43111725 -28.06300903 106.4980072 -28.05883789 105.53662109 C-28.06234253 104.54759796 -28.06584717 103.55857483 -28.06945801 102.5395813 C-28.07826345 99.268992 -28.07243027 95.99861886 -28.06567383 92.72802734 C-28.06702082 90.45646117 -28.06896163 88.18489527 -28.07147217 85.91333008 C-28.07442183 81.15199032 -28.07013081 76.39072558 -28.06079102 71.62939453 C-28.04939664 65.5226189 -28.05595695 59.41601906 -28.06793594 53.30924988 C-28.07515877 48.61843539 -28.07286465 43.92766266 -28.06768036 39.23684692 C-28.06634504 36.98495462 -28.06798748 34.73305855 -28.07263947 32.48117065 C-28.07771154 29.33548928 -28.06998465 26.19009366 -28.05883789 23.04443359 C-28.06288635 22.11132355 -28.06693481 21.1782135 -28.07110596 20.21682739 C-28.06546631 19.35886566 -28.05982666 18.50090393 -28.05401611 17.61694336 C-28.05326206 16.87364273 -28.05250801 16.1303421 -28.05173111 15.36451721 C-27.75796276 12.9437168 -27.09566494 11.3503692 -25.80004883 9.29052734 C-24.14307504 8.6001216 -22.47447272 7.93746385 -20.80004883 7.29052734 C-19.83067383 6.46552734 -18.86129883 5.64052734 -17.86254883 4.79052734 C-12.27469684 0.22901551 -6.91104259 -0.00777308 0 0 Z M-24.80004883 10.29052734 C-24.80004883 13.29052734 -24.80004883 13.29052734 -24.80004883 13.29052734 Z M96.19995117 10.29052734 C96.52995117 11.28052734 96.85995117 12.27052734 97.19995117 13.29052734 C97.19995117 12.30052734 97.19995117 11.31052734 97.19995117 10.29052734 C96.86995117 10.29052734 96.53995117 10.29052734 96.19995117 10.29052734 Z M-25.80004883 115.29052734 C-25.47004883 116.28052734 -25.14004883 117.27052734 -24.80004883 118.29052734 C-24.80004883 117.30052734 -24.80004883 116.31052734 -24.80004883 115.29052734 C-25.13004883 115.29052734 -25.46004883 115.29052734 -25.80004883 115.29052734 Z M97.19995117 115.29052734 C97.19995117 118.29052734 97.19995117 118.29052734 97.19995117 118.29052734 Z " fill="#01B804" transform="translate(27.800048828125,-0.29052734375)"/>
<path d="M0 0 C0.77762695 -0.0065712 1.55525391 -0.0131424 2.35644531 -0.01991272 C4.9313975 -0.03963091 7.50629133 -0.05130644 10.08129883 -0.0612793 C11.40265052 -0.06739259 11.40265052 -0.06739259 12.75069618 -0.07362938 C17.41533803 -0.09448613 22.07995052 -0.10878825 26.74462891 -0.11816406 C31.55194545 -0.12921373 36.35879725 -0.16359798 41.16594982 -0.20333576 C44.87127007 -0.22954224 48.57648039 -0.23785958 52.28188515 -0.24144554 C54.05322716 -0.2463029 55.82456455 -0.25789257 57.59581566 -0.27648354 C60.08247522 -0.30095622 62.56794319 -0.2998953 65.0546875 -0.29296875 C65.77862198 -0.30577881 66.50255646 -0.31858887 67.24842834 -0.33178711 C74.82686755 -0.25532291 80.79603279 3.12718624 86.35083008 8.17700195 C87.70522675 10.88579531 87.41584459 13.18633463 87.35083008 16.17700195 C83.72083008 16.17700195 80.09083008 16.17700195 76.35083008 16.17700195 C75.69083008 17.49700195 75.03083008 18.81700195 74.35083008 20.17700195 C73.15901447 22.16615899 71.94847485 24.14414414 70.72583008 26.11450195 C70.00705436 27.27594437 69.28830512 28.43740317 68.56958008 29.59887695 C68.20219727 30.19120117 67.83481445 30.78352539 67.45629883 31.39379883 C65.70778855 34.21427565 63.96653542 37.03920327 62.22583008 39.86450195 C61.62512695 40.83774414 61.02442383 41.81098633 60.40551758 42.8137207 C55.53673532 50.78334337 50.7812177 58.8195406 46.03833008 66.86450195 C30.06835982 93.90340009 30.06835982 93.90340009 24.35083008 102.17700195 C20.57815276 100.91944285 20.18407751 99.71961468 18.16333008 96.36450195 C15.64682533 92.27253836 13.08789925 88.23029611 10.41333008 84.23950195 C9.74688477 83.2443457 9.08043945 82.24918945 8.39379883 81.22387695 C7.71961914 80.2184082 7.04543945 79.21293945 6.35083008 78.17700195 C4.31488436 75.12500046 2.28062139 72.07190548 0.24926758 69.0168457 C-0.98587586 67.16921344 -2.23021626 65.32768529 -3.48510742 63.4934082 C-4.03424805 62.68774414 -4.58338867 61.88208008 -5.14916992 61.05200195 C-5.87620117 59.99625977 -5.87620117 59.99625977 -6.61791992 58.91918945 C-7.64916992 57.17700195 -7.64916992 57.17700195 -7.64916992 55.17700195 C-8.30916992 55.17700195 -8.96916992 55.17700195 -9.64916992 55.17700195 C-9.64916992 54.18700195 -9.64916992 53.19700195 -9.64916992 52.17700195 C4.42474771 50.65641061 4.42474771 50.65641061 8.72583008 54.05200195 C10.49828149 56.6778559 11.9207515 59.35144347 13.35083008 62.17700195 C14.5964547 63.96565714 15.86695161 65.73728309 17.16333008 67.48950195 C19.42653783 70.62277584 21.03088678 73.53910945 22.35083008 77.17700195 C23.01083008 77.17700195 23.67083008 77.17700195 24.35083008 77.17700195 C24.61798828 76.46761475 24.88514648 75.75822754 25.16040039 75.02734375 C26.3942025 72.07315186 27.83005007 69.362363 29.39770508 66.5715332 C29.99583008 65.50483398 30.59395508 64.43813477 31.21020508 63.33911133 C31.83411133 62.23374023 32.45801758 61.12836914 33.10083008 59.98950195 C34.01348633 58.36044922 34.01348633 58.36044922 34.94458008 56.69848633 C38.24448135 50.82846964 41.61215943 45.01949557 45.16503906 39.29858398 C46.83359371 36.31325561 47.60341668 33.50638893 48.35083008 30.17700195 C48.84583008 28.69200195 48.84583008 28.69200195 49.35083008 27.17700195 C49.35083008 26.18700195 49.35083008 25.19700195 49.35083008 24.17700195 C25.26083008 24.50700195 1.17083008 24.83700195 -23.64916992 25.17700195 C-23.64916992 12.76312636 -23.64916992 12.76312636 -18.64916992 7.17700195 C-12.590732 1.76684046 -8.12127089 0.02974886 0 0 Z " fill="#5FD96A" transform="translate(30.649169921875,5.822998046875)"/>
<path d="M0 0 C-1.40619755 3.83571709 -3.19639725 7.11074753 -5.375 10.5625 C-6.09875112 11.72067069 -6.8213311 12.87957376 -7.54296875 14.0390625 C-7.93661621 14.67102539 -8.33026367 15.30298828 -8.73583984 15.95410156 C-11.08800225 19.76080703 -13.38687675 23.59950056 -15.6875 27.4375 C-16.19240967 28.27958008 -16.69731934 29.12166016 -17.2175293 29.98925781 C-21.06473216 36.41627898 -24.8805168 42.86159261 -28.6875 49.3125 C-44.26836195 75.70598258 -44.26836195 75.70598258 -50 84 C-53.77267732 82.74244089 -54.16675257 81.54261272 -56.1875 78.1875 C-58.70400474 74.0955364 -61.26293083 70.05329416 -63.9375 66.0625 C-64.60394531 65.06734375 -65.27039063 64.0721875 -65.95703125 63.046875 C-66.63121094 62.04140625 -67.30539063 61.0359375 -68 60 C-70.03594572 56.9479985 -72.07020869 53.89490353 -74.1015625 50.83984375 C-75.33670594 48.99221149 -76.58104633 47.15068334 -77.8359375 45.31640625 C-78.38507813 44.51074219 -78.93421875 43.70507812 -79.5 42.875 C-80.22703125 41.81925781 -80.22703125 41.81925781 -80.96875 40.7421875 C-82 39 -82 39 -82 37 C-82.66 37 -83.32 37 -84 37 C-84 36.01 -84 35.02 -84 34 C-69.92608237 32.47940866 -69.92608237 32.47940866 -65.625 35.875 C-63.85254858 38.50085395 -62.43007858 41.17444152 -61 44 C-59.75437538 45.78865518 -58.48387846 47.56028114 -57.1875 49.3125 C-54.92429225 52.44577388 -53.3199433 55.36210749 -52 59 C-51.34 59 -50.68 59 -50 59 C-49.7321167 58.2891626 -49.4642334 57.5783252 -49.18823242 56.84594727 C-47.96515002 53.91653047 -46.54441949 51.23107585 -44.98828125 48.46484375 C-44.39466797 47.40716797 -43.80105469 46.34949219 -43.18945312 45.25976562 C-42.26036133 43.61524414 -42.26036133 43.61524414 -41.3125 41.9375 C-40.71244141 40.86822266 -40.11238281 39.79894531 -39.49414062 38.69726562 C-37.67259355 35.45917711 -35.83655143 32.22959678 -34 29 C-33.35724121 27.85031738 -32.71448242 26.70063477 -32.05224609 25.51611328 C-31.43043457 24.41895996 -30.80862305 23.32180664 -30.16796875 22.19140625 C-29.60746826 21.19439697 -29.04696777 20.1973877 -28.46948242 19.17016602 C-27.98455322 18.45401123 -27.49962402 17.73785645 -27 17 C-26.34 17 -25.68 17 -25 17 C-24.84144531 16.443125 -24.68289062 15.88625 -24.51953125 15.3125 C-23.76331011 12.83911372 -22.89373022 10.42690759 -22 8 C-21.76410156 7.21496094 -21.52820313 6.42992187 -21.28515625 5.62109375 C-17.66564 -3.06263837 -7.88606994 -0.62601658 0 0 Z " fill="#F5F9F5" transform="translate(105,24)"/>
<path d="M0 0 C0.77762695 -0.0065712 1.55525391 -0.0131424 2.35644531 -0.01991272 C4.9313975 -0.03963091 7.50629133 -0.05130644 10.08129883 -0.0612793 C11.40265052 -0.06739259 11.40265052 -0.06739259 12.75069618 -0.07362938 C17.41533803 -0.09448613 22.07995052 -0.10878825 26.74462891 -0.11816406 C31.55194545 -0.12921373 36.35879725 -0.16359798 41.16594982 -0.20333576 C44.87127007 -0.22954224 48.57648039 -0.23785958 52.28188515 -0.24144554 C54.05322716 -0.2463029 55.82456455 -0.25789257 57.59581566 -0.27648354 C60.08247522 -0.30095622 62.56794319 -0.2998953 65.0546875 -0.29296875 C65.77862198 -0.30577881 66.50255646 -0.31858887 67.24842834 -0.33178711 C74.92612483 -0.25432144 80.65071221 3.18939882 86.35083008 8.17700195 C86.02083008 9.49700195 85.69083008 10.81700195 85.35083008 12.17700195 C84.36083008 11.84700195 83.37083008 11.51700195 82.35083008 11.17700195 C80.94164814 11.09984591 79.5289582 11.0790891 78.11775208 11.0947113 C77.25538437 11.10175079 76.39301666 11.10879028 75.5045166 11.11604309 C74.5615271 11.12898911 73.6185376 11.14193512 72.64697266 11.15527344 C71.65167038 11.16488098 70.6563681 11.17448853 69.63090515 11.18438721 C66.33565269 11.21741171 63.04053138 11.25773106 59.74536133 11.2980957 C57.46278854 11.32239344 55.18021088 11.34623717 52.89762878 11.36964417 C46.88553318 11.43251954 40.87352372 11.50157649 34.86151123 11.57189941 C28.72843351 11.64255163 22.59529464 11.70738722 16.4621582 11.77270508 C4.42498163 11.90176195 -7.61211198 12.03734609 -19.64916992 12.17700195 C-17.58932661 5.53637152 -17.58932661 5.53637152 -14.21166992 3.36450195 C-13.61483398 2.96618164 -13.01799805 2.56786133 -12.40307617 2.1574707 C-8.35868175 -0.10342685 -4.49163331 0.01645321 0 0 Z " fill="#87E093" transform="translate(30.649169921875,5.822998046875)"/>
<path d="M0 0 C0.86424088 -0.00671722 1.72848175 -0.01343445 2.61891174 -0.02035522 C5.46499442 -0.0392925 8.31084072 -0.04325733 11.15698242 -0.04541016 C13.14466955 -0.05184127 15.13235573 -0.05856987 17.12004089 -0.06558228 C21.2835001 -0.07754453 25.44687639 -0.0812642 29.61035156 -0.08007812 C34.92979263 -0.07987505 40.24869877 -0.10717026 45.56801319 -0.14162254 C49.67313551 -0.16392566 53.77812981 -0.16791461 57.8833065 -0.16685867 C59.8436028 -0.16920975 61.80390289 -0.17800534 63.76413918 -0.19352341 C66.51370684 -0.21325163 69.26213029 -0.20731867 72.01171875 -0.1953125 C72.81150146 -0.20655151 73.61128418 -0.21779053 74.43530273 -0.22937012 C82.69368819 -0.13832979 88.96891394 2.97581911 95.19995117 8.29052734 C96.18995117 8.62052734 97.17995117 8.95052734 98.19995117 9.29052734 C97.86995117 9.95052734 97.53995117 10.61052734 97.19995117 11.29052734 C93.19995117 11.29052734 93.19995117 11.29052734 90.50094604 8.82997131 C86.7056776 5.47070572 83.28569169 5.58844378 78.3840332 5.65942383 C77.51818604 5.65226852 76.65233887 5.64511322 75.76025391 5.63774109 C72.90888073 5.62088568 70.05908718 5.64024116 67.20776367 5.66162109 C65.21768057 5.66079195 63.22759753 5.65833087 61.23751831 5.65431213 C57.06967516 5.65145609 52.90236995 5.66613398 48.73461914 5.69360352 C43.40602579 5.72764132 38.07839691 5.72168085 32.74975777 5.70294094 C28.64033042 5.69234349 24.53112531 5.70133446 20.4217186 5.71632576 C18.45783016 5.72149087 16.49391835 5.72104616 14.53003311 5.71478081 C11.77773889 5.70929718 9.026798 5.72980544 6.2746582 5.75708008 C5.06959122 5.74729126 5.06959122 5.74729126 3.84017944 5.73730469 C-4.52140938 5.87737399 -10.89620018 9.5239775 -16.80004883 15.29052734 C-19.6180541 19.56612155 -20.1866452 23.24216472 -20.39379883 28.23974609 C-20.89353111 30.76243308 -21.86011208 31.66531438 -23.80004883 33.29052734 C-23.76749674 31.30485026 -23.73494466 29.31917318 -23.70239258 27.33349609 C-23.71741666 25.08747273 -23.71741666 25.08747273 -24.80004883 22.29052734 C-24.80004883 50.67052734 -24.80004883 79.05052734 -24.80004883 108.29052734 C-24.47004883 108.29052734 -24.14004883 108.29052734 -23.80004883 108.29052734 C-23.80004883 110.93052734 -23.80004883 113.57052734 -23.80004883 116.29052734 C-25.28504883 116.78552734 -25.28504883 116.78552734 -26.80004883 117.29052734 C-27.74615156 111.7059246 -27.94824102 106.31303078 -27.9453125 100.6550293 C-27.94867111 99.71433594 -27.95202972 98.77364258 -27.95549011 97.80444336 C-27.96494607 94.71255148 -27.96694006 91.620714 -27.96801758 88.52880859 C-27.97123224 86.37363157 -27.97459647 84.21845477 -27.97810364 82.0632782 C-27.9840803 77.55528253 -27.98594488 73.04730599 -27.98535156 68.53930664 C-27.98524965 62.7588395 -27.99893873 56.97849438 -28.01612377 51.19805622 C-28.02722811 46.75173882 -28.02927131 42.30545117 -28.02874184 37.85912132 C-28.0299229 35.72724166 -28.03435171 33.59536126 -28.0420742 31.46349525 C-28.05184888 28.48818938 -28.04900675 25.5131518 -28.04296875 22.5378418 C-28.04858826 21.65619858 -28.05420776 20.77455536 -28.05999756 19.86619568 C-28.05580307 19.0546402 -28.05160858 18.24308472 -28.04728699 17.40693665 C-28.04783175 16.70440419 -28.04837652 16.00187174 -28.0489378 15.27805042 C-27.75153832 12.90314274 -27.06525455 11.31602816 -25.80004883 9.29052734 C-24.14307504 8.6001216 -22.47447272 7.93746385 -20.80004883 7.29052734 C-19.83067383 6.46552734 -18.86129883 5.64052734 -17.86254883 4.79052734 C-12.27469684 0.22901551 -6.91104259 -0.00777308 0 0 Z M-24.80004883 10.29052734 C-24.80004883 13.29052734 -24.80004883 13.29052734 -24.80004883 13.29052734 Z " fill="#009314" transform="translate(27.800048828125,-0.29052734375)"/>
<path d="M0 0 C0.66 1.32 1.32 2.64 2 4 C27.08 4 52.16 4 78 4 C79 8 79 8 77.25 11.3125 C76.693125 12.20582031 76.693125 12.20582031 76.125 13.1171875 C74.42821857 15.95693976 73.24882568 18.94037708 72 22 C71.34 22 70.68 22 70 22 C70.52268466 19.23723823 71.10869587 16.6739124 72 14 C72 13.01 72 12.02 72 11 C47.91 11.33 23.82 11.66 -1 12 C-1 2 -1 2 0 0 Z " fill="#31CF3E" transform="translate(8,19)"/>
<path d="M0 0 C2.38036846 2.38036846 2.25069429 2.8515693 2.25396729 6.08590698 C2.25960693 6.94111938 2.26524658 7.79633179 2.27105713 8.67745972 C2.26700867 9.61776031 2.26296021 10.55806091 2.25878906 11.52685547 C2.2622937 12.51558655 2.26579834 13.50431763 2.26940918 14.52301025 C2.27824014 17.80447327 2.2723716 21.08572214 2.265625 24.3671875 C2.26697147 26.64161216 2.26891185 28.91603654 2.27142334 31.19046021 C2.27437663 35.96375257 2.27007115 40.73697021 2.26074219 45.51025391 C2.24936051 51.632781 2.25589776 57.75513251 2.26788712 63.87765312 C2.27511119 68.57705001 2.27281502 73.27640523 2.26763153 77.97580338 C2.26629588 80.23327785 2.26793978 82.49075609 2.27259064 84.74822617 C2.27766335 87.90370461 2.26993433 91.05889826 2.25878906 94.21435547 C2.26283752 95.1506076 2.26688599 96.08685974 2.27105713 97.05148315 C2.26541748 97.91233521 2.25977783 98.77318726 2.25396729 99.66012573 C2.25321323 100.406024 2.25245918 101.15192226 2.25168228 101.92042351 C1.95833181 104.34429194 1.29764602 105.93790132 0 108 C-1.65697379 108.69040574 -3.3255761 109.3530635 -5 110 C-5.969375 110.825 -6.93875 111.65 -7.9375 112.5 C-13.52535199 117.06151183 -18.88900624 117.29830042 -25.80004883 117.29052734 C-27.09641014 117.30060318 -27.09641014 117.30060318 -28.41896057 117.31088257 C-31.26504325 117.32981984 -34.11088955 117.33378467 -36.95703125 117.3359375 C-38.94471838 117.34236861 -40.93240456 117.34909721 -42.92008972 117.35610962 C-47.08354892 117.36807187 -51.24692522 117.37179154 -55.41040039 117.37060547 C-60.72984146 117.37040239 -66.0487476 117.39769761 -71.36806202 117.43214989 C-75.47318434 117.454453 -79.57817864 117.45844195 -83.68335533 117.45738602 C-85.64365163 117.4597371 -87.60395172 117.46853268 -89.564188 117.48405075 C-92.31375567 117.50377897 -95.06217912 117.49784602 -97.81176758 117.48583984 C-99.01144165 117.50269836 -99.01144165 117.50269836 -100.23535156 117.51989746 C-108.49373701 117.42885713 -114.76896277 114.31470823 -121 109 C-121.99 108.67 -122.98 108.34 -124 108 C-123 106 -123 106 -120 104 C-119.278125 104.928125 -118.55625 105.85625 -117.8125 106.8125 C-114.16479192 111.16919923 -110.60630564 113.14399023 -105 114 C-102.1720464 114.11573076 -99.36635301 114.1846155 -96.5378418 114.20532227 C-95.6983046 114.21522186 -94.8587674 114.22512146 -93.99378967 114.23532104 C-91.22896103 114.26681598 -88.46411522 114.29164585 -85.69921875 114.31640625 C-83.77821923 114.33698615 -81.85722412 114.3579829 -79.93623352 114.37937927 C-74.88764027 114.43449292 -69.83900687 114.48394932 -64.79034424 114.53222656 C-59.63558391 114.58251987 -54.48088165 114.63816503 -49.32617188 114.69335938 C-39.21749757 114.80080995 -29.10877277 114.90228388 -19 115 C-19 114.34 -19 113.68 -19 113 C-17.35 113.33 -15.7 113.66 -14 114 C-14 113.34 -14 112.68 -14 112 C-13.01 112 -12.02 112 -11 112 C-10.62875 111.13375 -10.62875 111.13375 -10.25 110.25 C-8.81700012 107.67060021 -7.21575324 105.93878408 -5 104 C-4.34 104 -3.68 104 -3 104 C-2.67 101.69 -2.34 99.38 -2 97 C-1.67 97 -1.34 97 -1 97 C-1.00222061 95.81427399 -1.00444122 94.62854797 -1.00672913 93.40689087 C-1.02696836 82.25267695 -1.04197593 71.09846675 -1.05181217 59.94423866 C-1.057039 54.20923728 -1.06413305 48.47425068 -1.07543945 42.73925781 C-1.08627539 37.20851877 -1.09227835 31.67779397 -1.09487724 26.14704514 C-1.09673021 24.03305207 -1.10034838 21.91905981 -1.10573006 19.80507278 C-1.11294983 16.85261578 -1.11399054 13.90021826 -1.11352539 10.94775391 C-1.11712067 10.0666243 -1.12071594 9.18549469 -1.12442017 8.27766418 C-1.11405216 2.22810432 -1.11405216 2.22810432 0 0 Z M-1 104 C-1 107 -1 107 -1 107 Z " fill="#009101" transform="translate(126,11)"/>
<path d="M0 0 C0.66 0.33 1.32 0.66 2 1 C2 2.32 2 3.64 2 5 C3.6437133 4.98120789 3.6437133 4.98120789 5.32063293 4.96203613 C15.63571632 4.8441289 25.95080173 4.72640061 36.26588917 4.60884857 C41.56926895 4.54840481 46.87264798 4.48789748 52.17602539 4.42724609 C57.29179913 4.36874253 62.40757472 4.31040436 67.52335167 4.25218201 C69.47742467 4.22991353 71.43149699 4.20758494 73.38556862 4.18519592 C76.11747691 4.1539049 78.84938754 4.12282548 81.58129883 4.09179688 C82.39337799 4.08244614 83.20545715 4.0730954 84.04214478 4.0634613 C89.59802606 4.00067598 93.73985027 4.12972454 99 6 C98.67 7.32 98.34 8.64 98 10 C97.01 9.67 96.02 9.34 95 9 C93.59081806 8.92284395 92.17812813 8.90208714 90.766922 8.91770935 C89.90455429 8.92474884 89.04218658 8.93178833 88.15368652 8.93904114 C87.21069702 8.95198715 86.26770752 8.96493317 85.29614258 8.97827148 C84.3008403 8.98787903 83.30553802 8.99748657 82.28007507 9.00738525 C78.98482262 9.04040976 75.6897013 9.0807291 72.39453125 9.12109375 C70.11195846 9.14539148 67.8293808 9.16923521 65.54679871 9.19264221 C59.5347031 9.25551759 53.52269364 9.32457454 47.51068115 9.39489746 C41.37760343 9.46554967 35.24446457 9.53038527 29.11132812 9.59570312 C17.07415155 9.72476 5.03705794 9.86034413 -7 10 C-5.55577364 5.07343343 -4.28641292 2.93280884 0 0 Z " fill="#6ADC76" transform="translate(18,8)"/>
<path d="M0 0 C11.6134926 -0.13915176 23.22678619 -0.24569839 34.84094334 -0.31087303 C40.23418736 -0.34215727 45.62686013 -0.38457764 51.01977539 -0.45263672 C56.22640009 -0.51793198 61.43247609 -0.55372792 66.63947868 -0.56926346 C68.62382582 -0.58033149 70.60814364 -0.60194541 72.59225655 -0.63438034 C75.37669371 -0.67807928 78.15887744 -0.68392857 80.94360352 -0.68115234 C81.76000305 -0.702724 82.57640259 -0.72429565 83.4175415 -0.746521 C88.92973852 -0.68723722 91.61559801 0.69183149 95.49417019 4.61379051 C97.06414483 6.24908601 97.06414483 6.24908601 100 7 C101.51708428 16.41002278 101.51708428 16.41002278 99 21 C98.34 20.67 97.68 20.34 97 20 C96.34 21.98 95.68 23.96 95 26 C93.515 25.505 93.515 25.505 92 25 C90.14325598 25.03586578 88.28724374 25.14747626 86.4375 25.3125 C85.46683594 25.39113281 84.49617188 25.46976563 83.49609375 25.55078125 C80.43444552 26.10178211 79.56321958 27.19513506 77.81640625 29.69140625 C76.98006908 30.93939847 76.14673382 32.18940762 75.31640625 33.44140625 C74 35 74 35 71 36 C72.48782847 29.71805757 76.26605661 25.11655923 80 20 C80.99 18.515 80.99 18.515 82 17 C84.6015625 16.70703125 84.6015625 16.70703125 87.625 16.8125 C89.12933594 16.85310547 89.12933594 16.85310547 90.6640625 16.89453125 C91.43492188 16.92933594 92.20578125 16.96414062 93 17 C92.35587546 11.41851464 92.35587546 11.41851464 88.96875 7.16796875 C83.01601328 3.19625642 78.54488499 1.85111111 71.4074707 1.79467773 C70.63650055 1.78477814 69.8655304 1.77487854 69.07119751 1.76467896 C66.52275667 1.73309044 63.97429718 1.708317 61.42578125 1.68359375 C59.6588645 1.66302194 57.89195264 1.6420254 56.12504578 1.62062073 C51.47427333 1.56542355 46.82345664 1.51600388 42.17260742 1.46777344 C37.42688051 1.41754124 32.68121786 1.36186414 27.93554688 1.30664062 C18.62375281 1.19908784 9.31190295 1.09763644 0 1 C0 0.67 0 0.34 0 0 Z " fill="#009A16" transform="translate(25,5)"/>
<path d="M0 0 C1 3.875 1 3.875 1 5 C1.91216278 5.01030746 2.82432556 5.02061493 3.76412964 5.03123474 C12.4410995 5.12999223 21.11801393 5.23260346 29.79488945 5.33933926 C34.2537008 5.39405744 38.71251898 5.44738405 43.17138672 5.49731445 C47.48976354 5.54572645 51.80807763 5.59807557 56.12637711 5.65294075 C57.75822472 5.67302298 59.39008926 5.69178316 61.02196884 5.70907402 C72.37268358 5.83054998 83.67104789 6.285316 95 7 C91.85342919 10.14657081 87.66382595 9.43124291 83.41015625 9.56640625 C79.25220352 9.62217952 79.25220352 9.62217952 76 12 C75.505 11.01 75.505 11.01 75 10 C49.59 10 24.18 10 -2 10 C-2 3 -2 3 0 0 Z " fill="#46D354" transform="translate(11,14)"/>
<path d="M0 0 C0.33 0 0.66 0 1 0 C1 2.31 1 4.62 1 7 C1.66 6.67 2.32 6.34 3 6 C5.38047502 5.90729226 7.7313628 5.87414468 10.11181641 5.88647461 C11.20953117 5.88625557 11.20953117 5.88625557 12.329422 5.8860321 C14.75349876 5.88672997 17.17749912 5.89451646 19.6015625 5.90234375 C21.28022215 5.90420838 22.95888234 5.90563207 24.63754272 5.90663147 C29.05987038 5.91045312 33.48216528 5.92028041 37.90447998 5.93133545 C42.41548215 5.94155714 46.92648959 5.94613072 51.4375 5.95117188 C60.29168107 5.96190298 69.14583781 5.97897519 78 6 C77.33686996 9.5427142 76.45338761 12.53622678 74.9375 15.8125 C74.57527344 16.60269531 74.21304688 17.39289062 73.83984375 18.20703125 C73.42412109 19.09455078 73.42412109 19.09455078 73 20 C72.34 20 71.68 20 71 20 C71.52268466 17.23723823 72.10869587 14.6739124 73 12 C73 11.01 73 10.02 73 9 C48.91 9.33 24.82 9.66 0 10 C0 6.7 0 3.4 0 0 Z " fill="#1EC92C" transform="translate(7,21)"/>
<path d="M0 0 C0.87066605 -0.00350464 1.74133209 -0.00700928 2.63838196 -0.01062012 C5.50371374 -0.01939109 8.36879676 -0.01360517 11.23413086 -0.00683594 C13.23140002 -0.0081838 15.22866885 -0.01012534 17.22593689 -0.01263428 C21.40619031 -0.01557916 25.58635811 -0.01130786 29.76660156 -0.00195312 C35.12215765 0.00944839 40.47751341 0.00287344 45.83306217 -0.00909805 C49.95516975 -0.01632749 54.0772299 -0.01402386 58.19933891 -0.00884247 C60.17408713 -0.00750936 62.14883967 -0.00914183 64.12358284 -0.01380157 C66.88328582 -0.01888537 69.64266487 -0.01113077 72.40234375 0 C73.62358948 -0.00607269 73.62358948 -0.00607269 74.86950684 -0.01226807 C79.06217413 0.0190303 82.36743158 0.36121503 86.13647461 2.25878906 C86.13647461 2.91878906 86.13647461 3.57878906 86.13647461 4.25878906 C85.49168655 4.09802383 84.8468985 3.93725861 84.18257141 3.7716217 C80.25209273 3.10989692 76.37289173 3.08155683 72.39892578 3.0534668 C71.53012787 3.0435672 70.66132996 3.0336676 69.76620483 3.02346802 C66.90397842 2.99196396 64.04173542 2.96713956 61.17944336 2.94238281 C59.19118323 2.9218037 57.20292739 2.90080698 55.2146759 2.87940979 C49.9885302 2.82428798 44.76234567 2.77483515 39.53613281 2.7265625 C34.20040441 2.67627518 28.86473221 2.62062689 23.52905273 2.56542969 C13.06490808 2.45796912 2.60071455 2.35649737 -7.86352539 2.25878906 C-7.86352539 2.91878906 -7.86352539 3.57878906 -7.86352539 4.25878906 C-9.03915039 4.60941406 -10.21477539 4.96003906 -11.42602539 5.32128906 C-15.7622986 6.91279359 -18.2865932 9.31944023 -21.32055664 12.73535156 C-22.86352539 14.25878906 -22.86352539 14.25878906 -25.86352539 15.25878906 C-26.52352539 14.59878906 -27.18352539 13.93878906 -27.86352539 13.25878906 C-27.17602539 11.38378906 -27.17602539 11.38378906 -25.86352539 9.25878906 C-24.2065516 8.56838332 -22.53794929 7.90572557 -20.86352539 7.25878906 C-19.89415039 6.43378906 -18.92477539 5.60878906 -17.92602539 4.75878906 C-12.31077109 0.174908 -6.94166604 -0.03460374 0 0 Z M-24.86352539 10.25878906 C-24.86352539 13.25878906 -24.86352539 13.25878906 -24.86352539 13.25878906 Z " fill="#008114" transform="translate(27.863525390625,-0.2587890625)"/>
<path d="M0 0 C0.66 0.33 1.32 0.66 2 1 C2 2.32 2 3.64 2 5 C3.6437133 4.98120789 3.6437133 4.98120789 5.32063293 4.96203613 C15.63571632 4.8441289 25.95080173 4.72640061 36.26588917 4.60884857 C41.56926895 4.54840481 46.87264798 4.48789748 52.17602539 4.42724609 C57.29179913 4.36874253 62.40757472 4.31040436 67.52335167 4.25218201 C69.47742467 4.22991353 71.43149699 4.20758494 73.38556862 4.18519592 C76.11747691 4.1539049 78.84938754 4.12282548 81.58129883 4.09179688 C82.39337799 4.08244614 83.20545715 4.0730954 84.04214478 4.0634613 C87.02828714 4.02971582 90.01363862 4 93 4 C93.99 4.99 93.99 4.99 95 6 C93.06775535 7.93224465 90.16389611 7.12018438 87.59291077 7.12442017 C86.67078293 7.12082489 85.74865509 7.11722961 84.79858398 7.11352539 C83.34995972 7.11374443 83.34995972 7.11374443 81.87207031 7.1139679 C78.66338901 7.11326834 75.45476497 7.10547397 72.24609375 7.09765625 C70.02791882 7.09579222 67.80974348 7.09436825 65.59156799 7.09336853 C59.74059929 7.08954216 53.88965523 7.07971086 48.03869629 7.06866455 C42.07332696 7.05845299 36.10795367 7.05387146 30.14257812 7.04882812 C18.42837456 7.03808869 6.71418933 7.02101085 -5 7 C-4.2578125 3.21875 -4.2578125 3.21875 -1.9375 1.25 C-1.298125 0.8375 -0.65875 0.425 0 0 Z " fill="#77DF83" transform="translate(18,8)"/>
<path d="M0 0 C0.33 0 0.66 0 1 0 C1 1.98 1 3.96 1 6 C-2.63 6 -6.26 6 -10 6 C-10.33 6.99 -10.66 7.98 -11 9 C-16.61 8.67 -22.22 8.34 -28 8 C-28 7.67 -28 7.34 -28 7 C-23.05 6.67 -18.1 6.34 -13 6 C-24.4828023 5.19494325 -35.89823654 4.80305976 -47.40625 4.68359375 C-49.10974549 4.66295289 -50.81323669 4.64195498 -52.51672363 4.62062073 C-56.94208233 4.56613451 -61.36748138 4.51641002 -65.79290771 4.46777344 C-70.33202592 4.41701244 -74.87108747 4.36161513 -79.41015625 4.30664062 C-88.27338923 4.19996137 -97.13667044 4.09832666 -106 4 C-105.67 3.34 -105.34 2.68 -105 2 C-70.35 2 -35.7 2 0 2 C0 1.34 0 0.68 0 0 Z " fill="#54D760" transform="translate(117,16)"/>
<path d="M0 0 C2.04795423 1.9626228 2.94976638 3.4277307 3.19921875 6.26953125 C3.18858877 8.51954383 3.12958525 10.75385562 3 13 C2.01 13 1.02 13 0 13 C-2.02195052 13.1053966 -4.04281362 13.23266487 -6.0625 13.375 C-7.12597656 13.44460937 -8.18945312 13.51421875 -9.28515625 13.5859375 C-12.14236824 13.74742847 -12.14236824 13.74742847 -14 16 C-15.2565763 17.79570144 -16.47226501 19.61491996 -17.68359375 21.44140625 C-19 23 -19 23 -22 24 C-20.51217153 17.71805757 -16.73394339 13.11655923 -13 8 C-12.34 7.01 -11.68 6.02 -11 5 C-8.3984375 4.70703125 -8.3984375 4.70703125 -5.375 4.8125 C-3.87066406 4.85310547 -3.87066406 4.85310547 -2.3359375 4.89453125 C-1.56507812 4.92933594 -0.79421875 4.96414062 0 5 C0 3.35 0 1.7 0 0 Z " fill="#20C92C" transform="translate(118,17)"/>
<path d="M0 0 C0.33 0 0.66 0 1 0 C1.33 27.72 1.66 55.44 2 84 C2.33 84 2.66 84 3 84 C3 86.64 3 89.28 3 92 C1.515 92.495 1.515 92.495 0 93 C-1.23098795 86.29496636 -1.14409915 79.65258337 -1.1328125 72.8515625 C-1.13376923 71.56680023 -1.13472595 70.28203796 -1.13571167 68.95834351 C-1.13718307 66.23328449 -1.13505835 63.5082583 -1.13037109 60.78320312 C-1.1247754 57.37153027 -1.12797879 53.95993722 -1.13382339 50.54826736 C-1.15813741 33.67578423 -0.8441219 16.85232149 0 0 Z " fill="#008E02" transform="translate(1,24)"/>
<path d="M0 0 C-0.99 0.66 -1.98 1.32 -3 2 C-10.60002415 7.17951127 -10.60002415 7.17951127 -15 15 C-15.28769375 17.32152874 -15.49686009 19.61174973 -15.59375 21.94921875 C-16.09348228 24.47190573 -17.06006325 25.37478703 -19 27 C-20.06064488 13.12743842 -20.06064488 13.12743842 -17.65234375 8.296875 C-15.89200706 6.26958616 -14.12537103 4.63589164 -12 3 C-10.989375 2.154375 -9.97875 1.30875 -8.9375 0.4375 C-5.42941248 -1.27922368 -3.69980714 -1.05708776 0 0 Z " fill="#03AD18" transform="translate(23,6)"/>
<path d="M0 0 C11.03077094 -0.06944194 22.06149007 -0.12278172 33.09243488 -0.15543652 C38.21428956 -0.17110742 43.33599493 -0.19237168 48.45776367 -0.22631836 C53.39848998 -0.258861 58.33907249 -0.27684228 63.27989769 -0.28463173 C65.16700696 -0.29018441 67.05410817 -0.30102716 68.94115639 -0.31719017 C71.57984184 -0.33889682 74.21792941 -0.34196978 76.85668945 -0.34057617 C77.6407164 -0.351362 78.42474335 -0.36214783 79.23252869 -0.3732605 C84.54732341 -0.34279011 84.54732341 -0.34279011 87.00895691 1.52128601 C87.49952324 2.25324944 87.49952324 2.25324944 88 3 C87.67 3.99 87.34 4.98 87 6 C86.51717056 5.71758327 86.03434113 5.43516655 85.53688049 5.14419174 C80.60967474 2.44566813 76.4818123 1.41412506 70.83984375 1.45410156 C70.06814346 1.44376389 69.29644318 1.43342621 68.50135803 1.42277527 C65.97985392 1.39354867 63.45915951 1.39185244 60.9375 1.390625 C59.17771899 1.37562966 57.41795199 1.35889968 55.65820312 1.34051514 C51.04855675 1.29698115 46.43910019 1.27687361 41.82928467 1.26177979 C37.11654502 1.2421582 32.40400885 1.20019396 27.69140625 1.16015625 C18.46100048 1.08500544 9.23064059 1.03462255 0 1 C0 0.67 0 0.34 0 0 Z " fill="#19AF2B" transform="translate(25,5)"/>
<path d="M0 0 C2 2 2 2 2.1953125 3.9453125 C2.13020833 5.96354167 2.06510417 7.98177083 2 10 C-2.62 10 -7.24 10 -12 10 C-12.33 10.66 -12.66 11.32 -13 12 C-13.66 12 -14.32 12 -15 12 C-13.79618552 9.50638429 -12.54571278 7.31856917 -11 5 C-8.3984375 4.70703125 -8.3984375 4.70703125 -5.375 4.8125 C-3.87066406 4.85310547 -3.87066406 4.85310547 -2.3359375 4.89453125 C-1.56507812 4.92933594 -0.79421875 4.96414062 0 5 C0 3.35 0 1.7 0 0 Z " fill="#34CF42" transform="translate(118,17)"/>
<path d="M0 0 C1.49080078 0.02707031 1.49080078 0.02707031 3.01171875 0.0546875 C3.77097656 0.07789062 4.53023437 0.10109375 5.3125 0.125 C5.3125 0.785 5.3125 1.445 5.3125 2.125 C1.6825 2.125 -1.9475 2.125 -5.6875 2.125 C-6.0175 3.115 -6.3475 4.105 -6.6875 5.125 C-12.2975 4.795 -17.9075 4.465 -23.6875 4.125 C-23.6875 3.795 -23.6875 3.465 -23.6875 3.125 C-22.63949219 3.07601563 -21.59148437 3.02703125 -20.51171875 2.9765625 C-19.13278646 2.90151857 -17.7538815 2.82597143 -16.375 2.75 C-15.68470703 2.7190625 -14.99441406 2.688125 -14.28320312 2.65625 C-8.88631357 2.34338684 -5.43875388 -0.12797068 0 0 Z " fill="#64C86D" transform="translate(112.6875,19.875)"/>
<path d="M0 0 C3.375 0.3125 3.375 0.3125 7 1 C9.29013653 4.4352048 9.17842973 5.985331 9 10 C8.34 10 7.68 10 7 10 C6.401875 8.906875 5.80375 7.81375 5.1875 6.6875 C3.70955303 4.08925871 2.30177067 1.95650507 0 0 Z " fill="#07AE1C" transform="translate(113,11)"/>
<path d="M0 0 C0.671875 1.7109375 0.671875 1.7109375 1 4 C-0.109375 6.2890625 -0.109375 6.2890625 -1.75 8.625 C-2.28109375 9.40101562 -2.8121875 10.17703125 -3.359375 10.9765625 C-5 13 -5 13 -8 15 C-6.62712658 11.30123909 -4.93644547 8.0485524 -2.875 4.6875 C-2.33617188 3.80449219 -1.79734375 2.92148438 -1.2421875 2.01171875 C-0.83226563 1.34785156 -0.42234375 0.68398438 0 0 Z " fill="#37C837" transform="translate(82,62)"/>
<path d="M0 0 C3.39417765 3.12621626 5.6062718 5.56541027 7 10 C6.52949219 9.65066406 6.05898437 9.30132812 5.57421875 8.94140625 C4.95160156 8.48636719 4.32898438 8.03132813 3.6875 7.5625 C3.07261719 7.11003906 2.45773438 6.65757813 1.82421875 6.19140625 C-0.09677101 4.82663692 -0.09677101 4.82663692 -3 4 C-2 2 -2 2 0 0 Z " fill="#007D00" transform="translate(5,115)"/>
<path d="M0 0 C7.50769231 -0.36923077 7.50769231 -0.36923077 10 1.5 C10.495 2.2425 10.495 2.2425 11 3 C10.67 3.99 10.34 4.98 10 6 C6.7 4.35 3.4 2.7 0 1 C0 0.67 0 0.34 0 0 Z " fill="#0FAB22" transform="translate(102,5)"/>
<path d="M0 0 C0.5703125 1.87890625 0.5703125 1.87890625 1 4 C-1.03786928 7.50966376 -4.10633787 10.18454495 -7 13 C-5.35821735 8.22390502 -2.73453298 4.20617096 0 0 Z " fill="#38C538" transform="translate(69,84)"/>
<path d="M0 0 C0.33 0.66 0.66 1.32 1 2 C0.22265625 3.9453125 0.22265625 3.9453125 -0.9375 6.125 C-1.31777344 6.84945313 -1.69804688 7.57390625 -2.08984375 8.3203125 C-2.39019531 8.87460937 -2.69054687 9.42890625 -3 10 C-3.33 10 -3.66 10 -4 10 C-4.25 7.25 -4.25 7.25 -4 4 C-2 1.625 -2 1.625 0 0 Z " fill="#00A517" transform="translate(8,13)"/>
<path d="M0 0 C4.29 0.33 8.58 0.66 13 1 C13 1.33 13 1.66 13 2 C12.24074219 2.06058594 11.48148438 2.12117188 10.69921875 2.18359375 C9.70535156 2.26738281 8.71148437 2.35117187 7.6875 2.4375 C6.20830078 2.55931641 6.20830078 2.55931641 4.69921875 2.68359375 C1.90624401 2.91812559 1.90624401 2.91812559 -1 4 C-0.67 2.68 -0.34 1.36 0 0 Z " fill="#13C822" transform="translate(104,28)"/>
<path d="M0 0 C0.66 0 1.32 0 2 0 C1.50168276 3.68754757 0.89932357 5.60490662 -2 8 C-2.20086443 4.28400809 -2.1519437 3.22791555 0 0 Z " fill="#10BF13" transform="translate(76,40)"/>
<path d="M0 0 C0 0.99 0 1.98 0 3 C-0.66 2.67 -1.32 2.34 -2 2 C-1.34 1.34 -0.68 0.68 0 0 Z " fill="#005D00" transform="translate(122,120)"/>
<path d="M0 0 C0.99 0.99 1.98 1.98 3 3 C2.01 2.67 1.02 2.34 0 2 C0 1.34 0 0.68 0 0 Z " fill="#005D00" transform="translate(5,120)"/>
<path d="M0 0 C0.66 0.33 1.32 0.66 2 1 C1.01 1.66 0.02 2.32 -1 3 C-0.67 2.01 -0.34 1.02 0 0 Z " fill="#005D00" transform="translate(6,5)"/>
<path d="M0 0 C0.99 0.33 1.98 0.66 3 1 C2.67 1.66 2.34 2.32 2 3 C1.34 2.01 0.68 1.02 0 0 Z " fill="#005D00" transform="translate(120,5)"/>
<path d="M0 0 C3 1 3 1 3 1 Z " fill="#00C600" transform="translate(112,127)"/>
<path d="M0 0 C3 1 3 1 3 1 Z " fill="#00C600" transform="translate(13,127)"/>
<path d="M0 0 C3 1 3 1 3 1 Z " fill="#00AA00" transform="translate(112,0)"/>
<path d="M0 0 C3 1 3 1 3 1 Z " fill="#00AA00" transform="translate(13,0)"/>
<path d="M0 0 C2 1 2 1 2 1 Z " fill="#007F00" transform="translate(115,126)"/>
<path d="M0 0 C2 1 2 1 2 1 Z " fill="#007F00" transform="translate(11,126)"/>
<path d="M0 0 C2 1 2 1 2 1 Z " fill="#003F00" transform="translate(117,125)"/>
<path d="M0 0 C2 1 2 1 2 1 Z " fill="#003F00" transform="translate(9,125)"/>
<path d="M0 0 C2 1 2 1 2 1 Z " fill="#003F00" transform="translate(117,2)"/>
<path d="M0 0 C2 1 2 1 2 1 Z " fill="#003F00" transform="translate(9,2)"/>
<path d="M0 0 C2 1 2 1 2 1 Z " fill="#007F00" transform="translate(115,1)"/>
<path d="M0 0 C2 1 2 1 2 1 Z " fill="#007F00" transform="translate(11,1)"/>
<path d="" fill="#00AA00" transform="translate(0,0)"/>
<path d="" fill="#00AA00" transform="translate(0,0)"/>
<path d="" fill="#00AA00" transform="translate(0,0)"/>
<path d="" fill="#00AA00" transform="translate(0,0)"/>
</svg>
