<?xml version="1.0" encoding="UTF-8"?>
<svg version="1.1" xmlns="http://www.w3.org/2000/svg" width="128" height="128">
<path d="M0 0 C2.47960136 0.14024219 4.95852402 0.2869185 7.4375 0.4375 C8.14455078 0.47681641 8.85160156 0.51613281 9.58007812 0.55664062 C14.88671875 0.88671875 14.88671875 0.88671875 16 2 C16.07205511 3.68608966 16.08386068 5.37500659 16.0625 7.0625 C16.05347656 7.98160156 16.04445313 8.90070312 16.03515625 9.84765625 C16.02355469 10.55792969 16.01195313 11.26820312 16 12 C16.62648438 11.96519531 17.25296875 11.93039062 17.8984375 11.89453125 C18.71570313 11.86746094 19.53296875 11.84039062 20.375 11.8125 C21.59316406 11.76029297 21.59316406 11.76029297 22.8359375 11.70703125 C23.55007812 11.80371094 24.26421875 11.90039062 25 12 C31.73289155 22.09933732 27.35542415 40.62571853 26 52 C25.67 52 25.34 52 25 52 C25 48.04 25 44.08 25 40 C23.67528651 43.97414046 23.98371581 47.73882986 24.0625 51.875 C24.18231691 62.67849119 23.20613203 73.27404014 22 84 C21.67 84 21.34 84 21 84 C21 80.04 21 76.08 21 72 C19.54577944 76.36266169 19.99493953 80.73473473 20.12695312 85.28320312 C20.15670448 87.1890397 20.0849523 89.0958253 20 91 C19.34 91.66 18.68 92.32 18 93 C17.34 93 16.68 93 16 93 C15.34 93.66 14.68 94.32 14 95 C12.31238142 95.60311615 10.59985524 96.13850237 8.875 96.625 C7.50988281 97.01558594 7.50988281 97.01558594 6.1171875 97.4140625 C5.06917969 97.70410156 5.06917969 97.70410156 4 98 C4 98.66 4 99.32 4 100 C3.34773438 99.97679688 2.69546875 99.95359375 2.0234375 99.9296875 C-3.08698903 99.82416247 -7.20425033 99.98073698 -12 102 C-12 102.66 -12 103.32 -12 104 C-13.27875 103.896875 -14.5575 103.79375 -15.875 103.6875 C-21.63966849 103.69552879 -26.78017161 105.16932084 -32.25048828 106.79296875 C-40.46510177 109.20952512 -48.78569176 111.08011039 -57.140625 112.94384766 C-62.18776503 114.07930103 -67.13572576 115.20566107 -72 117 C-71.505 117.99 -71.505 117.99 -71 119 C-72.72888555 119.16955795 -74.45812443 119.33551514 -76.1875 119.5 C-77.15042969 119.5928125 -78.11335938 119.685625 -79.10546875 119.78125 C-81.75187667 119.98124844 -84.34760865 120.03879183 -87 120 C-87.33 119.01 -87.66 118.02 -88 117 C-88.99 117.495 -88.99 117.495 -90 118 C-90.12375 116.906875 -90.2475 115.81375 -90.375 114.6875 C-90.75464801 110.92618198 -90.75464801 110.92618198 -93 108 C-93.19006328 104.98966177 -93.26247571 102.07258516 -93.24291992 99.06225586 C-93.24481827 98.14819473 -93.24671661 97.23413361 -93.24867249 96.29237366 C-93.25238178 93.26644353 -93.24167442 90.2407526 -93.23046875 87.21484375 C-93.229277 85.11641976 -93.22882378 83.01799523 -93.2290802 80.91957092 C-93.2275151 76.52048405 -93.21922289 72.12147852 -93.20581055 67.72241211 C-93.18881026 62.07393931 -93.18499649 56.42555589 -93.18575573 50.77706051 C-93.18548427 46.44404746 -93.18000708 42.11105408 -93.17275429 37.77804756 C-93.16956472 35.69476025 -93.16759954 33.6114707 -93.16686058 31.52818108 C-93.16470067 28.62153167 -93.15596426 25.71497847 -93.14526367 22.80834961 C-93.14571686 21.94128387 -93.14617004 21.07421814 -93.14663696 20.18087769 C-93.11447754 14.22895509 -93.11447754 14.22895509 -92 12 C-89.9375 11.375 -89.9375 11.375 -88 11 C-88.33 10.34 -88.66 9.68 -89 9 C-84.78541501 8.18366147 -80.91118152 7.94315112 -76.625 8.0625 C-72.13758632 8.09803382 -68.31529872 7.84728715 -64.02734375 6.578125 C-57.46153117 4.70579309 -50.81730362 3.69700873 -44 4 C-44 4.99 -44 5.98 -44 7 C-43.34 6.34 -42.68 5.68 -42 5 C-41.505 6.485 -41.505 6.485 -41 8 C-38.70839681 8.02692484 -36.41670454 8.04636124 -34.125 8.0625 C-32.21074219 8.07990234 -32.21074219 8.07990234 -30.2578125 8.09765625 C-27.11335348 8.23176569 -27.11335348 8.23176569 -25 7 C-25.495 6.01 -25.495 6.01 -26 5 C-21.78541501 4.18366147 -17.91118152 3.94315112 -13.625 4.0625 C-8.34432669 4.11693993 -4.02511691 3.57650726 1 2 C0.505 1.01 0.505 1.01 0 0 Z M14 3 C14 5.97 14 8.94 14 12 C14.33 12 14.66 12 15 12 C15 9.03 15 6.06 15 3 C14.67 3 14.34 3 14 3 Z M-19 5 C-19 5.33 -19 5.66 -19 6 C-17.02 6 -15.04 6 -13 6 C-13 5.67 -13 5.34 -13 5 C-14.98 5 -16.96 5 -19 5 Z M-82 9 C-82 9.33 -82 9.66 -82 10 C-80.02 10 -78.04 10 -76 10 C-76 9.67 -76 9.34 -76 9 C-77.98 9 -79.96 9 -82 9 Z M-38 9 C-38 9.33 -38 9.66 -38 10 C-36.02 10 -34.04 10 -32 10 C-32 9.67 -32 9.34 -32 9 C-33.98 9 -35.96 9 -38 9 Z M-44 10 C-44 10.33 -44 10.66 -44 11 C-42.02 11 -40.04 11 -38 11 C-38 10.67 -38 10.34 -38 10 C-39.98 10 -41.96 10 -44 10 Z M14 13 C14 13.33 14 13.66 14 14 C15.65 14 17.3 14 19 14 C19 13.67 19 13.34 19 13 C17.35 13 15.7 13 14 13 Z M26 27 C27 29 27 29 27 29 Z M22 52 C22 55.3 22 58.6 22 62 C22.33 62 22.66 62 23 62 C23 58.7 23 55.4 23 52 C22.67 52 22.34 52 22 52 Z M18 83 C18 84.98 18 86.96 18 89 C18.33 89 18.66 89 19 89 C19 87.02 19 85.04 19 83 C18.67 83 18.34 83 18 83 Z M-81 118 C-77 119 -77 119 -77 119 Z " fill="#AAB1B7" transform="translate(96,4)"/>
<path d="M0 0 C0.07127804 4.27668213 0.09436179 7.86490287 -1 12 C-1.87325928 12.176521 -2.74651855 12.35304199 -3.64624023 12.53491211 C-6.87652702 13.18975526 -10.10608501 13.84798266 -13.33520508 14.50854492 C-14.73466618 14.79409284 -16.13440628 15.07827685 -17.53442383 15.36108398 C-19.54322499 15.7671107 -21.55098162 16.1779835 -23.55859375 16.58984375 C-24.76829834 16.83597412 -25.97800293 17.08210449 -27.22436523 17.33569336 C-29.8928785 17.71851247 -29.8928785 17.71851247 -31 19 C-33.45638423 19.47847683 -35.90605142 19.90893238 -38.375 20.3125 C-45.85556689 21.57241037 -53.26389062 23.06822075 -60.66552734 24.72973633 C-64.51474371 25.57229159 -68.03062371 26.23022383 -72 26 C-72 26.66 -72 27.32 -72 28 C-73.13179687 28.26554687 -74.26359375 28.53109375 -75.4296875 28.8046875 C-76.91154832 29.1610844 -78.3933143 29.51787576 -79.875 29.875 C-80.62136719 30.04902344 -81.36773437 30.22304688 -82.13671875 30.40234375 C-86.48883671 31.38923879 -86.48883671 31.38923879 -90 34 C-90.4353542 37.08638939 -90.4353542 37.08638939 -90.5625 40.74609375 C-90.59868439 41.42446289 -90.63486877 42.10283203 -90.67214966 42.80175781 C-90.74921948 44.25719421 -90.82225117 45.71284892 -90.8916626 47.16867065 C-91.07256851 50.95724822 -91.2814607 54.74422998 -91.4921875 58.53125 C-91.53310516 59.27451035 -91.57402283 60.01777069 -91.61618042 60.78355408 C-91.93468765 66.3601516 -92.44994468 71.89235948 -93.125 77.4375 C-93.84837973 83.62888147 -94.23655154 89.76537858 -94.3125 96 C-94.33006348 96.76111084 -94.34762695 97.52222168 -94.36572266 98.30639648 C-94.36238848 101.21679558 -94.27803772 103.48736794 -92.875 106.07421875 C-89.90716612 107.53958673 -87.82555274 106.6413513 -84.6875 105.8125 C-83.57761719 105.53019531 -82.46773437 105.24789062 -81.32421875 104.95703125 C-79.27747483 104.36778065 -77.24178627 103.73585502 -75.23046875 103.03515625 C-70.75759406 101.60188927 -66.20963249 100.63341391 -61.625 99.625 C-53.47207912 97.81241162 -45.37959704 95.86126912 -37.3125 93.69921875 C-34.09864216 93.02082187 -31.2726049 92.86530437 -28 93 C-28 92.34 -28 91.68 -28 91 C-26.91460937 90.80664062 -25.82921875 90.61328125 -24.7109375 90.4140625 C-23.26558332 90.15127083 -21.82027312 89.88823714 -20.375 89.625 C-19.66214844 89.49867187 -18.94929688 89.37234375 -18.21484375 89.2421875 C-13.99722347 88.46831222 -10.0499577 87.44641346 -6 86 C-4.39125 85.5359375 -4.39125 85.5359375 -2.75 85.0625 C0.28798821 84.19225755 0.28798821 84.19225755 2 81 C2 82.98 2 84.96 2 87 C-1.59380653 89.08878603 -5.35201808 89.85345601 -9.375 90.6875 C-10.98473425 91.033489 -12.59408042 91.38128643 -14.203125 91.73046875 C-15.10869141 91.92688965 -16.01425781 92.12331055 -16.94726562 92.32568359 C-23.0180496 93.66665491 -29.07100907 95.08548211 -35.125 96.5 C-35.78090118 96.65307617 -36.43680237 96.80615234 -37.11257935 96.96386719 C-45.55505111 98.93589226 -53.97973097 100.96080152 -62.3828125 103.09375 C-66.64284341 104.16105796 -70.91279019 105.18085569 -75.1875 106.1875 C-76.24964722 106.43826294 -76.24964722 106.43826294 -77.33325195 106.6940918 C-80.87806701 107.5247674 -84.42451263 108.3126733 -88 109 C-88 109.66 -88 110.32 -88 111 C-86.515 111.495 -86.515 111.495 -85 112 C-85 112.99 -85 113.98 -85 115 C-86.72888555 115.16955795 -88.45812443 115.33551514 -90.1875 115.5 C-91.15042969 115.5928125 -92.11335938 115.685625 -93.10546875 115.78125 C-95.75187667 115.98124844 -98.34760865 116.03879183 -101 116 C-101.33 115.01 -101.66 114.02 -102 113 C-102.99 113.495 -102.99 113.495 -104 114 C-104.12375 112.906875 -104.2475 111.81375 -104.375 110.6875 C-104.75464801 106.92618198 -104.75464801 106.92618198 -107 104 C-107.19006328 100.98966177 -107.26247571 98.07258516 -107.24291992 95.06225586 C-107.24481827 94.14819473 -107.24671661 93.23413361 -107.24867249 92.29237366 C-107.25238178 89.26644353 -107.24167442 86.2407526 -107.23046875 83.21484375 C-107.229277 81.11641976 -107.22882378 79.01799523 -107.2290802 76.91957092 C-107.2275151 72.52048405 -107.21922289 68.12147852 -107.20581055 63.72241211 C-107.18881026 58.07393931 -107.18499649 52.42555589 -107.18575573 46.77706051 C-107.18548427 42.44404746 -107.18000708 38.11105408 -107.17275429 33.77804756 C-107.16956472 31.69476025 -107.16759954 29.6114707 -107.16686058 27.52818108 C-107.16470067 24.62153167 -107.15596426 21.71497847 -107.14526367 18.80834961 C-107.14571686 17.94128387 -107.14617004 17.07421814 -107.14663696 16.18087769 C-107.11447754 10.22895509 -107.11447754 10.22895509 -106 8 C-105.34 8 -104.68 8 -104 8 C-104 23.18 -104 38.36 -104 54 C-102.44163465 46.20817325 -101.6829116 39.50062453 -101.87304688 31.70507812 C-101.77518703 25.94998705 -101.77518703 25.94998705 -99.73974609 23.45556641 C-97.8997418 22.0417138 -96.08564161 21.0177055 -94 20 C-93.27675537 19.64462158 -92.55351074 19.28924316 -91.80834961 18.9230957 C-84.7694771 15.8243628 -77.38824532 14.36246089 -69.875 12.875 C-67.95699585 12.48489746 -67.95699585 12.48489746 -66.00024414 12.08691406 C-57.97926406 10.48892679 -50.01436971 9.17109207 -41.87109375 8.421875 C-39.05800757 8.00852356 -37.49786808 7.26073871 -35 6 C-32.49662895 5.4615497 -30.02216799 4.98559063 -27.5 4.5625 C-22.41228752 3.66984772 -17.43191011 2.65107768 -12.4375 1.3125 C-8.11791163 0.18103893 -4.44928823 -0.30336056 0 0 Z M-95 114 C-91 115 -91 115 -91 115 Z " fill="#828E98" transform="translate(110,8)"/>
<path d="M0 0 C1.21236328 0.01353516 1.21236328 0.01353516 2.44921875 0.02734375 C3.37154297 0.04474609 3.37154297 0.04474609 4.3125 0.0625 C4.3125 2.3725 4.3125 4.6825 4.3125 7.0625 C3.46953369 7.239021 2.62656738 7.41554199 1.75805664 7.59741211 C-1.36042304 8.25229069 -4.47817168 8.91051579 -7.59545898 9.57104492 C-8.94641097 9.85657634 -10.29764844 10.14076047 -11.64916992 10.42358398 C-13.58846856 10.82964908 -15.52667557 11.24091675 -17.46484375 11.65234375 C-18.63265381 11.89847412 -19.80046387 12.14460449 -21.00366211 12.39819336 C-23.59045918 12.79329382 -23.59045918 12.79329382 -24.6875 14.0625 C-27.14388423 14.54097683 -29.59355142 14.97143238 -32.0625 15.375 C-39.54306689 16.63491037 -46.95139062 18.13072075 -54.35302734 19.79223633 C-58.20224371 20.63479159 -61.71812371 21.29272383 -65.6875 21.0625 C-65.6875 21.7225 -65.6875 22.3825 -65.6875 23.0625 C-66.81929687 23.32804687 -67.95109375 23.59359375 -69.1171875 23.8671875 C-70.59904832 24.2235844 -72.0808143 24.58037576 -73.5625 24.9375 C-74.30886719 25.11152344 -75.05523437 25.28554688 -75.82421875 25.46484375 C-80.17633671 26.45173879 -80.17633671 26.45173879 -83.6875 29.0625 C-84.1228542 32.14888939 -84.1228542 32.14888939 -84.25 35.80859375 C-84.28613907 36.48705353 -84.32227814 37.16551331 -84.35951233 37.86453247 C-84.43650688 39.32006211 -84.50949411 40.77580816 -84.57888794 42.23171997 C-84.76016586 46.01757102 -84.9716289 49.80169865 -85.18359375 53.5859375 C-85.22471786 54.32878494 -85.26584198 55.07163239 -85.30821228 55.83699036 C-85.67074521 62.19219036 -86.26678438 68.50256671 -87.0078125 74.82446289 C-87.73722615 81.12216828 -88.08365067 87.40876884 -88.34375 93.7421875 C-88.67095543 96.9026945 -89.34039126 99.20532581 -90.6875 102.0625 C-93.1640625 101.11328125 -93.1640625 101.11328125 -95.6875 99.0625 C-96.10235152 95.92634636 -96.20682197 93.36856991 -96.0625 90.25 C-96.04034424 89.39341797 -96.01818848 88.53683594 -95.99536133 87.65429688 C-95.9203037 85.12175299 -95.8086973 82.59320271 -95.6875 80.0625 C-95.64238281 78.84175781 -95.59726563 77.62101562 -95.55078125 76.36328125 C-95.07419566 67.41406298 -93.62986802 58.64415608 -92.13769531 49.82080078 C-91.63959763 46.76900705 -91.18936448 43.71199969 -90.7421875 40.65234375 C-90.41168988 38.47652732 -90.08096356 36.30074561 -89.75 34.125 C-89.60457764 33.08811035 -89.45915527 32.0512207 -89.30932617 30.98291016 C-88.17721875 23.7544252 -88.17721875 23.7544252 -85.87109375 20.49609375 C-81.90074651 17.8894436 -78.09060291 16.82441159 -73.4375 16.0625 C-69.24097095 15.34341604 -65.09950383 14.51270105 -60.94921875 13.56640625 C-56.87685659 12.6590924 -52.78079003 11.86895946 -48.6875 11.0625 C-47.81351563 10.8871875 -46.93953125 10.711875 -46.0390625 10.53125 C-44.46579514 10.21764189 -42.89017479 9.9156243 -41.3125 9.625 C-36.96373451 8.69312168 -32.74599246 7.44355729 -28.5625 5.9375 C-25.6995207 5.06615848 -23.64859394 5.0625 -20.6875 5.0625 C-16.28120899 3.94089865 -11.98973822 2.52917212 -7.6875 1.0625 C-4.80538698 0.10179566 -2.98899956 -0.04331883 0 0 Z " fill="#576672" transform="translate(103.6875,12.9375)"/>
<path d="M0 0 C0.28571429 8.57142857 0.28571429 8.57142857 -2 12 C-2 9.69 -2 7.38 -2 5 C-7.62113335 5.44612169 -12.37090247 6.33460089 -17.6640625 8.23828125 C-20.97026527 9.31639085 -24.3221308 9.94319309 -27.73828125 10.5703125 C-29.15894152 10.84021341 -30.57399402 11.14406569 -31.9765625 11.49609375 C-35.17230259 12.29194408 -38.41920297 12.82238369 -41.66015625 13.40234375 C-44.24733665 13.92545337 -44.24733665 13.92545337 -47 16 C-49.33333333 16 -51.66666667 16 -54 16 C-55.15628906 16.4640625 -55.15628906 16.4640625 -56.3359375 16.9375 C-59.33002113 18.13162133 -62.05865232 18.56832012 -65.25 19 C-80.45913954 20.57841288 -80.45913954 20.57841288 -93 28 C-93.72668059 30.28292297 -93.72668059 30.28292297 -94.0625 32.875 C-94.21799316 33.84945068 -94.37348633 34.82390137 -94.53369141 35.82788086 C-94.68757324 36.87468018 -94.84145508 37.92147949 -95 39 C-95.34110216 41.20964216 -95.6822484 43.41927751 -96.0234375 45.62890625 C-96.18811523 46.72090332 -96.35279297 47.81290039 -96.52246094 48.93798828 C-96.92510412 51.51976269 -97.36853005 54.08473507 -97.8515625 56.65234375 C-100.71955764 72.2748571 -101.2105544 88.16431649 -102 104 C-102.33 104 -102.66 104 -103 104 C-103.27475463 91.8497397 -102.89465167 79.75184545 -102.25335693 67.61975098 C-102.16816243 66.00539005 -102.08565923 64.39088472 -102.00592041 62.77624512 C-101.89038507 60.468746 -101.76333873 58.16216328 -101.6328125 55.85546875 C-101.59937744 55.16750717 -101.56594238 54.47954559 -101.53149414 53.77073669 C-101.25822918 49.27376835 -100.31075948 45.29810995 -99 41 C-98.8444858 39.02420479 -98.73802882 37.04376178 -98.6875 35.0625 C-98.31135101 30.15406405 -97.52514354 26.48549212 -94.67578125 22.42578125 C-91.56811132 19.78172642 -87.93251775 19.86291877 -84 20 C-84 19.34 -84 18.68 -84 18 C-82.12612523 17.6603981 -80.25083303 17.32861309 -78.375 17 C-77.33085938 16.814375 -76.28671875 16.62875 -75.2109375 16.4375 C-72.09425135 16.01284203 -69.14069188 15.92454794 -66 16 C-66 15.34 -66 14.68 -66 14 C-58.34205356 11.22538172 -50.72831869 9.37197121 -42.625 8.5 C-39.20841728 8.24252544 -39.20841728 8.24252544 -37.2421875 7.05859375 C-34.11817933 5.58367003 -30.87919298 5.12935553 -27.5 4.5625 C-22.41228752 3.66984772 -17.43191011 2.65107768 -12.4375 1.3125 C-8.11791163 0.18103893 -4.44928823 -0.30336056 0 0 Z " fill="#76838F" transform="translate(110,8)"/>
<path d="M0 0 C0 0.99 0 1.98 0 3 C0.66 2.34 1.32 1.68 2 1 C2.495 2.485 2.495 2.485 3 4 C6.3 4 9.6 4 13 4 C13 4.33 13 4.66 13 5 C6.565 5.495 6.565 5.495 0 6 C-0.33 6.99 -0.66 7.98 -1 9 C-2.75 9.5625 -2.75 9.5625 -5 10 C-5.75925781 10.31710938 -6.51851562 10.63421875 -7.30078125 10.9609375 C-10.03306109 12.01272685 -12.55488796 12.57593144 -15.4375 13.0625 C-16.39785156 13.2275 -17.35820313 13.3925 -18.34765625 13.5625 C-19.22292969 13.706875 -20.09820313 13.85125 -21 14 C-22.670625 14.2784375 -22.670625 14.2784375 -24.375 14.5625 C-25.24125 14.706875 -26.1075 14.85125 -27 15 C-28.66821323 15.32550502 -30.33499557 15.65846063 -32 16 C-32.804375 16.103125 -33.60875 16.20625 -34.4375 16.3125 C-37.80325249 17.21550677 -40.19273068 18.97615468 -43 21 C-43.36402369 19.56496445 -43.71586591 18.12683494 -44.0625 16.6875 C-44.25972656 15.88699219 -44.45695312 15.08648437 -44.66015625 14.26171875 C-45 12 -45 12 -44 9 C-40.74819478 7.64925014 -37.4119109 6.90696366 -34 6 C-37.63 6 -41.26 6 -45 6 C-45 5.67 -45 5.34 -45 5 C-40.78541501 4.18366147 -36.91118152 3.94315112 -32.625 4.0625 C-28.13758632 4.09803382 -24.31529872 3.84728715 -20.02734375 2.578125 C-13.46153117 0.70579309 -6.81730362 -0.30299127 0 0 Z " fill="#A9B5BE" transform="translate(52,8)"/>
<path d="M0 0 C0.33 0 0.66 0 1 0 C1 1.98 1 3.96 1 6 C-2.59380653 8.08878603 -6.35201808 8.85345601 -10.375 9.6875 C-11.98473425 10.033489 -13.59408042 10.38128643 -15.203125 10.73046875 C-16.56147461 11.0251001 -16.56147461 11.0251001 -17.94726562 11.32568359 C-24.0180496 12.66665491 -30.07100907 14.08548211 -36.125 15.5 C-36.78090118 15.65307617 -37.43680237 15.80615234 -38.11257935 15.96386719 C-46.55505111 17.93589226 -54.97973097 19.96080152 -63.3828125 22.09375 C-67.64284341 23.16105796 -71.91279019 24.18085569 -76.1875 25.1875 C-77.24964722 25.43826294 -77.24964722 25.43826294 -78.33325195 25.6940918 C-81.87806701 26.5247674 -85.42451263 27.3126733 -89 28 C-89 28.66 -89 29.32 -89 30 C-88.01 30.33 -87.02 30.66 -86 31 C-86 31.99 -86 32.98 -86 34 C-87.72888555 34.16955795 -89.45812443 34.33551514 -91.1875 34.5 C-92.15042969 34.5928125 -93.11335938 34.685625 -94.10546875 34.78125 C-96.75187667 34.98124844 -99.34760865 35.03879183 -102 35 C-102.33 32.36 -102.66 29.72 -103 27 C-102.01 27 -101.02 27 -100 27 C-99.67 27.99 -99.34 28.98 -99 30 C-98.34 27.03 -97.68 24.06 -97 21 C-96.443125 21.886875 -95.88625 22.77375 -95.3125 23.6875 C-93.99460637 25.19718617 -93.99460637 25.19718617 -92 26 C-86.5385415 25.51893889 -81.39119431 23.84216037 -76.23828125 22.02734375 C-71.7605521 20.60678553 -67.2105434 19.63361427 -62.625 18.625 C-54.47207912 16.81241162 -46.37959704 14.86126912 -38.3125 12.69921875 C-35.09864216 12.02082187 -32.2726049 11.86530437 -29 12 C-29 11.34 -29 10.68 -29 10 C-27.91460937 9.80664062 -26.82921875 9.61328125 -25.7109375 9.4140625 C-24.26558332 9.15127083 -22.82027312 8.88823714 -21.375 8.625 C-20.66214844 8.49867187 -19.94929688 8.37234375 -19.21484375 8.2421875 C-14.99703487 7.46827761 -11.05069125 6.44456966 -7 5 C-5.906875 4.690625 -4.81375 4.38125 -3.6875 4.0625 C-2.3571875 3.5365625 -2.3571875 3.5365625 -1 3 C-0.67 2.01 -0.34 1.02 0 0 Z M-96 33 C-92 34 -92 34 -92 34 Z " fill="#8B9095" transform="translate(111,89)"/>
<path d="M0 0 C-2.42195448 2.87255066 -4.59742703 3.70838919 -8.1875 4.6875 C-9.08855469 4.93886719 -9.98960938 5.19023438 -10.91796875 5.44921875 C-11.60503906 5.63097656 -12.29210937 5.81273438 -13 6 C-13 6.66 -13 7.32 -13 8 C-13.65226562 7.97679688 -14.30453125 7.95359375 -14.9765625 7.9296875 C-20.08698903 7.82416247 -24.20425033 7.98073698 -29 10 C-29 10.66 -29 11.32 -29 12 C-30.27875 11.896875 -31.5575 11.79375 -32.875 11.6875 C-38.64199089 11.69553202 -43.77956483 13.17727991 -49.25488281 14.78857422 C-56.3278135 16.85620165 -63.45130306 18.62902135 -70.625 20.3125 C-71.72714844 20.57885254 -72.82929687 20.84520508 -73.96484375 21.11962891 C-79.7926986 22.47430274 -85.01694936 23.31146632 -91 23 C-91 22.34 -91 21.68 -91 21 C-86.2488945 18.84040659 -81.32173752 17.85565494 -76.25 16.75 C-61.03211673 13.36213314 -45.86952846 9.74038343 -30.75 5.9375 C-28.16698063 5.29037413 -25.58368448 4.64445645 -23 4 C-22.11666992 3.77892578 -21.23333984 3.55785156 -20.32324219 3.33007812 C-17.42562805 2.6083639 -14.52563054 1.89698385 -11.625 1.1875 C-10.70170898 0.95603271 -9.77841797 0.72456543 -8.82714844 0.48608398 C-7.96895508 0.27798096 -7.11076172 0.06987793 -6.2265625 -0.14453125 C-5.45908691 -0.33378174 -4.69161133 -0.52303223 -3.90087891 -0.71801758 C-2 -1 -2 -1 0 0 Z " fill="#ADB5BB" transform="translate(113,96)"/>
<path d="M0 0 C-4.95 1.485 -4.95 1.485 -10 3 C-9.67 5.97 -9.34 8.94 -9 12 C-6.70907385 12.19900359 -6.70907385 12.19900359 -4.3125 10 C-0.46991211 7.67994693 1.60390517 7.83410963 6 8 C6.99 7.34 7.98 6.68 9 6 C11.1640625 5.65625 11.1640625 5.65625 13.625 5.5 C19.79439276 4.9851312 25.77713531 4.48190979 31 1 C32.65549531 0.61500109 34.3222433 0.27206865 36 0 C36 0.66 36 1.32 36 2 C35.34 2 34.68 2 34 2 C34 2.66 34 3.32 34 4 C32.90498169 4.2333606 32.90498169 4.2333606 31.7878418 4.47143555 C28.41814544 5.19726138 25.05295234 5.94225365 21.6875 6.6875 C20.53958984 6.93177734 19.39167969 7.17605469 18.20898438 7.42773438 C10.65747866 9.11773141 3.85608866 11.39127675 -3 15 C-3.91410645 15.465271 -4.82821289 15.93054199 -5.77001953 16.40991211 C-6.50591309 16.93464111 -7.24180664 17.45937012 -8 18 C-8.49979784 21.07850939 -8.69505714 23.66759183 -8.6875 26.75 C-8.72668233 28.45975961 -8.77102647 30.16940806 -8.8203125 31.87890625 C-8.84254883 32.73500488 -8.86478516 33.59110352 -8.88769531 34.47314453 C-9.14932338 40.35977603 -10.10426022 46.18203965 -11 52 C-11.33 52 -11.66 52 -12 52 C-13.26119853 47.10748485 -13.17949303 42.26298728 -13.203125 37.24609375 C-13.20882507 36.30822525 -13.21452515 35.37035675 -13.22039795 34.40406799 C-13.22982138 32.42637248 -13.23637134 30.44866146 -13.24023438 28.47094727 C-13.24997731 25.44454856 -13.28104066 22.41881871 -13.3125 19.39257812 C-13.31902704 17.46875402 -13.32427868 15.54492508 -13.328125 13.62109375 C-13.3404718 12.71685165 -13.3528186 11.81260956 -13.36553955 10.88096619 C-13.34341364 4.65515746 -13.34341364 4.65515746 -11.66308594 1.44946289 C-8.05661522 -1.69375741 -4.37645345 -1.09411336 0 0 Z " fill="#A7B2BA" transform="translate(18,15)"/>
<path d="M0 0 C0.33 0 0.66 0 1 0 C1.20397036 13.9907977 1.24103278 27.76765089 -0.4921875 41.6640625 C-1.20827097 47.41616575 -1.47063494 53.18582804 -1.75390625 58.97265625 C-2 62 -2 62 -3 64 C-4.65 63.67 -6.3 63.34 -8 63 C-7.73899219 58.63842208 -7.46407628 54.27786846 -7.18408203 49.91748047 C-7.04896793 47.77608323 -6.91768259 45.63444351 -6.78857422 43.49267578 C-6.55424941 39.61960008 -6.30893586 35.74732232 -6.0625 31.875 C-5.98789551 30.6063208 -5.91329102 29.3376416 -5.83642578 28.03051758 C-5.75763184 26.82161865 -5.67883789 25.61271973 -5.59765625 24.3671875 C-5.53070557 23.28550293 -5.46375488 22.20381836 -5.39477539 21.08935547 C-4.98026516 17.84556295 -4.10763255 15.06924546 -3 12 C-2.61454279 10.25662489 -2.2580814 8.50646281 -1.9375 6.75 C-1.10526316 2.21052632 -1.10526316 2.21052632 0 0 Z " fill="#424D57" transform="translate(17,48)"/>
<path d="M0 0 C-0.33 0.66 -0.66 1.32 -1 2 C-2.33333333 2.33333333 -3.66666667 2.66666667 -5 3 C-8.19923992 4.72549782 -8.19923992 4.72549782 -11 7 C-11.33335757 8.55103348 -11.61210124 10.1138768 -11.8671875 11.6796875 C-12.02912598 12.6605835 -12.19106445 13.64147949 -12.35791016 14.65209961 C-12.5285498 15.71565674 -12.69918945 16.77921387 -12.875 17.875 C-13.05208496 18.97271729 -13.22916992 20.07043457 -13.41162109 21.20141602 C-13.77206205 23.43605242 -14.13160269 25.67083424 -14.49023438 27.90576172 C-14.91722028 30.49753344 -15.37467867 33.0787463 -15.859375 35.66015625 C-18.70744662 51.28462394 -19.21060254 67.16528217 -20 83 C-20.33 83 -20.66 83 -21 83 C-21.27475463 70.8497397 -20.89465167 58.75184545 -20.25335693 46.61975098 C-20.16816243 45.00539005 -20.08565923 43.39088472 -20.00592041 41.77624512 C-19.89038507 39.468746 -19.76333873 37.16216328 -19.6328125 34.85546875 C-19.59937744 34.16750717 -19.56594238 33.47954559 -19.53149414 32.77073669 C-19.25822065 28.27362803 -18.31569894 24.29712115 -17 20 C-16.66577533 16.91981584 -16.50258964 13.86293325 -16.34375 10.76953125 C-15.99501694 7.95985236 -15.61264299 6.31467685 -14 4 C-9.7747423 1.310445 -5.06599567 -0.65367686 0 0 Z " fill="#6F7A84" transform="translate(28,29)"/>
<path d="M0 0 C-1 1.4375 -1 1.4375 -3 3 C-5.01785769 3.32029487 -7.03958135 3.63433102 -9.07421875 3.8203125 C-11.13049125 4.01217565 -13.01611595 4.43317599 -15 5 C-18.85019456 6.01497504 -22.74262467 6.70131178 -26.66015625 7.40234375 C-29.24733665 7.92545337 -29.24733665 7.92545337 -32 10 C-34.33333333 10 -36.66666667 10 -39 10 C-39.77085938 10.309375 -40.54171875 10.61875 -41.3359375 10.9375 C-44.33002113 12.13162133 -47.05865232 12.56832012 -50.25 13 C-55.58003916 13.76403292 -60.7624193 14.75718424 -66 16 C-66.33 15.34 -66.66 14.68 -67 14 C-64.14642609 13.28660652 -61.29265403 12.57424215 -58.4375 11.8671875 C-56.22409228 11.3088051 -54.01519155 10.73207417 -51.8125 10.1328125 C-46.01532002 8.57999643 -41.00261958 7.65369502 -35 8 C-35 7.34 -35 6.68 -35 6 C-31.12541702 5.18550288 -27.2502625 4.37375737 -23.375 3.5625 C-22.28058594 3.33240234 -21.18617187 3.10230469 -20.05859375 2.86523438 C-18.99511719 2.64287109 -17.93164062 2.42050781 -16.8359375 2.19140625 C-15.37486572 1.88505249 -15.37486572 1.88505249 -13.88427734 1.57250977 C-9.20488625 0.64368192 -4.78199332 -0.14064686 0 0 Z " fill="#687682" transform="translate(95,14)"/>
<path d="M0 0 C0 0.66 0 1.32 0 2 C-0.66 2 -1.32 2 -2 2 C-2 2.66 -2 3.32 -2 4 C-3.09501831 4.2333606 -3.09501831 4.2333606 -4.2121582 4.47143555 C-7.58185456 5.19726138 -10.94704766 5.94225365 -14.3125 6.6875 C-15.46041016 6.93177734 -16.60832031 7.17605469 -17.79101562 7.42773438 C-25.34252134 9.11773141 -32.14391134 11.39127675 -39 15 C-39.91265625 15.45439453 -40.8253125 15.90878906 -41.765625 16.37695312 C-44.15603028 17.77532899 -44.15603028 17.77532899 -44.65942383 20.0847168 C-44.67513428 20.86500244 -44.69084473 21.64528809 -44.70703125 22.44921875 C-44.73603516 23.29677734 -44.76503906 24.14433594 -44.79492188 25.01757812 C-44.80072266 25.89865234 -44.80652344 26.77972656 -44.8125 27.6875 C-44.83763672 28.58017578 -44.86277344 29.47285156 -44.88867188 30.39257812 C-44.94757338 32.59549439 -44.98382754 34.79642319 -45 37 C-45.33 37 -45.66 37 -46 37 C-46.0875127 33.77100574 -46.14056146 30.54231884 -46.1875 27.3125 C-46.21263672 26.40048828 -46.23777344 25.48847656 -46.26367188 24.54882812 C-46.31824698 19.54610988 -46.3384494 16.02184964 -43 12 C-38.512064 8.22605382 -35.75692891 7.7827574 -30 8 C-29.01 7.34 -28.02 6.68 -27 6 C-24.8359375 5.65625 -24.8359375 5.65625 -22.375 5.5 C-16.20560724 4.9851312 -10.22286469 4.48190979 -5 1 C-2 0 -2 0 0 0 Z " fill="#97A3AC" transform="translate(54,15)"/>
<path d="M0 0 C-1 2 -1 2 -3.4375 3.0625 C-7.19964846 4.05253907 -10.66087916 4.32628648 -14.53515625 4.4609375 C-18.01662732 5.22233688 -19.59721244 6.36279414 -22 9 C-22.54709619 11.85336353 -22.79009293 14.14230934 -22.8125 17 C-22.83691162 17.74950928 -22.86132324 18.49901855 -22.88647461 19.27124023 C-22.95184451 21.51464899 -22.98184026 23.75575865 -23 26 C-23.01546875 27.24910156 -23.0309375 28.49820313 -23.046875 29.78515625 C-23.05993682 32.52487356 -23.04750126 35.26076093 -23 38 C-24.485 38.495 -24.485 38.495 -26 39 C-26.06461822 33.66540669 -26.05733816 28.33465444 -26 23 C-25.99419922 22.2152832 -25.98839844 21.43056641 -25.98242188 20.62207031 C-25.95375805 18.3088999 -25.88839128 15.99955421 -25.8125 13.6875 C-25.80391968 12.60384155 -25.80391968 12.60384155 -25.79516602 11.49829102 C-25.70703125 9.44921875 -25.70703125 9.44921875 -25 6 C-18.84764341 0.64041531 -7.94711203 -0.55444968 0 0 Z " fill="#DCE3E8" transform="translate(45,35)"/>
<path d="M0 0 C0.33 0 0.66 0 1 0 C1 1.98 1 3.96 1 6 C-2.73541103 8.20243715 -6.74432518 8.94112007 -10.9375 9.8125 C-16.19051515 10.93363668 -21.42827545 12.0882905 -26.64453125 13.37109375 C-27.5785376 13.60014404 -28.51254395 13.82919434 -29.47485352 14.06518555 C-31.29044962 14.51321467 -33.10480669 14.96630278 -34.91772461 15.42504883 C-39.38094147 16.51968661 -43.36351773 17.27273425 -48 17 C-43.51360468 12.70866535 -37.40897597 12.08452547 -31.4375 11.875 C-30.633125 11.91625 -29.82875 11.9575 -29 12 C-29 11.34 -29 10.68 -29 10 C-27.91460937 9.80664062 -26.82921875 9.61328125 -25.7109375 9.4140625 C-24.26558332 9.15127083 -22.82027312 8.88823714 -21.375 8.625 C-20.66214844 8.49867187 -19.94929688 8.37234375 -19.21484375 8.2421875 C-14.99703487 7.46827761 -11.05069125 6.44456966 -7 5 C-5.906875 4.690625 -4.81375 4.38125 -3.6875 4.0625 C-2.800625 3.711875 -1.91375 3.36125 -1 3 C-0.67 2.01 -0.34 1.02 0 0 Z " fill="#878C92" transform="translate(111,89)"/>
<path d="M0 0 C0 0.66 0 1.32 0 2 C3.63 1.67 7.26 1.34 11 1 C8.47903923 3.52096077 6.92091918 3.52204774 3.4375 4.0625 C-0.09095166 4.35968163 -0.09095166 4.35968163 -3 6 C-4.41120902 6.22571184 -5.83176043 6.39388349 -7.25390625 6.53515625 C-8.10791016 6.62216797 -8.96191406 6.70917969 -9.84179688 6.79882812 C-10.73962891 6.88583984 -11.63746094 6.97285156 -12.5625 7.0625 C-13.91504883 7.19881836 -13.91504883 7.19881836 -15.29492188 7.33789062 C-17.52958434 7.56253923 -19.76457839 7.78305769 -22 8 C-22 7.34 -22 6.68 -22 6 C-21.34 6 -20.68 6 -20 6 C-20 5.34 -20 4.68 -20 4 C-18.94039062 3.79503906 -17.88078125 3.59007812 -16.7890625 3.37890625 C-15.40101178 3.10692334 -14.01299256 2.83477956 -12.625 2.5625 C-11.92632812 2.42779297 -11.22765625 2.29308594 -10.5078125 2.15429688 C-6.88221944 1.4396367 -3.63305801 0 0 0 Z " fill="#9BA8B1" transform="translate(74,11)"/>
<path d="M0 0 C0.33 0 0.66 0 1 0 C1 31.02 1 62.04 1 94 C0.67 94 0.34 94 0 94 C0 62.98 0 31.96 0 0 Z " fill="#8D969C" transform="translate(1,18)"/>
<path d="M0 0 C0.33 0 0.66 0 1 0 C1.3324621 14.96079433 1.10440555 30.30646352 -2 45 C-2.33 45 -2.66 45 -3 45 C-3.2156037 34.62706631 -3.01915006 24.39949177 -2.0625 14.0625 C-1.97564941 13.12196777 -1.88879883 12.18143555 -1.79931641 11.21240234 C-1.42108514 7.37905297 -1.01228298 3.72441741 0 0 Z " fill="#2A353F" transform="translate(16,64)"/>
<path d="M0 0 C0.89203125 0.00902344 1.7840625 0.01804687 2.703125 0.02734375 C3.37859375 0.03894531 4.0540625 0.05054687 4.75 0.0625 C1.5481775 1.82426836 -1.58606792 2.79601329 -5.125 3.6875 C-6.13304688 3.94789062 -7.14109375 4.20828125 -8.1796875 4.4765625 C-11.2805097 5.06832246 -14.10156869 5.16588133 -17.25 5.0625 C-17.58 6.0525 -17.91 7.0425 -18.25 8.0625 C-22.54 8.0625 -26.83 8.0625 -31.25 8.0625 C-27.90765119 4.72015119 -26.99054543 4.58696216 -22.5 4 C-17.90449305 3.3339845 -13.67483998 2.44526249 -9.25 1.0625 C-6.09327042 0.12078655 -3.29099053 -0.04330251 0 0 Z " fill="#C5CED5" transform="translate(95.25,22.9375)"/>
<path d="M0 0 C-2.42195448 2.87255066 -4.59742703 3.70838919 -8.1875 4.6875 C-9.08855469 4.93886719 -9.98960938 5.19023438 -10.91796875 5.44921875 C-11.60503906 5.63097656 -12.29210937 5.81273438 -13 6 C-13 6.66 -13 7.32 -13 8 C-15.97 7.67 -18.94 7.34 -22 7 C-22.33 6.01 -22.66 5.02 -23 4 C-19.54439134 3.13454045 -16.08515955 2.28456503 -12.625 1.4375 C-11.64015625 1.19064453 -10.6553125 0.94378906 -9.640625 0.68945312 C-8.69960937 0.46064453 -7.75859375 0.23183594 -6.7890625 -0.00390625 C-5.91975098 -0.21861572 -5.05043945 -0.4333252 -4.15478516 -0.65454102 C-2 -1 -2 -1 0 0 Z " fill="#B7BCBF" transform="translate(113,96)"/>
<path d="M0 0 C0.99 0 1.98 0 3 0 C3.33 0.99 3.66 1.98 4 3 C4.33 2.01 4.66 1.02 5 0 C5.66 0 6.32 0 7 0 C7 0.66 7 1.32 7 2 C8.98 2 10.96 2 13 2 C13.33 2.99 13.66 3.98 14 5 C14.99 5.66 15.98 6.32 17 7 C15.27111445 7.16955795 13.54187557 7.33551514 11.8125 7.5 C10.84957031 7.5928125 9.88664062 7.685625 8.89453125 7.78125 C6.24812333 7.98124844 3.65239135 8.03879183 1 8 C0.67 5.36 0.34 2.72 0 0 Z M7 6 C11 7 11 7 11 7 Z " fill="#ADB4BB" transform="translate(8,116)"/>
<path d="M0 0 C0.33 0 0.66 0 1 0 C1.23753929 23.75392905 1.23753929 23.75392905 0 30 C-0.66 30.33 -1.32 30.66 -2 31 C-2.04939115 26.90661348 -2.08571501 22.81334202 -2.10986328 18.71972656 C-2.11992877 17.32679219 -2.13358234 15.93387898 -2.15087891 14.54101562 C-2.1751022 12.5404564 -2.18540814 10.53974385 -2.1953125 8.5390625 C-2.20578613 7.33459473 -2.21625977 6.13012695 -2.22705078 4.88916016 C-2 2 -2 2 0 0 Z " fill="#939DA5" transform="translate(7,60)"/>
<path d="M0 0 C0.33 0 0.66 0 1 0 C1.33 10.89 1.66 21.78 2 33 C2.33 33 2.66 33 3 33 C3.09038099 38.15171623 2.84681133 42.91913204 2 48 C1.67 48 1.34 48 1 48 C-0.29666891 43.06009526 -0.12624049 38.17162871 -0.09765625 33.10546875 C-0.0962413 32.15811356 -0.09482635 31.21075836 -0.09336853 30.23469543 C-0.08778611 27.21893105 -0.07523682 24.20324182 -0.0625 21.1875 C-0.05748273 19.13867295 -0.05292022 17.08984473 -0.04882812 15.04101562 C-0.03782243 10.02731494 -0.02056988 5.0136702 0 0 Z " fill="#9FA9B1" transform="translate(5,19)"/>
<path d="M0 0 C0.598125 0.86625 1.19625 1.7325 1.8125 2.625 C4.69750198 5.31243116 4.69750198 5.31243116 7.67578125 4.81640625 C9.62103316 4.40159094 11.55626862 3.93618504 13.4765625 3.41796875 C16 3 16 3 19 5 C15.37 5.66 11.74 6.32 8 7 C8 7.66 8 8.32 8 9 C8.99 9.33 9.98 9.66 11 10 C9.68 10 8.36 10 7 10 C7 9.34 7 8.68 7 8 C5.02 8 3.04 8 1 8 C-0.35439668 5.29120665 -0.06501451 2.99066732 0 0 Z " fill="#91979D" transform="translate(14,110)"/>
<path d="M0 0 C0.33 0 0.66 0 1 0 C2.85134017 10.68273313 1.21393821 21.33012204 0 32 C-0.33 32 -0.66 32 -1 32 C-1 25.07 -1 18.14 -1 11 C-1.33 11 -1.66 11 -2 11 C-2 8.69 -2 6.38 -2 4 C-1.34 4 -0.68 4 0 4 C0 2.68 0 1.36 0 0 Z M0 7 C1 9 1 9 1 9 Z " fill="#B5C1CA" transform="translate(122,24)"/>
<path d="M0 0 C0 0.66 0 1.32 0 2 C-0.66 2 -1.32 2 -2 2 C-2 2.66 -2 3.32 -2 4 C-5.24606096 4.8696403 -8.49732408 5.71796913 -11.75 6.5625 C-13.13058594 6.9327832 -13.13058594 6.9327832 -14.5390625 7.31054688 C-15.42851563 7.53935547 -16.31796875 7.76816406 -17.234375 8.00390625 C-18.05131836 8.21861572 -18.86826172 8.4333252 -19.70996094 8.65454102 C-22.14145409 9.02133876 -23.68425298 8.76494053 -26 8 C-22.25892744 5.73566661 -19.23815455 4.80213866 -14.9375 4.5 C-10.84486201 4.2050351 -8.37681223 3.45586344 -5 1 C-2 0 -2 0 0 0 Z " fill="#929DA7" transform="translate(54,15)"/>
<path d="M0 0 C-0.33 0.66 -0.66 1.32 -1 2 C-2.33333333 2.33333333 -3.66666667 2.66666667 -5 3 C-8.19923992 4.72549782 -8.19923992 4.72549782 -11 7 C-11.39454223 8.84599688 -11.74176866 10.70225822 -12.0625 12.5625 C-12.23910156 13.57441406 -12.41570313 14.58632813 -12.59765625 15.62890625 C-12.73042969 16.41136719 -12.86320313 17.19382812 -13 18 C-13.33 18 -13.66 18 -14 18 C-14.4037302 6.44883029 -14.4037302 6.44883029 -12 3 C-7.92839622 0.77214133 -4.65202284 -0.42291117 0 0 Z " fill="#657380" transform="translate(28,29)"/>
<path d="M0 0 C0.8353125 0.37125 0.8353125 0.37125 1.6875 0.75 C-1.9375 3.75 -1.9375 3.75 -5.3125 3.75 C-5.621875 4.554375 -5.93125 5.35875 -6.25 6.1875 C-7.3125 8.75 -7.3125 8.75 -8.3125 9.75 C-8.46870555 11.16327947 -8.56306173 12.5835459 -8.62890625 14.00390625 C-8.67080078 14.85791016 -8.71269531 15.71191406 -8.75585938 16.59179688 C-8.79517578 17.48962891 -8.83449219 18.38746094 -8.875 19.3125 C-8.91818359 20.21419922 -8.96136719 21.11589844 -9.00585938 22.04492188 C-9.11228142 24.27978485 -9.21429988 26.51476308 -9.3125 28.75 C-9.6425 28.75 -9.9725 28.75 -10.3125 28.75 C-10.4000127 25.52100574 -10.45306146 22.29231884 -10.5 19.0625 C-10.52513672 18.15048828 -10.55027344 17.23847656 -10.57617188 16.29882812 C-10.63090332 11.28177944 -10.62902897 7.80090324 -7.3125 3.75 C-3.11787772 -0.33706786 -3.11787772 -0.33706786 0 0 Z " fill="#9CA7B1" transform="translate(18.3125,23.25)"/>
<path d="M0 0 C0 0.66 0 1.32 0 2 C-5.89738492 4.29342747 -10.66606918 5.34548714 -17 5 C-16.67 4.34 -16.34 3.68 -16 3 C-14.68 3 -13.36 3 -12 3 C-12 2.34 -12 1.68 -12 1 C-8.0186217 -0.3271261 -4.14954773 -0.06915913 0 0 Z " fill="#C2CFD6" transform="translate(48,9)"/>
<path d="M0 0 C0.33 0.66 0.66 1.32 1 2 C3.64 2 6.28 2 9 2 C9 2.66 9 3.32 9 4 C2.229184 6.20300447 -2.97146041 7.4587535 -10 6 C-10 5.67 -10 5.34 -10 5 C-6.7 4.67 -3.4 4.34 0 4 C0 2.68 0 1.36 0 0 Z " fill="#BCC6CD" transform="translate(109,16)"/>
<path d="M0 0 C0.99386719 0.00902344 1.98773438 0.01804687 3.01171875 0.02734375 C4.15060547 0.04474609 4.15060547 0.04474609 5.3125 0.0625 C-0.02294781 4.32400328 -4.99252281 4.19639954 -11.6875 4.0625 C-8.13167064 0.16802023 -5.13031675 -0.06035667 0 0 Z " fill="#CBD4DA" transform="translate(57.6875,30.9375)"/>
<path d="M0 0 C-0.66 1.98 -1.32 3.96 -2 6 C-2.33 4.68 -2.66 3.36 -3 2 C-3.99 2 -4.98 2 -6 2 C-5.67 3.65 -5.34 5.3 -5 7 C-5.99 7.33 -6.98 7.66 -8 8 C-9 1.25 -9 1.25 -9 -1 C-5.23375329 -2.25541557 -3.62811066 -1.37061958 0 0 Z " fill="#7A8A96" transform="translate(14,114)"/>
<path d="M0 0 C0 0.66 0 1.32 0 2 C-5.28 3.32 -10.56 4.64 -16 6 C-16 5.01 -16 4.02 -16 3 C-5.62642369 -0.44419134 -5.62642369 -0.44419134 0 0 Z " fill="#CFDBE2" transform="translate(24,14)"/>
<path d="M0 0 C0 0.66 0 1.32 0 2 C-4.55491614 4.20399168 -9.02906176 4.58846263 -14 5 C-14 4.34 -14 3.68 -14 3 C-13.34 3 -12.68 3 -12 3 C-12 2.34 -12 1.68 -12 1 C-8.0186217 -0.3271261 -4.14954773 -0.06915913 0 0 Z " fill="#B5C3CB" transform="translate(66,14)"/>
<path d="M0 0 C-2 3 -2 3 -4.1640625 3.51171875 C-4.97617188 3.56972656 -5.78828125 3.62773438 -6.625 3.6875 C-7.85089844 3.78611328 -7.85089844 3.78611328 -9.1015625 3.88671875 C-9.72804688 3.92410156 -10.35453125 3.96148437 -11 4 C-11 3.34 -11 2.68 -11 2 C-11.66 1.67 -12.32 1.34 -13 1 C-4.57142857 -1.42857143 -4.57142857 -1.42857143 0 0 Z " fill="#ACB4BA" transform="translate(91,102)"/>
<path d="M0 0 C0.33 0 0.66 0 1 0 C1 5.61 1 11.22 1 17 C0.01 17.33 -0.98 17.66 -2 18 C-2.05382106 15.37472811 -2.09358313 12.75055287 -2.125 10.125 C-2.14175781 9.37863281 -2.15851562 8.63226563 -2.17578125 7.86328125 C-2.1933959 5.90805539 -2.10320189 3.95257979 -2 2 C-1.34 1.34 -0.68 0.68 0 0 Z " fill="#D5DBE0" transform="translate(21,56)"/>
<path d="M0 0 C-2.37493359 2.7499231 -4.48694108 4.04189302 -8 5 C-11.8125 4.625 -11.8125 4.625 -15 4 C-13.68 3.67 -12.36 3.34 -11 3 C-11 2.34 -11 1.68 -11 1 C-9.5437328 0.63743142 -8.08488815 0.28520207 -6.625 -0.0625 C-5.81289062 -0.25972656 -5.00078125 -0.45695312 -4.1640625 -0.66015625 C-2 -1 -2 -1 0 0 Z " fill="#BCB6CB" transform="translate(113,96)"/>
<path d="M0 0 C-6.1546381 3.36094292 -13.14890403 4.80291999 -20 3 C-20 2.67 -20 2.34 -20 2 C-13.23514355 0.3879491 -6.95041086 -0.26618595 0 0 Z " fill="#B9C3CB" transform="translate(100,23)"/>
<path d="M0 0 C0 0.66 0 1.32 0 2 C1.32 2.66 2.64 3.32 4 4 C-2.93 3.505 -2.93 3.505 -10 3 C-9 1 -9 1 -6.6875 -0.1875 C-3.88010429 -1.03624754 -2.698065 -0.99928333 0 0 Z " fill="#BAC0C4" transform="translate(80,104)"/>
<path d="M0 0 C1.21236328 0.01353516 1.21236328 0.01353516 2.44921875 0.02734375 C3.37154297 0.04474609 3.37154297 0.04474609 4.3125 0.0625 C4.3125 0.7225 4.3125 1.3825 4.3125 2.0625 C0.2597484 3.04498524 -3.52611737 3.14409574 -7.6875 3.0625 C-7.6875 2.4025 -7.6875 1.7425 -7.6875 1.0625 C-4.80538698 0.10179566 -2.98899956 -0.04331883 0 0 Z " fill="#B3C2C8" transform="translate(81.6875,9.9375)"/>
<path d="M0 0 C-0.33 0.99 -0.66 1.98 -1 3 C-5.40914783 4.10228696 -9.48382401 4.07654536 -14 4 C-14 3.67 -14 3.34 -14 3 C-12.0424015 2.49713066 -10.08389623 1.9977901 -8.125 1.5 C-7.03445312 1.2215625 -5.94390625 0.943125 -4.8203125 0.65625 C-2 0 -2 0 0 0 Z " fill="#50606C" transform="translate(105,18)"/>
<path d="M0 0 C0 0.66 0 1.32 0 2 C-3.21451269 3.60725635 -6.43612536 3.05748185 -10 3 C-10 2.34 -10 1.68 -10 1 C-6.61981469 -0.04005702 -3.5219721 -0.08004482 0 0 Z " fill="#BCC2C8" transform="translate(64,108)"/>
<path d="M0 0 C-0.67546875 0.26554687 -1.3509375 0.53109375 -2.046875 0.8046875 C-3.38492187 1.33449219 -3.38492187 1.33449219 -4.75 1.875 C-5.63171875 2.22304688 -6.5134375 2.57109375 -7.421875 2.9296875 C-9.6740248 3.8646709 -11.83649459 4.87780794 -14 6 C-13.5 3.625 -13.5 3.625 -12 1 C-7.89200459 -0.88207719 -4.32203232 -1.33731045 0 0 Z " fill="#8E9BA5" transform="translate(25,26)"/>
<path d="M0 0 C0 0.66 0 1.32 0 2 C-2.64 2.66 -5.28 3.32 -8 4 C-8 3.01 -8 2.02 -8 1 C-5.29120665 -0.35439668 -2.99066732 -0.06501451 0 0 Z " fill="#C7D3DA" transform="translate(24,14)"/>
<path d="M0 0 C0 0.33 0 0.66 0 1 C-11.52164009 3.29612756 -11.52164009 3.29612756 -17 3 C-17 2.67 -17 2.34 -17 2 C-5.47835991 -0.29612756 -5.47835991 -0.29612756 0 0 Z " fill="#BCBCC0" transform="translate(63,113)"/>
<path d="M0 0 C2.97 0 5.94 0 9 0 C7.68 0.33 6.36 0.66 5 1 C5 1.66 5 2.32 5 3 C3.35 3 1.7 3 0 3 C0 2.01 0 1.02 0 0 Z " fill="#BDC4C9" transform="translate(44,111)"/>
<path d="M0 0 C-0.66 1.32 -1.32 2.64 -2 4 C-3.32 4 -4.64 4 -6 4 C-6 3.34 -6 2.68 -6 2 C-6.99 1.67 -7.98 1.34 -9 1 C-5.92677456 0.08941469 -3.19902639 -0.08886184 0 0 Z " fill="#A8ADB3" transform="translate(102,98)"/>
<path d="M0 0 C0.33 0 0.66 0 1 0 C1 1.98 1 3.96 1 6 C-1.64 6.33 -4.28 6.66 -7 7 C-6 5 -6 5 -3.5 4.0625 C-2.675 3.711875 -1.85 3.36125 -1 3 C-0.67 2.01 -0.34 1.02 0 0 Z " fill="#7D8389" transform="translate(111,89)"/>
<path d="M0 0 C-3.40351338 2.03219488 -6.3232927 2.36891039 -10.25 2.625 C-11.86648437 2.73714844 -11.86648437 2.73714844 -13.515625 2.8515625 C-14.33546875 2.90054688 -15.1553125 2.94953125 -16 3 C-16 2.67 -16 2.34 -16 2 C-14.27192682 1.66104344 -12.54248026 1.32908475 -10.8125 1 C-9.84957031 0.814375 -8.88664062 0.62875 -7.89453125 0.4375 C-5.2065794 0.03122388 -2.71228981 -0.07933572 0 0 Z " fill="#C0C0CE" transform="translate(46,117)"/>
<path d="M0 0 C0.66 0.33 1.32 0.66 2 1 C0.9375 2.5 0.9375 2.5 -1 4 C-4.6875 4.1875 -4.6875 4.1875 -8 4 C-6.66666667 3.33333333 -5.33333333 2.66666667 -4 2 C-3.29875 1.608125 -2.5975 1.21625 -1.875 0.8125 C-1.25625 0.544375 -0.6375 0.27625 0 0 Z " fill="#CDD4D7" transform="translate(111,95)"/>
<path d="M0 0 C0.8353125 0.37125 0.8353125 0.37125 1.6875 0.75 C1.6875 1.41 1.6875 2.07 1.6875 2.75 C-2.7675 3.245 -2.7675 3.245 -7.3125 3.75 C-2.88173077 -0.31153846 -2.88173077 -0.31153846 0 0 Z " fill="#72818C" transform="translate(36.3125,33.25)"/>
<path d="M0 0 C0 0.33 0 0.66 0 1 C-3.63 1.33 -7.26 1.66 -11 2 C-11 1.67 -11 1.34 -11 1 C-7.26562152 0.12132271 -3.83225427 -0.08912219 0 0 Z " fill="#BEC3C3" transform="translate(79,109)"/>
<path d="M0 0 C-3.47325181 1.1577506 -6.36067448 1.06866652 -10 1 C-10 0.67 -10 0.34 -10 0 C-6.33694766 -0.74926071 -3.57644848 -1.2380014 0 0 Z " fill="#B1BDBD" transform="translate(49,6)"/>
<path d="M0 0 C0.33 0 0.66 0 1 0 C1 2.97 1 5.94 1 9 C0.67 9 0.34 9 0 9 C0 6.03 0 3.06 0 0 Z " fill="#C6C6C6" transform="translate(125,20)"/>
<path d="M0 0 C2.64 0 5.28 0 8 0 C8 0.33 8 0.66 8 1 C5.36 1 2.72 1 0 1 C0 0.67 0 0.34 0 0 Z " fill="#7A8A9A" transform="translate(101,2)"/>
<path d="M0 0 C2.31 0 4.62 0 7 0 C7 0.33 7 0.66 7 1 C4.69 1 2.38 1 0 1 C0 0.67 0 0.34 0 0 Z " fill="#C8D0D0" transform="translate(26,9)"/>
<path d="M0 0 C2.31 0 4.62 0 7 0 C7 0.33 7 0.66 7 1 C4.69 1 2.38 1 0 1 C0 0.67 0 0.34 0 0 Z " fill="#D7D7D7" transform="translate(33,8)"/>
<path d="M0 0 C2.31 0 4.62 0 7 0 C7 0.33 7 0.66 7 1 C4.69 1 2.38 1 0 1 C0 0.67 0 0.34 0 0 Z " fill="#C8C8C8" transform="translate(89,5)"/>
<path d="M0 0 C1.98 0 3.96 0 6 0 C6 0.33 6 0.66 6 1 C4.02 1 2.04 1 0 1 C0 0.67 0 0.34 0 0 Z " fill="#DBDBDB" transform="translate(62,111)"/>
<path d="M0 0 C1.98 0 3.96 0 6 0 C6 0.33 6 0.66 6 1 C4.02 1 2.04 1 0 1 C0 0.67 0 0.34 0 0 Z " fill="#BDBDC8" transform="translate(84,106)"/>
<path d="M0 0 C1.98 0 3.96 0 6 0 C6 0.33 6 0.66 6 1 C4.02 1 2.04 1 0 1 C0 0.67 0 0.34 0 0 Z " fill="#D7EEEE" transform="translate(100,102)"/>
<path d="M0 0 C1.98 0 3.96 0 6 0 C6 0.33 6 0.66 6 1 C4.02 1 2.04 1 0 1 C0 0.67 0 0.34 0 0 Z " fill="#DBDBDB" transform="translate(64,10)"/>
<path d="M0 0 C1.98 0 3.96 0 6 0 C6 0.33 6 0.66 6 1 C4.02 1 2.04 1 0 1 C0 0.67 0 0.34 0 0 Z " fill="#B1DBDB" transform="translate(20,10)"/>
<path d="M0 0 C1.98 0 3.96 0 6 0 C6 0.33 6 0.66 6 1 C4.02 1 2.04 1 0 1 C0 0.67 0 0.34 0 0 Z " fill="#B1B1B1" transform="translate(83,6)"/>
<path d="M0 0 C1.65 0 3.3 0 5 0 C5 0.33 5 0.66 5 1 C3.35 1 1.7 1 0 1 C0 0.67 0 0.34 0 0 Z " fill="#4C4C65" transform="translate(10,125)"/>
<path d="M0 0 C1.65 0 3.3 0 5 0 C5 0.33 5 0.66 5 1 C3.35 1 1.7 1 0 1 C0 0.67 0 0.34 0 0 Z " fill="#EEEEEE" transform="translate(25,121)"/>
<path d="M0 0 C1.65 0 3.3 0 5 0 C5 0.33 5 0.66 5 1 C3.35 1 1.7 1 0 1 C0 0.67 0 0.34 0 0 Z " fill="#A1A1A1" transform="translate(90,105)"/>
<path d="M0 0 C4 1 4 1 4 1 Z " fill="#C9E9E9" transform="translate(106,101)"/>
<path d="M0 0 C4 1 4 1 4 1 Z " fill="#BFBFFF" transform="translate(115,14)"/>
<path d="" fill="#9B9B9B" transform="translate(0,0)"/>
<path d="" fill="#0000FF" transform="translate(0,0)"/>
<path d="M0 0 C2 1 2 1 2 1 Z " fill="#FFFFFF" transform="translate(49,6)"/>
<path d="" fill="#BFBFBF" transform="translate(0,0)"/>
<path d="" fill="#FFFFFF" transform="translate(0,0)"/>
<path d="" fill="#7F7F7F" transform="translate(0,0)"/>
<path d="" fill="#FFFFFF" transform="translate(0,0)"/>
<path d="" fill="#00FFFF" transform="translate(0,0)"/>
</svg>
