<svg width="128" height="128" version="1.1" xmlns="http://www.w3.org/2000/svg" desc="Created with imagetracer.js version 1.2.6" ><path fill="rgb(243,2,0)" stroke="rgb(243,2,0)" stroke-width="1" opacity="0.00392156862745098" d="M 68.5 2 L 71 3.5 L 69.5 3 L 68.5 2 Z " /><path fill="rgb(243,2,0)" stroke="rgb(243,2,0)" stroke-width="1" opacity="0.00392156862745098" d="M 75.5 7 L 77 9.5 L 76 9.5 L 75.5 7 Z " /><path fill="rgb(243,2,0)" stroke="rgb(243,2,0)" stroke-width="1" opacity="0.00392156862745098" d="M 57.5 11 Q 59.8 11.8 59 15.5 L 58 15.5 L 57.5 11 Z " /><path fill="rgb(243,2,0)" stroke="rgb(243,2,0)" stroke-width="1" opacity="0.00392156862745098" d="M 80.5 12 Q 82.8 11.3 82 13.5 L 80.5 12 Z " /><path fill="rgb(243,2,0)" stroke="rgb(243,2,0)" stroke-width="1" opacity="0.00392156862745098" d="M 58.5 17 L 59 19.5 L 58 19.5 L 58.5 17 Z " /><path fill="rgb(243,2,0)" stroke="rgb(243,2,0)" stroke-width="1" opacity="0.00392156862745098" d="M 88.5 20 L 92 24.5 L 91 24.5 L 88.5 20 Z " /><path fill="rgb(243,2,0)" stroke="rgb(243,2,0)" stroke-width="1" opacity="0.00392156862745098" d="M 56.5 24 Q 58.8 23.3 58 25.5 L 56.5 24 Z " /><path fill="rgb(243,2,0)" stroke="rgb(243,2,0)" stroke-width="1" opacity="0.00392156862745098" d="M 26.5 32 L 24.5 35 L 26.5 32 Z " /><path fill="rgb(243,2,0)" stroke="rgb(243,2,0)" stroke-width="1" opacity="0.00392156862745098" d="M 45.5 36 L 45 37.5 L 44.5 39 L 44 37.5 L 45.5 36 Z " /><path fill="rgb(243,2,0)" stroke="rgb(243,2,0)" stroke-width="1" opacity="0.00392156862745098" d="M 42.5 40 L 43 42 L 41 41.5 L 42.5 40 Z " /><path fill="rgb(243,2,0)" stroke="rgb(243,2,0)" stroke-width="1" opacity="0.00392156862745098" d="M 29.5 46 L 30 48 L 28 47.5 L 29.5 46 Z " /><path fill="rgb(243,2,0)" stroke="rgb(243,2,0)" stroke-width="1" opacity="0.00392156862745098" d="M 99.5 47 L 99 48.5 L 98.5 52 L 98 48.5 L 99.5 47 Z " /><path fill="rgb(243,2,0)" stroke="rgb(243,2,0)" stroke-width="1" opacity="0.00392156862745098" d="M 23.5 53 L 22.5 55 L 21 54.5 L 23.5 53 Z " /><path fill="rgb(243,2,0)" stroke="rgb(243,2,0)" stroke-width="1" opacity="0.00392156862745098" d="M 38.5 53 L 39 55.5 L 37 56.5 L 38.5 53 Z " /><path fill="rgb(243,2,0)" stroke="rgb(243,2,0)" stroke-width="1" opacity="0.00392156862745098" d="M 97.5 58 L 101 60.5 L 99.5 61 L 97.5 58 Z " /><path fill="rgb(243,2,0)" stroke="rgb(243,2,0)" stroke-width="1" opacity="0.00392156862745098" d="M 30.5 60 L 31 62.5 L 29 61.5 L 30.5 60 Z " /><path fill="rgb(243,2,0)" stroke="rgb(243,2,0)" stroke-width="1" opacity="0.00392156862745098" d="M 38.5 65 L 37.5 67 L 38.5 65 Z " /><path fill="rgb(243,2,0)" stroke="rgb(243,2,0)" stroke-width="1" opacity="0.00392156862745098" d="M 14.5 69 L 15 71 L 13 70.5 L 14.5 69 Z " /><path fill="rgb(243,2,0)" stroke="rgb(243,2,0)" stroke-width="1" opacity="0.00392156862745098" d="M 12 73 L 14 73.5 L 12 74.5 L 12 73 Z " /><path fill="rgb(243,2,0)" stroke="rgb(243,2,0)" stroke-width="1" opacity="0.00392156862745098" d="M 117.5 79 L 118 83.5 L 117 83.5 L 117.5 79 Z " /><path fill="rgb(243,2,0)" stroke="rgb(243,2,0)" stroke-width="1" opacity="0.00392156862745098" d="M 109.5 101 L 108.5 103 L 109.5 101 Z " /><path fill="rgb(243,2,0)" stroke="rgb(243,2,0)" stroke-width="1" opacity="0.00392156862745098" d="M 106 104 L 108 104.5 L 106 105.5 L 106 104 Z " /><path fill="rgb(243,2,0)" stroke="rgb(243,2,0)" stroke-width="1" opacity="0.00392156862745098" d="M 24.5 105 L 25.5 107 Q 22.7 107.7 24.5 105 Z " /><path fill="rgb(243,2,0)" stroke="rgb(243,2,0)" stroke-width="1" opacity="0.00392156862745098" d="M 104.5 106 L 105 108.5 L 103 107.5 L 104.5 106 Z " /><path fill="rgb(243,2,0)" stroke="rgb(243,2,0)" stroke-width="1" opacity="0.00392156862745098" d="M 21.5 111 L 23 114.5 L 22 114.5 L 21.5 111 Z " /><path fill="rgb(243,2,0)" stroke="rgb(243,2,0)" stroke-width="1" opacity="0.00392156862745098" d="M 107.5 111 L 107 112.5 L 106.5 114 L 106 112.5 L 107.5 111 Z " /><path fill="rgb(243,2,0)" stroke="rgb(243,2,0)" stroke-width="1" opacity="0.00392156862745098" d="M 24.5 114 L 25.5 116 L 24.5 114 Z " /><path fill="rgb(243,2,0)" stroke="rgb(243,2,0)" stroke-width="1" opacity="0.00392156862745098" d="M 98.5 118 L 97.5 120 L 96 119.5 L 98.5 118 Z " /><path fill="rgb(0,0,0)" stroke="rgb(0,0,0)" stroke-width="1" opacity="0" d="M 0 0 L 56.5 0 L 57 0.5 L 57 12.5 L 58.5 20 L 59 12.5 L 58 11.5 L 58 0.5 L 59 0.5 L 61 18.5 L 58.5 22 L 57.5 20 Q 57.8 24.3 55 25.5 L 58 26.5 L 52.5 29 L 49 28 L 45.5 36 L 44 35.5 L 45 41 Q 41.7 42.3 43 37.5 L 42 37.5 L 40 44.5 L 40 49.5 L 41 53.5 L 38.5 65 L 38 56.5 Q 40.5 55 39 49.5 L 38 49.5 L 37 66 L 33 66.5 L 37.5 67 L 39 66.5 L 38 69 Q 31.6 70.3 30 65.5 L 31.5 66 L 33 65.5 L 31.5 63 Q 30.3 65.3 29 62.5 L 31 62.5 L 30.5 53 L 29.5 61 L 29 53 Q 24.3 52 23 55.5 L 21.5 58 L 22 56.5 L 23 54.5 L 21 54 L 20 58.5 L 21 61 Q 18.3 62.1 19 59.5 L 18 59.5 L 16 66.5 L 16 70.5 L 14 74.5 L 14 87.5 L 17 92.5 L 16 95.5 L 18.5 100 L 19 98.5 L 18 96.5 L 20 97.5 L 21 99.5 L 20 101.5 L 23 102.5 L 21 102.5 L 20 104.5 L 27 107 Q 28.1 109.7 25.5 109 Q 23.6 105.4 19 106 L 18.5 109 L 17.5 106 L 17 109.5 Q 18.3 112.3 19.5 110 L 21 110.5 L 21 112.5 L 22.5 115 L 25.5 116 L 24.5 114 L 22 112.5 L 23.5 113 L 33.5 121 L 40 123 Q 38.8 126 42.5 125 L 50 127.5 L 47.5 128 L 43.5 127 L 42.5 128 L 0 128 L 0 0 Z M 30 25 L 30 26 L 32 26 L 30 25 Z M 53 26 L 53 27 L 55 27 L 53 26 Z M 31 27 L 28 32 L 26 31 L 24 35 L 27 34 L 25 37 L 23 38 Q 21 36 20 39 L 21 43 L 19 52 L 21 54 L 23 53 L 25 53 L 24 51 L 26 50 L 31 43 L 31 45 L 32 45 L 31 42 Q 35 38 33 29 L 31 27 Z M 27 28 L 26 31 L 27 31 L 27 28 Z M 35 28 L 34 39 L 33 40 L 34 43 L 35 40 L 35 28 Z M 46 31 L 45 35 L 46 35 L 46 31 Z M 19 40 L 18 44 L 19 44 L 19 40 Z M 18 44 L 17 52 L 18 52 L 18 44 Z M 31 45 L 29 48 L 31 47 L 31 45 Z M 28 49 L 26 51 L 28 51 L 28 49 Z M 15 67 L 12 74 L 13 88 L 13 75 L 15 71 L 15 67 Z M 14 88 L 14 94 L 15 94 L 14 88 Z M 36 123 L 36 124 L 38 124 L 36 123 Z M 41 126 L 41 127 L 43 127 L 41 126 Z " /><path fill="rgb(0,0,0)" stroke="rgb(0,0,0)" stroke-width="1" opacity="0" d="M 63.5 0 L 65.5 1 L 66.5 0 L 128 0 L 128 128 L 82.5 128 L 82.5 127 L 86 126.5 L 81.5 126 L 73.5 128 L 73.5 127 L 84.5 125 L 87.5 123 L 91.5 124 L 94 122.5 L 91.5 122 L 89.5 123 L 89.5 122 L 94 121 Q 92.9 118.3 95.5 119 L 101.5 115 L 104.5 116 L 104.5 115 L 103 114.5 L 104.5 114 Q 105.8 116.3 107 113.5 L 106.5 112 L 105 112.5 L 106 110 L 100.5 111 L 102 108.5 L 109.5 100 L 108.5 103 L 111 101.5 L 112 98.5 L 110 98.5 L 113.5 94 L 114.5 96 Q 116.8 94.3 116 89.5 L 115 88.5 L 115 73.5 Q 117.3 72.3 116 67.5 L 115 67.5 L 114.5 72 L 111 59.5 L 112 56.5 L 110.5 53 L 109.5 56 L 109 53 Q 103.8 50.9 105 55.5 L 104.5 58 Q 101.1 58.9 103 53.5 L 102 53.5 Q 100.8 59.6 103.5 59 L 101.5 62 Q 97.5 62.5 97 59.5 L 99 59.5 L 100 37.5 L 97.5 29 L 97 32.5 Q 100.1 37.9 99 47.5 L 98 48.5 L 97.5 58 L 97 48.5 L 98 47.5 L 98 38.5 L 97 33.5 L 94 29.5 L 96 29.5 L 94.5 26 L 93.5 28 L 92.5 26 Q 94.8 26.8 94 24.5 L 92 24.5 Q 92.5 20.5 89.5 20 L 88 20.5 L 90.5 24 L 85.5 18 L 83 16.5 Q 83.8 14.3 81.5 15 Q 76.1 7.8 68 5 Q 69.1 2.3 66.5 3 L 63.5 0 Z M 71 3 L 70 5 L 74 7 L 75 7 L 71 3 Z M 76 7 L 75 9 L 78 10 L 76 7 Z M 81 12 L 82 14 L 83 14 L 81 12 Z M 106 50 L 106 51 L 108 51 L 106 50 Z M 102 59 L 99 61 L 102 61 L 102 59 Z M 114 59 L 114 67 L 115 67 Q 116 61 114 59 Z M 118 72 L 117 89 L 118 89 L 118 72 Z M 108 103 L 106 106 L 108 105 L 108 103 Z M 105 106 L 103 108 Q 102 110 105 109 L 106 107 L 105 106 Z M 99 118 L 97 119 L 97 120 L 101 119 L 99 118 Z M 87 125 L 87 126 L 89 126 L 87 125 Z " /><path fill="rgb(0,0,0)" stroke="rgb(0,0,0)" stroke-width="1" opacity="0" d="M 42.5 42 L 43 44.5 L 41.5 49 L 41 45.5 L 42.5 42 Z " /><path fill="rgb(0,0,0)" stroke="rgb(0,0,0)" stroke-width="1" opacity="0" d="M 114.5 90 L 115 92.5 L 114 92.5 L 114.5 90 Z " /><path fill="rgb(254,102,57)" stroke="rgb(254,102,57)" stroke-width="1" opacity="0.9803921568627451" d="M 63.5 5 L 82 22.5 L 87 32.5 L 88 43.5 Q 84.7 48.2 86 57.5 L 91.5 64 Q 95.1 66.9 102.5 66 L 107.5 60 L 108 61.5 L 103.5 67 L 93 74 Q 91.9 76.7 94.5 76 L 96 75.5 Q 94.3 78.8 88.5 78 L 84 74.5 L 82 66.5 L 83 65.5 L 83 45.5 Q 79.5 30.6 68.5 23 L 67 23.5 L 67 31.5 L 55 47.5 L 50 57.5 L 47 77.5 L 40.5 85 L 36 85 Q 37.5 81.3 34.5 82 L 25 73.5 L 25.5 72 Q 27.3 75.8 29 72.5 L 25.5 65 L 24.5 67 L 24 60 Q 27.7 58.6 26 64.5 L 31.5 72 Q 34.4 74.6 40.5 74 L 47 69.5 Q 49.5 62 48 50.5 L 53 32 L 60.5 32 L 63 29.5 L 65 22.5 L 65 12.5 L 63.5 5 Z " /><path fill="rgb(254,102,57)" stroke="rgb(254,102,57)" stroke-width="1" opacity="0.9803921568627451" d="M 75.5 11 L 76.5 13 L 75.5 11 Z " /><path fill="rgb(254,102,57)" stroke="rgb(254,102,57)" stroke-width="1" opacity="0.9803921568627451" d="M 80.5 15 L 88.5 24 L 80.5 15 Z " /><path fill="rgb(254,102,57)" stroke="rgb(254,102,57)" stroke-width="1" opacity="0.9803921568627451" d="M 59.5 26 L 58.5 28 L 59.5 26 Z " /><path fill="rgb(254,102,57)" stroke="rgb(254,102,57)" stroke-width="1" opacity="0.9803921568627451" d="M 30.5 30 L 31 32 L 29 31.5 L 30.5 30 Z " /><path fill="rgb(254,102,57)" stroke="rgb(254,102,57)" stroke-width="1" opacity="0.9803921568627451" d="M 30.5 33 L 31 38.5 L 28.5 44 L 27 43.5 L 28 45.5 L 21 51 Q 19.8 43.5 23.5 40 L 25 39.5 L 24 38.5 L 27.5 35 Q 31 36 30.5 33 Z " /><path fill="rgb(254,102,57)" stroke="rgb(254,102,57)" stroke-width="1" opacity="0.9803921568627451" d="M 42.5 50 L 43 53.5 L 42 53.5 L 42.5 50 Z " /><path fill="rgb(254,102,57)" stroke="rgb(254,102,57)" stroke-width="1" opacity="0.9803921568627451" d="M 26.5 54 L 28 56.5 L 27 56.5 L 26.5 54 Z " /><path fill="rgb(254,102,57)" stroke="rgb(254,102,57)" stroke-width="1" opacity="0.9803921568627451" d="M 105.5 55 L 108 55.5 L 105.5 56 L 105.5 55 Z " /><path fill="rgb(254,102,57)" stroke="rgb(254,102,57)" stroke-width="1" opacity="0.9803921568627451" d="M 34.5 70 L 37 70.5 L 34.5 71 L 34.5 70 Z " /><path fill="rgb(254,102,57)" stroke="rgb(254,102,57)" stroke-width="1" opacity="0.9803921568627451" d="M 113.5 73 L 114 75.5 L 113 75.5 L 113.5 73 Z " /><path fill="rgb(254,102,57)" stroke="rgb(254,102,57)" stroke-width="1" opacity="0.9803921568627451" d="M 15.5 79 L 16 83.5 L 15 83.5 L 15.5 79 Z " /><path fill="rgb(254,102,57)" stroke="rgb(254,102,57)" stroke-width="1" opacity="0.9803921568627451" d="M 22.5 99 L 23.5 101 L 22.5 99 Z " /><path fill="rgb(254,102,57)" stroke="rgb(254,102,57)" stroke-width="1" opacity="0.9803921568627451" d="M 25.5 103 L 27.5 106 L 25.5 103 Z " /><path fill="rgb(254,102,57)" stroke="rgb(254,102,57)" stroke-width="1" opacity="0.9803921568627451" d="M 103.5 104 L 100.5 108 L 103.5 104 Z " /><path fill="rgb(254,102,57)" stroke="rgb(254,102,57)" stroke-width="1" opacity="0.9803921568627451" d="M 28.5 107 L 30 109.5 L 29 109.5 L 28.5 107 Z " /><path fill="rgb(254,102,57)" stroke="rgb(254,102,57)" stroke-width="1" opacity="0.9803921568627451" d="M 25.5 112 L 27.5 115 L 25.5 112 Z " /><path fill="rgb(254,102,57)" stroke="rgb(254,102,57)" stroke-width="1" opacity="0.9803921568627451" d="M 30.5 116 L 31.5 118 L 30.5 116 Z " /><path fill="rgb(254,102,57)" stroke="rgb(254,102,57)" stroke-width="1" opacity="0.9803921568627451" d="M 38.5 121 L 41 122.5 L 39.5 122 L 38.5 121 Z " /><path fill="rgb(254,155,54)" stroke="rgb(254,155,54)" stroke-width="1" opacity="0.996078431372549" d="M 67 23 L 68.5 23 L 77 31.5 L 83 45.5 L 83 65.5 L 82 69.5 L 86.5 77 L 92.5 78 L 97 76 L 95 94.5 Q 96.2 97.8 100 97 L 97.5 104 Q 95 103 96 98.5 L 97 97.5 L 94 94.5 Q 95.5 87.5 92.5 88 L 90 87 L 88.5 84 L 79 75.5 Q 76.6 70.4 78 61.5 L 74.5 56 L 68.5 55 L 60.5 58 L 57 61.5 L 48.5 80 Q 46.3 79.3 47 81.5 L 41 86.5 L 38 92.5 L 39 94.5 L 36 106.5 L 38 109.5 L 36 108.5 L 33 101.5 L 35 93.5 L 33 90.5 L 34 87.5 L 33 85.5 L 34.5 86 Q 43.5 86 46 79.5 L 48 74.5 L 50 57.5 L 55 47.5 L 67 31.5 L 67 23 Z M 69 24 L 68 26 L 71 27 L 69 24 Z " /><path fill="rgb(254,155,54)" stroke="rgb(254,155,54)" stroke-width="1" opacity="0.996078431372549" d="M 25.5 65 L 29 72.5 Q 27 76 25 71.5 L 24 67.5 L 25.5 65 Z " /><path fill="rgb(254,155,54)" stroke="rgb(254,155,54)" stroke-width="1" opacity="0.996078431372549" d="M 96.5 105 L 95.5 107 L 96.5 105 Z " /><path fill="rgb(254,155,54)" stroke="rgb(254,155,54)" stroke-width="1" opacity="0.996078431372549" d="M 94.5 108 L 92.5 111 L 94.5 108 Z " /><path fill="rgb(254,155,54)" stroke="rgb(254,155,54)" stroke-width="1" opacity="0.996078431372549" d="M 38.5 111 L 40.5 114 L 38.5 111 Z " /><path fill="rgb(254,155,54)" stroke="rgb(254,155,54)" stroke-width="1" opacity="0.996078431372549" d="M 90.5 113 L 89 115.5 L 88 120 L 86 120.5 L 88 121.5 L 82 123 Q 80.9 120.3 83.5 121 L 90.5 113 Z " /><path fill="rgb(254,155,54)" stroke="rgb(254,155,54)" stroke-width="1" opacity="0.996078431372549" d="M 41.5 115 L 46 120.5 L 45.5 122 L 50 124.5 L 45.5 125 L 45.5 123 L 42.5 124 L 43 122.5 Q 40 119.8 41.5 115 Z " /><path fill="rgb(251,93,15)" stroke="rgb(251,93,15)" stroke-width="1" opacity="0.9921568627450981" d="M 63.5 4 L 87 25.5 L 88 29 Q 90.7 27.9 90 30.5 L 90 32.5 L 91 49.5 L 89 58.5 L 92 63.5 L 87 59.5 Q 84.5 56 86 48.5 Q 88.7 45.2 88 38.5 L 84 25.5 L 73.5 14 L 63.5 4 Z " /><path fill="rgb(251,93,15)" stroke="rgb(251,93,15)" stroke-width="1" opacity="0.9921568627450981" d="M 64.5 12 L 65 22.5 L 63 29.5 L 60.5 32 L 57 31.5 L 61 31 L 64 22.5 L 64.5 12 Z " /><path fill="rgb(251,93,15)" stroke="rgb(251,93,15)" stroke-width="1" opacity="0.9921568627450981" d="M 52.5 32 L 53 35.5 L 48 50.5 Q 49.5 62 47 69.5 L 43.5 73 L 36.5 74 L 33 72.5 L 43 71 L 46 63.5 L 47 47.5 L 52.5 32 Z " /><path fill="rgb(251,93,15)" stroke="rgb(251,93,15)" stroke-width="1" opacity="0.9921568627450981" d="M 26.5 62 L 27 64.5 L 26 64.5 L 26.5 62 Z " /><path fill="rgb(251,93,15)" stroke="rgb(251,93,15)" stroke-width="1" opacity="0.9921568627450981" d="M 107.5 62 L 108 63.5 L 104 67.5 Q 104.6 73.6 102 76.5 L 101 91.5 L 98 94.5 Q 99.3 97.3 100.5 95 L 103 95.5 L 99 104.5 L 100 105.5 L 98.5 108 L 100 108.5 Q 96.3 110.3 99.5 112 L 103 112.5 L 98.5 116 L 97 115.5 Q 97.8 117.8 95.5 117 Q 92.7 120.7 86.5 121 L 86.5 120 Q 88.8 120.8 88 118.5 L 97 105.5 L 100 97 Q 96.2 97.8 95 94.5 L 97 76.5 Q 95.8 73.8 94.5 76 Q 91.9 76.7 93 74 L 107 63.5 L 107.5 62 Z " /><path fill="rgb(251,93,15)" stroke="rgb(251,93,15)" stroke-width="1" opacity="0.9921568627450981" d="M 23.5 63 L 25 73.5 L 32.5 81 L 36 82 L 37 85.5 L 34.5 86 L 33 85.5 L 34 89.5 L 34 91.5 L 35 93.5 L 33 102.5 L 41 114.5 Q 40.4 120.7 43 123 L 46 123.5 L 43.5 124 L 32 117.5 L 32.5 116 L 29 114.5 L 31 113.5 L 27 111.5 L 30 109.5 L 28 106.5 L 31 107.5 L 31.5 106 L 33 106.5 Q 29 100.5 28 91.5 L 25.5 88 L 23 86.5 L 22 81.5 L 22 66.5 L 23.5 63 Z " /><path fill="rgb(251,93,15)" stroke="rgb(251,93,15)" stroke-width="1" opacity="0.9921568627450981" d="M 96.5 65 L 99 65.5 L 96.5 66 L 96.5 65 Z " /><path fill="rgb(251,93,15)" stroke="rgb(251,93,15)" stroke-width="1" opacity="0.9921568627450981" d="M 28.5 68 L 31.5 72 L 28.5 68 Z " /><path fill="rgb(251,93,15)" stroke="rgb(251,93,15)" stroke-width="1" opacity="0.9921568627450981" d="M 24.5 109 L 25.5 111 L 24.5 109 Z " /><path fill="rgb(254,182,49)" stroke="rgb(254,182,49)" stroke-width="1" opacity="0.9921568627450981" d="M 68.5 24 L 71.5 28 L 68 25.5 L 68.5 24 Z " /><path fill="rgb(254,182,49)" stroke="rgb(254,182,49)" stroke-width="1" opacity="0.9921568627450981" d="M 68.5 55 Q 75.4 54.1 77 58.5 L 79 75.5 L 87.5 84 L 90 85.5 Q 89.3 87.8 91.5 87 L 94 88 Q 92.2 95.5 97 97.5 L 96 102.5 L 97 104.5 L 83.5 121 Q 81.3 120.3 82 122.5 L 82.5 124 L 75 126 Q 73.9 123.3 76.5 124 L 88 113.5 L 87 110.5 L 88 105.5 L 87 104.5 L 87 93.5 L 84 86.5 L 78 79.5 L 74 68.5 L 74 66.5 L 75 64.5 L 72 64 Q 73.7 59.9 69.5 61 Q 68 64.3 63 63 L 63 67 L 61.5 67 L 60 70 L 58 70 L 58 72 Q 55.3 70.9 56 73.5 L 52 77.5 L 47 87.5 L 46 97.5 Q 48.3 98.7 45.5 100 Q 42.1 99.1 44 104.5 L 45 105.5 L 45 113.5 L 45 115.5 L 48.5 120 L 55 125.5 L 51.5 127 L 47 125.5 L 50 124.5 L 45 121.5 L 46 119.5 L 36 106.5 L 39 93.5 L 39 91.5 L 42.5 85 L 47 81.5 Q 46.3 79.3 48.5 80 L 57 61.5 L 60.5 58 L 68.5 55 Z " /><path fill="rgb(254,182,49)" stroke="rgb(254,182,49)" stroke-width="1" opacity="0.9921568627450981" d="M 73.5 125 L 72.5 127 L 73.5 125 Z " /><path fill="rgb(254,218,74)" stroke="rgb(254,218,74)" stroke-width="1" opacity="0.996078431372549" d="M 69.5 61 L 72 61 Q 70.3 65.1 74.5 64 L 74 65.5 L 75 67.5 L 74 70.5 L 87 93.5 L 88 109.5 L 87 111.5 L 88 113.5 L 75 124 L 73.5 127 L 71 126.5 L 71 124.5 L 77 116.5 L 78 105.5 L 69.5 95 L 64.5 93 L 59.5 100 Q 54.5 99.5 54 103.5 Q 51.2 106.2 52 112.5 Q 54.1 119.9 59.5 124 L 63 126.5 L 54.5 127 L 55 125.5 L 49.5 120 L 45 116.5 L 44 114.5 L 45 113.5 L 45 105.5 L 44 100 L 47 98.5 Q 44.5 97 46 91.5 L 52 77.5 L 56 72 L 58 72 L 58 70 Q 60.7 71.1 60 68.5 L 63 67 Q 60.8 61 67.5 63 L 69.5 61 Z " /><path fill="rgb(248,247,212)" stroke="rgb(248,247,212)" stroke-width="1" opacity="0.6901960784313725" d="M 72.5 7 L 74.5 10 L 72.5 7 Z " /><path fill="rgb(248,247,212)" stroke="rgb(248,247,212)" stroke-width="1" opacity="0.6901960784313725" d="M 60.5 9 L 61 13.5 L 60 13.5 L 60.5 9 Z " /><path fill="rgb(248,247,212)" stroke="rgb(248,247,212)" stroke-width="1" opacity="0.6901960784313725" d="M 77.5 11 L 79.5 14 L 77.5 11 Z " /><path fill="rgb(248,247,212)" stroke="rgb(248,247,212)" stroke-width="1" opacity="0.6901960784313725" d="M 85.5 18 L 86.5 20 L 85.5 18 Z " /><path fill="rgb(248,247,212)" stroke="rgb(248,247,212)" stroke-width="1" opacity="0.6901960784313725" d="M 60.5 19 L 61 21.5 L 59 22.5 L 60.5 19 Z " /><path fill="rgb(248,247,212)" stroke="rgb(248,247,212)" stroke-width="1" opacity="0.6901960784313725" d="M 90.5 24 L 92.5 25 L 94 24.5 Q 94.8 27.1 91.5 26 L 90.5 24 Z " /><path fill="rgb(248,247,212)" stroke="rgb(248,247,212)" stroke-width="1" opacity="0.6901960784313725" d="M 29.5 25 L 32 25.5 L 29.5 26 L 29.5 25 Z " /><path fill="rgb(248,247,212)" stroke="rgb(248,247,212)" stroke-width="1" opacity="0.6901960784313725" d="M 30.5 27 L 33 28.5 L 29.5 29 L 30.5 27 Z " /><path fill="rgb(248,247,212)" stroke="rgb(248,247,212)" stroke-width="1" opacity="0.6901960784313725" d="M 56.5 27 L 55.5 29 L 56.5 27 Z " /><path fill="rgb(248,247,212)" stroke="rgb(248,247,212)" stroke-width="1" opacity="0.6901960784313725" d="M 49.5 28 L 52 28.5 L 49.5 29 L 49.5 28 Z " /><path fill="rgb(248,247,212)" stroke="rgb(248,247,212)" stroke-width="1" opacity="0.6901960784313725" d="M 26.5 30 L 25.5 32 L 26.5 30 Z " /><path fill="rgb(248,247,212)" stroke="rgb(248,247,212)" stroke-width="1" opacity="0.6901960784313725" d="M 48.5 30 L 49 31.5 L 47 32.5 L 48.5 30 Z " /><path fill="rgb(248,247,212)" stroke="rgb(248,247,212)" stroke-width="1" opacity="0.6901960784313725" d="M 28.5 31 L 28 32.5 L 25.5 36 L 27 33.5 L 28.5 31 Z " /><path fill="rgb(248,247,212)" stroke="rgb(248,247,212)" stroke-width="1" opacity="0.6901960784313725" d="M 32.5 31 L 33 35.5 L 32 35.5 L 32.5 31 Z " /><path fill="rgb(248,247,212)" stroke="rgb(248,247,212)" stroke-width="1" opacity="0.6901960784313725" d="M 95.5 32 L 97 34.5 L 95 33.5 L 95.5 32 Z " /><path fill="rgb(248,247,212)" stroke="rgb(248,247,212)" stroke-width="1" opacity="0.6901960784313725" d="M 32.5 37 L 32 38.5 L 31.5 40 L 31 38.5 L 32.5 37 Z " /><path fill="rgb(248,247,212)" stroke="rgb(248,247,212)" stroke-width="1" opacity="0.6901960784313725" d="M 99.5 37 L 100 40.5 L 99 40.5 L 99.5 37 Z " /><path fill="rgb(248,247,212)" stroke="rgb(248,247,212)" stroke-width="1" opacity="0.6901960784313725" d="M 97.5 38 L 98 47.5 L 97 47.5 L 97.5 38 Z " /><path fill="rgb(248,247,212)" stroke="rgb(248,247,212)" stroke-width="1" opacity="0.6901960784313725" d="M 43 41 L 45 41.5 L 43 42.5 L 43 41 Z " /><path fill="rgb(248,247,212)" stroke="rgb(248,247,212)" stroke-width="1" opacity="0.6901960784313725" d="M 20.5 43 L 21 46.5 L 20 46.5 L 20.5 43 Z " /><path fill="rgb(248,247,212)" stroke="rgb(248,247,212)" stroke-width="1" opacity="0.6901960784313725" d="M 20.5 48 L 21 50.5 L 20 52.5 L 20.5 54 L 19 51.5 L 20.5 48 Z " /><path fill="rgb(248,247,212)" stroke="rgb(248,247,212)" stroke-width="1" opacity="0.6901960784313725" d="M 17.5 49 L 18 51.5 L 17 51.5 L 17.5 49 Z " /><path fill="rgb(248,247,212)" stroke="rgb(248,247,212)" stroke-width="1" opacity="0.6901960784313725" d="M 23.5 51 Q 28.5 53.5 23.5 56 L 25 53.5 L 23.5 51 Z " /><path fill="rgb(248,247,212)" stroke="rgb(248,247,212)" stroke-width="1" opacity="0.6901960784313725" d="M 22.5 57 L 22 58.5 L 21.5 60 L 21 58.5 L 22.5 57 Z " /><path fill="rgb(248,247,212)" stroke="rgb(248,247,212)" stroke-width="1" opacity="0.6901960784313725" d="M 37.5 57 L 38 59.5 L 37 59.5 L 37.5 57 Z " /><path fill="rgb(248,247,212)" stroke="rgb(248,247,212)" stroke-width="1" opacity="0.6901960784313725" d="M 40.5 57 L 41 60.5 L 39.5 65 L 39 61.5 L 40.5 57 Z " /><path fill="rgb(248,247,212)" stroke="rgb(248,247,212)" stroke-width="1" opacity="0.6901960784313725" d="M 103.5 58 Q 105.8 57.3 105 59.5 L 102 61.5 Q 105.1 59.7 103.5 58 Z " /><path fill="rgb(248,247,212)" stroke="rgb(248,247,212)" stroke-width="1" opacity="0.6901960784313725" d="M 97.5 60 L 98.5 62 L 97.5 60 Z " /><path fill="rgb(248,247,212)" stroke="rgb(248,247,212)" stroke-width="1" opacity="0.6901960784313725" d="M 19 61 L 21 61.5 L 19 65 L 17 64.5 L 19 61 Z " /><path fill="rgb(248,247,212)" stroke="rgb(248,247,212)" stroke-width="1" opacity="0.6901960784313725" d="M 111.5 62 L 112.5 64 Q 109.7 64.7 111.5 62 Z " /><path fill="rgb(248,247,212)" stroke="rgb(248,247,212)" stroke-width="1" opacity="0.6901960784313725" d="M 16.5 70 L 17 71.5 L 15 72.5 L 16.5 70 Z " /><path fill="rgb(248,247,212)" stroke="rgb(248,247,212)" stroke-width="1" opacity="0.6901960784313725" d="M 114.5 72 L 115 74.5 L 114 74.5 L 114.5 72 Z " /><path fill="rgb(248,247,212)" stroke="rgb(248,247,212)" stroke-width="1" opacity="0.6901960784313725" d="M 14.5 74 L 15 76.5 L 14 76.5 L 14.5 74 Z " /><path fill="rgb(248,247,212)" stroke="rgb(248,247,212)" stroke-width="1" opacity="0.6901960784313725" d="M 14.5 85 L 17 90.5 L 15 89.5 L 14.5 85 Z " /><path fill="rgb(248,247,212)" stroke="rgb(248,247,212)" stroke-width="1" opacity="0.6901960784313725" d="M 64.5 93 Q 72.4 95.1 76 101.5 Q 79 104.5 78 111.5 L 77 116.5 L 71 124.5 L 71 127 L 73 127.5 L 50.5 128 L 50.5 127 L 63 126.5 L 57 121.5 Q 51.8 117.2 52 107.5 L 57.5 100 L 61 98.5 L 64.5 93 Z " /><path fill="rgb(248,247,212)" stroke="rgb(248,247,212)" stroke-width="1" opacity="0.6901960784313725" d="M 111 95 L 113 95.5 L 110 97.5 L 111 95 Z " /><path fill="rgb(248,247,212)" stroke="rgb(248,247,212)" stroke-width="1" opacity="0.6901960784313725" d="M 20.5 98 L 27 106.5 L 23 103.5 L 20.5 98 Z " /><path fill="rgb(248,247,212)" stroke="rgb(248,247,212)" stroke-width="1" opacity="0.6901960784313725" d="M 109.5 99 L 107.5 102 L 109.5 99 Z " /><path fill="rgb(248,247,212)" stroke="rgb(248,247,212)" stroke-width="1" opacity="0.6901960784313725" d="M 19.5 107 L 24 112.5 L 20 111.5 L 20.5 110 L 18.5 111 L 17.5 109 Q 20 109.7 19.5 107 Z " /><path fill="rgb(248,247,212)" stroke="rgb(248,247,212)" stroke-width="1" opacity="0.6901960784313725" d="M 27.5 108 L 28.5 110 Q 25.7 110.7 27.5 108 Z " /><path fill="rgb(248,247,212)" stroke="rgb(248,247,212)" stroke-width="1" opacity="0.6901960784313725" d="M 101.5 108 L 101.5 110 L 103 110.5 L 101.5 111 L 99 110.5 L 101.5 108 Z " /><path fill="rgb(248,247,212)" stroke="rgb(248,247,212)" stroke-width="1" opacity="0.6901960784313725" d="M 31.5 118 L 33.5 121 L 31.5 118 Z " /><path fill="rgb(248,247,212)" stroke="rgb(248,247,212)" stroke-width="1" opacity="0.6901960784313725" d="M 85.5 123 L 84.5 125 L 85.5 123 Z " /><path fill="rgb(243,45,7)" stroke="rgb(243,45,7)" stroke-width="1" opacity="0.9764705882352941" d="M 61 1 L 63 1 Q 61.9 3.7 64.5 3 Q 79.4 13.1 91 26.5 L 96 37.5 L 96 50.5 L 95 51.5 L 95 59.5 Q 96 64 102.5 63 Q 106.1 60.9 106 56 Q 108.7 54.9 108 57.5 L 111 62.5 L 113 75.5 L 115 80.5 L 114 82.5 L 114 84.5 L 111 95.5 L 99.5 108 L 98 107.5 L 100 103.5 L 103 95.5 L 100.5 95 Q 99.3 97.3 98 94.5 L 101 91.5 L 101 84.5 L 104 67.5 L 108 63.5 L 108 60.5 L 105 62.5 L 103.5 65 L 99.5 66 L 94.5 65 L 90 61.5 L 89 58.5 L 90 57.5 L 91 43.5 L 90 42.5 L 90 32.5 L 89 31.5 L 90 29 Q 87.3 30.1 88 27.5 L 76.5 15 L 63.5 4 L 63 9.5 L 64 10.5 L 64 22.5 L 61 31 L 52 32 L 52 35.5 L 47 47.5 L 46 63.5 L 43 71 Q 40 73 32.5 72 L 28 67.5 L 26 60 Q 23 58.8 24 62.5 L 22 66.5 L 22 81.5 L 24.5 88 L 27 89.5 L 33 106.5 L 31 106.5 L 32 109.5 L 31 109.5 Q 21.9 101.6 17 89.5 L 16 76.5 L 20 63.5 L 25 55 Q 28 53.8 27 57.5 L 27 59.5 Q 27.4 66.1 31.5 69 L 36.5 71 L 40 69 L 42 58.5 L 41 56.5 L 43 53.5 L 43 48.5 L 45 41.5 L 51.5 29 L 54.5 30 L 60 26.5 Q 63 21.5 62 12.5 L 61 11.5 L 61 1 Z " /><path fill="rgb(243,45,7)" stroke="rgb(243,45,7)" stroke-width="1" opacity="0.9764705882352941" d="M 29 32 L 31 32.5 L 30 35 L 28 34.5 L 29 32 Z " /><path fill="rgb(243,45,7)" stroke="rgb(243,45,7)" stroke-width="1" opacity="0.9764705882352941" d="M 26.5 37 L 24.5 40 L 26.5 37 Z " /><path fill="rgb(243,45,7)" stroke="rgb(243,45,7)" stroke-width="1" opacity="0.9764705882352941" d="M 27.5 44 L 22.5 50 L 27.5 44 Z " /><path fill="rgb(243,45,7)" stroke="rgb(243,45,7)" stroke-width="1" opacity="0.9764705882352941" d="M 22.5 109 L 29 113.5 Q 28.3 115.8 30.5 115 L 33 116.5 L 31.5 117 Q 24.8 113.8 22.5 109 Z " /><path fill="rgb(240,118,108)" stroke="rgb(240,118,108)" stroke-width="1" opacity="0.23137254901960785" d="M 59 0 Q 63.5 -0.8 65.5 2 L 82 15.5 L 80.5 15 L 61.5 1 Q 58.7 2.3 61 3.5 L 60.5 9 Q 58.1 5.7 59 0 Z " /><path fill="rgb(240,118,108)" stroke="rgb(240,118,108)" stroke-width="1" opacity="0.23137254901960785" d="M 57.5 5 L 58 8.5 L 57 8.5 L 57.5 5 Z " /><path fill="rgb(240,118,108)" stroke="rgb(240,118,108)" stroke-width="1" opacity="0.23137254901960785" d="M 61.5 13 L 62 18.5 L 61 18.5 L 61.5 13 Z " /><path fill="rgb(240,118,108)" stroke="rgb(240,118,108)" stroke-width="1" opacity="0.23137254901960785" d="M 82.5 13 L 83.5 15 L 82.5 13 Z " /><path fill="rgb(240,118,108)" stroke="rgb(240,118,108)" stroke-width="1" opacity="0.23137254901960785" d="M 85.5 16 L 87.5 19 L 85.5 16 Z " /><path fill="rgb(240,118,108)" stroke="rgb(240,118,108)" stroke-width="1" opacity="0.23137254901960785" d="M 83.5 17 L 86.5 21 L 83.5 17 Z " /><path fill="rgb(240,118,108)" stroke="rgb(240,118,108)" stroke-width="1" opacity="0.23137254901960785" d="M 89.5 20 L 90.5 22 L 89.5 20 Z " /><path fill="rgb(240,118,108)" stroke="rgb(240,118,108)" stroke-width="1" opacity="0.23137254901960785" d="M 60.5 22 L 61 23.5 L 56.5 29 L 59 25.5 L 60.5 22 Z " /><path fill="rgb(240,118,108)" stroke="rgb(240,118,108)" stroke-width="1" opacity="0.23137254901960785" d="M 88.5 22 L 95 32.5 L 94 32.5 L 88.5 22 Z " /><path fill="rgb(240,118,108)" stroke="rgb(240,118,108)" stroke-width="1" opacity="0.23137254901960785" d="M 29 29 L 33 29 L 33 30.5 L 32 35.5 Q 34.3 36.8 31.5 38 L 30.5 30 L 29 30.5 L 29 29 Z " /><path fill="rgb(240,118,108)" stroke="rgb(240,118,108)" stroke-width="1" opacity="0.23137254901960785" d="M 34.5 29 L 35 38.5 L 34 38.5 L 34.5 29 Z " /><path fill="rgb(240,118,108)" stroke="rgb(240,118,108)" stroke-width="1" opacity="0.23137254901960785" d="M 49 29 L 51 29.5 L 49 30.5 L 49 29 Z " /><path fill="rgb(240,118,108)" stroke="rgb(240,118,108)" stroke-width="1" opacity="0.23137254901960785" d="M 52.5 29 L 55 29.5 L 52.5 30 L 52.5 29 Z " /><path fill="rgb(240,118,108)" stroke="rgb(240,118,108)" stroke-width="1" opacity="0.23137254901960785" d="M 45.5 32 L 46 34.5 L 45 34.5 L 45.5 32 Z " /><path fill="rgb(240,118,108)" stroke="rgb(240,118,108)" stroke-width="1" opacity="0.23137254901960785" d="M 48.5 32 L 49 33.5 L 45.5 41 L 45 39.5 L 48.5 32 Z " /><path fill="rgb(240,118,108)" stroke="rgb(240,118,108)" stroke-width="1" opacity="0.23137254901960785" d="M 27.5 34 L 24 38.5 L 22.5 41 L 23 39.5 L 24 37.5 L 23.5 36 L 24.5 37 L 27.5 34 Z " /><path fill="rgb(240,118,108)" stroke="rgb(240,118,108)" stroke-width="1" opacity="0.23137254901960785" d="M 95.5 34 L 97 35.5 L 97 55.5 L 96 57.5 L 98 61.5 L 96 60.5 L 95 52.5 L 96 51.5 L 96 36.5 L 95.5 34 Z " /><path fill="rgb(240,118,108)" stroke="rgb(240,118,108)" stroke-width="1" opacity="0.23137254901960785" d="M 30.5 39 L 31 41.5 L 27 48.5 Q 29.3 49.7 26.5 51 L 24.5 50 L 24.5 52 L 23 51.5 Q 23.7 54.5 20 53 Q 18.8 50 22.5 51 Q 28.7 47.2 30.5 39 Z " /><path fill="rgb(240,118,108)" stroke="rgb(240,118,108)" stroke-width="1" opacity="0.23137254901960785" d="M 18.5 41 L 19 43.5 L 18 43.5 L 18.5 41 Z " /><path fill="rgb(240,118,108)" stroke="rgb(240,118,108)" stroke-width="1" opacity="0.23137254901960785" d="M 99.5 41 L 100 44.5 L 99 44.5 L 99.5 41 Z " /><path fill="rgb(240,118,108)" stroke="rgb(240,118,108)" stroke-width="1" opacity="0.23137254901960785" d="M 44.5 42 L 45 43.5 L 42.5 50 L 42 46.5 L 44.5 42 Z " /><path fill="rgb(240,118,108)" stroke="rgb(240,118,108)" stroke-width="1" opacity="0.23137254901960785" d="M 17.5 45 L 18 48.5 L 17 48.5 L 17.5 45 Z " /><path fill="rgb(240,118,108)" stroke="rgb(240,118,108)" stroke-width="1" opacity="0.23137254901960785" d="M 40.5 45 L 41 47.5 L 40 47.5 L 40.5 45 Z " /><path fill="rgb(240,118,108)" stroke="rgb(240,118,108)" stroke-width="1" opacity="0.23137254901960785" d="M 41.5 51 L 42 54.5 L 41 54.5 L 41.5 51 Z " /><path fill="rgb(240,118,108)" stroke="rgb(240,118,108)" stroke-width="1" opacity="0.23137254901960785" d="M 26.5 53 L 29 53.5 L 29 64.5 L 30 67 Q 32.7 65.9 32 68.5 L 29 66.5 L 27 57.5 L 28 55.5 Q 26 52 24 56.5 L 22.5 59 L 23 57.5 L 26.5 53 Z " /><path fill="rgb(240,118,108)" stroke="rgb(240,118,108)" stroke-width="1" opacity="0.23137254901960785" d="M 30.5 53 L 31 59.5 L 30 59.5 L 30.5 53 Z " /><path fill="rgb(240,118,108)" stroke="rgb(240,118,108)" stroke-width="1" opacity="0.23137254901960785" d="M 105 53 L 107.5 54 L 109 53.5 L 110 58.5 L 109 58.5 L 108 55 Q 103.9 56.3 105 53 Z " /><path fill="rgb(240,118,108)" stroke="rgb(240,118,108)" stroke-width="1" opacity="0.23137254901960785" d="M 102.5 54 L 103 56.5 L 102 56.5 L 102.5 54 Z " /><path fill="rgb(240,118,108)" stroke="rgb(240,118,108)" stroke-width="1" opacity="0.23137254901960785" d="M 21.5 55 L 22 56.5 L 20 57.5 L 21.5 55 Z " /><path fill="rgb(240,118,108)" stroke="rgb(240,118,108)" stroke-width="1" opacity="0.23137254901960785" d="M 98.5 55 L 99 58.5 L 98 58.5 L 98.5 55 Z " /><path fill="rgb(240,118,108)" stroke="rgb(240,118,108)" stroke-width="1" opacity="0.23137254901960785" d="M 105.5 56 L 106 58.5 L 105 58.5 L 105.5 56 Z " /><path fill="rgb(240,118,108)" stroke="rgb(240,118,108)" stroke-width="1" opacity="0.23137254901960785" d="M 111.5 56 L 112 58.5 L 111 58.5 L 111.5 56 Z " /><path fill="rgb(240,118,108)" stroke="rgb(240,118,108)" stroke-width="1" opacity="0.23137254901960785" d="M 37.5 60 L 38 65.5 L 34.5 67 L 34.5 66 L 37 66 L 37.5 60 Z " /><path fill="rgb(240,118,108)" stroke="rgb(240,118,108)" stroke-width="1" opacity="0.23137254901960785" d="M 104.5 60 L 102.5 63 L 99 62.5 Q 103.3 62.8 104.5 60 Z " /><path fill="rgb(240,118,108)" stroke="rgb(240,118,108)" stroke-width="1" opacity="0.23137254901960785" d="M 40.5 61 L 41 65.5 L 37.5 70 L 33 69.5 Q 37.6 70.1 39 67.5 L 40.5 61 Z " /><path fill="rgb(240,118,108)" stroke="rgb(240,118,108)" stroke-width="1" opacity="0.23137254901960785" d="M 20.5 62 L 20 63.5 L 18.5 67 L 18 65.5 L 20.5 62 Z " /><path fill="rgb(240,118,108)" stroke="rgb(240,118,108)" stroke-width="1" opacity="0.23137254901960785" d="M 16.5 64 L 17 66.5 L 16 66.5 L 16.5 64 Z " /><path fill="rgb(240,118,108)" stroke="rgb(240,118,108)" stroke-width="1" opacity="0.23137254901960785" d="M 111.5 64 Q 114.9 63.1 113 68.5 L 114 72.5 L 113 72.5 L 111.5 64 Z " /><path fill="rgb(240,118,108)" stroke="rgb(240,118,108)" stroke-width="1" opacity="0.23137254901960785" d="M 115.5 68 L 116 70.5 L 115 70.5 L 115.5 68 Z " /><path fill="rgb(240,118,108)" stroke="rgb(240,118,108)" stroke-width="1" opacity="0.23137254901960785" d="M 16.5 72 L 17 73.5 L 15 83.5 L 17 89.5 L 16 89.5 Q 13 85.5 14 77.5 L 16.5 72 Z " /><path fill="rgb(240,118,108)" stroke="rgb(240,118,108)" stroke-width="1" opacity="0.23137254901960785" d="M 114.5 75 L 115 79.5 L 114 79.5 L 114.5 75 Z " /><path fill="rgb(240,118,108)" stroke="rgb(240,118,108)" stroke-width="1" opacity="0.23137254901960785" d="M 117.5 75 L 118 78.5 L 117 78.5 L 117.5 75 Z " /><path fill="rgb(240,118,108)" stroke="rgb(240,118,108)" stroke-width="1" opacity="0.23137254901960785" d="M 12.5 76 L 13 86.5 L 12 86.5 L 12.5 76 Z " /><path fill="rgb(240,118,108)" stroke="rgb(240,118,108)" stroke-width="1" opacity="0.23137254901960785" d="M 114.5 84 L 115 87.5 L 114 87.5 L 114.5 84 Z " /><path fill="rgb(240,118,108)" stroke="rgb(240,118,108)" stroke-width="1" opacity="0.23137254901960785" d="M 117.5 84 L 118 87.5 L 117 87.5 L 117.5 84 Z " /><path fill="rgb(240,118,108)" stroke="rgb(240,118,108)" stroke-width="1" opacity="0.23137254901960785" d="M 113.5 89 L 114 91.5 L 113 95 L 111 94.5 L 113.5 89 Z " /><path fill="rgb(240,118,108)" stroke="rgb(240,118,108)" stroke-width="1" opacity="0.23137254901960785" d="M 18.5 93 L 22 98.5 L 19 96.5 L 18.5 95 L 16.5 96 L 16.5 95 Q 19 95.7 18.5 93 Z " /><path fill="rgb(240,118,108)" stroke="rgb(240,118,108)" stroke-width="1" opacity="0.23137254901960785" d="M 114.5 94 L 115 95.5 L 113 96.5 L 114.5 94 Z " /><path fill="rgb(240,118,108)" stroke="rgb(240,118,108)" stroke-width="1" opacity="0.23137254901960785" d="M 110.5 96 L 110 97.5 L 107 102.5 L 107.5 104 L 106.5 103 L 99 109.5 L 110.5 96 Z " /><path fill="rgb(240,118,108)" stroke="rgb(240,118,108)" stroke-width="1" opacity="0.23137254901960785" d="M 22.5 100 L 24.5 103 L 22.5 100 Z " /><path fill="rgb(240,118,108)" stroke="rgb(240,118,108)" stroke-width="1" opacity="0.23137254901960785" d="M 20.5 101 L 24 105.5 L 22.5 105 Q 19.9 105.8 21 102.5 L 20.5 101 Z " /><path fill="rgb(240,118,108)" stroke="rgb(240,118,108)" stroke-width="1" opacity="0.23137254901960785" d="M 25.5 104 L 29 108.5 L 27 107.5 L 25.5 104 Z " /><path fill="rgb(240,118,108)" stroke="rgb(240,118,108)" stroke-width="1" opacity="0.23137254901960785" d="M 19.5 106 L 29 110.5 L 27.5 111 L 20.5 108 L 19.5 106 Z " /><path fill="rgb(240,118,108)" stroke="rgb(240,118,108)" stroke-width="1" opacity="0.23137254901960785" d="M 21.5 109 L 26.5 115 L 21.5 109 Z " /><path fill="rgb(240,118,108)" stroke="rgb(240,118,108)" stroke-width="1" opacity="0.23137254901960785" d="M 103 110 Q 106.3 108.7 105 113.5 L 105.5 115 L 103 114 L 103 110 Z " /><path fill="rgb(240,118,108)" stroke="rgb(240,118,108)" stroke-width="1" opacity="0.23137254901960785" d="M 99.5 111 L 102 111.5 L 99.5 112 L 99.5 111 Z " /><path fill="rgb(240,118,108)" stroke="rgb(240,118,108)" stroke-width="1" opacity="0.23137254901960785" d="M 28.5 115 L 30.5 118 L 28 117 L 28.5 115 Z " /><path fill="rgb(240,118,108)" stroke="rgb(240,118,108)" stroke-width="1" opacity="0.23137254901960785" d="M 99.5 115 L 100 117 L 88.5 122 L 88.5 121 L 99.5 115 Z " /><path fill="rgb(240,118,108)" stroke="rgb(240,118,108)" stroke-width="1" opacity="0.23137254901960785" d="M 28.5 118 L 29.5 120 L 28.5 118 Z " /><path fill="rgb(240,118,108)" stroke="rgb(240,118,108)" stroke-width="1" opacity="0.23137254901960785" d="M 32.5 118 L 40 122.5 L 38.5 123 Q 33.5 121.5 32.5 118 Z " /><path fill="rgb(240,118,108)" stroke="rgb(240,118,108)" stroke-width="1" opacity="0.23137254901960785" d="M 41.5 123 L 47 125.5 L 44.5 126 L 41 125 L 41.5 123 Z " /><path fill="rgb(240,118,108)" stroke="rgb(240,118,108)" stroke-width="1" opacity="0.23137254901960785" d="M 83.5 123 L 85 123.5 L 83.5 125 L 77.5 126 L 77.5 125 L 83.5 123 Z " /></svg>