<?xml version="1.0" encoding="UTF-8"?>
<svg version="1.1" xmlns="http://www.w3.org/2000/svg" width="128" height="128">
<path d="M0 0 C1.49098206 -0.00262848 1.49098206 -0.00262848 3.01208496 -0.00531006 C6.29160313 -0.00970518 9.57106724 -0.00679969 12.85058594 -0.00341797 C15.12790945 -0.00409146 17.40523289 -0.00506187 19.68255615 -0.00631714 C24.45048712 -0.00779076 29.21839934 -0.00564951 33.98632812 -0.00097656 C40.11238209 0.00473347 46.23839236 0.00143154 52.36444473 -0.00454903 C57.06370374 -0.00815265 61.76295229 -0.0070172 66.46221161 -0.00442123 C68.72216548 -0.00375208 70.98212028 -0.00457997 73.24207306 -0.00690079 C76.39057455 -0.00942545 79.53900392 -0.00558996 82.6875 0 C83.62982483 -0.00202423 84.57214966 -0.00404846 85.54302979 -0.00613403 C91.97069592 0.01512951 91.97069592 0.01512951 93.08496094 1.12939453 C93.1852996 3.6189315 93.22114036 6.08074406 93.21435547 8.57080078 C93.21698395 9.73903885 93.21698395 9.73903885 93.21966553 10.93087769 C93.22408443 13.51790564 93.22114593 16.10486582 93.21777344 18.69189453 C93.21844647 20.48168959 93.21941648 22.27148455 93.22067261 24.0612793 C93.22214963 27.81739164 93.21999488 31.57348025 93.21533203 35.32958984 C93.20963474 40.15539947 93.21291372 44.98115348 93.2189045 49.80696106 C93.22250999 53.50427676 93.22137158 57.20157917 93.2187767 60.89889526 C93.2181074 62.67878221 93.21893597 64.45867035 93.22125626 66.23855591 C93.22378259 68.72173275 93.21994248 71.20481828 93.21435547 73.68798828 C93.2163797 74.43088104 93.21840393 75.1737738 93.2204895 75.93917847 C93.19922356 81.01513191 93.19922356 81.01513191 92.08496094 82.12939453 C88.95067212 82.23543548 85.83829748 82.27616838 82.70336914 82.2746582 C81.71799667 82.27801682 80.73262421 82.28137543 79.71739197 82.28483582 C76.44016275 82.29438105 73.16298447 82.29629099 69.88574219 82.29736328 C67.61467975 82.30057438 65.34361753 82.30393834 63.07255554 82.30744934 C58.30170207 82.31345025 53.53086674 82.31528836 48.76000977 82.31469727 C42.64775269 82.31459582 36.53561223 82.32822601 30.42338276 82.34546947 C25.72819994 82.35659376 21.03304522 82.35861631 16.33785057 82.35808754 C14.08481636 82.35926785 11.83178142 82.36369251 9.57876015 82.37141991 C6.42359933 82.3812243 3.26869032 82.37833939 0.11352539 82.37231445 C-0.81710724 82.37793396 -1.74773987 82.38355347 -2.70657349 82.38934326 C-7.4764926 82.3662146 -11.48468263 82.13143534 -15.91503906 80.12939453 C-17.08300781 78.19970703 -17.08300781 78.19970703 -17.91503906 76.12939453 C-21.38278782 72.47821322 -25.0446347 69.60527464 -29.91503906 68.12939453 C-29.91503906 67.46939453 -29.91503906 66.80939453 -29.91503906 66.12939453 C-30.90503906 65.79939453 -31.89503906 65.46939453 -32.91503906 65.12939453 C-33.93485034 62.41205118 -34.06067277 59.76574611 -34.1237793 56.88330078 C-34.14306992 56.05564209 -34.16236053 55.2279834 -34.18223572 54.37524414 C-34.24020194 50.61788756 -34.28918072 46.86071141 -34.32006836 43.10302734 C-34.34171742 41.12042903 -34.3759012 39.13792803 -34.42260742 37.15576172 C-34.48941347 34.2923737 -34.51702632 31.43095044 -34.53613281 28.56689453 C-34.56396347 27.68138916 -34.59179413 26.79588379 -34.62046814 25.88354492 C-34.61241631 23.48161614 -34.5590422 21.44446261 -33.91503906 19.12939453 C-30.8762207 16.66455078 -30.8762207 16.66455078 -27.91503906 15.12939453 C-27.91503906 14.46939453 -27.91503906 13.80939453 -27.91503906 13.12939453 C-27.33753906 12.86126953 -26.76003906 12.59314453 -26.16503906 12.31689453 C-23.84140542 11.09053233 -21.8767926 9.88096019 -19.91503906 8.12939453 C-19.91503906 7.13939453 -19.91503906 6.14939453 -19.91503906 5.12939453 C-19.27566406 4.84064453 -18.63628906 4.55189453 -17.97753906 4.25439453 C-15.76297827 3.30116002 -15.76297827 3.30116002 -14.91503906 1.12939453 C-10.12974254 -0.39011113 -4.96736193 -0.01076299 0 0 Z M-17.91503906 37.12939453 C-18.57503906 37.78939453 -19.23503906 38.44939453 -19.91503906 39.12939453 C-17.60503906 39.12939453 -15.29503906 39.12939453 -12.91503906 39.12939453 C-13.57503906 38.46939453 -14.23503906 37.80939453 -14.91503906 37.12939453 C-15.90503906 37.12939453 -16.89503906 37.12939453 -17.91503906 37.12939453 Z M-17.91503906 40.12939453 C-17.58503906 41.11939453 -17.25503906 42.10939453 -16.91503906 43.12939453 C-15.92503906 42.79939453 -14.93503906 42.46939453 -13.91503906 42.12939453 C-13.91503906 41.46939453 -13.91503906 40.80939453 -13.91503906 40.12939453 C-15.23503906 40.12939453 -16.55503906 40.12939453 -17.91503906 40.12939453 Z M-12.91503906 40.12939453 C-11.91503906 42.12939453 -11.91503906 42.12939453 -11.91503906 42.12939453 Z M-19.91503906 43.12939453 C-19.25503906 43.78939453 -18.59503906 44.44939453 -17.91503906 45.12939453 C-16.92503906 44.79939453 -15.93503906 44.46939453 -14.91503906 44.12939453 C-16.56503906 43.79939453 -18.21503906 43.46939453 -19.91503906 43.12939453 Z " fill="#F6CF9E" transform="translate(33.9150390625,22.87060546875)"/>
<path d="M0 0 C1.49098206 -0.00262848 1.49098206 -0.00262848 3.01208496 -0.00531006 C6.29160313 -0.00970518 9.57106724 -0.00679969 12.85058594 -0.00341797 C15.12790945 -0.00409146 17.40523289 -0.00506187 19.68255615 -0.00631714 C24.45048712 -0.00779076 29.21839934 -0.00564951 33.98632812 -0.00097656 C40.11238209 0.00473347 46.23839236 0.00143154 52.36444473 -0.00454903 C57.06370374 -0.00815265 61.76295229 -0.0070172 66.46221161 -0.00442123 C68.72216548 -0.00375208 70.98212028 -0.00457997 73.24207306 -0.00690079 C76.39057455 -0.00942545 79.53900392 -0.00558996 82.6875 0 C83.62982483 -0.00202423 84.57214966 -0.00404846 85.54302979 -0.00613403 C91.97069592 0.01512951 91.97069592 0.01512951 93.08496094 1.12939453 C93.1799851 3.62431841 93.21053659 6.09145467 93.19848633 8.58666992 C93.19863235 9.36710159 93.19877838 10.14753326 93.19892883 10.95161438 C93.19822952 13.54345433 93.1904363 16.13522331 93.18261719 18.72705078 C93.18075307 20.51924093 93.17932914 22.31143159 93.17832947 24.10362244 C93.17450377 28.83010251 93.16467306 33.55655205 93.15362549 38.28302002 C93.14341247 43.10225003 93.13883208 47.92148495 93.13378906 52.74072266 C93.12305083 62.20362673 93.1059738 71.66650809 93.08496094 81.12939453 C92.09496094 81.62439453 92.09496094 81.62439453 91.08496094 82.12939453 C90.75496094 56.05939453 90.42496094 29.98939453 90.08496094 3.12939453 C72.94238446 3.10031646 72.94238446 3.10031646 55.79980469 3.08056641 C48.80972537 3.07458488 41.81965913 3.06750291 34.82958984 3.05395508 C29.19509996 3.04310271 23.5606241 3.03711269 17.92612457 3.03451729 C15.77470936 3.03266729 13.62329493 3.0290548 11.47188568 3.02366447 C8.46235994 3.01642293 5.45289241 3.01540492 2.44335938 3.01586914 C1.55071884 3.01227386 0.65807831 3.00867859 -0.26161194 3.00497437 C-1.49411934 3.00703636 -1.49411934 3.00703636 -2.75152588 3.00914001 C-3.46315006 3.00821822 -4.17477425 3.00729643 -4.9079628 3.0063467 C-6.94899574 3.06822911 -6.94899574 3.06822911 -9.00338364 3.66425419 C-11.52529311 4.27788038 -13.42716532 3.75136297 -15.91503906 3.12939453 C-15.58503906 2.46939453 -15.25503906 1.80939453 -14.91503906 1.12939453 C-10.12974254 -0.39011113 -4.96736193 -0.01076299 0 0 Z " fill="#FCD9AB" transform="translate(33.9150390625,22.87060546875)"/>
<path d="M0 0 C3.69059994 0.87426509 5.13063077 2.36922768 7.16015625 5.51171875 C7.85163784 8.34622178 7.89721403 10.68347377 7.16015625 13.51171875 C4.72265625 16.44921875 4.72265625 16.44921875 2.16015625 18.51171875 C1.83015625 18.84171875 1.50015625 19.17171875 1.16015625 19.51171875 C-2.08984375 19.88671875 -2.08984375 19.88671875 -5.83984375 19.51171875 C-8.71484375 17.07421875 -8.71484375 17.07421875 -10.83984375 14.51171875 C-11.16984375 14.18171875 -11.49984375 13.85171875 -11.83984375 13.51171875 C-12.35522403 9.13098634 -12.08829361 6.95251689 -9.90234375 3.07421875 C-6.32326546 0.07947977 -4.54479882 -0.34142896 0 0 Z M-3.83984375 5.51171875 C-4.49984375 6.17171875 -5.15984375 6.83171875 -5.83984375 7.51171875 C-3.52984375 7.51171875 -1.21984375 7.51171875 1.16015625 7.51171875 C0.50015625 6.85171875 -0.15984375 6.19171875 -0.83984375 5.51171875 C-1.82984375 5.51171875 -2.81984375 5.51171875 -3.83984375 5.51171875 Z M-3.83984375 8.51171875 C-3.50984375 9.50171875 -3.17984375 10.49171875 -2.83984375 11.51171875 C-1.84984375 11.18171875 -0.85984375 10.85171875 0.16015625 10.51171875 C0.16015625 9.85171875 0.16015625 9.19171875 0.16015625 8.51171875 C-1.15984375 8.51171875 -2.47984375 8.51171875 -3.83984375 8.51171875 Z M1.16015625 8.51171875 C2.16015625 10.51171875 2.16015625 10.51171875 2.16015625 10.51171875 Z M-5.83984375 11.51171875 C-5.17984375 12.17171875 -4.51984375 12.83171875 -3.83984375 13.51171875 C-2.84984375 13.18171875 -1.85984375 12.85171875 -0.83984375 12.51171875 C-2.48984375 12.18171875 -4.13984375 11.85171875 -5.83984375 11.51171875 Z " fill="#B48875" transform="translate(19.83984375,54.48828125)"/>
<path d="M0 0 C0.66 0.33 1.32 0.66 2 1 C2 1.66 2 2.32 2 3 C-0.97 2.505 -0.97 2.505 -4 2 C-4 2.66 -4 3.32 -4 4 C-5.32 4.33 -6.64 4.66 -8 5 C-7.34 7.64 -6.68 10.28 -6 13 C-1.545 12.505 -1.545 12.505 3 12 C3 9.03 3 6.06 3 3 C3.33 3.66 3.66 4.32 4 5 C4.66 5 5.32 5 6 5 C6.4206933 9.29107165 6.45543836 11.35134537 3.9375 14.9375 C1 17 1 17 -2.5 17.625 C-6.82818451 16.85210991 -8.23745486 15.33130443 -11 12 C-11.33 11.67 -11.66 11.34 -12 11 C-12.35897436 4.53846154 -12.35897436 4.53846154 -10 1 C-6.49852959 -0.1671568 -3.67329964 -0.13357453 0 0 Z " fill="#AA7B65" transform="translate(20,57)"/>
<path d="M0 0 C34.98 0 69.96 0 106 0 C106 0.33 106 0.66 106 1 C74.65 1 43.3 1 11 1 C11 1.66 11 2.32 11 3 C6.91281305 3.24042276 3.82320557 2.42258812 0 1 C0 0.67 0 0.34 0 0 Z " fill="#FFDEA8" transform="translate(18,102)"/>
<path d="M0 0 C0.99 0.33 1.98 0.66 3 1 C2.83766876 1.57810425 2.67533752 2.1562085 2.50808716 2.75183105 C1.68633131 6.3879119 1.85802822 10.07142423 1.8671875 13.78125 C1.86623077 14.63174927 1.86527405 15.48224854 1.86428833 16.35852051 C1.86360886 18.15389073 1.8654469 19.94926343 1.86962891 21.74462891 C1.87498044 24.48996508 1.86967604 27.23513765 1.86328125 29.98046875 C1.86394207 31.72656286 1.86522332 33.47265687 1.8671875 35.21875 C1.86516327 36.03863403 1.86313904 36.85851807 1.86105347 37.70324707 C1.87584041 41.30408076 2.0271187 44.53531371 3 48 C1.68 48 0.36 48 -1 48 C-1.80049245 45.17477644 -2.12997356 42.6552436 -2.14526367 39.72216797 C-2.15164352 38.88805389 -2.15802338 38.05393982 -2.16459656 37.19454956 C-2.16570938 36.30277008 -2.1668222 35.4109906 -2.16796875 34.4921875 C-2.17129715 33.57035675 -2.17462555 32.648526 -2.17805481 31.69876099 C-2.1831104 29.7537689 -2.18546356 27.80876818 -2.18530273 25.86376953 C-2.18749699 22.87908841 -2.20568829 19.89477238 -2.22460938 16.91015625 C-2.22754195 15.0208346 -2.22952766 13.13151119 -2.23046875 11.2421875 C-2.23765427 10.34635956 -2.24483978 9.45053162 -2.25224304 8.52755737 C-2.2476281 7.28584274 -2.2476281 7.28584274 -2.24291992 6.01904297 C-2.24434494 5.28942352 -2.24576996 4.55980408 -2.24723816 3.80807495 C-2 2 -2 2 0 0 Z " fill="#F7D7AD" transform="translate(2,40)"/>
<path d="M0 0 C52.47 0.495 52.47 0.495 106 1 C106 1.33 106 1.66 106 2 C92.47464 2.04626117 78.9492987 2.08183748 65.42387581 2.10362434 C59.14404641 2.11407887 52.86427099 2.12826845 46.58447266 2.15087891 C40.52853741 2.17254784 34.47265421 2.18455604 28.4166832 2.18975449 C26.10172582 2.19346097 23.78677142 2.20069836 21.47183609 2.21146011 C18.23913581 2.22589595 15.0066529 2.22798127 11.77392578 2.22705078 C10.80863953 2.23424133 9.84335327 2.24143188 8.84881592 2.24884033 C7.53208389 2.24471634 7.53208389 2.24471634 6.18875122 2.24050903 C5.42366304 2.24235262 4.65857487 2.24419621 3.8703022 2.24609566 C2 2 2 2 0 0 Z " fill="#E2C5A2" transform="translate(21,105)"/>
<path d="M0 0 C33.99 0 67.98 0 103 0 C103 0.33 103 0.66 103 1 C69.01 1 35.02 1 0 1 C0 0.67 0 0.34 0 0 Z " fill="#FCD8B7" transform="translate(24,21)"/>
<path d="M0 0 C0.33 0.66 0.66 1.32 1 2 C1.66 2 2.32 2 3 2 C3.4206933 6.29107165 3.45543836 8.35134537 0.9375 11.9375 C-2.74062512 14.52001338 -4.59231863 14.72125695 -9 14 C-11.4375 12 -11.4375 12 -13 10 C-12.67 9.01 -12.34 8.02 -12 7 C-11.60167969 7.50144531 -11.20335937 8.00289062 -10.79296875 8.51953125 C-9.09649679 10.22742807 -9.09649679 10.22742807 -6.73828125 10.07421875 C-5.93777344 9.94660156 -5.13726562 9.81898437 -4.3125 9.6875 C-2.1778125 9.3471875 -2.1778125 9.3471875 0 9 C0 6.03 0 3.06 0 0 Z " fill="#955D45" transform="translate(23,60)"/>
<path d="M0 0 C0.99 0.33 1.98 0.66 3 1 C3 1.66 3 2.32 3 3 C3.66 3.33 4.32 3.66 5 4 C4.67 4.33 4.34 4.66 4 5 C5.65 5 7.3 5 9 5 C9.33 4.34 9.66 3.68 10 3 C10.33 3.99 10.66 4.98 11 6 C10.34 6 9.68 6 9 6 C8.67 6.99 8.34 7.98 8 9 C6.02 9 4.04 9 2 9 C0.14223235 5.86501708 -0.20140476 3.62528568 0 0 Z " fill="#CAAC9F" transform="translate(12,62)"/>
<path d="M0 0 C0 3 0 3 -1 6 C-3.06640625 7.60546875 -3.06640625 7.60546875 -5.5625 9.1875 C-6.38878906 9.71730469 -7.21507812 10.24710938 -8.06640625 10.79296875 C-8.70449219 11.19128906 -9.34257812 11.58960938 -10 12 C-10 10.33333333 -10 8.66666667 -10 7 C-9.46375 6.773125 -8.9275 6.54625 -8.375 6.3125 C-5.21499137 4.56617944 -2.7323017 2.3597151 0 0 Z " fill="#F6DEAE" transform="translate(16,29)"/>
<path d="M0 0 C1.32 0 2.64 0 4 0 C4.33 2.97 4.66 5.94 5 9 C2.525 8.01 2.525 8.01 0 7 C0 4.69 0 2.38 0 0 Z " fill="#AD7558" transform="translate(8,61)"/>
<path d="M0 0 C0.66 0.66 1.32 1.32 2 2 C6.01858853 4.67905902 8.25305716 4.32182663 13 4 C12.01 5.485 12.01 5.485 11 7 C6.97769747 7.52140959 4.86769216 7.64520699 1.5625 5.1875 C0 3 0 3 0 0 Z " fill="#754F38" transform="translate(10,67)"/>
<path d="M0 0 C-2.33511483 2.87398748 -3.37431801 3.92491816 -7.125 4.375 C-10 4 -10 4 -12 2 C-7.82262526 0.40861915 -4.46839215 -0.21278058 0 0 Z " fill="#FCD7B8" transform="translate(30,23)"/>
<path d="M0 0 C0.99 0.33 1.98 0.66 3 1 C2.34 3.64 1.68 6.28 1 9 C0.34 8.67 -0.32 8.34 -1 8 C-1.75 5.0625 -1.75 5.0625 -2 2 C-1.34 1.34 -0.68 0.68 0 0 Z " fill="#FBDEBB" transform="translate(2,40)"/>
<path d="M0 0 C7.42857143 -0.14285714 7.42857143 -0.14285714 11 1 C11 1.66 11 2.32 11 3 C6.91281305 3.24042276 3.82320557 2.42258812 0 1 C0 0.67 0 0.34 0 0 Z " fill="#F9D7B0" transform="translate(18,102)"/>
<path d="M0 0 C2.31 0.33 4.62 0.66 7 1 C7 1.66 7 2.32 7 3 C4.03 3 1.06 3 -2 3 C-1.34 2.01 -0.68 1.02 0 0 Z " fill="#905D47" transform="translate(15,57)"/>
<path d="M0 0 C0 3 0 3 -1 6 C-4.0625 7.1875 -4.0625 7.1875 -7 8 C-5.61918777 3.8575633 -3.40174442 2.67796901 0 0 Z " fill="#FBE7CD" transform="translate(16,29)"/>
<path d="M0 0 C0.99 0.33 1.98 0.66 3 1 C2.01 1 1.02 1 0 1 C0 0.67 0 0.34 0 0 Z " fill="#FFE9D4" transform="translate(13,98)"/>
<path d="M0 0 C3 1 3 1 3 1 Z " fill="#FF7F54" transform="translate(21,22)"/>
<path d="M0 0 C2 1 2 1 2 1 Z " fill="#FFFF7F" transform="translate(16,101)"/>
<path d="M0 0 C2 1 2 1 2 1 Z " fill="#FFFF94" transform="translate(10,95)"/>
<path d="M0 0 C2 1 2 1 2 1 Z " fill="#FFFFBF" transform="translate(7,93)"/>
<path d="M0 0 C2 1 2 1 2 1 Z " fill="#FFD455" transform="translate(7,34)"/>
<path d="M0 0 C2 1 2 1 2 1 Z " fill="#FFD4AA" transform="translate(10,32)"/>
<path d="M0 0 C2 1 2 1 2 1 Z " fill="#FFFFBF" transform="translate(16,26)"/>
<path d="" fill="#FFFFAA" transform="translate(0,0)"/>
<path d="" fill="#FFD4AA" transform="translate(0,0)"/>
<path d="" fill="#AAAA55" transform="translate(0,0)"/>
<path d="" fill="#FFFF99" transform="translate(0,0)"/>
<path d="" fill="#FFD4D4" transform="translate(0,0)"/>
<path d="" fill="#FFAAAA" transform="translate(0,0)"/>
</svg>
