<svg width="128" height="128" version="1.1" xmlns="http://www.w3.org/2000/svg" desc="Created with imagetracer.js version 1.2.6" ><path fill="rgb(125,37,45)" stroke="rgb(125,37,45)" stroke-width="1" opacity="0.09803921568627451" d="M 40.5 0 L 42 2.5 L 40 1.5 L 40.5 0 Z " /><path fill="rgb(125,37,45)" stroke="rgb(125,37,45)" stroke-width="1" opacity="0.09803921568627451" d="M 50.5 0 L 55 2 L 56 4.5 L 52 3.5 Q 54.3 2.3 51.5 1 L 49.5 2 L 50.5 0 Z " /><path fill="rgb(125,37,45)" stroke="rgb(125,37,45)" stroke-width="1" opacity="0.09803921568627451" d="M 100.5 1 L 102 1.5 L 99.5 3 L 100.5 1 Z " /><path fill="rgb(125,37,45)" stroke="rgb(125,37,45)" stroke-width="1" opacity="0.09803921568627451" d="M 126.5 1 L 128 3.5 L 127 3.5 L 126.5 1 Z " /><path fill="rgb(125,37,45)" stroke="rgb(125,37,45)" stroke-width="1" opacity="0.09803921568627451" d="M 124.5 2 L 125.5 4 L 124.5 2 Z " /><path fill="rgb(125,37,45)" stroke="rgb(125,37,45)" stroke-width="1" opacity="0.09803921568627451" d="M 97.5 4 L 96.5 6 L 97.5 4 Z " /><path fill="rgb(125,37,45)" stroke="rgb(125,37,45)" stroke-width="1" opacity="0.09803921568627451" d="M 99 4 L 103 4.5 Q 97.5 5 96 9.5 L 96.5 11 Q 94.3 11.8 95 9.5 L 96 7 L 99 5.5 L 99 4 Z " /><path fill="rgb(125,37,45)" stroke="rgb(125,37,45)" stroke-width="1" opacity="0.09803921568627451" d="M 104.5 5 L 105 7.5 L 104.5 9 L 103 6.5 L 104.5 5 Z " /><path fill="rgb(125,37,45)" stroke="rgb(125,37,45)" stroke-width="1" opacity="0.09803921568627451" d="M 94.5 7 L 94 8.5 L 93.5 11 L 93 8.5 L 94.5 7 Z " /><path fill="rgb(125,37,45)" stroke="rgb(125,37,45)" stroke-width="1" opacity="0.09803921568627451" d="M 106.5 7 L 107.5 9 L 106.5 7 Z " /><path fill="rgb(125,37,45)" stroke="rgb(125,37,45)" stroke-width="1" opacity="0.09803921568627451" d="M 119.5 7 Q 121.9 9.1 121 14.5 L 118.5 15 L 107.5 14 L 104.5 15 L 104.5 14 L 110.5 13 L 117 14 L 117.5 8 L 118.5 14 Q 120.8 13.3 120 9.5 L 119.5 7 Z " /><path fill="rgb(125,37,45)" stroke="rgb(125,37,45)" stroke-width="1" opacity="0.09803921568627451" d="M 42.5 8 L 45 8.5 L 36.5 14 L 36.5 13 L 42.5 8 Z " /><path fill="rgb(125,37,45)" stroke="rgb(125,37,45)" stroke-width="1" opacity="0.09803921568627451" d="M 38.5 9 L 37.5 11 L 38.5 9 Z " /><path fill="rgb(125,37,45)" stroke="rgb(125,37,45)" stroke-width="1" opacity="0.09803921568627451" d="M 46.5 9 L 49.5 13 L 46.5 9 Z " /><path fill="rgb(125,37,45)" stroke="rgb(125,37,45)" stroke-width="1" opacity="0.09803921568627451" d="M 44.5 11 L 45.5 13 L 44.5 11 Z " /><path fill="rgb(125,37,45)" stroke="rgb(125,37,45)" stroke-width="1" opacity="0.09803921568627451" d="M 47.5 13 L 48.5 15 L 47.5 13 Z " /><path fill="rgb(125,37,45)" stroke="rgb(125,37,45)" stroke-width="1" opacity="0.09803921568627451" d="M 50.5 14 L 53 19.5 L 51 18.5 L 50.5 14 Z " /><path fill="rgb(125,37,45)" stroke="rgb(125,37,45)" stroke-width="1" opacity="0.09803921568627451" d="M 28.5 15 L 29.5 17 L 28.5 15 Z " /><path fill="rgb(125,37,45)" stroke="rgb(125,37,45)" stroke-width="1" opacity="0.09803921568627451" d="M 37.5 16 L 36.5 18 L 34 18.5 L 38 19.5 L 34.5 20 L 32 19.5 L 37.5 16 Z " /><path fill="rgb(125,37,45)" stroke="rgb(125,37,45)" stroke-width="1" opacity="0.09803921568627451" d="M 46.5 16 L 47.5 18 L 46.5 16 Z " /><path fill="rgb(125,37,45)" stroke="rgb(125,37,45)" stroke-width="1" opacity="0.09803921568627451" d="M 103.5 16 Q 106.3 17.3 104 18.5 L 103 24.5 L 105 27.5 L 103 28 L 102 20.5 L 104 17.5 L 103.5 16 Z " /><path fill="rgb(125,37,45)" stroke="rgb(125,37,45)" stroke-width="1" opacity="0.09803921568627451" d="M 107.5 16 L 112 16.5 L 107.5 17 L 107.5 16 Z " /><path fill="rgb(125,37,45)" stroke="rgb(125,37,45)" stroke-width="1" opacity="0.09803921568627451" d="M 49.5 17 L 50 22 L 52 22.5 L 50.5 23 L 47.5 22 L 47.5 23 L 50 24.5 L 48.5 24 L 45 22.5 L 47 21.5 L 45 21 Q 44 18 47 19 Q 46 22 49 21 L 49.5 17 Z " /><path fill="rgb(125,37,45)" stroke="rgb(125,37,45)" stroke-width="1" opacity="0.09803921568627451" d="M 99.5 17 L 102 17.5 L 100.5 20 L 99.5 17 Z " /><path fill="rgb(125,37,45)" stroke="rgb(125,37,45)" stroke-width="1" opacity="0.09803921568627451" d="M 114.5 17 L 118 17.5 L 114.5 18 L 114.5 17 Z " /><path fill="rgb(125,37,45)" stroke="rgb(125,37,45)" stroke-width="1" opacity="0.09803921568627451" d="M 23.5 18 L 22.5 20 L 23.5 18 Z " /><path fill="rgb(125,37,45)" stroke="rgb(125,37,45)" stroke-width="1" opacity="0.09803921568627451" d="M 59.5 19 L 61 23.5 L 60 23.5 L 59.5 19 Z " /><path fill="rgb(125,37,45)" stroke="rgb(125,37,45)" stroke-width="1" opacity="0.09803921568627451" d="M 124.5 20 L 127 21.5 L 125 22.5 L 125.5 21 L 124.5 20 Z " /><path fill="rgb(125,37,45)" stroke="rgb(125,37,45)" stroke-width="1" opacity="0.09803921568627451" d="M 62.5 21 L 63 23.5 L 62 23.5 L 62.5 21 Z " /><path fill="rgb(125,37,45)" stroke="rgb(125,37,45)" stroke-width="1" opacity="0.09803921568627451" d="M 23.5 22 L 24.5 24 L 23.5 22 Z " /><path fill="rgb(125,37,45)" stroke="rgb(125,37,45)" stroke-width="1" opacity="0.09803921568627451" d="M 85.5 22 L 92 22.5 L 85.5 23 L 85.5 22 Z " /><path fill="rgb(125,37,45)" stroke="rgb(125,37,45)" stroke-width="1" opacity="0.09803921568627451" d="M 108.5 22 L 110 24.5 L 109 24.5 L 108.5 22 Z " /><path fill="rgb(125,37,45)" stroke="rgb(125,37,45)" stroke-width="1" opacity="0.09803921568627451" d="M 118.5 22 L 121 23.5 L 116.5 24 L 116.5 23 L 118.5 22 Z " /><path fill="rgb(125,37,45)" stroke="rgb(125,37,45)" stroke-width="1" opacity="0.09803921568627451" d="M 32.5 23 L 32 24.5 L 31.5 26 L 30.5 24 L 32.5 23 Z " /><path fill="rgb(125,37,45)" stroke="rgb(125,37,45)" stroke-width="1" opacity="0.09803921568627451" d="M 111 23 L 113 23.5 L 111 24.5 L 111 23 Z " /><path fill="rgb(125,37,45)" stroke="rgb(125,37,45)" stroke-width="1" opacity="0.09803921568627451" d="M 52.5 24 Q 55.5 23.2 54 27 L 52 26.5 L 52.5 24 Z " /><path fill="rgb(125,37,45)" stroke="rgb(125,37,45)" stroke-width="1" opacity="0.09803921568627451" d="M 84.5 24 Q 87.8 25.8 84 27.5 L 83.5 29 L 83 27.5 Q 86.1 25.8 84.5 24 Z " /><path fill="rgb(125,37,45)" stroke="rgb(125,37,45)" stroke-width="1" opacity="0.09803921568627451" d="M 93.5 24 L 96 25.5 L 94.5 25 L 93.5 24 Z " /><path fill="rgb(125,37,45)" stroke="rgb(125,37,45)" stroke-width="1" opacity="0.09803921568627451" d="M 113.5 25 L 115 28.5 L 114 28.5 L 113.5 27 Q 114.5 35 109.5 37 L 112 33.5 Q 113.3 28.8 111 27.5 L 113 27 L 113.5 25 Z " /><path fill="rgb(125,37,45)" stroke="rgb(125,37,45)" stroke-width="1" opacity="0.09803921568627451" d="M 117.5 25 L 120 25.5 L 117.5 26 L 117.5 25 Z " /><path fill="rgb(125,37,45)" stroke="rgb(125,37,45)" stroke-width="1" opacity="0.09803921568627451" d="M 24.5 26 L 25.5 28 L 24.5 26 Z " /><path fill="rgb(125,37,45)" stroke="rgb(125,37,45)" stroke-width="1" opacity="0.09803921568627451" d="M 60.5 26 L 61.5 29 L 63 28.5 L 60 30.5 L 60 28.5 L 60.5 26 Z " /><path fill="rgb(125,37,45)" stroke="rgb(125,37,45)" stroke-width="1" opacity="0.09803921568627451" d="M 28.5 27 L 29 29.5 L 28 29.5 L 28.5 27 Z " /><path fill="rgb(125,37,45)" stroke="rgb(125,37,45)" stroke-width="1" opacity="0.09803921568627451" d="M 99.5 28 L 104.5 30 L 105.5 29 L 109 32.5 L 107.5 32 Q 105.3 32.8 106 30.5 L 104.5 31 Q 99.5 30.8 99.5 28 Z " /><path fill="rgb(125,37,45)" stroke="rgb(125,37,45)" stroke-width="1" opacity="0.09803921568627451" d="M 80.5 29 L 81 31.5 L 80 31.5 L 80.5 29 Z " /><path fill="rgb(125,37,45)" stroke="rgb(125,37,45)" stroke-width="1" opacity="0.09803921568627451" d="M 82.5 30 L 83 36.5 L 82 36.5 L 82.5 30 Z " /><path fill="rgb(125,37,45)" stroke="rgb(125,37,45)" stroke-width="1" opacity="0.09803921568627451" d="M 95.5 31 L 97.5 34 L 95.5 31 Z " /><path fill="rgb(125,37,45)" stroke="rgb(125,37,45)" stroke-width="1" opacity="0.09803921568627451" d="M 64.5 34 L 66.5 37 L 64.5 34 Z " /><path fill="rgb(125,37,45)" stroke="rgb(125,37,45)" stroke-width="1" opacity="0.09803921568627451" d="M 80.5 36 L 81 40.5 L 80 40.5 L 80.5 36 Z " /><path fill="rgb(125,37,45)" stroke="rgb(125,37,45)" stroke-width="1" opacity="0.09803921568627451" d="M 71.5 37 L 72.5 39 L 71.5 37 Z " /><path fill="rgb(125,37,45)" stroke="rgb(125,37,45)" stroke-width="1" opacity="0.09803921568627451" d="M 69.5 38 L 71.5 41 L 69.5 38 Z " /><path fill="rgb(125,37,45)" stroke="rgb(125,37,45)" stroke-width="1" opacity="0.09803921568627451" d="M 73.5 40 L 78 42.5 L 76.5 42 Q 72.8 41.7 73.5 40 Z " /><path fill="rgb(125,37,45)" stroke="rgb(125,37,45)" stroke-width="1" opacity="0.09803921568627451" d="M 94.5 40 L 95 46.5 L 93 47.5 L 94.5 40 Z " /><path fill="rgb(125,37,45)" stroke="rgb(125,37,45)" stroke-width="1" opacity="0.09803921568627451" d="M 83.5 42 L 85 46.5 L 83 45.5 L 83.5 42 Z " /><path fill="rgb(125,37,45)" stroke="rgb(125,37,45)" stroke-width="1" opacity="0.09803921568627451" d="M 91.5 42 L 92 46.5 L 90 47.5 L 91.5 42 Z " /><path fill="rgb(125,37,45)" stroke="rgb(125,37,45)" stroke-width="1" opacity="0.09803921568627451" d="M 75.5 43 Q 77.3 46.1 79 44.5 L 78 45.5 L 80.5 49 L 75.5 43 Z " /><path fill="rgb(125,37,45)" stroke="rgb(125,37,45)" stroke-width="1" opacity="0.09803921568627451" d="M 81.5 44 L 82 46 L 80 45.5 L 81.5 44 Z " /><path fill="rgb(125,37,45)" stroke="rgb(125,37,45)" stroke-width="1" opacity="0.09803921568627451" d="M 24.5 46 L 25 47.5 L 22.5 52 L 22 50.5 L 24.5 46 Z " /><path fill="rgb(125,37,45)" stroke="rgb(125,37,45)" stroke-width="1" opacity="0.09803921568627451" d="M 85.5 48 L 88 48.5 L 85.5 49 L 85.5 48 Z " /><path fill="rgb(125,37,45)" stroke="rgb(125,37,45)" stroke-width="1" opacity="0.09803921568627451" d="M 17.5 56 L 18 58.5 L 17 58.5 L 17.5 56 Z " /><path fill="rgb(125,37,45)" stroke="rgb(125,37,45)" stroke-width="1" opacity="0.09803921568627451" d="M 16.5 60 L 17 62.5 Q 13.9 64.3 15.5 66 L 12.5 62 L 16 63 L 16.5 60 Z " /><path fill="rgb(125,37,45)" stroke="rgb(125,37,45)" stroke-width="1" opacity="0.09803921568627451" d="M 97.5 63 L 98.5 65 L 97.5 63 Z " /><path fill="rgb(125,37,45)" stroke="rgb(125,37,45)" stroke-width="1" opacity="0.09803921568627451" d="M 7.5 65 L 6.5 67 L 7.5 65 Z " /><path fill="rgb(125,37,45)" stroke="rgb(125,37,45)" stroke-width="1" opacity="0.09803921568627451" d="M 96.5 65 L 97.5 67 L 96.5 65 Z " /><path fill="rgb(125,37,45)" stroke="rgb(125,37,45)" stroke-width="1" opacity="0.09803921568627451" d="M 14.5 68 L 16 70.5 L 15 70.5 L 14.5 69 L 14 71.5 L 15 73.5 L 14 73.5 L 13.5 72 L 11.5 73 L 13 70.5 L 14.5 68 Z " /><path fill="rgb(125,37,45)" stroke="rgb(125,37,45)" stroke-width="1" opacity="0.09803921568627451" d="M 100.5 68 Q 102.8 67.3 102 69.5 L 102.5 71 Q 100.8 67.9 99 69.5 L 100.5 68 Z " /><path fill="rgb(125,37,45)" stroke="rgb(125,37,45)" stroke-width="1" opacity="0.09803921568627451" d="M 4.5 69 L 7 69.5 L 6.5 72 L 4.5 69 Z " /><path fill="rgb(125,37,45)" stroke="rgb(125,37,45)" stroke-width="1" opacity="0.09803921568627451" d="M 103.5 72 L 104 73.5 L 104 75.5 L 103.5 77 L 102 74.5 L 103.5 72 Z " /><path fill="rgb(125,37,45)" stroke="rgb(125,37,45)" stroke-width="1" opacity="0.09803921568627451" d="M 113.5 73 L 114.5 75 L 113 74.5 L 112.5 76 L 112 74.5 L 113.5 73 Z " /><path fill="rgb(125,37,45)" stroke="rgb(125,37,45)" stroke-width="1" opacity="0.09803921568627451" d="M 122.5 77 L 124 77.5 L 121.5 79 L 122.5 77 Z " /><path fill="rgb(125,37,45)" stroke="rgb(125,37,45)" stroke-width="1" opacity="0.09803921568627451" d="M 12.5 79 L 13 80.5 L 11.5 83 L 11 81.5 L 12.5 79 Z " /><path fill="rgb(125,37,45)" stroke="rgb(125,37,45)" stroke-width="1" opacity="0.09803921568627451" d="M 118.5 80 L 117.5 82 L 118.5 80 Z " /><path fill="rgb(125,37,45)" stroke="rgb(125,37,45)" stroke-width="1" opacity="0.09803921568627451" d="M 122.5 80 L 125 80.5 L 122.5 81 L 122.5 80 Z " /><path fill="rgb(125,37,45)" stroke="rgb(125,37,45)" stroke-width="1" opacity="0.09803921568627451" d="M 100.5 83 L 99.5 85 L 97.5 86 L 98.5 84 L 100.5 83 Z " /><path fill="rgb(125,37,45)" stroke="rgb(125,37,45)" stroke-width="1" opacity="0.09803921568627451" d="M 95.5 86 L 98 87.5 L 96.5 88 L 95.5 86 Z " /><path fill="rgb(125,37,45)" stroke="rgb(125,37,45)" stroke-width="1" opacity="0.09803921568627451" d="M 6.5 87 L 7 88.5 L 5.5 92 L 5 89.5 L 6.5 87 Z " /><path fill="rgb(125,37,45)" stroke="rgb(125,37,45)" stroke-width="1" opacity="0.09803921568627451" d="M 93.5 87 L 92.5 89 L 91 88.5 L 93.5 87 Z " /><path fill="rgb(125,37,45)" stroke="rgb(125,37,45)" stroke-width="1" opacity="0.09803921568627451" d="M 125.5 88 L 128 88.5 L 125.5 89 L 125.5 88 Z " /><path fill="rgb(125,37,45)" stroke="rgb(125,37,45)" stroke-width="1" opacity="0.09803921568627451" d="M 94.5 89 L 96 89.5 L 90.5 92 L 91.5 90 L 94.5 89 Z " /><path fill="rgb(125,37,45)" stroke="rgb(125,37,45)" stroke-width="1" opacity="0.09803921568627451" d="M 119.5 89 L 120.5 91 L 118 90.5 L 119.5 89 Z " /><path fill="rgb(125,37,45)" stroke="rgb(125,37,45)" stroke-width="1" opacity="0.09803921568627451" d="M 109.5 90 L 112 90.5 L 109.5 91 L 109.5 90 Z " /><path fill="rgb(125,37,45)" stroke="rgb(125,37,45)" stroke-width="1" opacity="0.09803921568627451" d="M 85.5 91 L 84.5 93 L 83 92.5 L 85.5 91 Z " /><path fill="rgb(125,37,45)" stroke="rgb(125,37,45)" stroke-width="1" opacity="0.09803921568627451" d="M 113.5 92 L 117 93.5 L 115.5 94 L 113.5 92 Z " /><path fill="rgb(125,37,45)" stroke="rgb(125,37,45)" stroke-width="1" opacity="0.09803921568627451" d="M 83.5 94 L 82.5 96 L 83.5 94 Z " /><path fill="rgb(125,37,45)" stroke="rgb(125,37,45)" stroke-width="1" opacity="0.09803921568627451" d="M 76.5 95 L 74.5 98 L 73 98.5 L 73.5 100 Q 70.5 98.5 73.5 97 L 76.5 95 Z " /><path fill="rgb(125,37,45)" stroke="rgb(125,37,45)" stroke-width="1" opacity="0.09803921568627451" d="M 108.5 95 L 108 96.5 L 107.5 98 L 107 96.5 L 108.5 95 Z " /><path fill="rgb(125,37,45)" stroke="rgb(125,37,45)" stroke-width="1" opacity="0.09803921568627451" d="M 116.5 95 L 117 98.5 L 115 99.5 L 116.5 95 Z " /><path fill="rgb(125,37,45)" stroke="rgb(125,37,45)" stroke-width="1" opacity="0.09803921568627451" d="M 2.5 97 L 3 99.5 L 2 99.5 L 2.5 97 Z " /><path fill="rgb(125,37,45)" stroke="rgb(125,37,45)" stroke-width="1" opacity="0.09803921568627451" d="M 107.5 100 L 108.5 102 L 107.5 100 Z " /><path fill="rgb(125,37,45)" stroke="rgb(125,37,45)" stroke-width="1" opacity="0.09803921568627451" d="M 64.5 102 L 67 103.5 L 65.5 104 L 64.5 102 Z " /><path fill="rgb(125,37,45)" stroke="rgb(125,37,45)" stroke-width="1" opacity="0.09803921568627451" d="M 62.5 103 L 61.5 105 L 60 105.5 L 62 106.5 L 58.5 108 L 58.5 107 L 60 106.5 L 58 105.5 L 62.5 103 Z " /><path fill="rgb(125,37,45)" stroke="rgb(125,37,45)" stroke-width="1" opacity="0.09803921568627451" d="M 54.5 107 L 53.5 109 L 52 108.5 L 54.5 107 Z " /><path fill="rgb(125,37,45)" stroke="rgb(125,37,45)" stroke-width="1" opacity="0.09803921568627451" d="M 115.5 107 L 118 107.5 L 115.5 108 L 115.5 107 Z " /><path fill="rgb(125,37,45)" stroke="rgb(125,37,45)" stroke-width="1" opacity="0.09803921568627451" d="M 49.5 109 L 50 111 L 52 111.5 L 50.5 112 L 48 110.5 L 49.5 109 Z " /><path fill="rgb(125,37,45)" stroke="rgb(125,37,45)" stroke-width="1" opacity="0.09803921568627451" d="M 55.5 109 L 57 109.5 L 53.5 111 L 53.5 110 L 55.5 109 Z " /><path fill="rgb(125,37,45)" stroke="rgb(125,37,45)" stroke-width="1" opacity="0.09803921568627451" d="M 45.5 111 L 47 111.5 L 43.5 114 L 45.5 111 Z " /><path fill="rgb(125,37,45)" stroke="rgb(125,37,45)" stroke-width="1" opacity="0.09803921568627451" d="M 119.5 112 L 121 114.5 L 118 116.5 L 120 113.5 L 119.5 112 Z " /><path fill="rgb(125,37,45)" stroke="rgb(125,37,45)" stroke-width="1" opacity="0.09803921568627451" d="M 110.5 113 L 112 115.5 L 111 115.5 L 110.5 113 Z " /><path fill="rgb(125,37,45)" stroke="rgb(125,37,45)" stroke-width="1" opacity="0.09803921568627451" d="M 41.5 114 L 44 115.5 L 42.5 116 L 41.5 114 Z " /><path fill="rgb(125,37,45)" stroke="rgb(125,37,45)" stroke-width="1" opacity="0.09803921568627451" d="M 39.5 115 L 38.5 117 L 37 116.5 L 39.5 115 Z " /><path fill="rgb(125,37,45)" stroke="rgb(125,37,45)" stroke-width="1" opacity="0.09803921568627451" d="M 33.5 118 L 36.5 119 L 38.5 118 L 38.5 119 L 34.5 120 L 33.5 118 Z " /><path fill="rgb(125,37,45)" stroke="rgb(125,37,45)" stroke-width="1" opacity="0.09803921568627451" d="M 31.5 119 L 32 121 L 34 121.5 L 27.5 124 L 27.5 123 L 29 122.5 L 27 121.5 L 31.5 119 Z M 30 121 L 30 122 L 32 122 L 30 121 Z " /><path fill="rgb(125,37,45)" stroke="rgb(125,37,45)" stroke-width="1" opacity="0.09803921568627451" d="M 2.5 122 L 6 125.5 L 5.5 128 L 2.5 123 L 1 123.5 L 2.5 122 Z " /><path fill="rgb(125,37,45)" stroke="rgb(125,37,45)" stroke-width="1" opacity="0.09803921568627451" d="M 24.5 122 L 26 122.5 L 19 126.5 L 18.5 128 L 17.5 126 L 24.5 122 Z " /><path fill="rgb(6,10,120)" stroke="rgb(6,10,120)" stroke-width="1" opacity="0.050980392156862744" d="M 15.5 3 L 14.5 5 L 15.5 3 Z " /><path fill="rgb(6,10,120)" stroke="rgb(6,10,120)" stroke-width="1" opacity="0.050980392156862744" d="M 1.5 4 L 0.5 6 L 1.5 4 Z " /><path fill="rgb(6,10,120)" stroke="rgb(6,10,120)" stroke-width="1" opacity="0.050980392156862744" d="M 59.5 6 L 57.5 9 L 59.5 6 Z " /><path fill="rgb(6,10,120)" stroke="rgb(6,10,120)" stroke-width="1" opacity="0.050980392156862744" d="M 65.5 7 L 66.5 9 L 65.5 7 Z " /><path fill="rgb(6,10,120)" stroke="rgb(6,10,120)" stroke-width="1" opacity="0.050980392156862744" d="M 8.5 10 L 11 10.5 L 8.5 11 L 8.5 10 Z " /><path fill="rgb(6,10,120)" stroke="rgb(6,10,120)" stroke-width="1" opacity="0.050980392156862744" d="M 1.5 16 L 7 20.5 L 5.5 21 L 1.5 16 Z " /><path fill="rgb(6,10,120)" stroke="rgb(6,10,120)" stroke-width="1" opacity="0.050980392156862744" d="M 19.5 17 L 21 19.5 L 20 19.5 L 19.5 17 Z " /><path fill="rgb(6,10,120)" stroke="rgb(6,10,120)" stroke-width="1" opacity="0.050980392156862744" d="M 63.5 17 L 62.5 19 L 63.5 17 Z " /><path fill="rgb(6,10,120)" stroke="rgb(6,10,120)" stroke-width="1" opacity="0.050980392156862744" d="M 0.5 18 L 1.5 20 L 0.5 18 Z " /><path fill="rgb(6,10,120)" stroke="rgb(6,10,120)" stroke-width="1" opacity="0.050980392156862744" d="M 3.5 21 L 6 22.5 L 4.5 23 L 3.5 21 Z " /><path fill="rgb(6,10,120)" stroke="rgb(6,10,120)" stroke-width="1" opacity="0.050980392156862744" d="M 71.5 22 L 70.5 24 L 69 23.5 L 71.5 22 Z " /><path fill="rgb(6,10,120)" stroke="rgb(6,10,120)" stroke-width="1" opacity="0.050980392156862744" d="M 9.5 23 L 8.5 25 L 9.5 23 Z " /><path fill="rgb(6,10,120)" stroke="rgb(6,10,120)" stroke-width="1" opacity="0.050980392156862744" d="M 72.5 24 L 75 25.5 L 73.5 25 L 71.5 26 L 72.5 24 Z " /><path fill="rgb(6,10,120)" stroke="rgb(6,10,120)" stroke-width="1" opacity="0.050980392156862744" d="M 2.5 25 L 2 26.5 L 0.5 32 L 0 28.5 L 2.5 25 Z " /><path fill="rgb(6,10,120)" stroke="rgb(6,10,120)" stroke-width="1" opacity="0.050980392156862744" d="M 4.5 26 L 3.5 28 L 4.5 26 Z " /><path fill="rgb(6,10,120)" stroke="rgb(6,10,120)" stroke-width="1" opacity="0.050980392156862744" d="M 65.5 26 L 63.5 29 L 63 27 L 65.5 26 Z " /><path fill="rgb(6,10,120)" stroke="rgb(6,10,120)" stroke-width="1" opacity="0.050980392156862744" d="M 10.5 27 L 9.5 29 L 10.5 27 Z " /><path fill="rgb(6,10,120)" stroke="rgb(6,10,120)" stroke-width="1" opacity="0.050980392156862744" d="M 20.5 29 L 23 29.5 L 20.5 30 L 20.5 29 Z " /><path fill="rgb(6,10,120)" stroke="rgb(6,10,120)" stroke-width="1" opacity="0.050980392156862744" d="M 64.5 30 L 65.5 32 L 64.5 30 Z " /><path fill="rgb(6,10,120)" stroke="rgb(6,10,120)" stroke-width="1" opacity="0.050980392156862744" d="M 7.5 31 L 12 31.5 L 7.5 32 L 7.5 31 Z " /><path fill="rgb(6,10,120)" stroke="rgb(6,10,120)" stroke-width="1" opacity="0.050980392156862744" d="M 19.5 31 L 23 32.5 L 21.5 32 Q 18.5 32.5 19.5 31 Z " /><path fill="rgb(6,10,120)" stroke="rgb(6,10,120)" stroke-width="1" opacity="0.050980392156862744" d="M 72.5 31 L 70 34.5 L 70.5 36 L 68 34.5 L 72.5 31 Z " /><path fill="rgb(6,10,120)" stroke="rgb(6,10,120)" stroke-width="1" opacity="0.050980392156862744" d="M 3.5 32 L 5.5 35 L 3.5 32 Z " /><path fill="rgb(6,10,120)" stroke="rgb(6,10,120)" stroke-width="1" opacity="0.050980392156862744" d="M 73.5 33 L 72.5 35 L 73.5 33 Z " /><path fill="rgb(6,10,120)" stroke="rgb(6,10,120)" stroke-width="1" opacity="0.050980392156862744" d="M 27.5 34 L 27 35.5 L 26.5 38 L 26 35.5 L 27.5 34 Z " /><path fill="rgb(6,10,120)" stroke="rgb(6,10,120)" stroke-width="1" opacity="0.050980392156862744" d="M 20.5 35 L 23 36.5 L 21.5 36 L 20.5 35 Z " /><path fill="rgb(6,10,120)" stroke="rgb(6,10,120)" stroke-width="1" opacity="0.050980392156862744" d="M 8.5 38 L 11 38.5 L 8.5 39 L 8.5 38 Z " /><path fill="rgb(6,10,120)" stroke="rgb(6,10,120)" stroke-width="1" opacity="0.050980392156862744" d="M 13.5 38 L 21 38.5 L 13.5 39 L 13.5 38 Z " /><path fill="rgb(6,10,120)" stroke="rgb(6,10,120)" stroke-width="1" opacity="0.050980392156862744" d="M 18.5 41 L 19 42.5 L 17 43.5 L 18.5 41 Z " /><path fill="rgb(6,10,120)" stroke="rgb(6,10,120)" stroke-width="1" opacity="0.050980392156862744" d="M 20.5 43 L 19.5 45 L 20.5 43 Z " /><path fill="rgb(6,10,120)" stroke="rgb(6,10,120)" stroke-width="1" opacity="0.050980392156862744" d="M 24.5 45 L 23.5 47 L 24.5 45 Z " /><path fill="rgb(6,10,120)" stroke="rgb(6,10,120)" stroke-width="1" opacity="0.050980392156862744" d="M 120.5 45 L 127 45.5 L 120.5 46 L 120.5 45 Z " /><path fill="rgb(6,10,120)" stroke="rgb(6,10,120)" stroke-width="1" opacity="0.050980392156862744" d="M 17.5 46 L 16.5 48 L 17.5 46 Z " /><path fill="rgb(6,10,120)" stroke="rgb(6,10,120)" stroke-width="1" opacity="0.050980392156862744" d="M 108.5 46 L 112 46.5 L 108.5 47 L 108.5 46 Z " /><path fill="rgb(6,10,120)" stroke="rgb(6,10,120)" stroke-width="1" opacity="0.050980392156862744" d="M 22.5 48 L 21.5 52 L 19 51.5 L 22.5 48 Z " /><path fill="rgb(6,10,120)" stroke="rgb(6,10,120)" stroke-width="1" opacity="0.050980392156862744" d="M 94.5 49 L 97 49.5 L 94.5 50 L 94.5 49 Z " /><path fill="rgb(6,10,120)" stroke="rgb(6,10,120)" stroke-width="1" opacity="0.050980392156862744" d="M 120.5 57 L 125 57.5 L 120.5 58 L 120.5 57 Z " /><path fill="rgb(6,10,120)" stroke="rgb(6,10,120)" stroke-width="1" opacity="0.050980392156862744" d="M 101.5 59 L 103 59.5 L 99.5 61 L 99.5 60 L 101.5 59 Z " /><path fill="rgb(6,10,120)" stroke="rgb(6,10,120)" stroke-width="1" opacity="0.050980392156862744" d="M 124.5 59 L 127 59.5 L 124.5 60 L 124.5 59 Z " /><path fill="rgb(6,10,120)" stroke="rgb(6,10,120)" stroke-width="1" opacity="0.050980392156862744" d="M 108.5 61 L 111 61.5 L 108.5 62 L 108.5 61 Z " /><path fill="rgb(6,10,120)" stroke="rgb(6,10,120)" stroke-width="1" opacity="0.050980392156862744" d="M 89.5 92 Q 92.5 93.5 89.5 95 L 89.5 92 Z " /><path fill="rgb(6,10,120)" stroke="rgb(6,10,120)" stroke-width="1" opacity="0.050980392156862744" d="M 80.5 93 L 83 93.5 L 80.5 94 L 80.5 93 Z " /><path fill="rgb(6,10,120)" stroke="rgb(6,10,120)" stroke-width="1" opacity="0.050980392156862744" d="M 86.5 94 L 84.5 97 L 86.5 94 Z " /><path fill="rgb(6,10,120)" stroke="rgb(6,10,120)" stroke-width="1" opacity="0.050980392156862744" d="M 77.5 95 L 76.5 97 L 77.5 95 Z " /><path fill="rgb(6,10,120)" stroke="rgb(6,10,120)" stroke-width="1" opacity="0.050980392156862744" d="M 80 97 Q 83.7 95.5 83 98.5 L 81 98.5 L 83 102.5 L 81 101.5 L 80 97 Z " /><path fill="rgb(6,10,120)" stroke="rgb(6,10,120)" stroke-width="1" opacity="0.050980392156862744" d="M 93.5 97 L 95 97.5 L 92.5 99 L 93.5 97 Z " /><path fill="rgb(6,10,120)" stroke="rgb(6,10,120)" stroke-width="1" opacity="0.050980392156862744" d="M 83.5 100 L 84.5 102 L 83.5 100 Z " /><path fill="rgb(6,10,120)" stroke="rgb(6,10,120)" stroke-width="1" opacity="0.050980392156862744" d="M 92.5 100 L 91.5 102 L 92.5 100 Z " /><path fill="rgb(6,10,120)" stroke="rgb(6,10,120)" stroke-width="1" opacity="0.050980392156862744" d="M 89.5 102 L 88.5 104 L 89.5 102 Z " /><path fill="rgb(6,10,120)" stroke="rgb(6,10,120)" stroke-width="1" opacity="0.050980392156862744" d="M 89.5 105 L 88.5 107 L 89.5 105 Z " /><path fill="rgb(0,0,0)" stroke="rgb(0,0,0)" stroke-width="1" opacity="0" d="M 0 0 L 7.5 1 L 8.5 0 L 40 0 L 40.5 2 L 41.5 0 L 42 1.5 L 41 6.5 L 42 8.5 L 37.5 13 L 36 12.5 L 37 15.5 L 32 17.5 Q 33.3 20.3 34.5 18 L 38.5 17 L 41.5 20 L 47 21 L 46.5 18 L 44.5 19 L 45.5 17 L 47.5 18 L 48 16.5 L 47 14.5 L 47.5 13 L 43 9.5 L 45.5 9 L 50 13.5 L 53 23.5 L 52.5 26 L 39.5 19 L 34 19 L 33.5 21 L 33 19 L 30 17.5 L 28.5 15 Q 25.2 13.9 26 16.5 L 22 18 Q 21 24.4 26.5 26 L 31 25 L 29 34 L 27 34.5 L 27.5 36 L 21.5 31 L 7 30.5 L 19 21.5 L 19.5 20 L 21 20.5 L 21 17 L 19 17 Q 20.1 14.3 17.5 15 L 10 13.5 L 18 12.5 L 9.5 12 L 6 13 Q 5.9 8.1 9.5 6 L 13 5 Q 15.3 -1 8.5 1 L 2 6.5 L 0.5 9 L 0 7.5 L 2.5 4 L 0.5 5 L 0 0 Z M 39 2 L 38 8 L 39 8 L 39 2 Z M 9 9 L 8 11 L 11 11 L 9 9 Z M 27 13 L 27 14 L 30 14 L 27 13 Z M 35 13 L 34 16 L 35 16 L 35 13 Z M 50 15 L 49 21 L 47 22 L 50 22 L 50 15 Z M 28 27 L 27 30 L 29 30 L 30 28 L 28 27 Z M 11 29 L 11 30 L 23 30 L 11 29 Z M 27 31 L 25 33 L 27 33 L 27 31 Z " /><path fill="rgb(0,0,0)" stroke="rgb(0,0,0)" stroke-width="1" opacity="0" d="M 48.5 0 L 51.5 1 L 52.5 0 L 117.5 0 L 119.5 1 L 121 0.5 L 118.5 2 Q 117.3 -0.3 116 2.5 L 116.5 7 L 117.5 3 L 120 12.5 L 120 14.5 L 118.5 17 L 107.5 16 L 103 18.5 L 102 24.5 L 103 28 Q 105.7 26.9 105 29.5 L 106 32 L 108 32.5 L 102 33 Q 103.3 30 99.5 31 L 96 29 Q 97.1 26.3 94.5 27 Q 92.2 23.8 85.5 25 Q 80.8 27.8 82 36.5 L 83 37.5 L 83 45.5 L 85 49 L 92 46.5 L 91 32 L 93 31.5 L 91 31 L 91.5 29 L 102.5 37 L 109.5 37 Q 114.8 35 113 27 L 110 25.5 L 111 22.5 L 108 21.5 L 111.5 21 L 117 22.5 L 111 23 L 111.5 25 L 112.5 24 L 124 23.5 L 120 22.5 L 126 21 L 127.5 16 L 128 18.5 L 128 20.5 L 128 45.5 L 127 46.5 L 128 48.5 L 126.5 48 L 124.5 49 L 119.5 48 L 118.5 49 L 96.5 51 Q 93.7 54.7 86.5 54 L 67 36.5 Q 67.8 34.3 65.5 35 L 61 31.5 L 62 29.5 L 59 16.5 L 60 15.5 L 58.5 13 L 61 14 L 61.5 17 Q 62.9 12.9 68 12.5 L 67 8.5 L 64 5.5 L 64.5 4 L 61 4 Q 62.1 6.7 59.5 6 Q 58.4 8.8 55 8 L 53 3 Q 47.9 2.5 48.5 0 Z M 54 2 L 54 5 L 56 6 L 55 4 Q 56 1 54 2 Z M 98 4 L 96 6 L 98 6 L 99 6 L 96 7 L 95 10 Q 94 12 97 11 L 99 16 L 105 13 L 106 11 L 105 8 Q 101 6 104 5 L 98 4 Z M 107 6 L 107 12 L 108 12 L 107 6 Z M 118 7 L 117 14 L 112 14 L 112 15 L 119 15 L 118 7 Z M 94 8 L 93 11 L 94 11 L 94 8 Z M 107 12 Q 107 15 105 14 L 105 15 L 111 14 L 107 12 Z M 100 17 L 101 25 L 102 19 Q 103 16 100 17 Z M 62 18 L 62 20 L 62 29 L 64 29 L 66 34 L 69 35 L 70 37 Q 72 36 70 35 L 74 31 Q 75 26 72 27 L 71 23 L 65 25 L 67 26 L 65 27 L 63 27 L 63 18 L 62 18 Z M 69 21 L 69 22 L 71 22 L 69 21 Z M 86 22 L 86 23 L 92 23 L 86 22 Z M 73 24 L 75 27 L 75 26 L 73 24 Z M 93 24 L 93 25 L 95 25 L 93 24 Z M 118 25 L 118 26 L 120 26 L 118 25 Z M 76 27 L 75 31 L 76 31 L 76 27 Z M 115 27 L 114 35 L 115 35 L 115 27 Z M 81 29 L 80 41 L 81 41 L 81 29 Z M 101 29 L 101 30 L 103 30 L 101 29 Z M 94 32 L 94 47 L 95 47 L 94 35 Q 96 33 94 32 Z M 102 38 L 102 39 L 111 39 L 102 38 Z M 82 42 L 81 45 L 79 46 L 81 46 L 82 47 L 82 42 Z M 121 45 L 120 46 L 109 46 L 109 47 L 121 47 L 127 46 L 121 45 Z M 101 48 Q 94 51 85 51 L 86 53 L 91 53 L 87 52 L 109 49 L 101 48 Z " /><path fill="rgb(0,0,0)" stroke="rgb(0,0,0)" stroke-width="1" opacity="0" d="M 123.5 0 L 125.5 0 Q 128.8 -1.1 128 1.5 L 126 1.5 L 127 4.5 L 126 4.5 L 123.5 0 Z " /><path fill="rgb(0,0,0)" stroke="rgb(0,0,0)" stroke-width="1" opacity="0" d="M 0.5 15 L 5.5 21 L 12 22.5 L 3 27.5 L 2 30.5 L 5.5 35 Q 12.3 33.7 15.5 36 L 18.5 35 L 23 37.5 L 18.5 38 L 16.5 37 L 13 38.5 L 20 39 L 20.5 41 L 21.5 39 L 22 40.5 L 15 50.5 Q 16.6 53.4 22 52.5 L 20 53.5 L 21 55.5 Q 17.3 59.8 17 67.5 L 15 69.5 L 14 75.5 L 5 100.5 L 3 102.5 L 0.5 113 L 0 110.5 L 1 107.5 L 0 104.5 L 0 32.5 L 1 28.5 L 0 27.5 L 0 19.5 L 1 17.5 L 0.5 15 Z M 5 22 L 5 23 L 8 23 L 5 22 Z M 6 37 L 6 38 L 8 38 L 6 37 Z M 9 38 L 9 39 L 11 39 L 9 38 Z M 18 41 L 18 43 L 20 42 L 18 41 Z M 14 48 L 13 52 L 14 52 L 14 48 Z M 17 54 L 18 55 Q 19 57 20 55 L 17 54 Z M 18 56 L 17 60 L 18 60 L 18 56 Z M 17 60 L 16 63 L 13 62 L 9 62 Q 10 65 7 64 L 6 69 L 5 66 L 4 70 Q 5 72 7 70 L 13 73 L 15 67 L 15 65 L 17 64 L 17 60 Z M 11 74 L 11 75 L 13 75 L 11 74 Z M 10 79 L 9 82 L 10 82 L 10 79 Z M 9 83 L 8 86 L 9 86 L 9 83 Z M 7 87 L 5 93 Q 3 94 6 95 L 7 90 L 7 87 Z M 5 95 L 4 98 L 5 98 L 5 95 Z M 3 97 L 2 100 L 3 100 L 3 97 Z M 2 101 L 1 104 L 2 104 L 2 101 Z " /><path fill="rgb(0,0,0)" stroke="rgb(0,0,0)" stroke-width="1" opacity="0" d="M 32.5 22 L 31.5 24 L 32.5 22 Z " /><path fill="rgb(0,0,0)" stroke="rgb(0,0,0)" stroke-width="1" opacity="0" d="M 22.5 49 L 21.5 51 L 22.5 49 Z " /><path fill="rgb(0,0,0)" stroke="rgb(0,0,0)" stroke-width="1" opacity="0" d="M 125.5 57 L 128 57.5 L 128 59.5 L 128 80.5 L 126.5 81 L 127 82.5 L 128 87.5 L 127 87.5 L 125 80 L 117 83 L 119 89.5 L 117 89.5 Q 116.4 92.3 122.5 91 Q 123.8 88 128 89 L 128 128 L 21.5 128 L 19 126.5 L 25.5 123 L 28.5 124 L 28.5 123 L 27 122.5 L 32 121 Q 30.9 118.3 33.5 119 L 78.5 95 L 92.5 89 L 104 80.5 L 104.5 78 L 106 83 L 115 80.5 L 113 74 L 111 74 Q 112.1 71.3 109.5 72 L 103.5 75 L 100 70.5 L 102 70 Q 103.1 67.3 100.5 68 Q 99.3 70.3 98 67.5 L 94 62.5 L 103.5 59 L 124.5 58 L 125.5 57 Z M 112 59 L 112 60 L 127 60 L 112 59 Z M 104 61 L 104 62 L 111 62 L 104 61 Z M 97 62 L 97 65 L 99 66 L 98 64 L 103 63 L 97 62 Z M 115 74 L 115 80 L 116 80 L 115 74 Z M 119 80 L 119 81 L 121 81 L 119 80 Z M 107 85 L 107 86 L 110 86 L 107 85 Z M 92 90 L 92 91 L 94 91 L 92 90 Z M 110 90 L 110 91 L 112 91 L 110 90 Z M 89 91 Q 87 94 90 93 L 89 91 Z M 113 92 L 113 93 L 115 93 L 113 92 Z M 109 93 L 107 97 L 107 101 Q 110 104 115 103 L 117 95 L 109 93 Z M 121 93 L 121 94 L 123 94 L 121 93 Z M 87 94 L 83 97 L 83 95 Q 80 94 81 97 L 78 98 L 80 98 L 81 100 L 82 98 L 87 104 L 93 101 Q 94 97 91 98 L 90 96 Q 91 93 87 94 Z M 106 95 L 105 99 L 106 99 L 106 95 Z M 119 95 L 118 101 L 119 101 L 119 95 Z M 94 96 L 94 101 L 95 101 Q 96 97 94 96 Z M 109 103 L 109 104 L 111 104 L 109 103 Z M 111 105 L 111 107 L 118 106 L 111 105 Z M 87 106 L 87 107 L 89 107 L 87 106 Z M 58 107 L 58 108 L 60 108 L 58 107 Z M 116 107 L 110 110 Q 109 116 114 118 Q 119 118 121 115 L 118 110 Q 119 106 116 107 Z M 53 110 L 53 111 L 55 111 L 53 110 Z M 123 112 L 122 116 L 123 116 L 123 112 Z M 110 114 L 109 117 L 110 117 L 110 114 Z M 118 118 L 118 119 L 120 119 L 118 118 Z M 35 119 L 35 120 L 37 120 L 35 119 Z M 113 119 L 113 120 L 117 120 L 113 119 Z M 30 122 L 30 123 L 32 123 L 30 122 Z M 22 126 L 22 127 L 24 127 L 22 126 Z " /><path fill="rgb(0,0,0)" stroke="rgb(0,0,0)" stroke-width="1" opacity="0" d="M 0.5 119 L 5.5 126 L 9 127.5 L 7.5 128 L 5.5 127 L 0 128 L 1 121.5 L 0.5 119 Z " /><path fill="rgb(172,82,63)" stroke="rgb(172,82,63)" stroke-width="1" opacity="0.38823529411764707" d="M 43.5 0 Q 51 0.5 54 5.5 L 50.5 3 L 43.5 1 L 42 1.5 L 43.5 0 Z " /><path fill="rgb(172,82,63)" stroke="rgb(172,82,63)" stroke-width="1" opacity="0.38823529411764707" d="M 120.5 1 L 119 3.5 L 120 6.5 L 118 5.5 Q 117.5 1.5 120.5 1 Z " /><path fill="rgb(172,82,63)" stroke="rgb(172,82,63)" stroke-width="1" opacity="0.38823529411764707" d="M 41.5 3 L 42 7 L 44 7.5 L 42.5 8 Q 39.8 6.8 41.5 3 Z " /><path fill="rgb(172,82,63)" stroke="rgb(172,82,63)" stroke-width="1" opacity="0.38823529411764707" d="M 124.5 3 L 127 8.5 L 126 8.5 L 124.5 3 Z " /><path fill="rgb(172,82,63)" stroke="rgb(172,82,63)" stroke-width="1" opacity="0.38823529411764707" d="M 103.5 4 L 102.5 6 L 103.5 4 Z " /><path fill="rgb(172,82,63)" stroke="rgb(172,82,63)" stroke-width="1" opacity="0.38823529411764707" d="M 100.5 5 L 98.5 8 L 100.5 5 Z " /><path fill="rgb(172,82,63)" stroke="rgb(172,82,63)" stroke-width="1" opacity="0.38823529411764707" d="M 54.5 7 L 55.5 9 L 54.5 7 Z " /><path fill="rgb(172,82,63)" stroke="rgb(172,82,63)" stroke-width="1" opacity="0.38823529411764707" d="M 47.5 9 L 52 14.5 L 50 13.5 L 47.5 9 Z " /><path fill="rgb(172,82,63)" stroke="rgb(172,82,63)" stroke-width="1" opacity="0.38823529411764707" d="M 105.5 9 L 106 10.5 L 104 11.5 L 105.5 9 Z " /><path fill="rgb(172,82,63)" stroke="rgb(172,82,63)" stroke-width="1" opacity="0.38823529411764707" d="M 41.5 10 L 44 10.5 L 38 14.5 L 41.5 19 L 46 15.5 L 44 12.5 L 45.5 13 Q 48.1 12.2 47 15.5 L 47.5 17 L 46.5 16 L 42.5 20 L 41 20.5 L 45 22.5 L 43.5 23 Q 40.7 19.8 34 20.5 L 40 18.5 L 37 14.5 L 41.5 10 Z " /><path fill="rgb(172,82,63)" stroke="rgb(172,82,63)" stroke-width="1" opacity="0.38823529411764707" d="M 56.5 10 L 59 17.5 L 58 17.5 L 56.5 10 Z " /><path fill="rgb(172,82,63)" stroke="rgb(172,82,63)" stroke-width="1" opacity="0.38823529411764707" d="M 127.5 10 L 128 15.5 L 126 20 Q 122.8 23 114.5 22 L 110 20.5 L 113.5 20 Q 115.3 22.8 121.5 21 L 126 17.5 L 127.5 10 Z " /><path fill="rgb(172,82,63)" stroke="rgb(172,82,63)" stroke-width="1" opacity="0.38823529411764707" d="M 97.5 11 L 99 14 L 102.5 13 L 101.5 15 L 98 13.5 L 97.5 11 Z " /><path fill="rgb(172,82,63)" stroke="rgb(172,82,63)" stroke-width="1" opacity="0.38823529411764707" d="M 27.5 15 L 34 22.5 L 32.5 22 L 28 25.5 L 32 20.5 L 27.5 16 L 24 18.5 L 27.5 15 Z " /><path fill="rgb(172,82,63)" stroke="rgb(172,82,63)" stroke-width="1" opacity="0.38823529411764707" d="M 105.5 17 L 107 17.5 L 104.5 19 L 105.5 17 Z " /><path fill="rgb(172,82,63)" stroke="rgb(172,82,63)" stroke-width="1" opacity="0.38823529411764707" d="M 110.5 17 L 114 17.5 L 110.5 18 L 110.5 17 Z " /><path fill="rgb(172,82,63)" stroke="rgb(172,82,63)" stroke-width="1" opacity="0.38823529411764707" d="M 53.5 20 L 54 23.5 L 53 23.5 L 53.5 20 Z " /><path fill="rgb(172,82,63)" stroke="rgb(172,82,63)" stroke-width="1" opacity="0.38823529411764707" d="M 100.5 20 L 101 22.5 L 100 22.5 L 100.5 20 Z " /><path fill="rgb(172,82,63)" stroke="rgb(172,82,63)" stroke-width="1" opacity="0.38823529411764707" d="M 107 20 L 109 20.5 L 108 22.5 L 112 29.5 L 111 29.5 L 107 20 Z " /><path fill="rgb(172,82,63)" stroke="rgb(172,82,63)" stroke-width="1" opacity="0.38823529411764707" d="M 59.5 21 L 61 25.5 L 59.5 28 L 59.5 21 Z " /><path fill="rgb(172,82,63)" stroke="rgb(172,82,63)" stroke-width="1" opacity="0.38823529411764707" d="M 113.5 23 L 116 23.5 L 113.5 24 L 113.5 23 Z " /><path fill="rgb(172,82,63)" stroke="rgb(172,82,63)" stroke-width="1" opacity="0.38823529411764707" d="M 25.5 24 L 26.5 26 L 25.5 24 Z " /><path fill="rgb(172,82,63)" stroke="rgb(172,82,63)" stroke-width="1" opacity="0.38823529411764707" d="M 62.5 24 L 63 27.5 L 62 27.5 L 62.5 24 Z " /><path fill="rgb(172,82,63)" stroke="rgb(172,82,63)" stroke-width="1" opacity="0.38823529411764707" d="M 50.5 25 L 51.5 27 L 50.5 25 Z " /><path fill="rgb(172,82,63)" stroke="rgb(172,82,63)" stroke-width="1" opacity="0.38823529411764707" d="M 86.5 25 L 90.5 25 L 100 31.5 L 98.5 31 L 97 31.5 L 101 34.5 L 99.5 34 L 96 31.5 Q 98.7 29.7 94.5 28 L 93 28.5 L 94.5 31 L 91 29 L 90.5 40 L 90 29.5 L 93 27.5 Q 91.3 25.3 86.5 26 L 84 27.5 L 86.5 25 Z " /><path fill="rgb(172,82,63)" stroke="rgb(172,82,63)" stroke-width="1" opacity="0.38823529411764707" d="M 54.5 26 L 53.5 28 L 54.5 26 Z " /><path fill="rgb(172,82,63)" stroke="rgb(172,82,63)" stroke-width="1" opacity="0.38823529411764707" d="M 105.5 28 L 106.5 30 L 105.5 28 Z " /><path fill="rgb(172,82,63)" stroke="rgb(172,82,63)" stroke-width="1" opacity="0.38823529411764707" d="M 83.5 29 L 84 41.5 L 83 41.5 L 83.5 29 Z " /><path fill="rgb(172,82,63)" stroke="rgb(172,82,63)" stroke-width="1" opacity="0.38823529411764707" d="M 80.5 32 L 81 35.5 L 80 35.5 L 80.5 32 Z " /><path fill="rgb(172,82,63)" stroke="rgb(172,82,63)" stroke-width="1" opacity="0.38823529411764707" d="M 62.5 33 L 64.5 36 L 62.5 33 Z " /><path fill="rgb(172,82,63)" stroke="rgb(172,82,63)" stroke-width="1" opacity="0.38823529411764707" d="M 93 33 L 95 33.5 L 93.5 39 L 93 33 Z " /><path fill="rgb(172,82,63)" stroke="rgb(172,82,63)" stroke-width="1" opacity="0.38823529411764707" d="M 103.5 33 L 106 33.5 L 103.5 34 L 103.5 33 Z " /><path fill="rgb(172,82,63)" stroke="rgb(172,82,63)" stroke-width="1" opacity="0.38823529411764707" d="M 28.5 35 L 29 36.5 L 27.5 39 L 27 37.5 L 28.5 35 Z " /><path fill="rgb(172,82,63)" stroke="rgb(172,82,63)" stroke-width="1" opacity="0.38823529411764707" d="M 102.5 35 L 108.5 36 L 110 35.5 Q 108.8 38.3 103.5 37 L 102.5 35 Z " /><path fill="rgb(172,82,63)" stroke="rgb(172,82,63)" stroke-width="1" opacity="0.38823529411764707" d="M 67.5 37 L 69.5 40 L 67.5 37 Z " /><path fill="rgb(172,82,63)" stroke="rgb(172,82,63)" stroke-width="1" opacity="0.38823529411764707" d="M 102.5 38 L 105 38.5 L 102.5 39 L 102.5 38 Z " /><path fill="rgb(172,82,63)" stroke="rgb(172,82,63)" stroke-width="1" opacity="0.38823529411764707" d="M 72.5 41 L 75.5 45 L 72.5 41 Z " /><path fill="rgb(172,82,63)" stroke="rgb(172,82,63)" stroke-width="1" opacity="0.38823529411764707" d="M 84.5 44 L 86.5 47 L 90.5 46 L 89.5 48 Q 84.1 49.9 85 46.5 L 84.5 44 Z " /><path fill="rgb(172,82,63)" stroke="rgb(172,82,63)" stroke-width="1" opacity="0.38823529411764707" d="M 81.5 49 L 86.5 55 L 81.5 49 Z " /><path fill="rgb(172,82,63)" stroke="rgb(172,82,63)" stroke-width="1" opacity="0.38823529411764707" d="M 84.5 49 L 90 50.5 L 85.5 51 L 84.5 49 Z " /><path fill="rgb(172,82,63)" stroke="rgb(172,82,63)" stroke-width="1" opacity="0.38823529411764707" d="M 22.5 52 L 23 53.5 L 21.5 56 L 21 54.5 L 22.5 52 Z " /><path fill="rgb(172,82,63)" stroke="rgb(172,82,63)" stroke-width="1" opacity="0.38823529411764707" d="M 9.5 62 Q 14.5 61.5 15 65.5 L 11.5 63 Q 8.5 63.5 9.5 62 Z " /><path fill="rgb(172,82,63)" stroke="rgb(172,82,63)" stroke-width="1" opacity="0.38823529411764707" d="M 93.5 62 L 95.5 65 L 93.5 62 Z " /><path fill="rgb(172,82,63)" stroke="rgb(172,82,63)" stroke-width="1" opacity="0.38823529411764707" d="M 18.5 63 L 19 64.5 L 17.5 67 L 17 65.5 L 18.5 63 Z " /><path fill="rgb(172,82,63)" stroke="rgb(172,82,63)" stroke-width="1" opacity="0.38823529411764707" d="M 7.5 66 Q 5.7 68.5 10.5 71 L 12 71.5 L 10.5 72 L 6 68.5 L 7.5 66 Z " /><path fill="rgb(172,82,63)" stroke="rgb(172,82,63)" stroke-width="1" opacity="0.38823529411764707" d="M 97.5 67 L 98.5 69 L 97.5 67 Z " /><path fill="rgb(172,82,63)" stroke="rgb(172,82,63)" stroke-width="1" opacity="0.38823529411764707" d="M 99.5 70 L 102 73.5 L 101 73.5 L 99.5 70 Z " /><path fill="rgb(172,82,63)" stroke="rgb(172,82,63)" stroke-width="1" opacity="0.38823529411764707" d="M 105.5 74 L 107 74.5 L 104.5 76 L 105.5 74 Z " /><path fill="rgb(172,82,63)" stroke="rgb(172,82,63)" stroke-width="1" opacity="0.38823529411764707" d="M 112.5 76 Q 115 77.2 114 81 L 110.5 82 L 111.5 80 Q 114.1 80.8 113 77.5 L 112.5 76 Z " /><path fill="rgb(172,82,63)" stroke="rgb(172,82,63)" stroke-width="1" opacity="0.38823529411764707" d="M 102.5 81 L 101.5 83 L 102.5 81 Z " /><path fill="rgb(172,82,63)" stroke="rgb(172,82,63)" stroke-width="1" opacity="0.38823529411764707" d="M 106.5 81 L 109 82.5 L 107.5 83 L 106.5 81 Z " /><path fill="rgb(172,82,63)" stroke="rgb(172,82,63)" stroke-width="1" opacity="0.38823529411764707" d="M 121.5 81 L 120.5 83 L 117.5 85 L 119.5 82 L 121.5 81 Z " /><path fill="rgb(172,82,63)" stroke="rgb(172,82,63)" stroke-width="1" opacity="0.38823529411764707" d="M 125.5 83 L 126.5 85 L 125.5 83 Z " /><path fill="rgb(172,82,63)" stroke="rgb(172,82,63)" stroke-width="1" opacity="0.38823529411764707" d="M 97.5 84 L 96.5 86 L 86.5 91 L 87.5 89 L 97.5 84 Z " /><path fill="rgb(172,82,63)" stroke="rgb(172,82,63)" stroke-width="1" opacity="0.38823529411764707" d="M 118.5 86 L 121.5 90 L 124.5 88 L 123.5 92 L 120.5 90 L 119 90.5 L 119 88.5 L 118.5 86 Z " /><path fill="rgb(172,82,63)" stroke="rgb(172,82,63)" stroke-width="1" opacity="0.38823529411764707" d="M 109.5 93 L 116 95.5 L 114.5 96 L 109.5 94 L 109.5 93 Z " /><path fill="rgb(172,82,63)" stroke="rgb(172,82,63)" stroke-width="1" opacity="0.38823529411764707" d="M 118.5 96 L 119 98.5 L 118 98.5 L 118.5 96 Z " /><path fill="rgb(172,82,63)" stroke="rgb(172,82,63)" stroke-width="1" opacity="0.38823529411764707" d="M 72.5 97 L 71.5 99 L 61.5 104 L 62.5 102 L 72.5 97 Z " /><path fill="rgb(172,82,63)" stroke="rgb(172,82,63)" stroke-width="1" opacity="0.38823529411764707" d="M 107.5 98 L 109.5 101 L 112 102.5 L 110.5 102 L 107 99.5 L 107.5 98 Z " /><path fill="rgb(172,82,63)" stroke="rgb(172,82,63)" stroke-width="1" opacity="0.38823529411764707" d="M 56.5 105 L 58 105.5 L 55.5 107 L 56.5 105 Z " /><path fill="rgb(172,82,63)" stroke="rgb(172,82,63)" stroke-width="1" opacity="0.38823529411764707" d="M 114.5 105 L 117 105.5 L 114.5 106 L 114.5 105 Z " /><path fill="rgb(172,82,63)" stroke="rgb(172,82,63)" stroke-width="1" opacity="0.38823529411764707" d="M 114.5 108 Q 118.9 106.5 118 109.5 L 116.5 109 L 111 111.5 L 112 113.5 L 110 112.5 Q 108.9 109.2 111.5 110 L 114.5 108 Z " /><path fill="rgb(172,82,63)" stroke="rgb(172,82,63)" stroke-width="1" opacity="0.38823529411764707" d="M 43.5 112 L 42.5 114 L 40.5 115 L 41.5 113 L 43.5 112 Z " /><path fill="rgb(172,82,63)" stroke="rgb(172,82,63)" stroke-width="1" opacity="0.38823529411764707" d="M 119.5 113 L 120 114.5 Q 118.3 117.8 113.5 118 L 112 115.5 L 113 115.5 Q 112.2 118.1 115.5 117 L 119 114.5 L 119.5 113 Z " /><path fill="rgb(172,82,63)" stroke="rgb(172,82,63)" stroke-width="1" opacity="0.38823529411764707" d="M 0.5 114 L 1 117.5 L 0 117.5 L 0.5 114 Z " /><path fill="rgb(172,82,63)" stroke="rgb(172,82,63)" stroke-width="1" opacity="0.38823529411764707" d="M 35.5 116 L 37 116.5 L 32.5 119 L 33.5 117 L 35.5 116 Z " /><path fill="rgb(172,82,63)" stroke="rgb(172,82,63)" stroke-width="1" opacity="0.38823529411764707" d="M 2.5 121 L 6.5 126 L 2.5 121 Z " /><path fill="rgb(172,82,63)" stroke="rgb(172,82,63)" stroke-width="1" opacity="0.38823529411764707" d="M 10.5 127 L 14 127.5 L 10.5 128 L 10.5 127 Z " /><path fill="rgb(224,149,71)" stroke="rgb(224,149,71)" stroke-width="1" opacity="0.984313725490196" d="M 43.5 1 Q 51 1.5 54 6.5 L 56 9.5 Q 53.5 11 57 12.5 L 59 18.5 L 58 22.5 L 60 29.5 L 59 31.5 L 60 34 L 67 38.5 L 64.5 37 Q 60.8 36 62 39 Q 64.7 37.9 64 40.5 L 65 43.5 L 64 46 Q 60.3 44.5 61 47.5 Q 58.7 48.8 60 53.5 L 66.5 58 L 69.5 57 L 71 59.5 L 70 62 L 72 62.5 L 71 63.5 L 73.5 67 L 52 47.5 L 50.5 45 Q 48.3 45.8 49 43.5 L 43.5 37 L 47.5 41 L 49 39.5 L 52 33 L 55 32.5 L 55 23.5 L 51 12.5 L 46.5 8 L 42 7 Q 40.8 2.4 43.5 1 Z M 53 35 L 49 42 L 53 45 L 54 44 L 53 35 Z M 62 42 L 60 45 L 62 44 L 62 42 Z M 58 43 L 57 46 L 58 46 L 58 43 Z " /><path fill="rgb(224,149,71)" stroke="rgb(224,149,71)" stroke-width="1" opacity="0.984313725490196" d="M 123.5 2 L 127 9.5 L 126 13.5 L 127 15.5 L 125 15.5 L 126 17.5 Q 123.5 22.5 114.5 21 L 110.5 19 L 107 20 L 110 27.5 L 107 26.5 L 106.5 28 Q 103.3 25.7 104 19.5 L 109.5 17 L 116.5 19 L 121 15.5 L 121.5 10 Q 123.3 12.8 125 8.5 L 123.5 2 Z " /><path fill="rgb(224,149,71)" stroke="rgb(224,149,71)" stroke-width="1" opacity="0.984313725490196" d="M 101.5 5 L 103.5 10 L 105 9.5 L 103 12.5 L 99 14 L 97 8 L 101.5 5 Z " /><path fill="rgb(224,149,71)" stroke="rgb(224,149,71)" stroke-width="1" opacity="0.984313725490196" d="M 120.5 7 L 121.5 9 L 120.5 7 Z " /><path fill="rgb(224,149,71)" stroke="rgb(224,149,71)" stroke-width="1" opacity="0.984313725490196" d="M 43.5 11 L 46 15.5 L 41.5 19 Q 39.3 18.3 40 14.5 L 43 13 L 43.5 11 Z " /><path fill="rgb(224,149,71)" stroke="rgb(224,149,71)" stroke-width="1" opacity="0.984313725490196" d="M 35.5 22 L 35 23.5 L 35 25.5 L 39.5 31 L 41 30.5 L 43 35.5 L 39 32.5 L 35.5 28 L 35 29.5 L 61 59.5 L 61 62.5 Q 55.6 66.1 53.5 73 L 45.5 67 L 48.5 72 L 33 55.5 L 30.5 49 L 29 49.5 L 30 47.5 L 28.5 45 L 27 45.5 L 27 43 Q 29.7 44.1 29 41.5 L 34 28.5 L 33 25.5 L 35.5 22 Z M 42 39 L 41 42 L 44 43 L 42 39 Z M 39 40 L 38 43 L 38 45 Q 35 44 36 48 L 34 49 L 35 51 L 34 51 Q 35 48 32 49 L 34 54 L 38 57 L 37 55 L 38 52 Q 37 48 40 49 L 40 46 L 42 44 L 39 40 Z " /><path fill="rgb(224,149,71)" stroke="rgb(224,149,71)" stroke-width="1" opacity="0.984313725490196" d="M 86.5 26 L 90.5 26 L 103.5 34 L 108.5 34 L 112 31.5 L 108.5 36 L 101.5 35 L 91.5 28 L 90 32 L 85 34 L 86 43 Q 89.3 41.9 88 46 Q 84.2 47.5 85 44.5 L 84 43.5 L 84 28.5 L 86.5 26 Z " /><path fill="rgb(224,149,71)" stroke="rgb(224,149,71)" stroke-width="1" opacity="0.984313725490196" d="M 69.5 40 L 70.5 42 L 69.5 40 Z " /><path fill="rgb(224,149,71)" stroke="rgb(224,149,71)" stroke-width="1" opacity="0.984313725490196" d="M 74.5 44 L 77.5 48 L 74.5 44 Z " /><path fill="rgb(224,149,71)" stroke="rgb(224,149,71)" stroke-width="1" opacity="0.984313725490196" d="M 81.5 50 L 85.5 55 L 81.5 50 Z " /><path fill="rgb(224,149,71)" stroke="rgb(224,149,71)" stroke-width="1" opacity="0.984313725490196" d="M 23.5 56 L 28 63.5 L 26 63.5 L 27 66.5 L 24 68.5 L 19.5 79 L 18 78.5 L 22.5 86 L 23 84.5 L 22 80.5 L 26 75.5 L 26 72 Q 29.3 73.3 28 68.5 L 30.5 70 Q 34.3 69.3 35 71.5 L 39.5 77 L 49 84.5 L 46.5 83 L 41.5 79 L 41 80.5 L 43 83.5 L 36 92 L 33 93.5 Q 33.8 95.8 31.5 95 L 20 86.5 Q 16.5 83.5 16.5 77 L 15 77.5 L 18 71.5 L 17.5 70 L 19 69.5 L 18 67.5 L 23.5 56 Z " /><path fill="rgb(224,149,71)" stroke="rgb(224,149,71)" stroke-width="1" opacity="0.984313725490196" d="M 78.5 58 L 80 58.5 L 76.5 60 L 76.5 59 L 78.5 58 Z " /><path fill="rgb(224,149,71)" stroke="rgb(224,149,71)" stroke-width="1" opacity="0.984313725490196" d="M 9 63 Q 12.8 62.3 14 65.5 L 11.5 71 L 7 67.5 L 9 63 Z " /><path fill="rgb(224,149,71)" stroke="rgb(224,149,71)" stroke-width="1" opacity="0.984313725490196" d="M 82.5 65 L 84 65.5 L 80.5 67 L 80.5 66 L 82.5 65 Z " /><path fill="rgb(224,149,71)" stroke="rgb(224,149,71)" stroke-width="1" opacity="0.984313725490196" d="M 29.5 66 L 31.5 69 L 29.5 66 Z " /><path fill="rgb(224,149,71)" stroke="rgb(224,149,71)" stroke-width="1" opacity="0.984313725490196" d="M 95.5 66 Q 101.9 70.5 102 80 Q 92.3 80 87 74.5 L 88.5 75 L 94.5 78 L 97.5 78 L 97.5 77 Q 92.8 76.8 91 73.5 L 95.5 66 Z M 98 72 Q 95 74 98 75 L 99 75 L 98 72 Z " /><path fill="rgb(224,149,71)" stroke="rgb(224,149,71)" stroke-width="1" opacity="0.984313725490196" d="M 78.5 67 L 80.5 70 L 83 71.5 L 82.5 74 L 81.5 71 L 79.5 70 Q 77.8 72.8 76 68.5 L 78 68.5 L 78.5 67 Z " /><path fill="rgb(224,149,71)" stroke="rgb(224,149,71)" stroke-width="1" opacity="0.984313725490196" d="M 84.5 72 L 85.5 74 L 84.5 72 Z " /><path fill="rgb(224,149,71)" stroke="rgb(224,149,71)" stroke-width="1" opacity="0.984313725490196" d="M 86.5 76 L 89 80.5 L 87 81.5 Q 89.5 80 86 78.5 L 86.5 76 Z " /><path fill="rgb(224,149,71)" stroke="rgb(224,149,71)" stroke-width="1" opacity="0.984313725490196" d="M 122.5 81 L 124 81.5 L 121 83.5 L 124 85.5 L 121 87 Q 119.9 89.7 122.5 89 L 124 88.5 L 121.5 90 L 119 86.5 L 121 86.5 L 120 83.5 L 122.5 81 Z " /><path fill="rgb(224,149,71)" stroke="rgb(224,149,71)" stroke-width="1" opacity="0.984313725490196" d="M 85.5 82 L 82.5 86 L 81 85.5 L 85.5 82 Z " /><path fill="rgb(224,149,71)" stroke="rgb(224,149,71)" stroke-width="1" opacity="0.984313725490196" d="M 50.5 85 L 51.5 87 L 50.5 85 Z " /><path fill="rgb(224,149,71)" stroke="rgb(224,149,71)" stroke-width="1" opacity="0.984313725490196" d="M 126.5 85 L 127 86.5 L 125 87.5 L 126.5 85 Z " /><path fill="rgb(224,149,71)" stroke="rgb(224,149,71)" stroke-width="1" opacity="0.984313725490196" d="M 79.5 86 L 78.5 88 L 73.5 90 L 73.5 89 L 79.5 86 Z " /><path fill="rgb(224,149,71)" stroke="rgb(224,149,71)" stroke-width="1" opacity="0.984313725490196" d="M 11.5 87 L 13 90.5 L 7 105.5 L 10 107.5 L 9 104.5 L 11.5 101 Q 13.8 101.8 13 99.5 L 13 97.5 L 13.5 96 L 15.5 97 L 15.5 95 L 28 106.5 L 25.5 105 L 22.5 103 L 22 104.5 L 23 105.5 L 19 109.5 L 17.5 112 L 14.5 114 L 11.5 112 Q 9.8 114.7 8 110.5 Q 4.4 108.6 5 102.5 L 7 100.5 L 7 97.5 L 11.5 87 Z " /><path fill="rgb(224,149,71)" stroke="rgb(224,149,71)" stroke-width="1" opacity="0.984313725490196" d="M 24.5 91 L 28.5 96 L 24.5 91 Z " /><path fill="rgb(224,149,71)" stroke="rgb(224,149,71)" stroke-width="1" opacity="0.984313725490196" d="M 110.5 94 L 113 95.5 L 111.5 95 Q 108.9 94.2 110 97.5 L 109 100 L 114 101 L 114.5 96 L 115 100.5 Q 112.8 105.3 110.5 101 L 108 99.5 L 110.5 94 Z " /><path fill="rgb(224,149,71)" stroke="rgb(224,149,71)" stroke-width="1" opacity="0.984313725490196" d="M 63.5 96 L 62.5 98 L 63.5 96 Z " /><path fill="rgb(224,149,71)" stroke="rgb(224,149,71)" stroke-width="1" opacity="0.984313725490196" d="M 111 97 Q 114 96 113 99 Q 110 100 111 97 Z " /><path fill="rgb(224,149,71)" stroke="rgb(224,149,71)" stroke-width="1" opacity="0.984313725490196" d="M 55.5 101 L 54.5 103 L 55.5 101 Z " /><path fill="rgb(224,149,71)" stroke="rgb(224,149,71)" stroke-width="1" opacity="0.984313725490196" d="M 50.5 104 L 48.5 107 L 47 106.5 L 50.5 104 Z " /><path fill="rgb(224,149,71)" stroke="rgb(224,149,71)" stroke-width="1" opacity="0.984313725490196" d="M 2.5 114 L 3.5 119 L 4.5 118 L 7.5 121 L 10 122.5 L 8.5 122 Q 5.2 120.9 6 123.5 L 6.5 125 L 2 119.5 L 2.5 114 Z " /><path fill="rgb(224,149,71)" stroke="rgb(224,149,71)" stroke-width="1" opacity="0.984313725490196" d="M 32.5 115 L 31.5 117 L 32.5 115 Z " /><path fill="rgb(224,149,71)" stroke="rgb(224,149,71)" stroke-width="1" opacity="0.984313725490196" d="M 8.5 125 L 9.5 127 L 8.5 125 Z " /><path fill="rgb(249,213,69)" stroke="rgb(249,213,69)" stroke-width="1" opacity="0.9686274509803922" d="M 27.5 16 L 32 21.5 L 28 24.5 L 27.5 26 L 23 20.5 L 27.5 16 Z " /><path fill="rgb(249,213,69)" stroke="rgb(249,213,69)" stroke-width="1" opacity="0.9686274509803922" d="M 22.5 24 L 23.5 26 L 22.5 24 Z " /><path fill="rgb(249,213,69)" stroke="rgb(249,213,69)" stroke-width="1" opacity="0.9686274509803922" d="M 35.5 28 L 49 45 L 52 46.5 L 59.5 55 L 61 54.5 Q 58.7 53.3 60 48.5 L 61 46 Q 64.8 47.5 64 44.5 L 65 41.5 L 64 39 Q 61 40 62 37 L 64.5 37 L 71.5 42 L 86 55.5 L 70 62 L 71 58.5 L 67.5 57 L 65.5 58 L 63.5 57 L 68.5 63 L 81 72.5 L 79.5 72 L 75.5 70 L 77 72.5 Q 76.3 74.8 78.5 74 L 78.5 75 L 76 76.5 Q 76.8 78.8 74.5 78 L 72 82 L 70 82.5 Q 71.3 85.3 72.5 83 L 81.5 77 L 85 76.5 L 83.5 74 L 88 80.5 L 75.5 89 L 48.5 71 L 39 61.5 L 45.5 67 L 53.5 73 Q 55.6 66.1 61 62.5 L 61 59.5 L 36 31.5 L 35.5 28 Z " /><path fill="rgb(249,213,69)" stroke="rgb(249,213,69)" stroke-width="1" opacity="0.9686274509803922" d="M 52.5 35 L 53 44.5 L 49 41.5 L 52.5 35 Z " /><path fill="rgb(249,213,69)" stroke="rgb(249,213,69)" stroke-width="1" opacity="0.9686274509803922" d="M 28.5 45 L 30 47.5 L 28 46.5 L 28.5 45 Z " /><path fill="rgb(249,213,69)" stroke="rgb(249,213,69)" stroke-width="1" opacity="0.9686274509803922" d="M 91.5 62 Q 95.5 62.5 95 67.5 L 91 73.5 L 98 77.5 L 94.5 78 L 79 68.5 Q 78.2 65.9 81.5 67 L 91.5 62 Z " /><path fill="rgb(249,213,69)" stroke="rgb(249,213,69)" stroke-width="1" opacity="0.9686274509803922" d="M 97.5 64 L 98.5 66 L 97.5 64 Z " /><path fill="rgb(249,213,69)" stroke="rgb(249,213,69)" stroke-width="1" opacity="0.9686274509803922" d="M 97.5 70 L 98.5 72 L 97.5 70 Z " /><path fill="rgb(249,213,69)" stroke="rgb(249,213,69)" stroke-width="1" opacity="0.9686274509803922" d="M 109.5 73 Q 111.8 72.3 111 74.5 L 113 80 L 107 82 L 105 76.5 L 109.5 73 Z " /><path fill="rgb(249,213,69)" stroke="rgb(249,213,69)" stroke-width="1" opacity="0.9686274509803922" d="M 41.5 79 Q 51.3 89.2 65 95.5 L 47.5 106 Q 33.7 100.3 24 90.5 L 25.5 90 Q 27.9 94.4 33 95 L 34.5 92 Q 36.8 92.8 36 90.5 L 43 82.5 Q 40 81.5 41.5 79 Z " /><path fill="rgb(249,213,69)" stroke="rgb(249,213,69)" stroke-width="1" opacity="0.9686274509803922" d="M 122.5 82 Q 124.8 81.3 124 83.5 L 126 86.5 L 121 89 L 119 84 L 122.5 82 Z M 121 84 L 121 87 L 124 86 L 121 84 Z " /><path fill="rgb(249,213,69)" stroke="rgb(249,213,69)" stroke-width="1" opacity="0.9686274509803922" d="M 110 95 L 114 96 L 114 101 L 111.5 101 L 109 100 L 110 95 Z M 111 97 Q 110 100 113 99 Q 114 96 111 97 Z " /><path fill="rgb(249,213,69)" stroke="rgb(249,213,69)" stroke-width="1" opacity="0.9686274509803922" d="M 22.5 103 L 37 112.5 L 23.5 121 L 14.5 116 L 10 111.5 L 12.5 113 L 16 114 Q 14.9 111.3 17.5 112 L 23 105.5 L 22.5 103 Z " /><path fill="rgb(249,213,69)" stroke="rgb(249,213,69)" stroke-width="1" opacity="0.9686274509803922" d="M 6 122 L 15 125.5 L 10.5 127 L 6 123.5 L 6 122 Z " /><path fill="rgb(45,103,199)" stroke="rgb(45,103,199)" stroke-width="1" opacity="0.32941176470588235" d="M 6.5 0 L 8 0.5 L 4.5 2 L 4.5 1 L 6.5 0 Z " /><path fill="rgb(45,103,199)" stroke="rgb(45,103,199)" stroke-width="1" opacity="0.32941176470588235" d="M 9.5 1 L 12 1.5 Q 4.9 2.9 2 8.5 Q 0.2 16.3 4.5 18 L 11.5 20 L 14 22.5 L 4 28 Q 3 32.7 6.5 34 L 21 34.5 L 6.5 35 Q 2.3 34.3 3 28.5 L 12 22.5 Q 4.5 21 1 15.5 L 0 10.5 L 3 5.5 L 2.5 4 Q 4 6.5 5.5 3 L 9.5 1 Z " /><path fill="rgb(45,103,199)" stroke="rgb(45,103,199)" stroke-width="1" opacity="0.32941176470588235" d="M 12.5 3 L 11.5 5 L 6 9.5 Q 4.5 13.9 7.5 13 L 8.5 14 L 16.5 14 L 19 16.5 L 20 19.5 L 17.5 23 L 17 21.5 L 19 18.5 L 18 16 L 7.5 15 L 5 12.5 L 5 9.5 L 10.5 4 L 12.5 3 Z " /><path fill="rgb(45,103,199)" stroke="rgb(45,103,199)" stroke-width="1" opacity="0.32941176470588235" d="M 61.5 5 L 65 6.5 L 68 12.5 Q 66 10.8 64 14.5 L 64.5 16 L 58 13 L 57 9.5 L 61.5 5 Z M 62 6 L 58 10 L 62 14 L 65 13 L 66 10 L 62 6 Z " /><path fill="rgb(45,103,199)" stroke="rgb(45,103,199)" stroke-width="1" opacity="0.32941176470588235" d="M 11.5 6 L 10.5 8 L 11.5 6 Z " /><path fill="rgb(45,103,199)" stroke="rgb(45,103,199)" stroke-width="1" opacity="0.32941176470588235" d="M 8.5 9 L 10 9.5 L 7.5 11 L 8.5 9 Z " /><path fill="rgb(45,103,199)" stroke="rgb(45,103,199)" stroke-width="1" opacity="0.32941176470588235" d="M 9.5 12 L 17 12.5 L 9.5 13 L 9.5 12 Z " /><path fill="rgb(45,103,199)" stroke="rgb(45,103,199)" stroke-width="1" opacity="0.32941176470588235" d="M 15.5 23 L 16 25 Q 10.1 25.9 7 30.5 Q 6.1 33.9 11.5 32 L 13.5 32 L 18.5 31 L 26 34.5 L 24.5 35 L 21.5 33 L 7.5 33 L 6 31.5 L 7.5 28 L 15.5 23 Z " /><path fill="rgb(45,103,199)" stroke="rgb(45,103,199)" stroke-width="1" opacity="0.32941176470588235" d="M 66.5 24 Q 71.9 22.1 71 25.5 Q 74.8 26.8 74 31 L 67.5 34 L 64 28.5 Q 68.3 26.2 66.5 24 Z M 68 25 Q 69 28 67 27 L 65 30 L 70 33 L 73 29 L 68 25 Z " /><path fill="rgb(45,103,199)" stroke="rgb(45,103,199)" stroke-width="1" opacity="0.32941176470588235" d="M 73.5 25 L 74.5 27 L 73.5 25 Z " /><path fill="rgb(45,103,199)" stroke="rgb(45,103,199)" stroke-width="1" opacity="0.32941176470588235" d="M 75.5 28 L 76 30.5 L 75 30.5 L 75.5 28 Z " /><path fill="rgb(45,103,199)" stroke="rgb(45,103,199)" stroke-width="1" opacity="0.32941176470588235" d="M 10.5 29 L 13 29.5 L 10.5 30 L 10.5 29 Z " /><path fill="rgb(45,103,199)" stroke="rgb(45,103,199)" stroke-width="1" opacity="0.32941176470588235" d="M 15.5 29 L 20 29.5 L 15.5 30 L 15.5 29 Z " /><path fill="rgb(45,103,199)" stroke="rgb(45,103,199)" stroke-width="1" opacity="0.32941176470588235" d="M 22.5 35 Q 24.8 35.8 24 39.5 L 21.5 43 L 20.5 41 L 19 41.5 L 21.5 38 L 23 38.5 L 22.5 35 Z " /><path fill="rgb(45,103,199)" stroke="rgb(45,103,199)" stroke-width="1" opacity="0.32941176470588235" d="M 17.5 44 L 20 45.5 Q 16.2 46.8 17 51 L 22.5 47 L 20 50.5 L 20.5 52 L 18.5 52 L 15 50.5 L 18 45.5 L 16 45.5 L 17.5 44 Z " /><path fill="rgb(45,103,199)" stroke="rgb(45,103,199)" stroke-width="1" opacity="0.32941176470588235" d="M 112.5 46 L 115 46.5 L 112.5 47 L 112.5 46 Z " /><path fill="rgb(45,103,199)" stroke="rgb(45,103,199)" stroke-width="1" opacity="0.32941176470588235" d="M 116.5 46 L 121 46.5 L 116.5 47 L 116.5 46 Z " /><path fill="rgb(45,103,199)" stroke="rgb(45,103,199)" stroke-width="1" opacity="0.32941176470588235" d="M 14.5 47 L 14 48.5 L 13.5 51 L 13 48.5 L 14.5 47 Z " /><path fill="rgb(45,103,199)" stroke="rgb(45,103,199)" stroke-width="1" opacity="0.32941176470588235" d="M 104.5 48 L 108 48.5 L 104.5 49 L 104.5 48 Z " /><path fill="rgb(45,103,199)" stroke="rgb(45,103,199)" stroke-width="1" opacity="0.32941176470588235" d="M 121.5 48 L 128 49.5 L 106.5 51 L 87.5 56 L 88.5 54 L 91.5 54 L 97.5 51 L 110.5 50 L 111.5 49 L 120.5 49 L 121.5 48 Z " /><path fill="rgb(45,103,199)" stroke="rgb(45,103,199)" stroke-width="1" opacity="0.32941176470588235" d="M 97.5 49 L 100 49.5 L 97.5 50 L 97.5 49 Z " /><path fill="rgb(45,103,199)" stroke="rgb(45,103,199)" stroke-width="1" opacity="0.32941176470588235" d="M 91.5 50 L 95 50.5 L 91.5 51 L 91.5 50 Z " /><path fill="rgb(45,103,199)" stroke="rgb(45,103,199)" stroke-width="1" opacity="0.32941176470588235" d="M 127.5 55 L 126.5 57 L 109.5 58 L 109.5 57 L 126.5 56 L 127.5 55 Z " /><path fill="rgb(45,103,199)" stroke="rgb(45,103,199)" stroke-width="1" opacity="0.32941176470588235" d="M 103.5 58 L 108 58.5 L 103.5 59 L 103.5 58 Z " /><path fill="rgb(45,103,199)" stroke="rgb(45,103,199)" stroke-width="1" opacity="0.32941176470588235" d="M 98.5 59 L 101 59.5 L 93 62 Q 91.7 58.3 97.5 60 L 98.5 59 Z " /><path fill="rgb(45,103,199)" stroke="rgb(45,103,199)" stroke-width="1" opacity="0.32941176470588235" d="M 112.5 59 L 124 59.5 L 112.5 60 L 112.5 59 Z " /><path fill="rgb(45,103,199)" stroke="rgb(45,103,199)" stroke-width="1" opacity="0.32941176470588235" d="M 104.5 61 L 107 61.5 L 104.5 62 L 104.5 61 Z " /><path fill="rgb(45,103,199)" stroke="rgb(45,103,199)" stroke-width="1" opacity="0.32941176470588235" d="M 97.5 62 L 100 62.5 L 97.5 63 L 97.5 62 Z " /><path fill="rgb(45,103,199)" stroke="rgb(45,103,199)" stroke-width="1" opacity="0.32941176470588235" d="M 87.5 94 L 90 95.5 L 93 99.5 L 87.5 104 L 85.5 103 Q 84.3 105.3 83 102.5 L 85 102.5 L 83 97 L 87.5 94 Z M 87 96 L 84 99 L 88 103 L 92 100 Q 92 95 87 96 Z " /><path fill="rgb(188,134,46)" stroke="rgb(188,134,46)" stroke-width="1" opacity="0.9764705882352941" d="M 34 21 L 40.5 21 L 53.5 28 L 55 27.5 L 55 33 Q 51.3 31.5 52 34.5 L 47.5 41 Q 42 37.5 40.5 30 Q 38.8 32.8 37 28.5 L 34.5 23 L 33 27.5 L 34 30.5 L 29 43 L 26.5 44 L 27 42.5 L 29 33.5 L 34 21 Z " /><path fill="rgb(188,134,46)" stroke="rgb(188,134,46)" stroke-width="1" opacity="0.9764705882352941" d="M 29.5 23 L 28.5 25 L 29.5 23 Z " /><path fill="rgb(188,134,46)" stroke="rgb(188,134,46)" stroke-width="1" opacity="0.9764705882352941" d="M 54.5 23 L 55 25.5 L 54 25.5 L 54.5 23 Z " /><path fill="rgb(188,134,46)" stroke="rgb(188,134,46)" stroke-width="1" opacity="0.9764705882352941" d="M 104.5 24 L 106.5 28 L 107.5 26 L 111 28 L 112 30.5 Q 109.5 35.5 107 30.5 L 104 25.5 L 104.5 24 Z " /><path fill="rgb(188,134,46)" stroke="rgb(188,134,46)" stroke-width="1" opacity="0.9764705882352941" d="M 60.5 33 L 64 35.5 L 61.5 34 L 60.5 33 Z " /><path fill="rgb(188,134,46)" stroke="rgb(188,134,46)" stroke-width="1" opacity="0.9764705882352941" d="M 65.5 36 L 68.5 40 L 65.5 36 Z " /><path fill="rgb(188,134,46)" stroke="rgb(188,134,46)" stroke-width="1" opacity="0.9764705882352941" d="M 40.5 38 L 44 43 L 40 45.5 L 40 49 Q 37 47.8 38 51.5 L 37 54.5 L 40 58.5 L 34 53.5 L 32 49 L 36 48 Q 34.5 44.2 37.5 45 L 38 42.5 L 38.5 40 L 41 41.5 L 40.5 38 Z " /><path fill="rgb(188,134,46)" stroke="rgb(188,134,46)" stroke-width="1" opacity="0.9764705882352941" d="M 70.5 40 L 73.5 44 L 70.5 40 Z " /><path fill="rgb(188,134,46)" stroke="rgb(188,134,46)" stroke-width="1" opacity="0.9764705882352941" d="M 61.5 42 L 62 43.5 L 60 44.5 L 61.5 42 Z " /><path fill="rgb(188,134,46)" stroke="rgb(188,134,46)" stroke-width="1" opacity="0.9764705882352941" d="M 76.5 45 L 80.5 50 L 76.5 45 Z " /><path fill="rgb(188,134,46)" stroke="rgb(188,134,46)" stroke-width="1" opacity="0.9764705882352941" d="M 22.5 54 Q 25.8 55.8 22 57.5 Q 22.6 62.6 19.5 64 L 19 62.5 L 22.5 54 Z " /><path fill="rgb(188,134,46)" stroke="rgb(188,134,46)" stroke-width="1" opacity="0.9764705882352941" d="M 26.5 61 L 27.5 64 L 30 65.5 Q 27.3 67.3 31.5 69 L 33 69.5 L 30.5 70 L 28 68.5 L 28 71.5 Q 25 70.5 26 75.5 L 22 80.5 L 22 83.5 L 23 85.5 L 20 83.5 L 18 78.5 L 21 77.5 L 22 72.5 L 25.5 67 L 27 66.5 L 25 62.5 L 26.5 61 Z " /><path fill="rgb(188,134,46)" stroke="rgb(188,134,46)" stroke-width="1" opacity="0.9764705882352941" d="M 18.5 65 L 19 66.5 L 15.5 75 L 15 73.5 L 18.5 65 Z " /><path fill="rgb(188,134,46)" stroke="rgb(188,134,46)" stroke-width="1" opacity="0.9764705882352941" d="M 73.5 65 L 75.5 68 L 73.5 65 Z " /><path fill="rgb(188,134,46)" stroke="rgb(188,134,46)" stroke-width="1" opacity="0.9764705882352941" d="M 95.5 65 L 96.5 67 L 95.5 65 Z " /><path fill="rgb(188,134,46)" stroke="rgb(188,134,46)" stroke-width="1" opacity="0.9764705882352941" d="M 14.5 66 L 14 67.5 L 13.5 69 L 13 67.5 L 14.5 66 Z " /><path fill="rgb(188,134,46)" stroke="rgb(188,134,46)" stroke-width="1" opacity="0.9764705882352941" d="M 97.5 68 L 98.5 70 L 97.5 68 Z " /><path fill="rgb(188,134,46)" stroke="rgb(188,134,46)" stroke-width="1" opacity="0.9764705882352941" d="M 79.5 70 L 94.5 79 L 102 80 L 101 74.5 L 102 74.5 L 103 80.5 L 100.5 83 L 81.5 92 L 76 89.5 L 89 80.5 L 87 76 Q 80.7 74 79.5 70 Z " /><path fill="rgb(188,134,46)" stroke="rgb(188,134,46)" stroke-width="1" opacity="0.9764705882352941" d="M 35.5 72 L 39.5 77 L 35.5 72 Z " /><path fill="rgb(188,134,46)" stroke="rgb(188,134,46)" stroke-width="1" opacity="0.9764705882352941" d="M 97.5 72 L 99 74.5 L 97.5 75 Q 94.5 73.5 97.5 72 Z " /><path fill="rgb(188,134,46)" stroke="rgb(188,134,46)" stroke-width="1" opacity="0.9764705882352941" d="M 119.5 83 L 119 84.5 L 118.5 86 L 118 84.5 L 119.5 83 Z " /><path fill="rgb(188,134,46)" stroke="rgb(188,134,46)" stroke-width="1" opacity="0.9764705882352941" d="M 11.5 86 L 11 87.5 L 7.5 97 L 7 95.5 L 11.5 86 Z " /><path fill="rgb(188,134,46)" stroke="rgb(188,134,46)" stroke-width="1" opacity="0.9764705882352941" d="M 12 91 L 14 91.5 L 13.5 93 L 16 94.5 L 15.5 97 L 13.5 96 L 13 97.5 L 13 99.5 Q 13.8 101.8 11.5 101 L 9 105.5 L 10 107.5 L 7 105.5 L 10 96.5 L 12 94.5 L 12 91 Z " /><path fill="rgb(188,134,46)" stroke="rgb(188,134,46)" stroke-width="1" opacity="0.9764705882352941" d="M 66.5 95 L 72 97.5 L 52.5 108 L 49 108 L 51.5 104 L 66.5 95 Z " /><path fill="rgb(188,134,46)" stroke="rgb(188,134,46)" stroke-width="1" opacity="0.9764705882352941" d="M 6.5 98 L 7 100.5 L 5 101.5 L 6.5 98 Z " /><path fill="rgb(188,134,46)" stroke="rgb(188,134,46)" stroke-width="1" opacity="0.9764705882352941" d="M 38.5 112 L 41 113.5 L 25.5 121 L 25.5 120 L 38.5 112 Z " /><path fill="rgb(188,134,46)" stroke="rgb(188,134,46)" stroke-width="1" opacity="0.9764705882352941" d="M 1 113 L 3 113.5 L 1.5 119 L 1 113 Z " /><path fill="rgb(188,134,46)" stroke="rgb(188,134,46)" stroke-width="1" opacity="0.9764705882352941" d="M 3.5 116 L 7.5 121 Q 5.2 116.7 3 118.5 L 3.5 116 Z " /><path fill="rgb(188,134,46)" stroke="rgb(188,134,46)" stroke-width="1" opacity="0.9764705882352941" d="M 2.5 120 L 4.5 123 L 2.5 120 Z " /><path fill="rgb(146,130,229)" stroke="rgb(146,130,229)" stroke-width="1" opacity="0.984313725490196" d="M 10.5 2 Q 13.1 1.3 12 4 L 5 9.5 Q 4.3 14.3 7.5 15 L 18 16 L 19 18.5 L 17 23 L 6 29.5 L 7.5 33 L 21.5 33 L 25 35.5 L 25 40.5 L 17.5 51 L 17 48.5 L 23 41.5 L 24 36.5 L 20.5 34 L 7.5 34 L 4 31.5 Q 2.5 27.1 5.5 28 L 17 21 L 16.5 18 Q 14.5 21 8.5 20 L 2 15.5 L 2 8.5 L 7.5 3 L 10.5 2 Z " /><path fill="rgb(146,130,229)" stroke="rgb(146,130,229)" stroke-width="1" opacity="0.984313725490196" d="M 120.5 2 Q 123.8 0.9 123 3.5 L 125 8.5 L 122 10.5 L 119 4.5 L 121 5.5 L 121.5 7 L 122 3 L 120.5 2 Z " /><path fill="rgb(146,130,229)" stroke="rgb(146,130,229)" stroke-width="1" opacity="0.984313725490196" d="M 61.5 6 L 66 9.5 L 64.5 13 L 61.5 14 L 58 9.5 L 61.5 6 Z " /><path fill="rgb(146,130,229)" stroke="rgb(146,130,229)" stroke-width="1" opacity="0.984313725490196" d="M 42.5 11 L 43 13 L 40 14.5 L 39.5 16 L 39 13.5 L 42.5 11 Z " /><path fill="rgb(146,130,229)" stroke="rgb(146,130,229)" stroke-width="1" opacity="0.984313725490196" d="M 68 25 L 73 28.5 L 69.5 33 L 65 29.5 L 66.5 27 Q 69.1 27.7 68 25 Z " /><path fill="rgb(146,130,229)" stroke="rgb(146,130,229)" stroke-width="1" opacity="0.984313725490196" d="M 88.5 32 L 89 35.5 Q 86.8 36.8 88 41.5 L 89 41.5 L 89.5 38 L 90 46 L 88 46 Q 89.3 41.9 86 43 L 86 39.5 L 85 34 L 88.5 32 Z " /><path fill="rgb(146,130,229)" stroke="rgb(146,130,229)" stroke-width="1" opacity="0.984313725490196" d="M 27.5 46 L 31 51.5 L 28 49.5 L 27.5 46 Z " /><path fill="rgb(146,130,229)" stroke="rgb(146,130,229)" stroke-width="1" opacity="0.984313725490196" d="M 114.5 50 L 127.5 50 Q 128.5 50 128 54.5 L 126.5 56 L 117.5 56 L 116.5 57 L 109.5 57 L 93.5 60 L 89.5 63 Q 88 60.5 86.5 64 L 76.5 67 L 71 63.5 L 84.5 56 L 114.5 50 Z " /><path fill="rgb(146,130,229)" stroke="rgb(146,130,229)" stroke-width="1" opacity="0.984313725490196" d="M 26.5 51 L 27 53.5 L 25 54.5 L 26.5 51 Z " /><path fill="rgb(146,130,229)" stroke="rgb(146,130,229)" stroke-width="1" opacity="0.984313725490196" d="M 31.5 53 L 32.5 55 L 31.5 53 Z " /><path fill="rgb(146,130,229)" stroke="rgb(146,130,229)" stroke-width="1" opacity="0.984313725490196" d="M 35.5 58 L 36.5 60 L 35.5 58 Z " /><path fill="rgb(146,130,229)" stroke="rgb(146,130,229)" stroke-width="1" opacity="0.984313725490196" d="M 49.5 72 L 67.5 87 L 73 89.5 L 67.5 94 L 64.5 94 L 45 82 L 45 80 Q 48.8 81.5 48 78.5 L 49 76 L 52 75.5 L 49.5 72 Z " /><path fill="rgb(146,130,229)" stroke="rgb(146,130,229)" stroke-width="1" opacity="0.984313725490196" d="M 15.5 78 L 18 82.5 L 15 81.5 L 12.5 89 L 12 86.5 L 15.5 78 Z " /><path fill="rgb(146,130,229)" stroke="rgb(146,130,229)" stroke-width="1" opacity="0.984313725490196" d="M 18.5 84 L 19.5 86 L 18.5 84 Z " /><path fill="rgb(146,130,229)" stroke="rgb(146,130,229)" stroke-width="1" opacity="0.984313725490196" d="M 21.5 88 L 22.5 90 L 21.5 88 Z " /><path fill="rgb(146,130,229)" stroke="rgb(146,130,229)" stroke-width="1" opacity="0.984313725490196" d="M 29.5 96 L 45 107.5 L 38.5 112 L 28.5 107 L 25 103.5 Q 24.3 101.3 26.5 102 L 31 98.5 L 29.5 96 Z " /><path fill="rgb(146,130,229)" stroke="rgb(146,130,229)" stroke-width="1" opacity="0.984313725490196" d="M 86.5 96 Q 91.5 95.5 92 99.5 L 87.5 103 L 84 98.5 L 86.5 96 Z " /><path fill="rgb(146,130,229)" stroke="rgb(146,130,229)" stroke-width="1" opacity="0.984313725490196" d="M 3.5 109 L 4 111.5 L 3 111.5 L 3.5 109 Z " /><path fill="rgb(146,130,229)" stroke="rgb(146,130,229)" stroke-width="1" opacity="0.984313725490196" d="M 115.5 109 L 117 109.5 L 115 110.5 L 118 111.5 L 119 113.5 L 113 116 L 112 111 L 115.5 109 Z " /><path fill="rgb(146,130,229)" stroke="rgb(146,130,229)" stroke-width="1" opacity="0.984313725490196" d="M 10.5 113 Q 15.1 118.9 23 121.5 L 14.5 125 L 10 123 L 9 120.5 L 11 120 L 11 118 Q 13.7 119.1 13 116.5 L 10.5 113 Z " /><path fill="rgb(252,221,138)" stroke="rgb(252,221,138)" stroke-width="1" opacity="0.8666666666666667" d="M 120 3 Q 123.3 1.7 122 6.5 L 121 6.5 L 120 3 Z " /><path fill="rgb(252,221,138)" stroke="rgb(252,221,138)" stroke-width="1" opacity="0.8666666666666667" d="M 126.5 10 L 127 13.5 L 126 13.5 L 126.5 10 Z " /><path fill="rgb(252,221,138)" stroke="rgb(252,221,138)" stroke-width="1" opacity="0.8666666666666667" d="M 58.5 19 L 59 22.5 L 58 22.5 L 58.5 19 Z " /><path fill="rgb(252,221,138)" stroke="rgb(252,221,138)" stroke-width="1" opacity="0.8666666666666667" d="M 89.5 35 L 90 36.5 L 88.5 42 L 88 36.5 L 89.5 35 Z " /><path fill="rgb(252,221,138)" stroke="rgb(252,221,138)" stroke-width="1" opacity="0.8666666666666667" d="M 90.5 40 L 91 45.5 Q 90.3 47.8 86.5 47 L 86.5 46 L 90 46 L 90.5 40 Z " /><path fill="rgb(252,221,138)" stroke="rgb(252,221,138)" stroke-width="1" opacity="0.8666666666666667" d="M 28.5 47 L 29.5 49 L 28.5 47 Z " /><path fill="rgb(252,221,138)" stroke="rgb(252,221,138)" stroke-width="1" opacity="0.8666666666666667" d="M 75.5 70 L 85 76.5 L 81.5 77 L 71.5 84 L 70.5 82 Q 72.8 82.8 72 80.5 L 76 78 L 77.5 75 L 79 74.5 L 77 74 L 75.5 70 Z " /><path fill="rgb(252,221,138)" stroke="rgb(252,221,138)" stroke-width="1" opacity="0.8666666666666667" d="M 49.5 71 L 56.5 77 L 75 88.5 L 71.5 89 L 53.5 76 L 49.5 71 Z " /><path fill="rgb(252,221,138)" stroke="rgb(252,221,138)" stroke-width="1" opacity="0.8666666666666667" d="M 114.5 76 L 116 79.5 L 115 79.5 L 114.5 76 Z " /><path fill="rgb(252,221,138)" stroke="rgb(252,221,138)" stroke-width="1" opacity="0.8666666666666667" d="M 54.5 88 L 65 94.5 L 63.5 95 Q 56.4 92.7 54.5 88 Z " /><path fill="rgb(252,221,138)" stroke="rgb(252,221,138)" stroke-width="1" opacity="0.8666666666666667" d="M 28.5 94 Q 36 101.8 47 105 Q 48.3 108.3 43.5 107 L 33.5 100 L 28.5 94 Z " /><path fill="rgb(252,221,138)" stroke="rgb(252,221,138)" stroke-width="1" opacity="0.8666666666666667" d="M 112.5 105 L 113.5 107 L 112.5 105 Z " /><path fill="rgb(252,221,138)" stroke="rgb(252,221,138)" stroke-width="1" opacity="0.8666666666666667" d="M 32.5 109 L 38 111.5 L 35.5 112 L 32.5 109 Z " /><path fill="rgb(252,221,138)" stroke="rgb(252,221,138)" stroke-width="1" opacity="0.8666666666666667" d="M 114.5 109 L 117 110 L 116.5 112 L 114.5 109 Z " /><path fill="rgb(252,221,138)" stroke="rgb(252,221,138)" stroke-width="1" opacity="0.8666666666666667" d="M 118.5 112 L 117.5 114 L 118.5 112 Z " /><path fill="rgb(252,221,138)" stroke="rgb(252,221,138)" stroke-width="1" opacity="0.8666666666666667" d="M 11.5 113 L 13.5 116 L 11.5 113 Z " /><path fill="rgb(252,221,138)" stroke="rgb(252,221,138)" stroke-width="1" opacity="0.8666666666666667" d="M 15.5 116 L 23 120.5 L 20.5 121 L 15.5 116 Z " /><path fill="rgb(136,71,179)" stroke="rgb(136,71,179)" stroke-width="1" opacity="0.984313725490196" d="M 125.5 15 L 126 16.5 L 124 17.5 L 125.5 15 Z " /><path fill="rgb(136,71,179)" stroke="rgb(136,71,179)" stroke-width="1" opacity="0.984313725490196" d="M 16.5 18 L 17 21 L 14.5 22 L 12 20.5 L 16.5 18 Z " /><path fill="rgb(136,71,179)" stroke="rgb(136,71,179)" stroke-width="1" opacity="0.984313725490196" d="M 25.5 35 L 27 42.5 L 27 44.5 L 28 49.5 L 35 58.5 L 52 75.5 L 49 76 L 48 80 L 44.5 81 L 27 62.5 L 23 54.5 L 23 50.5 Q 25.6 49.1 25 44.5 L 24 44.5 L 18.5 51 L 21 47.5 Q 25.6 43.6 25.5 35 Z M 27 51 L 25 55 L 27 54 L 27 51 Z " /><path fill="rgb(136,71,179)" stroke="rgb(136,71,179)" stroke-width="1" opacity="0.984313725490196" d="M 57.5 43 L 58 45.5 L 57 45.5 L 57.5 43 Z " /><path fill="rgb(136,71,179)" stroke="rgb(136,71,179)" stroke-width="1" opacity="0.984313725490196" d="M 74.5 65 L 78 67.5 L 76.5 68 L 74.5 65 Z " /><path fill="rgb(136,71,179)" stroke="rgb(136,71,179)" stroke-width="1" opacity="0.984313725490196" d="M 14.5 76 L 15 79.5 L 13 85.5 L 14 85.5 L 15.5 81 L 31 98.5 L 25 102 L 24.5 104 L 14 92.5 L 13 86 Q 10.3 87.1 11 84.5 L 14.5 76 Z " /><path fill="rgb(136,71,179)" stroke="rgb(136,71,179)" stroke-width="1" opacity="0.984313725490196" d="M 72.5 90 L 80.5 91 L 82 92.5 L 73.5 97 L 70.5 97 L 66 94.5 L 72.5 90 Z " /><path fill="rgb(136,71,179)" stroke="rgb(136,71,179)" stroke-width="1" opacity="0.984313725490196" d="M 4.5 103 L 5 108 Q 7.7 106.9 7 109.5 L 13 118 L 11 118 Q 12.1 120.7 9.5 120 L 9.5 122 L 3 115.5 L 2 109.5 L 4.5 103 Z M 4 109 L 3 112 L 4 112 L 4 109 Z " /><path fill="rgb(136,71,179)" stroke="rgb(136,71,179)" stroke-width="1" opacity="0.984313725490196" d="M 45.5 107 L 51 108.5 L 40.5 113 Q 37.5 111.5 40.5 110 L 45.5 107 Z " /><path fill="rgb(136,71,179)" stroke="rgb(136,71,179)" stroke-width="1" opacity="0.984313725490196" d="M 23.5 121 L 25 121.5 L 17.5 126 L 17 124 L 23.5 121 Z " /></svg>