<svg width="128" height="128" version="1.1" xmlns="http://www.w3.org/2000/svg" desc="Created with imagetracer.js version 1.2.6" ><path fill="rgb(210,227,227)" stroke="rgb(210,227,227)" stroke-width="1" opacity="0.9647058823529412" d="M 101.5 4 L 100.5 6 L 101.5 4 Z " /><path fill="rgb(210,227,227)" stroke="rgb(210,227,227)" stroke-width="1" opacity="0.9647058823529412" d="M 100 9 L 104 9.5 L 100 11 L 100 9 Z " /><path fill="rgb(210,227,227)" stroke="rgb(210,227,227)" stroke-width="1" opacity="0.9647058823529412" d="M 96.5 11 L 98 11.5 L 91.5 16 L 83.5 18 L 84.5 16 L 94.5 13 L 96.5 11 Z " /><path fill="rgb(210,227,227)" stroke="rgb(210,227,227)" stroke-width="1" opacity="0.9647058823529412" d="M 100.5 13 L 101.5 15 Q 98.7 15.7 100.5 13 Z " /><path fill="rgb(210,227,227)" stroke="rgb(210,227,227)" stroke-width="1" opacity="0.9647058823529412" d="M 116.5 15 Q 120.8 16.8 119 24.5 L 117.5 26 L 115 24.5 L 117 28.5 L 92.5 51 L 84 56 Q 85.1 58.7 82.5 58 L 80.5 58 L 78 56.5 L 80 56 L 79 50.5 L 83.5 46 Q 93.5 44.5 98 37.5 L 102 29.5 L 102 25 L 104 25 Q 102.9 22.3 105.5 23 L 109.5 20 L 113 22.5 L 111 19.5 L 116.5 15 Z M 109 23 Q 108 26 112 25 Q 113 22 109 23 Z " /><path fill="rgb(210,227,227)" stroke="rgb(210,227,227)" stroke-width="1" opacity="0.9647058823529412" d="M 74.5 23 L 70 28.5 L 69 32 L 62.5 36 L 62 34.5 L 74.5 23 Z " /><path fill="rgb(210,227,227)" stroke="rgb(210,227,227)" stroke-width="1" opacity="0.9647058823529412" d="M 58.5 34 L 59.5 36 L 58.5 34 Z " /><path fill="rgb(210,227,227)" stroke="rgb(210,227,227)" stroke-width="1" opacity="0.9647058823529412" d="M 57.5 39 L 60 40.5 L 58 43.5 L 54 46.5 L 57.5 39 Z " /><path fill="rgb(210,227,227)" stroke="rgb(210,227,227)" stroke-width="1" opacity="0.9647058823529412" d="M 75.5 58 L 76.5 60 L 75.5 58 Z " /><path fill="rgb(210,227,227)" stroke="rgb(210,227,227)" stroke-width="1" opacity="0.9647058823529412" d="M 33.5 100 L 34 101.5 Q 33.5 105.5 28.5 105 L 29.5 103 L 33.5 100 Z " /><path fill="rgb(102,17,19)" stroke="rgb(102,17,19)" stroke-width="1" opacity="0.09411764705882353" d="M 122.5 4 L 124 4.5 L 121.5 6 L 122.5 4 Z " /><path fill="rgb(102,17,19)" stroke="rgb(102,17,19)" stroke-width="1" opacity="0.09411764705882353" d="M 98.5 7 L 100 7.5 L 97.5 9 L 98.5 7 Z " /><path fill="rgb(102,17,19)" stroke="rgb(102,17,19)" stroke-width="1" opacity="0.09411764705882353" d="M 75.5 19 L 73.5 22 L 75.5 19 Z " /><path fill="rgb(102,17,19)" stroke="rgb(102,17,19)" stroke-width="1" opacity="0.09411764705882353" d="M 71.5 22 L 70.5 24 L 71.5 22 Z " /><path fill="rgb(102,17,19)" stroke="rgb(102,17,19)" stroke-width="1" opacity="0.09411764705882353" d="M 63.5 29 L 61.5 32 L 60.5 30 Q 62 32.5 63.5 29 Z " /><path fill="rgb(102,17,19)" stroke="rgb(102,17,19)" stroke-width="1" opacity="0.09411764705882353" d="M 54.5 36 L 55 38 L 52.5 39 L 54.5 36 Z " /><path fill="rgb(102,17,19)" stroke="rgb(102,17,19)" stroke-width="1" opacity="0.09411764705882353" d="M 54.5 39 L 51.5 43 L 48.5 45 L 48 43 L 50 42.5 L 48 41.5 L 50.5 40 L 52.5 41 L 54.5 39 Z " /><path fill="rgb(102,17,19)" stroke="rgb(102,17,19)" stroke-width="1" opacity="0.09411764705882353" d="M 120.5 42 L 123 42.5 L 120.5 43 L 120.5 42 Z " /><path fill="rgb(102,17,19)" stroke="rgb(102,17,19)" stroke-width="1" opacity="0.09411764705882353" d="M 44.5 44 L 47 45.5 Q 41.4 52.4 26.5 50 L 26.5 49 L 39.5 49 L 41 47.5 L 39 46.5 L 42.5 45 L 42.5 46 L 41 46.5 L 43.5 47 L 46 45.5 L 44.5 44 Z " /><path fill="rgb(102,17,19)" stroke="rgb(102,17,19)" stroke-width="1" opacity="0.09411764705882353" d="M 116.5 48 L 115.5 50 L 116.5 48 Z " /><path fill="rgb(102,17,19)" stroke="rgb(102,17,19)" stroke-width="1" opacity="0.09411764705882353" d="M 20.5 49 L 23 49.5 L 21.5 52 L 20.5 49 Z " /><path fill="rgb(102,17,19)" stroke="rgb(102,17,19)" stroke-width="1" opacity="0.09411764705882353" d="M 12.5 58 L 14 60.5 L 12 61.5 L 13 59.5 L 12.5 58 Z " /><path fill="rgb(102,17,19)" stroke="rgb(102,17,19)" stroke-width="1" opacity="0.09411764705882353" d="M 10.5 60 L 9.5 62 L 10.5 60 Z " /><path fill="rgb(102,17,19)" stroke="rgb(102,17,19)" stroke-width="1" opacity="0.09411764705882353" d="M 8.5 66 L 7.5 68 L 8.5 66 Z " /><path fill="rgb(102,17,19)" stroke="rgb(102,17,19)" stroke-width="1" opacity="0.09411764705882353" d="M 29.5 76 L 27.5 79 L 29.5 76 Z " /><path fill="rgb(102,17,19)" stroke="rgb(102,17,19)" stroke-width="1" opacity="0.09411764705882353" d="M 1.5 78 L 0.5 80 L 1.5 78 Z " /><path fill="rgb(102,17,19)" stroke="rgb(102,17,19)" stroke-width="1" opacity="0.09411764705882353" d="M 86.5 79 L 88 81.5 L 85.5 86 L 84.5 83 L 83 83.5 L 87 81.5 L 85 80.5 L 86.5 79 Z " /><path fill="rgb(102,17,19)" stroke="rgb(102,17,19)" stroke-width="1" opacity="0.09411764705882353" d="M 82.5 85 L 82.5 87 Q 84.8 86.3 84 88.5 L 82.5 88 L 81 88.5 L 81 98.5 L 80 98.5 Q 77.9 88.4 82.5 85 Z " /><path fill="rgb(102,17,19)" stroke="rgb(102,17,19)" stroke-width="1" opacity="0.09411764705882353" d="M 82.5 93 L 83 98.5 L 82 98.5 L 82.5 93 Z " /><path fill="rgb(102,17,19)" stroke="rgb(102,17,19)" stroke-width="1" opacity="0.09411764705882353" d="M 57.5 94 Q 60.1 93.2 59 96.5 L 58 96.5 L 57.5 94 Z " /><path fill="rgb(102,17,19)" stroke="rgb(102,17,19)" stroke-width="1" opacity="0.09411764705882353" d="M 56.5 97 L 54.5 100 L 52.5 101 L 54.5 98 L 56.5 97 Z " /><path fill="rgb(102,17,19)" stroke="rgb(102,17,19)" stroke-width="1" opacity="0.09411764705882353" d="M 48.5 100 L 46.5 103 L 48.5 100 Z " /><path fill="rgb(102,17,19)" stroke="rgb(102,17,19)" stroke-width="1" opacity="0.09411764705882353" d="M 50.5 101 L 51 103 L 49 102.5 L 50.5 101 Z " /><path fill="rgb(102,17,19)" stroke="rgb(102,17,19)" stroke-width="1" opacity="0.09411764705882353" d="M 8.5 107 L 9 108.5 L 7 109.5 L 8.5 107 Z " /><path fill="rgb(102,17,19)" stroke="rgb(102,17,19)" stroke-width="1" opacity="0.09411764705882353" d="M 76.5 107 L 75.5 109 L 76.5 107 Z " /><path fill="rgb(102,17,19)" stroke="rgb(102,17,19)" stroke-width="1" opacity="0.09411764705882353" d="M 41.5 109 L 40.5 111 L 41.5 109 Z " /><path fill="rgb(102,17,19)" stroke="rgb(102,17,19)" stroke-width="1" opacity="0.09411764705882353" d="M 68.5 114 L 65.5 118 L 63.5 119 L 64.5 117 L 68.5 114 Z " /><path fill="rgb(102,17,19)" stroke="rgb(102,17,19)" stroke-width="1" opacity="0.09411764705882353" d="M 7.5 115 L 8 116.5 L 6.5 119 L 6 117.5 L 7.5 115 Z " /><path fill="rgb(102,17,19)" stroke="rgb(102,17,19)" stroke-width="1" opacity="0.09411764705882353" d="M 26.5 118 L 31 118.5 L 25.5 120 L 26.5 118 Z " /><path fill="rgb(102,17,19)" stroke="rgb(102,17,19)" stroke-width="1" opacity="0.09411764705882353" d="M 61.5 119 L 59.5 122 L 57.5 123 L 58.5 121 L 61.5 119 Z " /><path fill="rgb(102,17,19)" stroke="rgb(102,17,19)" stroke-width="1" opacity="0.09411764705882353" d="M 53.5 124 L 52.5 126 L 53.5 124 Z " /><path fill="rgb(0,0,0)" stroke="rgb(0,0,0)" stroke-width="1" opacity="0" d="M 0 0 L 127.5 0 L 128 0.5 L 128 7.5 L 128 9.5 L 127.5 12 L 123.5 6 L 121.5 5 L 108.5 5 L 98.5 7 L 96.5 9 L 88 11 Q 89.1 13.7 86.5 13 L 75.5 19 L 65 27 L 64.5 29 L 62.5 28 Q 64.1 29.8 61 31.5 L 59.5 34 Q 57.3 33.3 58 35.5 Q 54.3 41.2 48 43 Q 49.1 45.7 46.5 45 L 39.5 49 L 22.5 49 L 20 51.5 L 5.5 70 L 6 68.5 L 8 65.5 L 6.5 65 L 4 70.5 L 4.5 72 L 2.5 71 L 1 74.5 L 3 74.5 Q 1.5 77.5 0 74.5 L 0 0 Z M 109 2 L 109 3 L 121 3 L 109 2 Z M 102 4 L 102 5 L 108 5 L 102 4 Z M 98 5 L 98 6 L 101 6 L 98 5 Z M 94 6 L 94 7 L 97 7 L 94 6 Z M 89 9 L 89 10 L 91 10 L 89 9 Z M 84 12 L 84 13 L 86 13 L 84 12 Z M 55 36 L 54 38 L 56 37 L 55 36 Z M 42 45 L 42 46 L 44 46 L 42 45 Z M 24 46 L 24 47 L 41 47 L 24 46 Z M 18 50 L 15 55 L 17 55 L 20 51 L 18 50 Z M 15 55 L 13 58 L 15 57 L 15 55 Z M 11 60 L 9 63 L 12 61 L 11 60 Z " /><path fill="rgb(0,0,0)" stroke="rgb(0,0,0)" stroke-width="1" opacity="0" d="M 127.5 22 L 128 128 L 53.5 128 L 50.5 127 L 49.5 128 L 9.5 128 L 7.5 127 L 6.5 128 L 0 128 L 0 86.5 Q 0.3 85.3 6.5 86 L 6.5 85 Q -1.1 86.5 0 83 L 6.5 84 L 24.5 84 L 25.5 85 L 26 83 L 24 82.5 L 27 80.5 L 27.5 79 L 30 80.5 L 29.5 82 L 31 82.5 L 29 83 Q 30.3 86 26.5 85 Q 25.4 87.8 22 87 L 20.5 90 Q 16.1 88.5 17 91.5 L 16.5 93 Q 18.8 93.8 18 91.5 L 19 91.5 L 16.5 95 L 14.5 96 L 13 95.5 L 12.5 97 L 10.5 96 L 8 100.5 L 12 101.5 L 7 102 Q 4.8 107.6 10.5 106 L 10.5 107 Q 7.2 105.9 8 108.5 L 6.5 117 L 5.5 108 L 4 123.5 L 5 127 Q 8.6 123.9 17.5 125 L 21.5 121 L 25.5 120 L 26 122 L 22 122.5 L 28.5 123 L 32 122 L 33 119.5 L 31 119 L 30.5 121 L 30 119.5 L 35 117 Q 33.8 114 37.5 115 L 39 115.5 Q 38.3 113.3 40.5 114 L 40.5 113 L 37.5 114 L 38 112.5 Q 37.2 109.9 40.5 111 L 42.5 108 L 43.5 110 L 44 108 Q 47.5 106.9 46 114.5 L 47 114.5 L 47 104.5 L 46 103.5 L 49 99 L 54 96.5 L 56.5 93 L 58 93.5 L 56 94.5 L 58 95 L 57.5 98 L 54 97.5 L 51.5 101 L 48 102.5 L 49 103.5 L 49 112.5 L 48 116.5 L 49 117.5 L 49.5 127 Q 68.1 118.6 81 104.5 L 81 88.5 L 82.5 88 L 84 88.5 L 83.5 86 L 82 86.5 L 90.5 76 L 97 72.5 L 100.5 68 Q 102.8 68.8 102 66.5 L 112.5 54 Q 115.1 54.8 114 51.5 Q 118.3 48.6 119 43 L 123 42.5 L 120 41.5 L 122 41 L 123 37.5 L 123 35.5 L 126 23.5 L 127.5 22 Z M 28 81 L 26 83 L 29 83 L 28 81 Z M 87 82 L 84 86 L 86 86 L 87 84 L 87 82 Z M 21 85 L 22 87 L 25 86 L 21 85 Z M 83 89 L 82 105 L 81 107 L 83 106 L 83 89 Z M 7 97 L 6 100 L 7 100 L 7 97 Z M 47 116 L 46 126 L 47 126 L 47 116 Z M 3 124 L 2 127 L 3 127 L 3 124 Z M 27 125 L 27 126 L 29 126 L 27 125 Z M 10 126 L 10 127 L 19 127 L 10 126 Z M 54 126 L 54 127 L 56 127 L 54 126 Z " /><path fill="rgb(0,0,0)" stroke="rgb(0,0,0)" stroke-width="1" opacity="0" d="M 31.5 74 L 36 74.5 L 34 75 L 32.5 78 L 30.5 79 Q 27.8 77.8 30 76.5 L 31.5 74 Z M 31 75 L 31 77 L 33 76 L 31 75 Z " /><path fill="rgb(0,0,0)" stroke="rgb(0,0,0)" stroke-width="1" opacity="0" d="M 1.5 77 L 0.5 79 L 1.5 77 Z " /><path fill="rgb(0,0,0)" stroke="rgb(0,0,0)" stroke-width="1" opacity="0" d="M 7.5 82 L 22 82.5 L 7.5 83 L 7.5 82 Z " /><path fill="rgb(0,0,0)" stroke="rgb(0,0,0)" stroke-width="1" opacity="0" d="M 14.5 98 L 13.5 100 L 14.5 98 Z " /><path fill="rgb(0,0,0)" stroke="rgb(0,0,0)" stroke-width="1" opacity="0" d="M 44.5 105 L 46 105.5 L 43.5 107 L 44.5 105 Z " /><path fill="rgb(0,0,0)" stroke="rgb(0,0,0)" stroke-width="1" opacity="0" d="M 5.5 118 L 6 120.5 L 5 120.5 L 5.5 118 Z " /><path fill="rgb(116,171,215)" stroke="rgb(116,171,215)" stroke-width="1" opacity="0.9882352941176471" d="M 114.5 6 L 122 7 L 123 9.5 Q 120.1 14.1 121 22.5 L 118.5 27 L 118 25.5 L 120 18.5 L 118.5 12 L 111.5 19 L 109.5 19 L 104.5 13 L 102 11.5 L 107 8.5 L 106.5 7 Q 112.8 8.8 114.5 6 Z " /><path fill="rgb(116,171,215)" stroke="rgb(116,171,215)" stroke-width="1" opacity="0.9882352941176471" d="M 98.5 18 L 99.5 20 L 98.5 18 Z " /><path fill="rgb(116,171,215)" stroke="rgb(116,171,215)" stroke-width="1" opacity="0.9882352941176471" d="M 59.5 42 Q 63.5 41.5 64 44.5 L 63.5 46 L 61 45 Q 62.1 47.7 59.5 47 L 51 53 L 52.5 48 Q 53.7 50.3 55 47.5 L 59.5 42 Z " /><path fill="rgb(116,171,215)" stroke="rgb(116,171,215)" stroke-width="1" opacity="0.9882352941176471" d="M 73.5 47 L 72.5 49 L 71 48.5 L 73.5 47 Z " /><path fill="rgb(116,171,215)" stroke="rgb(116,171,215)" stroke-width="1" opacity="0.9882352941176471" d="M 70.5 52 L 76 56.5 Q 76.8 58.8 74.5 58 L 64 67.5 Q 66.2 71.2 68.5 66 L 78.5 60 L 80 63 L 75.5 65 L 73.5 64 L 62.5 72 L 61.5 71 L 58.5 74 L 55.5 76 L 54 75.5 L 53.5 77 L 52 76.5 Q 52.8 78.8 50.5 78 L 48.5 79 L 47 78.5 L 46.5 81 Q 43.5 80.5 44 76.5 L 47.5 72 Q 58.4 68.4 65 60.5 L 70.5 52 Z " /><path fill="rgb(168,184,189)" stroke="rgb(168,184,189)" stroke-width="1" opacity="0.9921568627450981" d="M 102.5 8 L 107 8.5 L 104.5 10 L 102.5 8 Z " /><path fill="rgb(168,184,189)" stroke="rgb(168,184,189)" stroke-width="1" opacity="0.9921568627450981" d="M 99.5 9 L 100.5 12 L 102 11.5 L 101 12.5 L 105.5 17 L 113 21.5 L 112 25 L 108 23.5 L 112 22.5 L 108.5 20 L 104 23 Q 105 26 102 25 L 102 29.5 L 100.5 32 L 100 29.5 L 101 24.5 L 98.5 18 Q 97 20.5 95.5 17 L 88 16.5 L 95 13.5 L 91.5 13 L 89.5 14 L 89.5 13 L 93 12 Q 91.6 8 98.5 10 L 99.5 9 Z M 101 13 Q 99 16 102 15 L 101 13 Z M 100 16 L 100 18 L 102 17 L 100 16 Z " /><path fill="rgb(168,184,189)" stroke="rgb(168,184,189)" stroke-width="1" opacity="0.9921568627450981" d="M 118.5 12 L 119 16.5 L 115 15.5 L 118.5 12 Z " /><path fill="rgb(168,184,189)" stroke="rgb(168,184,189)" stroke-width="1" opacity="0.9921568627450981" d="M 87.5 14 L 86.5 16 L 85 15.5 L 87.5 14 Z " /><path fill="rgb(168,184,189)" stroke="rgb(168,184,189)" stroke-width="1" opacity="0.9921568627450981" d="M 83.5 16 L 86 17.5 L 84.5 18 L 83 17.5 Q 83.8 19.8 81.5 19 L 73.5 24 L 75.5 21 L 83.5 16 Z " /><path fill="rgb(168,184,189)" stroke="rgb(168,184,189)" stroke-width="1" opacity="0.9921568627450981" d="M 119.5 18 L 120 21.5 L 119 21.5 L 119.5 18 Z " /><path fill="rgb(168,184,189)" stroke="rgb(168,184,189)" stroke-width="1" opacity="0.9921568627450981" d="M 71.5 24 L 62 34.5 L 62.5 36 L 69 32 Q 70 37.6 65.5 39 L 61 40.5 L 61.5 42 Q 59.3 42.8 60 40.5 L 57.5 39 L 56 39.5 L 59 38 L 58 35.5 Q 59.3 32.8 60.5 35 L 71.5 24 Z " /><path fill="rgb(168,184,189)" stroke="rgb(168,184,189)" stroke-width="1" opacity="0.9921568627450981" d="M 79.5 24 L 78.5 26 L 79.5 24 Z " /><path fill="rgb(168,184,189)" stroke="rgb(168,184,189)" stroke-width="1" opacity="0.9921568627450981" d="M 115.5 25 L 118 26.5 L 116 27.5 L 115.5 25 Z " /><path fill="rgb(168,184,189)" stroke="rgb(168,184,189)" stroke-width="1" opacity="0.9921568627450981" d="M 72.5 26 L 70.5 29 L 72.5 26 Z " /><path fill="rgb(168,184,189)" stroke="rgb(168,184,189)" stroke-width="1" opacity="0.9921568627450981" d="M 116.5 29 Q 119.1 28.2 118 31.5 L 118.5 33 L 116.5 32 Q 109.1 47.1 96.5 57 L 84 64 L 82 58 L 84 58 Q 82.9 55.3 85.5 56 L 116.5 29 Z " /><path fill="rgb(168,184,189)" stroke="rgb(168,184,189)" stroke-width="1" opacity="0.9921568627450981" d="M 97.5 37 L 93.5 42 L 97.5 37 Z " /><path fill="rgb(168,184,189)" stroke="rgb(168,184,189)" stroke-width="1" opacity="0.9921568627450981" d="M 65 41 L 67 41.5 L 66.5 44 L 65 41 Z " /><path fill="rgb(168,184,189)" stroke="rgb(168,184,189)" stroke-width="1" opacity="0.9921568627450981" d="M 91.5 42 L 90.5 44 L 91.5 42 Z " /><path fill="rgb(168,184,189)" stroke="rgb(168,184,189)" stroke-width="1" opacity="0.9921568627450981" d="M 87.5 44 L 89 44.5 L 83.5 46 L 79 50.5 L 80 56 L 76.5 55 L 75 55.5 L 75.5 54 Q 73.3 54.8 74 52.5 L 72 49.5 L 74 46 Q 82.6 47.3 87.5 44 Z " /><path fill="rgb(168,184,189)" stroke="rgb(168,184,189)" stroke-width="1" opacity="0.9921568627450981" d="M 53 47 L 55 47.5 L 53 48.5 L 53 47 Z " /><path fill="rgb(168,184,189)" stroke="rgb(168,184,189)" stroke-width="1" opacity="0.9921568627450981" d="M 76.5 57 L 80.5 62 L 77.5 60 L 65.5 69 L 64 67.5 L 71.5 60 L 74.5 58 L 76 58.5 L 76.5 57 Z " /><path fill="rgb(168,184,189)" stroke="rgb(168,184,189)" stroke-width="1" opacity="0.9921568627450981" d="M 34.5 101 L 33.5 103 L 34.5 101 Z " /><path fill="rgb(123,124,126)" stroke="rgb(123,124,126)" stroke-width="1" opacity="0.8627450980392157" d="M 110.5 2 L 113 2.5 L 110.5 3 L 110.5 2 Z " /><path fill="rgb(123,124,126)" stroke="rgb(123,124,126)" stroke-width="1" opacity="0.8627450980392157" d="M 110.5 5 Q 120.6 2.9 124 7.5 L 122.5 7 L 120.5 6 L 118.5 7 L 114.5 6 L 113.5 7 L 100.5 8 Q 99.8 10.8 95.5 10 L 95.5 9 L 110.5 5 Z " /><path fill="rgb(123,124,126)" stroke="rgb(123,124,126)" stroke-width="1" opacity="0.8627450980392157" d="M 88.5 9 L 87.5 11 L 86 10.5 L 88.5 9 Z " /><path fill="rgb(123,124,126)" stroke="rgb(123,124,126)" stroke-width="1" opacity="0.8627450980392157" d="M 90.5 11 L 93 11.5 L 80.5 18 L 81.5 16 L 90.5 11 Z " /><path fill="rgb(123,124,126)" stroke="rgb(123,124,126)" stroke-width="1" opacity="0.8627450980392157" d="M 94.5 17 L 100 21.5 L 95.5 18 L 94.5 17 Z " /><path fill="rgb(123,124,126)" stroke="rgb(123,124,126)" stroke-width="1" opacity="0.8627450980392157" d="M 78.5 18 L 76.5 21 Q 66.6 26.1 60.5 35 L 60 33.5 L 69 26 Q 67.9 23.3 70.5 24 L 78.5 18 Z " /><path fill="rgb(123,124,126)" stroke="rgb(123,124,126)" stroke-width="1" opacity="0.8627450980392157" d="M 84.5 22 L 86 22.5 L 78 27 Q 79.1 29.7 76.5 29 L 76.5 26 L 78.5 26 L 84.5 22 Z " /><path fill="rgb(123,124,126)" stroke="rgb(123,124,126)" stroke-width="1" opacity="0.8627450980392157" d="M 75.5 23 L 73.5 26 L 75.5 23 Z " /><path fill="rgb(123,124,126)" stroke="rgb(123,124,126)" stroke-width="1" opacity="0.8627450980392157" d="M 100.5 24 L 101 28.5 L 100 28.5 L 100.5 24 Z " /><path fill="rgb(123,124,126)" stroke="rgb(123,124,126)" stroke-width="1" opacity="0.8627450980392157" d="M 117.5 27 Q 120.5 29 120 34.5 Q 110.5 52.5 95.5 65 L 92.5 67 L 90.5 67 L 85 64.5 L 87 64.5 L 88.5 62 Q 100.7 56.2 108 45.5 L 116.5 32 L 118.5 33 L 118 31.5 L 117.5 27 Z " /><path fill="rgb(123,124,126)" stroke="rgb(123,124,126)" stroke-width="1" opacity="0.8627450980392157" d="M 70.5 29 L 71 30.5 L 70 31.5 L 70 39.5 L 70.5 41 L 69 39.5 L 69 31.5 L 70.5 29 Z " /><path fill="rgb(123,124,126)" stroke="rgb(123,124,126)" stroke-width="1" opacity="0.8627450980392157" d="M 55.5 36 L 56.5 38 L 55.5 36 Z " /><path fill="rgb(123,124,126)" stroke="rgb(123,124,126)" stroke-width="1" opacity="0.8627450980392157" d="M 97.5 36 L 96.5 38 L 97.5 36 Z " /><path fill="rgb(123,124,126)" stroke="rgb(123,124,126)" stroke-width="1" opacity="0.8627450980392157" d="M 62.5 41 L 63.5 43 L 62.5 41 Z " /><path fill="rgb(123,124,126)" stroke="rgb(123,124,126)" stroke-width="1" opacity="0.8627450980392157" d="M 79.5 45 L 83 45.5 L 79.5 46 L 79.5 45 Z " /><path fill="rgb(123,124,126)" stroke="rgb(123,124,126)" stroke-width="1" opacity="0.8627450980392157" d="M 70.5 49 L 75 54.5 L 73 53.5 L 70.5 49 Z " /><path fill="rgb(123,124,126)" stroke="rgb(123,124,126)" stroke-width="1" opacity="0.8627450980392157" d="M 81.5 62 L 82.5 64 L 81.5 62 Z " /><path fill="rgb(123,124,126)" stroke="rgb(123,124,126)" stroke-width="1" opacity="0.8627450980392157" d="M 69.5 67 L 68.5 69 L 69.5 67 Z " /><path fill="rgb(123,124,126)" stroke="rgb(123,124,126)" stroke-width="1" opacity="0.8627450980392157" d="M 75.5 67 L 74.5 69 L 75.5 67 Z " /><path fill="rgb(123,124,126)" stroke="rgb(123,124,126)" stroke-width="1" opacity="0.8627450980392157" d="M 94 72 Q 97 71 96 74 Q 93 75 94 72 Z " /><path fill="rgb(123,124,126)" stroke="rgb(123,124,126)" stroke-width="1" opacity="0.8627450980392157" d="M 40.5 73 L 42 74.5 L 38.5 78 L 38 76 L 31.5 79 L 31.5 78 L 36.5 74 L 40 75 L 40.5 73 Z " /><path fill="rgb(123,124,126)" stroke="rgb(123,124,126)" stroke-width="1" opacity="0.8627450980392157" d="M 61.5 73 L 60.5 75 L 61.5 73 Z " /><path fill="rgb(123,124,126)" stroke="rgb(123,124,126)" stroke-width="1" opacity="0.8627450980392157" d="M 58.5 75 L 57.5 77 L 58.5 75 Z " /><path fill="rgb(123,124,126)" stroke="rgb(123,124,126)" stroke-width="1" opacity="0.8627450980392157" d="M 66.5 76 L 67 77.5 L 64 79.5 L 66.5 76 Z " /><path fill="rgb(123,124,126)" stroke="rgb(123,124,126)" stroke-width="1" opacity="0.8627450980392157" d="M 51.5 79 L 50.5 81 L 47.5 82 L 47.5 81 L 51.5 79 Z " /><path fill="rgb(123,124,126)" stroke="rgb(123,124,126)" stroke-width="1" opacity="0.8627450980392157" d="M 42.5 85 L 46 87.5 L 41.5 93 L 38 88.5 L 40 88.5 L 42.5 85 Z " /><path fill="rgb(123,124,126)" stroke="rgb(123,124,126)" stroke-width="1" opacity="0.8627450980392157" d="M 35.5 86 L 36.5 88 L 35.5 86 Z " /><path fill="rgb(217,104,11)" stroke="rgb(217,104,11)" stroke-width="1" opacity="0.09803921568627451" d="M 29.5 46 L 37 46.5 L 29.5 47 L 29.5 46 Z " /><path fill="rgb(217,104,11)" stroke="rgb(217,104,11)" stroke-width="1" opacity="0.09803921568627451" d="M 18 50 L 21 51.5 L 17.5 56 L 17 53.5 L 18 50 Z " /><path fill="rgb(217,104,11)" stroke="rgb(217,104,11)" stroke-width="1" opacity="0.09803921568627451" d="M 15.5 54 L 14 56.5 L 14.5 58 L 16 57.5 L 14.5 60 L 13 56.5 L 15.5 54 Z " /><path fill="rgb(217,104,11)" stroke="rgb(217,104,11)" stroke-width="1" opacity="0.09803921568627451" d="M 11.5 60 L 11.5 63 Q 10.3 60.7 9 63.5 L 9.5 65 L 11 64.5 L 6 67.5 L 6.5 69 L 8 68.5 L 2.5 78 L 0 77.5 L 1 72 L 5 71.5 L 4 68.5 L 6.5 65 Q 8.8 65.8 8 63.5 L 11.5 60 Z " /><path fill="rgb(217,104,11)" stroke="rgb(217,104,11)" stroke-width="1" opacity="0.09803921568627451" d="M 31.5 72 Q 36.3 71.3 38 73.5 L 30 74 L 28.5 77 L 29 75.5 L 31.5 72 Z " /><path fill="rgb(217,104,11)" stroke="rgb(217,104,11)" stroke-width="1" opacity="0.09803921568627451" d="M 30.5 77 L 30 78.5 L 31 81.5 L 30 81.5 Q 30.7 78.9 28 80 L 28 78 L 30.5 77 Z " /><path fill="rgb(217,104,11)" stroke="rgb(217,104,11)" stroke-width="1" opacity="0.09803921568627451" d="M 0.5 81 Q 8.1 84.9 21.5 83 L 23.5 82 L 25.5 83 L 25.5 81 L 29 82.5 L 26 83 L 25.5 85 L 24.5 84 L 6.5 84 L 0 83 L 0.5 81 Z " /><path fill="rgb(217,104,11)" stroke="rgb(217,104,11)" stroke-width="1" opacity="0.09803921568627451" d="M 8.5 81 L 19 81.5 L 8.5 82 L 8.5 81 Z " /><path fill="rgb(217,104,11)" stroke="rgb(217,104,11)" stroke-width="1" opacity="0.09803921568627451" d="M 30.5 83 L 29.5 85 L 30.5 83 Z " /><path fill="rgb(217,104,11)" stroke="rgb(217,104,11)" stroke-width="1" opacity="0.09803921568627451" d="M 0.5 85 L 7 85.5 L 0.5 86 L 0.5 85 Z " /><path fill="rgb(217,104,11)" stroke="rgb(217,104,11)" stroke-width="1" opacity="0.09803921568627451" d="M 20.5 85 L 24 85.5 L 21.5 87 L 20.5 85 Z " /><path fill="rgb(217,104,11)" stroke="rgb(217,104,11)" stroke-width="1" opacity="0.09803921568627451" d="M 84.5 85 L 83.5 87 L 84.5 85 Z " /><path fill="rgb(217,104,11)" stroke="rgb(217,104,11)" stroke-width="1" opacity="0.09803921568627451" d="M 25.5 86 L 24.5 88 L 20 91.5 L 17.5 95 L 17.5 93 L 16 92.5 L 17 90 L 20.5 90 L 25.5 86 Z " /><path fill="rgb(217,104,11)" stroke="rgb(217,104,11)" stroke-width="1" opacity="0.09803921568627451" d="M 82.5 89 L 83 92.5 L 82 92.5 L 82.5 89 Z " /><path fill="rgb(217,104,11)" stroke="rgb(217,104,11)" stroke-width="1" opacity="0.09803921568627451" d="M 57.5 91 L 56 95.5 L 54.5 98 L 52.5 97 L 50 98.5 L 54 95.5 L 54.5 97 L 56 94.5 Q 53.2 92.7 57.5 91 Z " /><path fill="rgb(217,104,11)" stroke="rgb(217,104,11)" stroke-width="1" opacity="0.09803921568627451" d="M 11.5 93 L 14 94.5 L 14.5 93 L 15 94.5 L 14.5 96 L 16 96.5 L 16 98.5 L 12 102.5 L 11.5 108 L 11 106 Q 5 108 7 102 L 12 101.5 L 8 100.5 L 9.5 97 L 10 100 L 12.5 99 Q 13.8 101.2 15 98.5 L 12 97.5 L 13 95.5 Q 11.8 92.8 10.5 95 L 9 94.5 L 11.5 93 Z " /><path fill="rgb(217,104,11)" stroke="rgb(217,104,11)" stroke-width="1" opacity="0.09803921568627451" d="M 6.5 97 L 7 99.5 L 6 99.5 L 6.5 97 Z " /><path fill="rgb(217,104,11)" stroke="rgb(217,104,11)" stroke-width="1" opacity="0.09803921568627451" d="M 48.5 99 L 46.5 102 L 48.5 99 Z " /><path fill="rgb(217,104,11)" stroke="rgb(217,104,11)" stroke-width="1" opacity="0.09803921568627451" d="M 82.5 99 L 83 104.5 L 81.5 107 L 80 101.5 L 81 101.5 L 81.5 105 L 82.5 99 Z " /><path fill="rgb(217,104,11)" stroke="rgb(217,104,11)" stroke-width="1" opacity="0.09803921568627451" d="M 48.5 102 L 50 103.5 L 50 113.5 L 50 115.5 L 50 124.5 L 51.5 125 L 51.5 126 L 49 125.5 L 49 117.5 L 48 113.5 L 49 112.5 L 49 103.5 L 47 103.5 L 48.5 102 Z " /><path fill="rgb(217,104,11)" stroke="rgb(217,104,11)" stroke-width="1" opacity="0.09803921568627451" d="M 45.5 103 Q 48.7 106.3 47 114.5 L 46 114.5 Q 47.5 106.9 44 108 L 41.5 112 L 43 109.5 L 46 105.5 L 44.5 105 L 43 105.5 L 45.5 103 Z " /><path fill="rgb(217,104,11)" stroke="rgb(217,104,11)" stroke-width="1" opacity="0.09803921568627451" d="M 77.5 106 L 78.5 108 L 77.5 106 Z " /><path fill="rgb(217,104,11)" stroke="rgb(217,104,11)" stroke-width="1" opacity="0.09803921568627451" d="M 41.5 108 L 39.5 111 L 41.5 108 Z " /><path fill="rgb(217,104,11)" stroke="rgb(217,104,11)" stroke-width="1" opacity="0.09803921568627451" d="M 5.5 109 L 6 117.5 L 4.5 124 L 4 117.5 L 5.5 109 Z " /><path fill="rgb(217,104,11)" stroke="rgb(217,104,11)" stroke-width="1" opacity="0.09803921568627451" d="M 74.5 109 Q 77.3 110.2 75 111.5 L 72.5 115 L 71 114.5 L 74 112.5 L 73 110.5 L 74.5 109 Z " /><path fill="rgb(217,104,11)" stroke="rgb(217,104,11)" stroke-width="1" opacity="0.09803921568627451" d="M 37.5 111 L 37 112.5 L 37.5 114 L 40.5 113 L 40.5 114 L 35.5 115 L 36 113.5 L 37.5 111 Z " /><path fill="rgb(217,104,11)" stroke="rgb(217,104,11)" stroke-width="1" opacity="0.09803921568627451" d="M 8.5 113 L 9 115.5 L 7 114.5 L 8.5 113 Z " /><path fill="rgb(217,104,11)" stroke="rgb(217,104,11)" stroke-width="1" opacity="0.09803921568627451" d="M 32.5 116 L 35 116.5 L 30.5 118 L 30.5 117 L 32.5 116 Z " /><path fill="rgb(217,104,11)" stroke="rgb(217,104,11)" stroke-width="1" opacity="0.09803921568627451" d="M 46.5 116 L 47 125.5 L 46 125.5 L 46.5 116 Z " /><path fill="rgb(217,104,11)" stroke="rgb(217,104,11)" stroke-width="1" opacity="0.09803921568627451" d="M 68.5 117 L 67.5 119 L 66 118.5 L 68.5 117 Z " /><path fill="rgb(217,104,11)" stroke="rgb(217,104,11)" stroke-width="1" opacity="0.09803921568627451" d="M 25.5 118 L 30 119 L 30.5 121 L 31 119 L 34.5 118 L 34.5 119 L 32 120.5 Q 32.7 123.5 29 122 Q 30 119 27 120 L 28 122.5 L 20.5 124 L 18.5 124 L 13.5 125 L 11.5 124 L 7 126.5 L 8.5 127 L 19.5 125 L 18.5 127 Q 11 125.5 7.5 128 L 5 127 L 5.5 125 Q 7 127.5 8.5 124 L 15.5 123 L 17.5 123 L 25.5 118 Z M 26 119 Q 26 122 22 121 L 21 123 L 26 122 L 26 119 Z " /><path fill="rgb(217,104,11)" stroke="rgb(217,104,11)" stroke-width="1" opacity="0.09803921568627451" d="M 6.5 119 L 7 123.5 L 6 123.5 L 6.5 119 Z " /><path fill="rgb(217,104,11)" stroke="rgb(217,104,11)" stroke-width="1" opacity="0.09803921568627451" d="M 53.5 126 L 55 126.5 L 50.5 128 L 50.5 127 L 53.5 126 Z " /><path fill="rgb(247,148,10)" stroke="rgb(247,148,10)" stroke-width="1" opacity="0.9647058823529412" d="M 96.5 19 L 98 22 Q 94.5 23.1 96.5 19 Z " /><path fill="rgb(247,148,10)" stroke="rgb(247,148,10)" stroke-width="1" opacity="0.9647058823529412" d="M 97.5 26 L 100 27 L 99.5 29 L 97.5 26 Z " /><path fill="rgb(247,148,10)" stroke="rgb(247,148,10)" stroke-width="1" opacity="0.9647058823529412" d="M 80.5 60 L 83.5 64 L 80.5 60 Z " /><path fill="rgb(247,148,10)" stroke="rgb(247,148,10)" stroke-width="1" opacity="0.9647058823529412" d="M 12.5 64 Q 17.3 62.3 16 66.5 L 18.5 65 L 30 68 L 32 71.5 L 24.5 82 L 22.5 81 L 19.5 82 L 9.5 80 L 7.5 80 L 3.5 79 L 1.5 82 L 1 80.5 L 12.5 64 Z " /><path fill="rgb(247,148,10)" stroke="rgb(247,148,10)" stroke-width="1" opacity="0.9647058823529412" d="M 65.5 74 L 66.5 76 L 65.5 74 Z " /><path fill="rgb(247,148,10)" stroke="rgb(247,148,10)" stroke-width="1" opacity="0.9647058823529412" d="M 31.5 83 L 34 83.5 L 26.5 87 L 23 90.5 L 19 100.5 L 19 104 L 15 105.5 Q 13.3 110.3 17.5 109 L 17 110.5 L 16 115 Q 21.5 115.8 24.5 113 L 26.5 114 L 32.5 109 L 28.5 114 Q 25.9 113.3 27 116 Q 32.7 116.4 35 112.5 L 36.5 110 L 38.5 110 L 42.5 106 L 38.5 111 L 36 112.5 L 33.5 116 L 28.5 118 L 26.5 117 Q 24.6 120.6 20 120 L 18.5 123 Q 10.8 122.2 7 124 L 9 116.5 L 9 111.5 Q 6.3 109.7 10.5 108 Q 13.9 108.9 12 103.5 L 23.5 88 L 31.5 83 Z M 12 113 L 10 115 L 13 116 Q 14 112 12 113 Z M 10 119 Q 9 122 13 121 Q 14 118 10 119 Z " /><path fill="rgb(247,148,10)" stroke="rgb(247,148,10)" stroke-width="1" opacity="0.9647058823529412" d="M 55 88 Q 59.1 86.3 58 90.5 L 55 92.5 L 56 90.5 L 55 88 Z " /><path fill="rgb(247,148,10)" stroke="rgb(247,148,10)" stroke-width="1" opacity="0.9647058823529412" d="M 50.5 94 Q 52.8 93.3 52 95.5 L 43.5 105 L 45 102.5 L 48 98.5 L 46.5 98 L 42 101.5 L 50.5 94 Z " /><path fill="rgb(247,148,10)" stroke="rgb(247,148,10)" stroke-width="1" opacity="0.9647058823529412" d="M 10 97 L 13 98.5 L 10 100 L 10 97 Z " /><path fill="rgb(247,148,10)" stroke="rgb(247,148,10)" stroke-width="1" opacity="0.9647058823529412" d="M 38.5 104 L 35.5 108 L 38.5 104 Z " /><path fill="rgb(247,148,10)" stroke="rgb(247,148,10)" stroke-width="1" opacity="0.9647058823529412" d="M 50 104 Q 54.1 102.3 53 106.5 L 55 108.5 L 55 114.5 L 57 120.5 Q 54.7 124.5 50 125 L 50 104 Z " /><path fill="rgb(247,148,10)" stroke="rgb(247,148,10)" stroke-width="1" opacity="0.9647058823529412" d="M 31.5 107 L 30.5 109 L 31.5 107 Z " /><path fill="rgb(247,148,10)" stroke="rgb(247,148,10)" stroke-width="1" opacity="0.9647058823529412" d="M 27 120 Q 30 119 29 122 Q 26 123 27 120 Z " /><path fill="rgb(86,135,173)" stroke="rgb(86,135,173)" stroke-width="1" opacity="0.984313725490196" d="M 114.5 2 L 118 2.5 L 114.5 3 L 114.5 2 Z " /><path fill="rgb(86,135,173)" stroke="rgb(86,135,173)" stroke-width="1" opacity="0.984313725490196" d="M 122.5 7 Q 126.5 9.5 125 17.5 L 122 30 L 118 29 L 121 22.5 Q 120.1 14.1 123 9.5 L 122.5 7 Z " /><path fill="rgb(86,135,173)" stroke="rgb(86,135,173)" stroke-width="1" opacity="0.984313725490196" d="M 100.5 11 L 108 16.5 L 107.5 18 L 104 15.5 Q 104.8 13.3 102.5 14 L 100.5 11 Z " /><path fill="rgb(86,135,173)" stroke="rgb(86,135,173)" stroke-width="1" opacity="0.984313725490196" d="M 99.5 15 L 102 16.5 L 100 17.5 L 99.5 15 Z " /><path fill="rgb(86,135,173)" stroke="rgb(86,135,173)" stroke-width="1" opacity="0.984313725490196" d="M 98.5 19 L 99.5 21 L 98.5 19 Z " /><path fill="rgb(86,135,173)" stroke="rgb(86,135,173)" stroke-width="1" opacity="0.984313725490196" d="M 83.5 21 L 87 21.5 L 81.5 23 L 81.5 22 L 83.5 21 Z " /><path fill="rgb(86,135,173)" stroke="rgb(86,135,173)" stroke-width="1" opacity="0.984313725490196" d="M 79.5 23 Q 84.5 25.5 79.5 28 L 78 27.5 L 80 26.5 L 77 25.5 L 79.5 23 Z " /><path fill="rgb(86,135,173)" stroke="rgb(86,135,173)" stroke-width="1" opacity="0.984313725490196" d="M 76.5 27 L 76.5 30 Q 74.3 30.8 75 28.5 L 76.5 27 Z " /><path fill="rgb(86,135,173)" stroke="rgb(86,135,173)" stroke-width="1" opacity="0.984313725490196" d="M 68.5 36 Q 68.4 41.6 72.5 43 L 79 45.5 Q 73.3 45.3 71 48.5 L 73 52.5 L 74 54.5 L 70 52.5 L 70 54.5 L 62.5 63 L 45 74.5 L 44 78.5 Q 46.3 83.3 48.5 79 L 63.5 71 L 64 73 L 60 74.5 L 59.5 76 Q 58.3 73.8 57 76.5 Q 57.8 78.8 55.5 78 L 51.5 81 L 49.5 80 L 48.5 83 L 45 82 L 43 78.5 L 43 75.5 L 50 57.5 L 49 55.5 L 50.5 51 L 51 53 L 61 47 Q 59.9 44.3 62.5 45 L 64 45.5 L 62 42.5 L 62.5 41 L 61 40.5 Q 66.3 39.8 68.5 36 Z M 65 41 Q 63 45 68 44 L 67 43 Q 68 40 65 41 Z " /><path fill="rgb(86,135,173)" stroke="rgb(86,135,173)" stroke-width="1" opacity="0.984313725490196" d="M 110.5 49 L 108.5 52 L 110.5 49 Z " /><path fill="rgb(86,135,173)" stroke="rgb(86,135,173)" stroke-width="1" opacity="0.984313725490196" d="M 105.5 55 L 97.5 64 L 105.5 55 Z " /><path fill="rgb(86,135,173)" stroke="rgb(86,135,173)" stroke-width="1" opacity="0.984313725490196" d="M 80.5 62 L 84 64 L 86 69 L 75.5 74 L 72 74 Q 71.3 68.9 76 67.5 L 76 64 L 80.5 62 Z " /><path fill="rgb(86,135,173)" stroke="rgb(86,135,173)" stroke-width="1" opacity="0.984313725490196" d="M 71.5 65 L 70.5 67 L 71.5 65 Z " /><path fill="rgb(86,135,173)" stroke="rgb(86,135,173)" stroke-width="1" opacity="0.984313725490196" d="M 94.5 65 L 93.5 67 L 94.5 65 Z " /><path fill="rgb(86,135,173)" stroke="rgb(86,135,173)" stroke-width="1" opacity="0.984313725490196" d="M 89.5 67 L 92 67.5 L 89.5 68 L 89.5 67 Z " /><path fill="rgb(86,135,173)" stroke="rgb(86,135,173)" stroke-width="1" opacity="0.984313725490196" d="M 66.5 69 L 65.5 71 L 66.5 69 Z " /><path fill="rgb(39,51,67)" stroke="rgb(39,51,67)" stroke-width="1" opacity="0.9647058823529412" d="M 124.5 7 Q 129.6 10.4 128 20.5 L 126 23.5 L 124 33.5 L 121 38.5 Q 123.5 40 120 41.5 Q 111.2 59.7 96.5 72 Q 93.2 70.9 94 73.5 L 78.5 84 L 60.5 90 L 60 88.5 Q 64.8 76.8 73.5 69 L 72 71.5 Q 70.7 75.7 75.5 74 L 86 69 L 84 64.5 L 86.5 66 L 90.5 69 L 91.5 66 L 93.5 67 L 106 55.5 L 120 35.5 L 120 31.5 L 119 29.5 L 120.5 30 Q 123.5 30.9 122 26.5 L 125 17.5 L 125 10.5 L 124.5 7 Z " /><path fill="rgb(39,51,67)" stroke="rgb(39,51,67)" stroke-width="1" opacity="0.9647058823529412" d="M 88.5 19 Q 94.1 19.5 96 23.5 L 96 30.5 L 89.5 38 Q 85.9 40.9 78.5 40 L 73 35.5 L 73 30.5 L 78.5 23 L 76 26.5 L 75 30.5 L 78.5 28 L 87 21.5 L 84 20.5 L 88.5 19 Z " /><path fill="rgb(39,51,67)" stroke="rgb(39,51,67)" stroke-width="1" opacity="0.9647058823529412" d="M 81.5 21 L 83 21.5 L 80.5 23 L 81.5 21 Z " /><path fill="rgb(39,51,67)" stroke="rgb(39,51,67)" stroke-width="1" opacity="0.9647058823529412" d="M 54.5 40 L 55 42.5 L 54 42.5 L 54.5 40 Z " /><path fill="rgb(39,51,67)" stroke="rgb(39,51,67)" stroke-width="1" opacity="0.9647058823529412" d="M 71.5 41 L 72.5 43 L 71.5 41 Z " /><path fill="rgb(39,51,67)" stroke="rgb(39,51,67)" stroke-width="1" opacity="0.9647058823529412" d="M 53.5 44 L 53 45.5 L 49 56.5 L 50 59.5 L 43 75.5 L 43 78.5 L 45 82 L 48.5 83 L 67.5 69 L 62 75.5 L 60.5 78 L 56.5 79 L 50 84.5 L 51 86.5 L 44 91 L 42.5 94 L 42 91.5 L 46 87.5 L 43.5 85 L 37.5 88 L 31 80.5 Q 33.3 76.5 38 76 L 38.5 78 L 42 76 Q 43.3 71.9 40 73 L 39.5 75 L 39 72.5 L 41 70.5 Q 43 59.5 48 51.5 L 53.5 44 Z " /><path fill="rgb(39,51,67)" stroke="rgb(39,51,67)" stroke-width="1" opacity="0.9647058823529412" d="M 76.5 44 L 79 44.5 L 76.5 45 L 76.5 44 Z " /><path fill="rgb(39,51,67)" stroke="rgb(39,51,67)" stroke-width="1" opacity="0.9647058823529412" d="M 40.5 94 L 37.5 98 L 40.5 94 Z " /><path fill="rgb(39,51,67)" stroke="rgb(39,51,67)" stroke-width="1" opacity="0.9647058823529412" d="M 58.5 97 L 55.5 101 L 51.5 104 L 51 101 L 58.5 97 Z " /><path fill="rgb(206,19,8)" stroke="rgb(206,19,8)" stroke-width="1" opacity="0.9568627450980393" d="M 87.5 17 Q 93.6 16.3 96 18 L 96 22 L 97.5 22 Q 98.7 19.8 100 22.5 Q 101.9 27.9 98.5 27 L 97 26.5 L 96.5 30 Q 97.5 22 92.5 20 L 88.5 19 L 81.5 21 L 75 26.5 Q 72.2 29.2 73 35.5 Q 75.2 41.4 84.5 40 Q 91.7 38.2 95 32.5 L 95.5 31 L 99 32 L 99 34.5 L 93.5 41 L 88.5 44 L 79.5 45 L 73.5 43 L 71 40.5 L 70 31.5 L 77.5 22 L 87.5 17 Z " /><path fill="rgb(206,19,8)" stroke="rgb(206,19,8)" stroke-width="1" opacity="0.9568627450980393" d="M 53.5 41 L 54 43.5 L 48 51.5 Q 43 59.5 41 70.5 L 38.5 73 L 32.5 72 L 30 69.5 Q 30.8 67.3 28.5 68 L 18.5 65 L 16 66.5 Q 17.3 62.3 12.5 64 L 5.5 73 L 7 70.5 L 11 63.5 L 23.5 49 Q 29.4 51.6 39.5 50 L 44.5 48 L 53.5 41 Z " /><path fill="rgb(206,19,8)" stroke="rgb(206,19,8)" stroke-width="1" opacity="0.9568627450980393" d="M 72.5 65 L 76 66.5 L 67.5 76 Q 65.3 71.8 63 76.5 L 62 80 Q 64.7 78.9 64 81.5 L 60 89.5 L 61.5 89 L 78.5 84 L 84.5 80 L 85 81.5 L 80 88.5 L 80 104.5 L 78.5 106 Q 68 116.5 54.5 124 L 57 120.5 L 55 114.5 L 55 108.5 L 52 103.5 L 59 97.5 L 58 88 Q 54.2 86.5 55 89.5 L 56 91.5 L 49.5 99 L 52 95.5 Q 52.8 93.3 50.5 94 L 28.5 113 L 29 111.5 L 41.5 93 Q 42.8 95.3 44 92.5 Q 43.3 90.3 45.5 91 L 51 86.5 L 50 84.5 L 62 76.5 L 72.5 65 Z " /><path fill="rgb(206,19,8)" stroke="rgb(206,19,8)" stroke-width="1" opacity="0.9568627450980393" d="M 1.5 79 L 0.5 81 L 1.5 79 Z " /><path fill="rgb(206,19,8)" stroke="rgb(206,19,8)" stroke-width="1" opacity="0.9568627450980393" d="M 6 124 L 8 124.5 L 6 125.5 L 6 124 Z " /><path fill="rgb(252,234,94)" stroke="rgb(252,234,94)" stroke-width="1" opacity="0.996078431372549" d="M 97.5 27 L 100 30.5 L 97.5 32 Q 94.8 30.8 97 29.5 L 97.5 27 Z " /><path fill="rgb(252,234,94)" stroke="rgb(252,234,94)" stroke-width="1" opacity="0.996078431372549" d="M 75.5 54 L 82 59.5 L 84 62.5 L 80.5 60 L 76 56.5 L 75.5 54 Z " /><path fill="rgb(252,234,94)" stroke="rgb(252,234,94)" stroke-width="1" opacity="0.996078431372549" d="M 64.5 75 Q 66.8 74.3 66 76.5 L 63.5 80 Q 60.7 78.8 63 77.5 L 64.5 75 Z " /><path fill="rgb(252,234,94)" stroke="rgb(252,234,94)" stroke-width="1" opacity="0.996078431372549" d="M 3.5 79 L 8 80 Q 9.1 82.7 6.5 82 L 4.5 81 L 2 82 L 3.5 79 Z " /><path fill="rgb(252,234,94)" stroke="rgb(252,234,94)" stroke-width="1" opacity="0.996078431372549" d="M 32.5 84 Q 34.8 83.3 34 85.5 L 41 91.5 L 41 93.5 L 34.5 101 L 33.5 100 L 30.5 103 L 28 104.5 L 30.5 105 L 33 103.5 L 27 113.5 L 28.5 114 L 47.5 98 L 45 101.5 L 38.5 110 L 35 111.5 L 32.5 115 L 27 116 Q 28.1 113.3 25.5 114 L 23.5 113 Q 21.3 116 16 115 L 18 109.5 L 15 109 Q 14 105.2 16.5 104 Q 20.7 105.3 19 100.5 L 23 90.5 L 26.5 87 L 32.5 84 Z " /><path fill="rgb(252,234,94)" stroke="rgb(252,234,94)" stroke-width="1" opacity="0.996078431372549" d="M 11.5 113 Q 14.5 112.2 13 116 L 10 114.5 L 11.5 113 Z " /><path fill="rgb(252,234,94)" stroke="rgb(252,234,94)" stroke-width="1" opacity="0.996078431372549" d="M 10 119 Q 14.1 117.7 13 121 Q 8.9 122.3 10 119 Z " /></svg>