<svg width="128" height="128" version="1.1" xmlns="http://www.w3.org/2000/svg" desc="Created with imagetracer.js version 1.2.6" ><path fill="rgb(124,125,128)" stroke="rgb(124,125,128)" stroke-width="1" opacity="0.13725490196078433" d="M 86.5 1 L 89 2.5 L 87.5 2 L 86.5 1 Z " /><path fill="rgb(124,125,128)" stroke="rgb(124,125,128)" stroke-width="1" opacity="0.13725490196078433" d="M 45.5 6 L 46 9.5 L 45 9.5 L 45.5 6 Z " /><path fill="rgb(124,125,128)" stroke="rgb(124,125,128)" stroke-width="1" opacity="0.13725490196078433" d="M 27.5 9 L 35 10.5 L 28.5 12 L 28.5 11 L 31 10.5 Q 26.6 10.9 27.5 9 Z " /><path fill="rgb(124,125,128)" stroke="rgb(124,125,128)" stroke-width="1" opacity="0.13725490196078433" d="M 18.5 17 L 19 19.5 L 18 19.5 L 18.5 17 Z " /><path fill="rgb(124,125,128)" stroke="rgb(124,125,128)" stroke-width="1" opacity="0.13725490196078433" d="M 95.5 17 L 96 19.5 L 94 20.5 L 95.5 17 Z " /><path fill="rgb(124,125,128)" stroke="rgb(124,125,128)" stroke-width="1" opacity="0.13725490196078433" d="M 102.5 21 L 108 21.5 L 102.5 22 L 102.5 21 Z " /><path fill="rgb(124,125,128)" stroke="rgb(124,125,128)" stroke-width="1" opacity="0.13725490196078433" d="M 20.5 22 L 23 28.5 L 21 27.5 L 20.5 22 Z " /><path fill="rgb(124,125,128)" stroke="rgb(124,125,128)" stroke-width="1" opacity="0.13725490196078433" d="M 104.5 23 L 109 23.5 L 104.5 24 L 104.5 23 Z " /><path fill="rgb(124,125,128)" stroke="rgb(124,125,128)" stroke-width="1" opacity="0.13725490196078433" d="M 7.5 33 L 11 33.5 L 7.5 34 L 7.5 33 Z " /><path fill="rgb(124,125,128)" stroke="rgb(124,125,128)" stroke-width="1" opacity="0.13725490196078433" d="M 15.5 34 L 18 34.5 L 15.5 35 L 15.5 34 Z " /><path fill="rgb(124,125,128)" stroke="rgb(124,125,128)" stroke-width="1" opacity="0.13725490196078433" d="M 8.5 35 L 11 35.5 L 8.5 36 L 8.5 35 Z " /><path fill="rgb(124,125,128)" stroke="rgb(124,125,128)" stroke-width="1" opacity="0.13725490196078433" d="M 115.5 36 L 116 37.5 L 114 38.5 L 115.5 36 Z " /><path fill="rgb(124,125,128)" stroke="rgb(124,125,128)" stroke-width="1" opacity="0.13725490196078433" d="M 1.5 42 L 2 44.5 L 1 44.5 L 1.5 42 Z " /><path fill="rgb(124,125,128)" stroke="rgb(124,125,128)" stroke-width="1" opacity="0.13725490196078433" d="M 7.5 50 L 8.5 52 L 7.5 50 Z " /><path fill="rgb(124,125,128)" stroke="rgb(124,125,128)" stroke-width="1" opacity="0.13725490196078433" d="M 10.5 57 L 11 60.5 L 10 60.5 L 10.5 57 Z " /><path fill="rgb(124,125,128)" stroke="rgb(124,125,128)" stroke-width="1" opacity="0.13725490196078433" d="M 62.5 58 L 66 59.5 L 65.5 62 L 65 59 Q 61.7 59.8 62.5 58 Z " /><path fill="rgb(124,125,128)" stroke="rgb(124,125,128)" stroke-width="1" opacity="0.13725490196078433" d="M 6.5 61 L 9 61.5 L 6.5 62 L 6.5 61 Z " /><path fill="rgb(124,125,128)" stroke="rgb(124,125,128)" stroke-width="1" opacity="0.13725490196078433" d="M 12.5 62 L 11.5 64 L 8 63.5 L 12.5 62 Z " /><path fill="rgb(124,125,128)" stroke="rgb(124,125,128)" stroke-width="1" opacity="0.13725490196078433" d="M 61.5 62 L 62 65.5 L 61 65.5 L 61.5 62 Z " /><path fill="rgb(124,125,128)" stroke="rgb(124,125,128)" stroke-width="1" opacity="0.13725490196078433" d="M 118.5 66 L 122 66.5 L 118.5 67 L 118.5 66 Z " /><path fill="rgb(124,125,128)" stroke="rgb(124,125,128)" stroke-width="1" opacity="0.13725490196078433" d="M 65.5 67 L 66 68.5 L 64 69.5 L 65.5 67 Z " /><path fill="rgb(124,125,128)" stroke="rgb(124,125,128)" stroke-width="1" opacity="0.13725490196078433" d="M 116.5 67 L 118 70.5 L 117 70.5 L 116.5 67 Z " /><path fill="rgb(124,125,128)" stroke="rgb(124,125,128)" stroke-width="1" opacity="0.13725490196078433" d="M 8.5 78 L 11 78.5 L 8.5 79 L 8.5 78 Z " /><path fill="rgb(124,125,128)" stroke="rgb(124,125,128)" stroke-width="1" opacity="0.13725490196078433" d="M 9.5 81 L 15 81.5 L 9.5 82 L 9.5 81 Z " /><path fill="rgb(124,125,128)" stroke="rgb(124,125,128)" stroke-width="1" opacity="0.13725490196078433" d="M 16.5 86 L 17 87.5 L 15 88.5 L 16.5 86 Z " /><path fill="rgb(124,125,128)" stroke="rgb(124,125,128)" stroke-width="1" opacity="0.13725490196078433" d="M 115.5 92 L 120 92.5 L 115.5 93 L 115.5 92 Z " /><path fill="rgb(124,125,128)" stroke="rgb(124,125,128)" stroke-width="1" opacity="0.13725490196078433" d="M 10.5 93 L 11 94.5 L 9 95.5 L 10.5 93 Z " /><path fill="rgb(124,125,128)" stroke="rgb(124,125,128)" stroke-width="1" opacity="0.13725490196078433" d="M 105.5 94 L 108 94.5 L 105.5 100 Q 102.3 98.3 106 96.5 L 105.5 94 Z " /><path fill="rgb(124,125,128)" stroke="rgb(124,125,128)" stroke-width="1" opacity="0.13725490196078433" d="M 110.5 94 L 121 94.5 L 110.5 95 L 110.5 94 Z " /><path fill="rgb(124,125,128)" stroke="rgb(124,125,128)" stroke-width="1" opacity="0.13725490196078433" d="M 8.5 99 L 11 102.5 L 9 101.5 L 8.5 99 Z " /><path fill="rgb(124,125,128)" stroke="rgb(124,125,128)" stroke-width="1" opacity="0.13725490196078433" d="M 106.5 102 L 108 104.5 L 107 104.5 L 106.5 102 Z " /><path fill="rgb(124,125,128)" stroke="rgb(124,125,128)" stroke-width="1" opacity="0.13725490196078433" d="M 34.5 104 L 36 107.5 L 35 107.5 L 34.5 104 Z " /><path fill="rgb(124,125,128)" stroke="rgb(124,125,128)" stroke-width="1" opacity="0.13725490196078433" d="M 24.5 107 L 27 107.5 L 24.5 108 L 24.5 107 Z " /><path fill="rgb(124,125,128)" stroke="rgb(124,125,128)" stroke-width="1" opacity="0.13725490196078433" d="M 19.5 109 L 23 109.5 L 19.5 110 L 19.5 109 Z " /><path fill="rgb(124,125,128)" stroke="rgb(124,125,128)" stroke-width="1" opacity="0.13725490196078433" d="M 32.5 110 L 33 112.5 L 32 112.5 L 32.5 110 Z " /><path fill="rgb(124,125,128)" stroke="rgb(124,125,128)" stroke-width="1" opacity="0.13725490196078433" d="M 105.5 112 L 107 114.5 L 105.5 114 L 104 113.5 L 105.5 112 Z " /><path fill="rgb(124,125,128)" stroke="rgb(124,125,128)" stroke-width="1" opacity="0.13725490196078433" d="M 56.5 113 L 60 113.5 L 56 114.5 L 59 115.5 Q 57 119 55 114.5 L 56.5 113 Z " /><path fill="rgb(124,125,128)" stroke="rgb(124,125,128)" stroke-width="1" opacity="0.13725490196078433" d="M 83.5 113 L 85 113.5 L 83.5 116 Q 80.5 114.5 83.5 113 Z " /><path fill="rgb(124,125,128)" stroke="rgb(124,125,128)" stroke-width="1" opacity="0.13725490196078433" d="M 98.5 115 L 102 116.5 L 99.5 117 L 98.5 115 Z " /><path fill="rgb(124,125,128)" stroke="rgb(124,125,128)" stroke-width="1" opacity="0.13725490196078433" d="M 83.5 117 L 84 119.5 L 83 119.5 L 83.5 117 Z " /><path fill="rgb(124,125,128)" stroke="rgb(124,125,128)" stroke-width="1" opacity="0.13725490196078433" d="M 97.5 118 L 102 118.5 L 97.5 119 L 97.5 118 Z " /><path fill="rgb(124,125,128)" stroke="rgb(124,125,128)" stroke-width="1" opacity="0.13725490196078433" d="M 32.5 119 L 33.5 121 L 32.5 119 Z " /><path fill="rgb(124,125,128)" stroke="rgb(124,125,128)" stroke-width="1" opacity="0.13725490196078433" d="M 60.5 122 L 61.5 124 L 60.5 122 Z " /><path fill="rgb(124,125,128)" stroke="rgb(124,125,128)" stroke-width="1" opacity="0.13725490196078433" d="M 82.5 123 L 83 125.5 L 82 125.5 L 82.5 123 Z " /><path fill="rgb(124,125,128)" stroke="rgb(124,125,128)" stroke-width="1" opacity="0.13725490196078433" d="M 44.5 124 L 47 124.5 L 44.5 125 L 44.5 124 Z " /><path fill="rgb(124,125,128)" stroke="rgb(124,125,128)" stroke-width="1" opacity="0.13725490196078433" d="M 45.5 126 L 49 126.5 L 45.5 127 L 45.5 126 Z " /><path fill="rgb(124,125,128)" stroke="rgb(124,125,128)" stroke-width="1" opacity="0.13725490196078433" d="M 76.5 126 L 79 126.5 L 76.5 127 L 76.5 126 Z " /><path fill="rgb(0,0,0)" stroke="rgb(0,0,0)" stroke-width="1" opacity="0" d="M 0 0 L 49.5 0 L 53.5 1 L 54.5 0 L 64.5 0 L 66.5 0 L 128 0 L 128 51 L 116.5 49 L 115 47.5 L 114.5 44 L 113.5 46 L 111 42.5 L 111 40.5 L 112.5 38 L 114.5 37 L 116 37.5 L 115 35.5 L 116.5 35 L 118 35.5 Q 118.8 33.3 116.5 34 L 118 31.5 L 119 26.5 L 117.5 27 L 115 25.5 L 116 22.5 L 115 22.5 L 114.5 24 L 110.5 22 Q 109 24.5 103.5 23 L 99.5 25 L 97.5 25 L 94 21.5 L 95.5 22 L 97 21.5 Q 93.7 16.8 95 7.5 L 93.5 6 L 85.5 4 L 77 7 L 72.5 14 L 69 12.5 L 69.5 11 L 70 13 Q 73.8 14.5 73 11.5 L 74 9.5 L 72 10.5 L 71.5 12 L 70.5 7 L 69.5 10 L 67 5.5 L 68 2.5 L 64.5 1 L 50.5 2 L 47 5.5 L 46 14.5 L 46 16.5 Q 46.8 19.1 43.5 18 L 42 15 L 34.5 10 L 31.5 10 L 23.5 15 L 21 15 L 22 24.5 L 21 27.5 L 22 27.5 L 22.5 26 Q 25.5 26.5 25 30.5 L 21.5 35 L 13.5 34 Q 12.3 36.3 7.5 35 L 5.5 37 L 4 36.5 L 5 39.5 Q 1.7 41 3 46 L 6 47.5 Q 5.3 49.8 7.5 49 L 14 53.5 L 12 54.5 L 13 60 Q 9.3 61.4 11 55.5 L 10 55.5 L 10 61 L 12.5 61 L 12.5 62 L 6.5 63 L 0.5 67 L 0 64.5 L 0 0 Z M 86 1 L 86 2 L 88 2 L 86 1 Z M 82 2 L 82 3 L 85 3 L 82 2 Z M 89 2 L 89 3 L 91 3 L 89 2 Z M 46 4 L 44 10 L 45 15 L 46 10 L 46 4 Z M 70 4 L 69 7 L 70 7 L 70 4 Z M 79 4 L 79 5 L 81 5 L 79 4 Z M 92 4 L 92 5 L 94 5 L 92 4 Z M 32 8 L 32 9 L 35 9 L 32 8 Z M 98 8 L 97 17 L 98 17 L 98 8 Z M 28 9 L 28 10 L 31 10 L 28 9 Z M 19 16 L 18 21 L 19 21 L 19 16 Z M 110 20 Q 108 23 103 21 L 103 22 Q 110 23 113 21 L 110 20 Z M 21 22 L 20 25 L 21 25 L 21 22 Z M 98 22 L 98 23 L 101 23 L 98 22 Z M 118 24 L 116 26 L 118 26 L 118 24 Z M 23 28 L 22 32 L 23 32 L 23 28 Z M 120 28 L 119 32 L 120 32 L 120 28 Z M 12 32 L 12 33 Q 17 32 19 34 Q 23 35 22 33 L 21 33 L 12 32 Z M 7 33 L 7 34 L 11 34 L 7 33 Z M 113 39 L 113 44 L 114 44 Q 116 38 113 39 Z M 2 40 L 1 45 L 2 45 L 2 40 Z M 117 46 L 117 47 L 120 47 L 117 46 Z M 121 48 L 121 49 L 125 49 L 121 48 Z M 7 61 L 7 62 L 9 62 L 7 61 Z " /><path fill="rgb(0,0,0)" stroke="rgb(0,0,0)" stroke-width="1" opacity="0" d="M 127.5 52 L 128 60.5 L 127 60.5 L 127.5 52 Z " /><path fill="rgb(0,0,0)" stroke="rgb(0,0,0)" stroke-width="1" opacity="0" d="M 63.5 56 L 66 57 L 68 65.5 L 65.5 71 L 63.5 72 L 61.5 69 L 64.5 70 L 64.5 69 Q 62.3 69.8 63 67.5 L 61.5 68 Q 59.3 68.8 60 66.5 L 60 64.5 L 59 62.5 L 63.5 56 Z M 62 58 L 63 61 L 63 59 L 65 59 L 62 58 Z M 66 59 L 65 62 L 66 62 L 66 59 Z M 62 61 L 61 67 L 62 67 L 62 61 Z M 66 65 L 65 69 L 66 69 L 66 65 Z " /><path fill="rgb(0,0,0)" stroke="rgb(0,0,0)" stroke-width="1" opacity="0" d="M 125.5 62 L 128 63.5 L 128 128 L 66.5 128 L 64.5 127 L 63.5 128 L 0 128 L 0.5 74 L 2.5 78 L 15 79 L 14.5 81 L 7.5 81 L 7.5 82 Q 12.8 80.8 14 83.5 L 14.5 85 L 15 83 Q 18 81.8 17 85.5 L 18 87.5 L 11 95.5 L 9 101.5 L 10.5 101 L 13 102.5 L 15.5 106 L 27.5 108 L 27.5 107 L 25 106.5 L 31.5 103 Q 35.5 103.5 35 108.5 L 33 117.5 L 34 119.5 L 33 121.5 L 34.5 121 L 42.5 123 L 44.5 125 L 48.5 125 L 54 120.5 L 54.5 122 L 56 117.5 L 55 115.5 Q 55.8 113.3 59.5 114 L 59.5 115 L 56 115.5 L 57.5 118 L 58.5 116 L 64.5 126 Q 70 128.5 79.5 127 L 81.5 123 L 82.5 126 Q 85.4 121.7 84 114 L 87 113.5 L 83.5 113 L 82 113.5 Q 82.5 110.5 86.5 111 L 92.5 115 L 101.5 117 L 108 113 L 106 103.5 L 107 103.5 L 107.5 105 L 108 102.5 L 106 98.5 L 107 95.5 L 106 95.5 L 104 98.5 L 104.5 100 Q 101.3 98.3 105 96.5 L 107 92 Q 111.9 93.8 120.5 93 Q 122.3 89.9 124 91.5 L 123 88.5 L 125 86.5 L 126 81.5 L 124.5 82 L 115 75.5 L 116 73.5 L 115 70.5 L 115 68.5 L 116.5 66 Q 122.7 65.7 125.5 62 Z M 119 66 L 116 68 Q 118 69 117 74 L 117 75 Q 120 76 118 69 L 122 67 L 119 66 Z M 3 79 L 3 80 L 5 80 L 3 79 Z M 127 83 L 126 88 L 127 88 L 127 83 Z M 11 92 L 9 96 L 11 95 L 11 92 Z M 110 94 L 110 95 L 122 95 L 110 94 Z M 9 97 L 8 100 L 9 100 L 9 97 Z M 10 102 L 10 104 L 12 103 L 10 102 Z M 110 105 L 110 112 L 111 112 L 110 105 Z M 33 106 L 34 108 Q 35 105 33 106 Z M 33 108 L 32 113 L 33 113 L 33 108 Z M 19 109 L 19 110 L 24 110 L 19 109 Z M 93 117 L 93 118 L 95 118 L 93 117 Z M 97 118 L 97 119 L 103 119 L 97 118 Z M 61 121 L 61 126 L 62 126 L 61 121 Z M 37 123 L 37 124 L 39 124 L 37 123 Z M 41 125 L 41 126 L 43 126 L 41 125 Z M 44 126 L 44 127 L 50 127 L 44 126 Z " /><path fill="rgb(0,0,0)" stroke="rgb(0,0,0)" stroke-width="1" opacity="0" d="M 82.5 115 L 83 121.5 L 82 121.5 L 82.5 115 Z " /><path fill="rgb(64,62,60)" stroke="rgb(64,62,60)" stroke-width="1" opacity="0.9921568627450981" d="M 52.5 14 L 53 16 L 49.5 17 L 50.5 15 L 52.5 14 Z " /><path fill="rgb(64,62,60)" stroke="rgb(64,62,60)" stroke-width="1" opacity="0.9921568627450981" d="M 27.5 22 L 31 26.5 L 31 29.5 L 24.5 37 L 24 35 Q 26.7 36.1 26 33.5 L 27 31 Q 30 32 29 29 L 26 27.5 L 24 23 Q 26.7 21.9 26 24.5 L 27 24.5 L 27.5 22 Z " /><path fill="rgb(64,62,60)" stroke="rgb(64,62,60)" stroke-width="1" opacity="0.9921568627450981" d="M 61.5 22 Q 74.2 20.3 81.5 24 Q 93.1 28.9 100 38.5 Q 104.5 44.5 106 53.5 L 105 53.5 Q 100.1 38.4 88.5 30 L 76.5 24 L 61.5 23 L 61.5 22 Z " /><path fill="rgb(64,62,60)" stroke="rgb(64,62,60)" stroke-width="1" opacity="0.9921568627450981" d="M 59.5 30 Q 71 28.5 77.5 32 Q 86.5 36 92 43.5 Q 98 51 98 64.5 L 96 75.5 Q 92.5 85 85.5 91 L 74.5 97 L 61.5 98 L 57 96.5 L 62.5 96 L 65.5 97 L 77.5 94 L 89 85.5 L 95 74.5 L 96 60.5 L 93 50.5 L 86 40 L 80.5 36 L 70.5 32 L 56 31.5 L 59.5 30 Z " /><path fill="rgb(64,62,60)" stroke="rgb(64,62,60)" stroke-width="1" opacity="0.9921568627450981" d="M 57.5 42 L 59 42.5 L 50.5 48 L 52.5 45 L 57.5 42 Z " /><path fill="rgb(64,62,60)" stroke="rgb(64,62,60)" stroke-width="1" opacity="0.9921568627450981" d="M 6.5 43 L 19 51.5 L 17.5 58 Q 17.6 52.4 13.5 51 L 5 44.5 L 6.5 43 Z " /><path fill="rgb(64,62,60)" stroke="rgb(64,62,60)" stroke-width="1" opacity="0.9921568627450981" d="M 65 53 Q 74 51.9 77 57.5 L 78 63.5 L 75.5 64 L 71.5 65 L 66.5 56 Q 63.5 56.7 65 53 Z " /><path fill="rgb(64,62,60)" stroke="rgb(64,62,60)" stroke-width="1" opacity="0.9921568627450981" d="M 17.5 59 L 18 61.5 L 14.5 64 L 15 62.5 L 17.5 59 Z " /><path fill="rgb(64,62,60)" stroke="rgb(64,62,60)" stroke-width="1" opacity="0.9921568627450981" d="M 43.5 67 L 52 80 L 67 87.5 L 59.5 88 Q 50.3 86.3 46 79.5 L 43 73.5 L 43.5 67 Z " /><path fill="rgb(64,62,60)" stroke="rgb(64,62,60)" stroke-width="1" opacity="0.9921568627450981" d="M 74.5 70 L 76 70.5 Q 73.8 75.3 65.5 74 L 65.5 73 L 69.5 71 L 71.5 71 L 74.5 70 Z " /><path fill="rgb(64,62,60)" stroke="rgb(64,62,60)" stroke-width="1" opacity="0.9921568627450981" d="M 4.5 71 L 5 72.5 L 4 73.5 L 6.5 77 L 3 76 Q 2 72.2 4.5 71 Z " /><path fill="rgb(64,62,60)" stroke="rgb(64,62,60)" stroke-width="1" opacity="0.9921568627450981" d="M 17 78 L 21 79.5 L 24 87.5 L 21.5 91 L 20 90.5 L 21.5 88 Q 19.3 88.8 20 86.5 L 17 78 Z " /><path fill="rgb(64,62,60)" stroke="rgb(64,62,60)" stroke-width="1" opacity="0.9921568627450981" d="M 42.5 87 L 46.5 92 L 42.5 87 Z " /><path fill="rgb(64,62,60)" stroke="rgb(64,62,60)" stroke-width="1" opacity="0.9921568627450981" d="M 12.5 99 L 14.5 99 L 20 104.5 L 17.5 105 L 15 104 L 12.5 99 Z " /><path fill="rgb(64,62,60)" stroke="rgb(64,62,60)" stroke-width="1" opacity="0.9921568627450981" d="M 32 101 L 34.5 101 L 41 105 L 42 107.5 L 40.5 110 L 40 108 L 36 105.5 Q 36.8 103.3 34.5 104 L 32 103 L 32 101 Z " /><path fill="rgb(64,62,60)" stroke="rgb(64,62,60)" stroke-width="1" opacity="0.9921568627450981" d="M 88.5 108 Q 92.3 107.3 93 109.5 Q 92.3 111.8 94.5 111 L 97.5 115 Q 90.4 114.1 87 109.5 L 88.5 108 Z " /><path fill="rgb(64,62,60)" stroke="rgb(64,62,60)" stroke-width="1" opacity="0.9921568627450981" d="M 62.5 113 L 67 115.5 L 67 119.5 L 70 125.5 L 68.5 125 Q 64.5 125.5 64 122.5 L 61 114.5 L 62.5 113 Z M 64 116 L 65 118 Q 66 115 64 116 Z " /><path fill="rgb(134,141,149)" stroke="rgb(134,141,149)" stroke-width="1" opacity="0.996078431372549" d="M 53.5 8 L 54 10.5 L 53 10.5 L 53.5 8 Z " /><path fill="rgb(134,141,149)" stroke="rgb(134,141,149)" stroke-width="1" opacity="0.996078431372549" d="M 82.5 9 L 81.5 11 L 82.5 9 Z " /><path fill="rgb(134,141,149)" stroke="rgb(134,141,149)" stroke-width="1" opacity="0.996078431372549" d="M 29.5 13 L 27.5 16 L 29.5 13 Z " /><path fill="rgb(134,141,149)" stroke="rgb(134,141,149)" stroke-width="1" opacity="0.996078431372549" d="M 74.5 14 L 77 15.5 L 75.5 16 L 74.5 14 Z " /><path fill="rgb(134,141,149)" stroke="rgb(134,141,149)" stroke-width="1" opacity="0.996078431372549" d="M 79.5 14 L 78.5 16 L 79.5 14 Z " /><path fill="rgb(134,141,149)" stroke="rgb(134,141,149)" stroke-width="1" opacity="0.996078431372549" d="M 53.5 15 L 52.5 17 L 53.5 15 Z " /><path fill="rgb(134,141,149)" stroke="rgb(134,141,149)" stroke-width="1" opacity="0.996078431372549" d="M 58.5 24 Q 69.4 22.6 76.5 25 L 92 34 L 102 50.5 L 105 59.5 L 106 68.5 L 105 72.5 L 106 72.5 L 106.5 70 L 107 73.5 L 101.5 86 L 100 85.5 L 101 87.5 Q 99 85.8 97 89.5 L 92.5 95 L 87.5 98 L 94 90.5 L 93.5 89 L 86.5 96 L 78.5 100 L 68.5 102 L 61.5 102 L 60.5 103 L 60.5 101 L 50.5 100 L 38 91.5 Q 28.3 82.2 27.5 64 L 26.5 72 L 26 56.5 L 27 56.5 L 27.5 61 L 28 55.5 L 27 51.5 L 30.5 44 L 32 44.5 L 31 42.5 L 34 41.5 L 33.5 40 L 32 40.5 L 36 38.5 L 35.5 37 L 34 37.5 Q 35.3 34.8 36.5 37 L 42 31.5 Q 39.3 29.7 43.5 28 L 42.5 31 Q 48.9 25.9 58.5 24 Z M 63 28 L 54 30 L 43 37 L 36 47 L 32 61 L 33 76 L 37 84 L 48 93 L 49 96 L 51 95 L 51 97 L 53 96 L 57 98 L 56 98 L 56 99 L 59 98 L 61 99 L 60 99 L 60 100 L 72 100 L 70 99 L 70 98 L 73 99 Q 81 98 86 94 Q 96 86 100 72 L 100 58 L 99 68 L 98 55 Q 96 45 90 40 Q 82 28 63 28 Z " /><path fill="rgb(134,141,149)" stroke="rgb(134,141,149)" stroke-width="1" opacity="0.996078431372549" d="M 46.5 26 L 45.5 28 L 46.5 26 Z " /><path fill="rgb(134,141,149)" stroke="rgb(134,141,149)" stroke-width="1" opacity="0.996078431372549" d="M 103.5 26 L 102.5 28 L 103.5 26 Z " /><path fill="rgb(134,141,149)" stroke="rgb(134,141,149)" stroke-width="1" opacity="0.996078431372549" d="M 59.5 33 L 73.5 34 L 80 37.5 L 78 38.5 L 81 40 L 81 42 Q 83.7 40.9 83 43.5 L 83.5 45 L 80.5 42 L 73.5 39 L 60.5 39 L 52.5 43 L 46 49.5 L 37.5 68 Q 34.9 68.8 36 65.5 Q 33.5 64 35 58.5 Q 37.6 45.6 46.5 39 Q 51.3 34.3 59.5 33 Z " /><path fill="rgb(134,141,149)" stroke="rgb(134,141,149)" stroke-width="1" opacity="0.996078431372549" d="M 27.5 35 L 25.5 38 L 27.5 35 Z " /><path fill="rgb(134,141,149)" stroke="rgb(134,141,149)" stroke-width="1" opacity="0.996078431372549" d="M 99.5 37 L 100.5 39 L 99.5 37 Z " /><path fill="rgb(134,141,149)" stroke="rgb(134,141,149)" stroke-width="1" opacity="0.996078431372549" d="M 71.5 41 L 74 41.5 L 71.5 42 L 71.5 41 Z " /><path fill="rgb(134,141,149)" stroke="rgb(134,141,149)" stroke-width="1" opacity="0.996078431372549" d="M 80.5 44 L 86.5 51 L 80.5 44 Z " /><path fill="rgb(134,141,149)" stroke="rgb(134,141,149)" stroke-width="1" opacity="0.996078431372549" d="M 67.5 51 L 70 51.5 L 67.5 52 L 67.5 51 Z " /><path fill="rgb(134,141,149)" stroke="rgb(134,141,149)" stroke-width="1" opacity="0.996078431372549" d="M 72.5 52 L 76 54.5 L 73.5 53 L 72.5 52 Z " /><path fill="rgb(134,141,149)" stroke="rgb(134,141,149)" stroke-width="1" opacity="0.996078431372549" d="M 87.5 52 L 90 57.5 L 89 57.5 L 87.5 52 Z " /><path fill="rgb(134,141,149)" stroke="rgb(134,141,149)" stroke-width="1" opacity="0.996078431372549" d="M 48.5 53 L 48 54.5 L 47.5 56 L 47 54.5 L 48.5 53 Z " /><path fill="rgb(134,141,149)" stroke="rgb(134,141,149)" stroke-width="1" opacity="0.996078431372549" d="M 62.5 53 L 61.5 55 L 62.5 53 Z " /><path fill="rgb(134,141,149)" stroke="rgb(134,141,149)" stroke-width="1" opacity="0.996078431372549" d="M 107.5 55 L 108 67.5 L 107 67.5 L 107.5 55 Z " /><path fill="rgb(134,141,149)" stroke="rgb(134,141,149)" stroke-width="1" opacity="0.996078431372549" d="M 77.5 56 L 79 58.5 L 78 58.5 L 77.5 56 Z " /><path fill="rgb(134,141,149)" stroke="rgb(134,141,149)" stroke-width="1" opacity="0.996078431372549" d="M 90.5 59 L 91 67.5 L 88.5 72 L 89 70.5 L 90.5 59 Z " /><path fill="rgb(134,141,149)" stroke="rgb(134,141,149)" stroke-width="1" opacity="0.996078431372549" d="M 116.5 63 L 119 63.5 L 116.5 64 L 116.5 63 Z " /><path fill="rgb(134,141,149)" stroke="rgb(134,141,149)" stroke-width="1" opacity="0.996078431372549" d="M 87.5 73 L 87 74.5 L 80.5 82 L 86 75.5 L 87.5 73 Z " /><path fill="rgb(134,141,149)" stroke="rgb(134,141,149)" stroke-width="1" opacity="0.996078431372549" d="M 27.5 74 L 28 76.5 L 27 76.5 L 27.5 74 Z " /><path fill="rgb(134,141,149)" stroke="rgb(134,141,149)" stroke-width="1" opacity="0.996078431372549" d="M 50.5 75 L 51.5 77 L 50.5 75 Z " /><path fill="rgb(134,141,149)" stroke="rgb(134,141,149)" stroke-width="1" opacity="0.996078431372549" d="M 15.5 77 L 18 77.5 L 15.5 78 L 15.5 77 Z " /><path fill="rgb(134,141,149)" stroke="rgb(134,141,149)" stroke-width="1" opacity="0.996078431372549" d="M 28.5 78 L 30 81.5 L 29 81.5 L 28.5 78 Z " /><path fill="rgb(134,141,149)" stroke="rgb(134,141,149)" stroke-width="1" opacity="0.996078431372549" d="M 56.5 81 L 57.5 83 L 56.5 81 Z " /><path fill="rgb(134,141,149)" stroke="rgb(134,141,149)" stroke-width="1" opacity="0.996078431372549" d="M 72.5 84 L 75 84.5 L 72.5 85 L 72.5 84 Z " /><path fill="rgb(134,141,149)" stroke="rgb(134,141,149)" stroke-width="1" opacity="0.996078431372549" d="M 90.5 86 L 85.5 92 L 90.5 86 Z " /><path fill="rgb(134,141,149)" stroke="rgb(134,141,149)" stroke-width="1" opacity="0.996078431372549" d="M 32.5 87 L 33.5 89 L 32.5 87 Z " /><path fill="rgb(134,141,149)" stroke="rgb(134,141,149)" stroke-width="1" opacity="0.996078431372549" d="M 99.5 89 L 98.5 91 L 99.5 89 Z " /><path fill="rgb(134,141,149)" stroke="rgb(134,141,149)" stroke-width="1" opacity="0.996078431372549" d="M 34.5 90 L 36.5 93 L 34.5 90 Z " /><path fill="rgb(134,141,149)" stroke="rgb(134,141,149)" stroke-width="1" opacity="0.996078431372549" d="M 113.5 90 L 120 90.5 L 113.5 91 L 113.5 90 Z " /><path fill="rgb(134,141,149)" stroke="rgb(134,141,149)" stroke-width="1" opacity="0.996078431372549" d="M 20.5 92 L 19.5 94 L 20.5 92 Z " /><path fill="rgb(134,141,149)" stroke="rgb(134,141,149)" stroke-width="1" opacity="0.996078431372549" d="M 104.5 93 L 103.5 95 L 104.5 93 Z " /><path fill="rgb(134,141,149)" stroke="rgb(134,141,149)" stroke-width="1" opacity="0.996078431372549" d="M 95.5 94 L 94.5 96 L 95.5 94 Z " /><path fill="rgb(134,141,149)" stroke="rgb(134,141,149)" stroke-width="1" opacity="0.996078431372549" d="M 40.5 96 L 43.5 100 L 40.5 96 Z " /><path fill="rgb(134,141,149)" stroke="rgb(134,141,149)" stroke-width="1" opacity="0.996078431372549" d="M 36.5 101 L 37.5 103 L 36.5 101 Z " /><path fill="rgb(134,141,149)" stroke="rgb(134,141,149)" stroke-width="1" opacity="0.996078431372549" d="M 47.5 101 L 48.5 103 L 47.5 101 Z " /><path fill="rgb(134,141,149)" stroke="rgb(134,141,149)" stroke-width="1" opacity="0.996078431372549" d="M 19.5 103 L 20.5 105 L 19.5 103 Z " /><path fill="rgb(134,141,149)" stroke="rgb(134,141,149)" stroke-width="1" opacity="0.996078431372549" d="M 40.5 104 L 42.5 107 L 40.5 104 Z " /><path fill="rgb(134,141,149)" stroke="rgb(134,141,149)" stroke-width="1" opacity="0.996078431372549" d="M 60.5 106 L 63 106.5 L 60.5 107 L 60.5 106 Z " /><path fill="rgb(134,141,149)" stroke="rgb(134,141,149)" stroke-width="1" opacity="0.996078431372549" d="M 71.5 106 L 74 106.5 L 71.5 107 L 71.5 106 Z " /><path fill="rgb(134,141,149)" stroke="rgb(134,141,149)" stroke-width="1" opacity="0.996078431372549" d="M 83.5 109 L 82.5 111 L 83.5 109 Z " /><path fill="rgb(134,141,149)" stroke="rgb(134,141,149)" stroke-width="1" opacity="0.996078431372549" d="M 104.5 111 L 106 111.5 L 100.5 115 L 99.5 113 L 101.5 114 L 104.5 111 Z " /><path fill="rgb(134,141,149)" stroke="rgb(134,141,149)" stroke-width="1" opacity="0.996078431372549" d="M 40.5 112 L 41 119.5 L 42.5 121 L 44 121.5 L 42.5 122 Q 37.8 119.8 40.5 112 Z " /><path fill="rgb(134,141,149)" stroke="rgb(134,141,149)" stroke-width="1" opacity="0.996078431372549" d="M 59.5 112 L 64 112.5 L 59.5 113 L 59.5 112 Z " /><path fill="rgb(134,141,149)" stroke="rgb(134,141,149)" stroke-width="1" opacity="0.996078431372549" d="M 66.5 113 L 67.5 115 L 66.5 113 Z " /><path fill="rgb(134,141,149)" stroke="rgb(134,141,149)" stroke-width="1" opacity="0.996078431372549" d="M 52.5 117 L 52 118.5 L 48.5 123 L 51 119.5 L 52.5 117 Z " /><path fill="rgb(134,141,149)" stroke="rgb(134,141,149)" stroke-width="1" opacity="0.996078431372549" d="M 70.5 123 L 72 125.5 L 71 125.5 L 70.5 123 Z " /><path fill="rgb(134,141,149)" stroke="rgb(134,141,149)" stroke-width="1" opacity="0.996078431372549" d="M 77.5 124 L 79 124.5 Q 78.3 126.8 74.5 126 L 74.5 125 L 77.5 124 Z " /><path fill="rgb(230,235,236)" stroke="rgb(230,235,236)" stroke-width="1" opacity="0.07450980392156863" d="M 65.5 0 Q 68.5 0.5 68 4.5 L 68 6.5 L 69.5 13 L 70 7.5 L 69 4.5 L 70 4.5 L 71 12.5 Q 69.5 15.5 68 12.5 Q 67.4 5.1 63 1.5 L 65.5 0 Z " /><path fill="rgb(230,235,236)" stroke="rgb(230,235,236)" stroke-width="1" opacity="0.07450980392156863" d="M 54.5 1 L 58 1.5 L 54.5 2 L 54.5 1 Z " /><path fill="rgb(230,235,236)" stroke="rgb(230,235,236)" stroke-width="1" opacity="0.07450980392156863" d="M 50.5 2 L 52 2.5 L 49 4.5 L 47 14.5 Q 49.3 15.8 46.5 17 L 46 14.5 L 47 5.5 L 50.5 2 Z " /><path fill="rgb(230,235,236)" stroke="rgb(230,235,236)" stroke-width="1" opacity="0.07450980392156863" d="M 78.5 4 L 77.5 6 L 78.5 4 Z " /><path fill="rgb(230,235,236)" stroke="rgb(230,235,236)" stroke-width="1" opacity="0.07450980392156863" d="M 85.5 4 L 88 4.5 L 85.5 5 L 85.5 4 Z " /><path fill="rgb(230,235,236)" stroke="rgb(230,235,236)" stroke-width="1" opacity="0.07450980392156863" d="M 93.5 4 L 95 7.5 L 94.5 18 L 94 8.5 L 92.5 7 L 89 5.5 L 90.5 5 L 93.5 6 L 93.5 4 Z " /><path fill="rgb(230,235,236)" stroke="rgb(230,235,236)" stroke-width="1" opacity="0.07450980392156863" d="M 77.5 7 L 78 8.5 L 74 11.5 L 77.5 7 Z " /><path fill="rgb(230,235,236)" stroke="rgb(230,235,236)" stroke-width="1" opacity="0.07450980392156863" d="M 31.5 8 Q 37 7.5 39 10.5 L 37 11.5 L 41 13.5 Q 38.3 15.3 42.5 17 L 44 16.5 L 42.5 18 L 37.5 13 L 34 11.5 L 37 10.5 L 31.5 9 L 31.5 8 Z " /><path fill="rgb(230,235,236)" stroke="rgb(230,235,236)" stroke-width="1" opacity="0.07450980392156863" d="M 97.5 8 L 98 14.5 L 97 14.5 L 97.5 8 Z " /><path fill="rgb(230,235,236)" stroke="rgb(230,235,236)" stroke-width="1" opacity="0.07450980392156863" d="M 44.5 9 L 45 14.5 L 44 14.5 L 44.5 9 Z " /><path fill="rgb(230,235,236)" stroke="rgb(230,235,236)" stroke-width="1" opacity="0.07450980392156863" d="M 73.5 9 L 73 10.5 L 72.5 12 L 72 10.5 L 73.5 9 Z " /><path fill="rgb(230,235,236)" stroke="rgb(230,235,236)" stroke-width="1" opacity="0.07450980392156863" d="M 23.5 12 L 25.5 13 L 27.5 12 L 27.5 13 L 25.5 14 L 23.5 12 Z " /><path fill="rgb(230,235,236)" stroke="rgb(230,235,236)" stroke-width="1" opacity="0.07450980392156863" d="M 73.5 13 L 72.5 15 L 71 14.5 L 73.5 13 Z " /><path fill="rgb(230,235,236)" stroke="rgb(230,235,236)" stroke-width="1" opacity="0.07450980392156863" d="M 21 15 L 23 15.5 L 21 16.5 L 21 15 Z " /><path fill="rgb(230,235,236)" stroke="rgb(230,235,236)" stroke-width="1" opacity="0.07450980392156863" d="M 21.5 19 L 22 21.5 L 21 21.5 L 21.5 19 Z " /><path fill="rgb(230,235,236)" stroke="rgb(230,235,236)" stroke-width="1" opacity="0.07450980392156863" d="M 93 19 L 99 22.5 L 97.5 23 L 95.5 22 L 97.5 25 L 99 24.5 Q 99.8 26.8 97.5 26 L 93 22.5 L 93 19 Z " /><path fill="rgb(230,235,236)" stroke="rgb(230,235,236)" stroke-width="1" opacity="0.07450980392156863" d="M 109.5 20 L 111 20.5 L 108.5 22 L 109.5 20 Z " /><path fill="rgb(230,235,236)" stroke="rgb(230,235,236)" stroke-width="1" opacity="0.07450980392156863" d="M 113.5 21 L 116 22.5 L 115 25.5 L 118 24.5 L 116.5 27 L 118.5 26 L 120 31.5 L 117.5 35 Q 114.2 33.9 115 36.5 L 113 37.5 L 117 29.5 L 111 22.5 L 113.5 21 Z M 114 22 L 115 24 Q 116 21 114 22 Z M 119 28 L 118 32 L 119 32 L 119 28 Z M 118 32 L 116 34 L 118 34 L 118 32 Z " /><path fill="rgb(230,235,236)" stroke="rgb(230,235,236)" stroke-width="1" opacity="0.07450980392156863" d="M 103.5 23 L 102.5 25 L 101 24.5 L 103.5 23 Z " /><path fill="rgb(230,235,236)" stroke="rgb(230,235,236)" stroke-width="1" opacity="0.07450980392156863" d="M 22.5 24 L 25 27.5 L 22 25.5 L 22.5 24 Z " /><path fill="rgb(230,235,236)" stroke="rgb(230,235,236)" stroke-width="1" opacity="0.07450980392156863" d="M 25.5 29 L 26 30.5 L 21.5 36 L 17 35.5 L 22 34.5 L 11 32.5 L 18.5 32 L 20.5 33 L 22 32.5 L 22.5 34 L 25.5 29 Z " /><path fill="rgb(230,235,236)" stroke="rgb(230,235,236)" stroke-width="1" opacity="0.07450980392156863" d="M 14.5 34 L 15.5 36 L 12 35.5 L 14.5 34 Z " /><path fill="rgb(230,235,236)" stroke="rgb(230,235,236)" stroke-width="1" opacity="0.07450980392156863" d="M 7.5 35 L 6 37.5 L 5.5 39 L 5 37.5 L 7.5 35 Z " /><path fill="rgb(230,235,236)" stroke="rgb(230,235,236)" stroke-width="1" opacity="0.07450980392156863" d="M 110.5 39 Q 110 44.5 113.5 46 L 115 46.5 L 113 47 L 113.5 49 L 115.5 48 L 120 49.5 L 116.5 50 L 114.5 49 Q 113.3 51.3 112 48.5 L 110 43.5 L 110.5 39 Z " /><path fill="rgb(230,235,236)" stroke="rgb(230,235,236)" stroke-width="1" opacity="0.07450980392156863" d="M 112.5 39 Q 115.9 38.1 114 43.5 L 114.5 45 L 112.5 39 Z " /><path fill="rgb(230,235,236)" stroke="rgb(230,235,236)" stroke-width="1" opacity="0.07450980392156863" d="M 4.5 40 L 5 41.5 L 4 44.5 L 7 48.5 L 6 48.5 L 4.5 46 Q 1.1 46.9 3 41.5 L 4.5 40 Z " /><path fill="rgb(230,235,236)" stroke="rgb(230,235,236)" stroke-width="1" opacity="0.07450980392156863" d="M 116.5 46 L 120 46.5 L 116.5 47 L 116.5 46 Z " /><path fill="rgb(230,235,236)" stroke="rgb(230,235,236)" stroke-width="1" opacity="0.07450980392156863" d="M 121.5 48 L 125 48.5 L 121.5 49 L 121.5 48 Z " /><path fill="rgb(230,235,236)" stroke="rgb(230,235,236)" stroke-width="1" opacity="0.07450980392156863" d="M 8.5 49 L 9.5 51 L 8.5 49 Z " /><path fill="rgb(230,235,236)" stroke="rgb(230,235,236)" stroke-width="1" opacity="0.07450980392156863" d="M 121.5 50 L 128 51.5 L 126.5 55 L 126 52 L 121.5 51 L 121.5 50 Z " /><path fill="rgb(230,235,236)" stroke="rgb(230,235,236)" stroke-width="1" opacity="0.07450980392156863" d="M 12.5 51 L 13.5 53 L 12.5 51 Z " /><path fill="rgb(230,235,236)" stroke="rgb(230,235,236)" stroke-width="1" opacity="0.07450980392156863" d="M 13.5 54 L 14 58.5 L 13 58.5 L 13.5 54 Z " /><path fill="rgb(230,235,236)" stroke="rgb(230,235,236)" stroke-width="1" opacity="0.07450980392156863" d="M 63.5 55 L 64.5 57 Q 62.8 54.3 61 58.5 L 59.5 62 L 59 60.5 L 63.5 55 Z " /><path fill="rgb(230,235,236)" stroke="rgb(230,235,236)" stroke-width="1" opacity="0.07450980392156863" d="M 62.5 59 L 63 60.5 L 61 61.5 L 62.5 59 Z " /><path fill="rgb(230,235,236)" stroke="rgb(230,235,236)" stroke-width="1" opacity="0.07450980392156863" d="M 67 60 L 69 60.5 L 69 68 Q 66.3 69.1 67 66.5 L 68 62.5 L 67 60 Z " /><path fill="rgb(230,235,236)" stroke="rgb(230,235,236)" stroke-width="1" opacity="0.07450980392156863" d="M 126.5 61 Q 128.8 60.3 128 62.5 L 126 63.5 L 126.5 61 Z " /><path fill="rgb(230,235,236)" stroke="rgb(230,235,236)" stroke-width="1" opacity="0.07450980392156863" d="M 6.5 63 L 8 63.5 L 5.5 65 L 6.5 63 Z " /><path fill="rgb(230,235,236)" stroke="rgb(230,235,236)" stroke-width="1" opacity="0.07450980392156863" d="M 122.5 63 L 121.5 65 L 122.5 63 Z " /><path fill="rgb(230,235,236)" stroke="rgb(230,235,236)" stroke-width="1" opacity="0.07450980392156863" d="M 1.5 66 L 1 67.5 L 0.5 74 L 0 67.5 L 1.5 66 Z " /><path fill="rgb(230,235,236)" stroke="rgb(230,235,236)" stroke-width="1" opacity="0.07450980392156863" d="M 59.5 66 L 60 68 L 62 67.5 L 61.5 66 L 64 69.5 L 61.5 71 Q 57.8 69.8 59.5 66 Z " /><path fill="rgb(230,235,236)" stroke="rgb(230,235,236)" stroke-width="1" opacity="0.07450980392156863" d="M 67.5 69 L 65.5 72 L 63.5 73 L 64.5 71 L 67.5 69 Z " /><path fill="rgb(230,235,236)" stroke="rgb(230,235,236)" stroke-width="1" opacity="0.07450980392156863" d="M 114.5 71 L 116 73.5 L 115 75.5 L 115.5 77 Q 112.6 75.6 114.5 71 Z " /><path fill="rgb(230,235,236)" stroke="rgb(230,235,236)" stroke-width="1" opacity="0.07450980392156863" d="M 1.5 76 L 4 77.5 L 2.5 78 L 1.5 76 Z " /><path fill="rgb(230,235,236)" stroke="rgb(230,235,236)" stroke-width="1" opacity="0.07450980392156863" d="M 117.5 77 L 119.5 78 L 121.5 77 L 124 80.5 L 123.5 82 L 125.5 81 L 126 82.5 L 123.5 88 L 123 86.5 L 124 84.5 L 119.5 79 L 117.5 77 Z M 121 78 L 122 80 Q 123 77 121 78 Z " /><path fill="rgb(230,235,236)" stroke="rgb(230,235,236)" stroke-width="1" opacity="0.07450980392156863" d="M 15.5 80 L 17 83 L 13 82.5 L 15 82 L 15.5 80 Z " /><path fill="rgb(230,235,236)" stroke="rgb(230,235,236)" stroke-width="1" opacity="0.07450980392156863" d="M 126.5 87 L 126 88.5 L 125.5 90 L 125 88.5 L 126.5 87 Z " /><path fill="rgb(230,235,236)" stroke="rgb(230,235,236)" stroke-width="1" opacity="0.07450980392156863" d="M 17.5 88 L 14.5 92 L 17.5 88 Z " /><path fill="rgb(230,235,236)" stroke="rgb(230,235,236)" stroke-width="1" opacity="0.07450980392156863" d="M 122.5 89 L 123.5 91 L 120.5 93 L 122 90.5 L 122.5 89 Z " /><path fill="rgb(230,235,236)" stroke="rgb(230,235,236)" stroke-width="1" opacity="0.07450980392156863" d="M 107.5 91 Q 111.3 90.3 112 92.5 L 110.5 92 Q 106.1 90.5 107 93.5 L 106 93.5 L 107.5 91 Z " /><path fill="rgb(230,235,236)" stroke="rgb(230,235,236)" stroke-width="1" opacity="0.07450980392156863" d="M 13.5 93 L 12 95.5 L 10.5 101 L 10 97.5 L 13.5 93 Z " /><path fill="rgb(230,235,236)" stroke="rgb(230,235,236)" stroke-width="1" opacity="0.07450980392156863" d="M 104.5 95 L 105 96.5 L 103 97.5 L 104.5 95 Z " /><path fill="rgb(230,235,236)" stroke="rgb(230,235,236)" stroke-width="1" opacity="0.07450980392156863" d="M 103.5 99 L 107 100 L 108 102.5 L 106 102.5 L 107 107.5 L 106 107.5 L 103.5 99 Z " /><path fill="rgb(230,235,236)" stroke="rgb(230,235,236)" stroke-width="1" opacity="0.07450980392156863" d="M 12.5 101 L 10.5 104 L 12.5 101 Z " /><path fill="rgb(230,235,236)" stroke="rgb(230,235,236)" stroke-width="1" opacity="0.07450980392156863" d="M 13.5 103 L 15.5 106 L 13 104.5 L 12.5 106 L 12 104.5 L 13.5 103 Z " /><path fill="rgb(230,235,236)" stroke="rgb(230,235,236)" stroke-width="1" opacity="0.07450980392156863" d="M 32.5 103 L 34.5 106 L 32.5 103 Z " /><path fill="rgb(230,235,236)" stroke="rgb(230,235,236)" stroke-width="1" opacity="0.07450980392156863" d="M 109.5 105 L 111 111.5 L 110 111.5 L 109.5 105 Z " /><path fill="rgb(230,235,236)" stroke="rgb(230,235,236)" stroke-width="1" opacity="0.07450980392156863" d="M 35.5 108 L 35 109.5 L 34.5 111 L 34 109.5 L 35.5 108 Z " /><path fill="rgb(230,235,236)" stroke="rgb(230,235,236)" stroke-width="1" opacity="0.07450980392156863" d="M 107.5 109 L 108 113 L 106 112.5 L 107.5 109 Z " /><path fill="rgb(230,235,236)" stroke="rgb(230,235,236)" stroke-width="1" opacity="0.07450980392156863" d="M 85.5 110 L 89 112.5 L 86.5 111 L 85.5 110 Z " /><path fill="rgb(230,235,236)" stroke="rgb(230,235,236)" stroke-width="1" opacity="0.07450980392156863" d="M 83.5 111 L 82 113.5 L 81.5 117 L 81 113.5 L 83.5 111 Z " /><path fill="rgb(230,235,236)" stroke="rgb(230,235,236)" stroke-width="1" opacity="0.07450980392156863" d="M 33.5 114 L 34 117.5 L 33 117.5 L 33.5 114 Z " /><path fill="rgb(230,235,236)" stroke="rgb(230,235,236)" stroke-width="1" opacity="0.07450980392156863" d="M 103.5 114 L 102.5 116 L 103.5 114 Z " /><path fill="rgb(230,235,236)" stroke="rgb(230,235,236)" stroke-width="1" opacity="0.07450980392156863" d="M 59.5 115 L 61 118.5 L 59 117.5 L 59.5 115 Z " /><path fill="rgb(230,235,236)" stroke="rgb(230,235,236)" stroke-width="1" opacity="0.07450980392156863" d="M 96.5 115 L 99 116.5 L 97.5 116 L 96.5 115 Z " /><path fill="rgb(230,235,236)" stroke="rgb(230,235,236)" stroke-width="1" opacity="0.07450980392156863" d="M 81.5 118 L 82.5 122 L 83.5 120 L 84 123 Q 79.9 121.3 81 125.5 L 79 126.5 L 81.5 118 Z " /><path fill="rgb(230,235,236)" stroke="rgb(230,235,236)" stroke-width="1" opacity="0.07450980392156863" d="M 34.5 119 L 35 120.5 L 33 121.5 L 34.5 119 Z " /><path fill="rgb(230,235,236)" stroke="rgb(230,235,236)" stroke-width="1" opacity="0.07450980392156863" d="M 53.5 119 L 56 119.5 L 51.5 122 L 53.5 119 Z " /><path fill="rgb(230,235,236)" stroke="rgb(230,235,236)" stroke-width="1" opacity="0.07450980392156863" d="M 61.5 120 L 60.5 122 L 61.5 120 Z " /><path fill="rgb(230,235,236)" stroke="rgb(230,235,236)" stroke-width="1" opacity="0.07450980392156863" d="M 49.5 123 L 48.5 125 L 49.5 123 Z " /><path fill="rgb(230,235,236)" stroke="rgb(230,235,236)" stroke-width="1" opacity="0.07450980392156863" d="M 60.5 123 L 62 125.5 L 61 125.5 L 60.5 123 Z " /><path fill="rgb(230,235,236)" stroke="rgb(230,235,236)" stroke-width="1" opacity="0.07450980392156863" d="M 63.5 124 L 64.5 126 L 63.5 124 Z " /><path fill="rgb(187,196,206)" stroke="rgb(187,196,206)" stroke-width="1" opacity="0.9921568627450981" d="M 54.5 8 L 55 10.5 L 54 10.5 L 54.5 8 Z " /><path fill="rgb(187,196,206)" stroke="rgb(187,196,206)" stroke-width="1" opacity="0.9921568627450981" d="M 86.5 9 L 85.5 11 L 86.5 9 Z " /><path fill="rgb(187,196,206)" stroke="rgb(187,196,206)" stroke-width="1" opacity="0.9921568627450981" d="M 30.5 13 L 29.5 15 L 30.5 13 Z " /><path fill="rgb(187,196,206)" stroke="rgb(187,196,206)" stroke-width="1" opacity="0.9921568627450981" d="M 80.5 14 L 79.5 16 L 80.5 14 Z " /><path fill="rgb(187,196,206)" stroke="rgb(187,196,206)" stroke-width="1" opacity="0.9921568627450981" d="M 92.5 14 Q 95.5 15.5 92.5 17 L 92.5 14 Z " /><path fill="rgb(187,196,206)" stroke="rgb(187,196,206)" stroke-width="1" opacity="0.9921568627450981" d="M 91.5 18 L 92 22.5 L 91.5 24 L 94.5 26 L 96 25.5 L 95.5 27 Q 97.8 26.3 97 28.5 L 98.5 28 L 100 28.5 L 98 29.5 L 100.5 31 L 103 29.5 Q 100.8 28.3 103.5 27 L 103.5 29 L 106 27.5 L 105.5 26 L 107.5 27 L 107.5 25 L 110.5 24 L 110.5 25 L 109 25.5 L 116 28.5 Q 113.8 36.3 108 40.5 L 112 50 Q 115 52 122.5 51 L 126 53 L 125.5 58 L 125 54 L 116.5 53 L 114.5 53 L 112 53.5 Q 114.3 54.8 111.5 56 L 110.5 52 L 110 70.5 L 108.5 75 L 107 72.5 L 109 65.5 L 109 57.5 L 106 47.5 L 106.5 46 L 105 45.5 L 105.5 44 Q 102.5 44.9 104 40.5 L 102 40.5 L 103 38.5 L 100 37.5 Q 102.5 36 99 34.5 L 92.5 27 L 85.5 22 L 80 20.5 L 82.5 20 L 84.5 20 L 87.5 20 L 91 22 L 91.5 18 Z M 110 47 L 109 50 L 110 50 L 110 47 Z " /><path fill="rgb(187,196,206)" stroke="rgb(187,196,206)" stroke-width="1" opacity="0.9921568627450981" d="M 43.5 19 L 44.5 21 L 43.5 19 Z " /><path fill="rgb(187,196,206)" stroke="rgb(187,196,206)" stroke-width="1" opacity="0.9921568627450981" d="M 9.5 41 L 14 46.5 L 9 42.5 L 9.5 41 Z " /><path fill="rgb(187,196,206)" stroke="rgb(187,196,206)" stroke-width="1" opacity="0.9921568627450981" d="M 14.5 44 L 15.5 46 L 14.5 44 Z " /><path fill="rgb(187,196,206)" stroke="rgb(187,196,206)" stroke-width="1" opacity="0.9921568627450981" d="M 64.5 45 Q 78.3 43.2 83.5 50 Q 84.8 47.8 86 50.5 L 85 52.5 L 87 52.5 L 86.5 54 Q 89.1 53.2 88 56.5 L 89 62 Q 86.3 63.1 87 60.5 L 86 60.5 L 84 69.5 L 80 76 L 71.5 80 L 66.5 80 L 53 74 L 54 76.5 L 51 74.5 L 48 68.5 L 50 68.5 L 49 62.5 L 53 52 L 56 50.5 Q 55.3 48.3 57.5 49 L 60 48 Q 58.7 44.7 63.5 46 L 64.5 45 Z M 67 50 L 59 54 L 56 61 Q 55 68 58 67 L 59 70 Q 58 72 61 71 L 60 74 L 63 75 L 63 73 L 65 77 Q 67 76 66 79 L 71 79 L 76 76 L 81 70 L 81 68 L 83 68 L 82 63 L 81 63 Q 81 57 78 55 L 72 50 L 67 50 Z " /><path fill="rgb(187,196,206)" stroke="rgb(187,196,206)" stroke-width="1" opacity="0.9921568627450981" d="M 80.5 45 L 82.5 48 L 80.5 45 Z " /><path fill="rgb(187,196,206)" stroke="rgb(187,196,206)" stroke-width="1" opacity="0.9921568627450981" d="M 25.5 46 L 26 47.5 L 23 56.5 L 23 60.5 L 25 60.5 Q 24.8 88.8 42 99.5 L 36.5 95 L 34 93.5 L 29 85 Q 25.7 83.7 27 88.5 L 25 87.5 L 23 81.5 L 23.5 80 Q 21.3 80.8 22 78.5 L 20.5 76 L 17.5 77 L 10 75.5 L 10.5 74 Q 5.9 75.3 8 69.5 L 11.5 67 L 17.5 66 L 21 62.5 L 23 51.5 L 22 49.5 L 24 49.5 L 25.5 46 Z M 27 82 L 26 85 L 27 85 L 27 82 Z " /><path fill="rgb(187,196,206)" stroke="rgb(187,196,206)" stroke-width="1" opacity="0.9921568627450981" d="M 123.5 58 L 124 59.5 L 120.5 61 L 120.5 60 L 123.5 58 Z " /><path fill="rgb(187,196,206)" stroke="rgb(187,196,206)" stroke-width="1" opacity="0.9921568627450981" d="M 116.5 61 L 119 61.5 L 116.5 62 L 116.5 61 Z " /><path fill="rgb(187,196,206)" stroke="rgb(187,196,206)" stroke-width="1" opacity="0.9921568627450981" d="M 106 76 Q 109 75 108 78 Q 105 79 106 76 Z " /><path fill="rgb(187,196,206)" stroke="rgb(187,196,206)" stroke-width="1" opacity="0.9921568627450981" d="M 96.5 77 L 97 78.5 Q 93 87.5 85.5 93 L 92 85.5 L 96.5 77 Z " /><path fill="rgb(187,196,206)" stroke="rgb(187,196,206)" stroke-width="1" opacity="0.9921568627450981" d="M 105 79 Q 107.7 77.9 107 80.5 L 106 83 Q 103.3 84.1 104 81.5 L 105 79 Z " /><path fill="rgb(187,196,206)" stroke="rgb(187,196,206)" stroke-width="1" opacity="0.9921568627450981" d="M 120.5 81 L 121.5 83 L 120.5 81 Z " /><path fill="rgb(187,196,206)" stroke="rgb(187,196,206)" stroke-width="1" opacity="0.9921568627450981" d="M 101.5 87 Q 105 89 100.5 91 L 99 90.5 L 101 90 L 101.5 87 Z " /><path fill="rgb(187,196,206)" stroke="rgb(187,196,206)" stroke-width="1" opacity="0.9921568627450981" d="M 25.5 90 L 20.5 96 Q 17 94 21.5 92 L 22.5 93 L 25.5 90 Z " /><path fill="rgb(187,196,206)" stroke="rgb(187,196,206)" stroke-width="1" opacity="0.9921568627450981" d="M 97.5 93 L 99 93.5 Q 92.3 101.8 81.5 106 L 82.5 104 Q 92.2 100.7 97.5 93 Z " /><path fill="rgb(187,196,206)" stroke="rgb(187,196,206)" stroke-width="1" opacity="0.9921568627450981" d="M 18.5 96 L 19.5 98 L 18.5 96 Z " /><path fill="rgb(187,196,206)" stroke="rgb(187,196,206)" stroke-width="1" opacity="0.9921568627450981" d="M 31 98 Q 34.8 97 36 99.5 L 34.5 99 L 31.5 100 L 31 98 Z " /><path fill="rgb(187,196,206)" stroke="rgb(187,196,206)" stroke-width="1" opacity="0.9921568627450981" d="M 18.5 99 L 20.5 102 Q 22.8 101.3 22 103.5 L 18 100.5 L 18.5 99 Z " /><path fill="rgb(187,196,206)" stroke="rgb(187,196,206)" stroke-width="1" opacity="0.9921568627450981" d="M 37.5 100 L 41 102 L 40.5 104 L 37.5 100 Z " /><path fill="rgb(187,196,206)" stroke="rgb(187,196,206)" stroke-width="1" opacity="0.9921568627450981" d="M 43.5 100 L 44.5 102 L 43.5 100 Z " /><path fill="rgb(187,196,206)" stroke="rgb(187,196,206)" stroke-width="1" opacity="0.9921568627450981" d="M 43.5 109 L 44 110.5 L 43 114 Q 40.3 115.1 41 112.5 L 43.5 109 Z " /><path fill="rgb(116,121,128)" stroke="rgb(116,121,128)" stroke-width="1" opacity="0.996078431372549" d="M 53.5 3 L 55 3.5 L 53 4.5 L 54 7.5 L 52 7.5 L 51.5 11 L 50.5 9 L 50 13 Q 47 14.3 48 10.5 L 49 6.5 L 51.5 4 L 53.5 3 Z " /><path fill="rgb(116,121,128)" stroke="rgb(116,121,128)" stroke-width="1" opacity="0.996078431372549" d="M 80.5 7 L 83 8.5 L 81.5 8 L 80.5 7 Z " /><path fill="rgb(116,121,128)" stroke="rgb(116,121,128)" stroke-width="1" opacity="0.996078431372549" d="M 78.5 9 L 80.5 12 L 75.5 13 L 75.5 12 Q 77.8 12.8 77 10.5 L 78.5 9 Z " /><path fill="rgb(116,121,128)" stroke="rgb(116,121,128)" stroke-width="1" opacity="0.996078431372549" d="M 54.5 23 L 58 24.5 L 55.5 25 L 54.5 23 Z " /><path fill="rgb(116,121,128)" stroke="rgb(116,121,128)" stroke-width="1" opacity="0.996078431372549" d="M 61.5 23 L 70 23.5 L 61.5 24 L 61.5 23 Z " /><path fill="rgb(116,121,128)" stroke="rgb(116,121,128)" stroke-width="1" opacity="0.996078431372549" d="M 51.5 24 L 54 25.5 L 52.5 26 L 51.5 24 Z " /><path fill="rgb(116,121,128)" stroke="rgb(116,121,128)" stroke-width="1" opacity="0.996078431372549" d="M 30.5 25 L 31.5 27 L 30.5 25 Z " /><path fill="rgb(116,121,128)" stroke="rgb(116,121,128)" stroke-width="1" opacity="0.996078431372549" d="M 49.5 25 L 50.5 27 L 49.5 25 Z " /><path fill="rgb(116,121,128)" stroke="rgb(116,121,128)" stroke-width="1" opacity="0.996078431372549" d="M 47.5 26 L 48.5 28 Q 40.4 30.9 36 37.5 L 31.5 45 L 31 43.5 L 40.5 31 L 44.5 28 L 47 28 L 47.5 26 Z " /><path fill="rgb(116,121,128)" stroke="rgb(116,121,128)" stroke-width="1" opacity="0.996078431372549" d="M 62.5 28 L 69 28.5 L 62.5 29 L 62.5 28 Z " /><path fill="rgb(116,121,128)" stroke="rgb(116,121,128)" stroke-width="1" opacity="0.996078431372549" d="M 84.5 28 L 85.5 30 L 84.5 28 Z " /><path fill="rgb(116,121,128)" stroke="rgb(116,121,128)" stroke-width="1" opacity="0.996078431372549" d="M 56.5 29 L 59 29.5 Q 49.4 31.4 44 37.5 L 44.5 39 Q 52.1 31.1 68.5 32 L 72 33.5 L 69.5 34 L 68.5 33 L 59.5 33 Q 47.6 35.1 42 43.5 L 36 54.5 L 35 64.5 L 36 68 L 39 66.5 L 44.5 53 L 45 54.5 L 41 65.5 L 41 74.5 L 45 83 L 47 83 Q 45.9 85.7 48.5 85 L 54.5 89 L 65.5 90 Q 75.9 88.4 82 82.5 L 81 81.5 L 87 75.5 L 91 67.5 L 91 59.5 Q 88.3 49.3 80.5 44 L 73.5 41 L 62.5 40 L 59.5 41 L 60.5 39 L 73.5 39 L 81 42 Q 82.1 39.3 79.5 40 L 78.5 38 L 80.5 37 L 87 42.5 Q 96 51.6 95 70.5 L 92 79.5 L 86 88 L 75.5 94 L 63.5 96 L 49.5 92 L 40 83.5 Q 35.3 77.3 33.5 68 L 32.5 71 L 32 60.5 L 36 46.5 L 42.5 37 L 56.5 29 Z M 82 42 L 83 44 Q 84 41 82 42 Z " /><path fill="rgb(116,121,128)" stroke="rgb(116,121,128)" stroke-width="1" opacity="0.996078431372549" d="M 70.5 29 L 74 29.5 L 70.5 30 L 70.5 29 Z " /><path fill="rgb(116,121,128)" stroke="rgb(116,121,128)" stroke-width="1" opacity="0.996078431372549" d="M 75.5 30 L 79.5 31 L 90 39.5 L 85.5 36 L 75.5 31 L 75.5 30 Z " /><path fill="rgb(116,121,128)" stroke="rgb(116,121,128)" stroke-width="1" opacity="0.996078431372549" d="M 87.5 30 L 90.5 34 L 87.5 30 Z " /><path fill="rgb(116,121,128)" stroke="rgb(116,121,128)" stroke-width="1" opacity="0.996078431372549" d="M 29.5 32 L 28.5 34 L 29.5 32 Z " /><path fill="rgb(116,121,128)" stroke="rgb(116,121,128)" stroke-width="1" opacity="0.996078431372549" d="M 76.5 35 L 79 36.5 L 77.5 37 L 76.5 35 Z " /><path fill="rgb(116,121,128)" stroke="rgb(116,121,128)" stroke-width="1" opacity="0.996078431372549" d="M 92.5 35 Q 102.2 43.3 105 58.5 L 104 58.5 Q 100.4 43.3 92.5 35 Z " /><path fill="rgb(116,121,128)" stroke="rgb(116,121,128)" stroke-width="1" opacity="0.996078431372549" d="M 56.5 41 L 58 41.5 Q 50.7 43.7 47 49.5 L 45.5 52 L 46 50.5 L 52.5 43 L 56.5 41 Z " /><path fill="rgb(116,121,128)" stroke="rgb(116,121,128)" stroke-width="1" opacity="0.996078431372549" d="M 91.5 42 L 92.5 44 L 91.5 42 Z " /><path fill="rgb(116,121,128)" stroke="rgb(116,121,128)" stroke-width="1" opacity="0.996078431372549" d="M 10.5 44 L 11.5 46 L 10.5 44 Z " /><path fill="rgb(116,121,128)" stroke="rgb(116,121,128)" stroke-width="1" opacity="0.996078431372549" d="M 93.5 45 L 94.5 47 L 93.5 45 Z " /><path fill="rgb(116,121,128)" stroke="rgb(116,121,128)" stroke-width="1" opacity="0.996078431372549" d="M 52.5 47 L 49.5 51 L 52.5 47 Z " /><path fill="rgb(116,121,128)" stroke="rgb(116,121,128)" stroke-width="1" opacity="0.996078431372549" d="M 18.5 50 L 19.5 52 L 18.5 50 Z " /><path fill="rgb(116,121,128)" stroke="rgb(116,121,128)" stroke-width="1" opacity="0.996078431372549" d="M 47 52 L 49 52.5 Q 44.5 56.5 45.5 66 L 44 58.5 L 47 52 Z " /><path fill="rgb(116,121,128)" stroke="rgb(116,121,128)" stroke-width="1" opacity="0.996078431372549" d="M 65.5 52 L 68 52.5 L 65.5 53 L 65.5 52 Z " /><path fill="rgb(116,121,128)" stroke="rgb(116,121,128)" stroke-width="1" opacity="0.996078431372549" d="M 69.5 52 L 72 52.5 L 69.5 53 L 69.5 52 Z " /><path fill="rgb(116,121,128)" stroke="rgb(116,121,128)" stroke-width="1" opacity="0.996078431372549" d="M 63.5 53 L 59.5 58 L 60 56.5 Q 59.3 54.3 61.5 55 L 63.5 53 Z " /><path fill="rgb(116,121,128)" stroke="rgb(116,121,128)" stroke-width="1" opacity="0.996078431372549" d="M 27.5 55 L 28 60.5 L 27 60.5 L 27.5 55 Z " /><path fill="rgb(116,121,128)" stroke="rgb(116,121,128)" stroke-width="1" opacity="0.996078431372549" d="M 18.5 57 L 19 60.5 L 18 60.5 L 18.5 57 Z " /><path fill="rgb(116,121,128)" stroke="rgb(116,121,128)" stroke-width="1" opacity="0.996078431372549" d="M 105.5 60 Q 108.3 62.7 107 69.5 L 105.5 73 L 105 69.5 L 106 66.5 Q 103.4 64.9 105.5 60 Z " /><path fill="rgb(116,121,128)" stroke="rgb(116,121,128)" stroke-width="1" opacity="0.996078431372549" d="M 78.5 63 L 79 65.5 L 78 65.5 L 78.5 63 Z " /><path fill="rgb(116,121,128)" stroke="rgb(116,121,128)" stroke-width="1" opacity="0.996078431372549" d="M 27.5 64 Q 28.5 84.5 40.5 94 L 50.5 100 L 68.5 102 Q 70 99.5 75.5 101 L 86.5 96 L 94.5 88 L 94 89.5 L 87 97.5 L 87.5 101 L 85.5 100 L 85.5 102 L 82.5 101 L 71.5 105 L 61.5 105 L 56.5 104 L 54.5 105 L 54.5 104 L 56 103.5 L 53.5 103 L 52 103.5 L 52.5 102 L 49.5 103 L 47.5 100 L 46 100.5 L 45.5 99 L 44.5 100 L 40.5 96 L 37 93.5 L 28 77.5 L 27.5 64 Z " /><path fill="rgb(116,121,128)" stroke="rgb(116,121,128)" stroke-width="1" opacity="0.996078431372549" d="M 33.5 72 L 35 77.5 L 34 77.5 L 33.5 72 Z " /><path fill="rgb(116,121,128)" stroke="rgb(116,121,128)" stroke-width="1" opacity="0.996078431372549" d="M 64.5 73 L 65.5 75 L 64.5 73 Z " /><path fill="rgb(116,121,128)" stroke="rgb(116,121,128)" stroke-width="1" opacity="0.996078431372549" d="M 51.5 77 L 55.5 82 L 51.5 77 Z " /><path fill="rgb(116,121,128)" stroke="rgb(116,121,128)" stroke-width="1" opacity="0.996078431372549" d="M 20.5 78 L 21.5 80 L 20.5 78 Z " /><path fill="rgb(116,121,128)" stroke="rgb(116,121,128)" stroke-width="1" opacity="0.996078431372549" d="M 37.5 83 L 38.5 85 L 37.5 83 Z " /><path fill="rgb(116,121,128)" stroke="rgb(116,121,128)" stroke-width="1" opacity="0.996078431372549" d="M 101.5 84 L 101 85.5 L 94.5 95 L 94 93.5 L 101.5 84 Z " /><path fill="rgb(116,121,128)" stroke="rgb(116,121,128)" stroke-width="1" opacity="0.996078431372549" d="M 64.5 85 L 73 85.5 L 64.5 86 L 64.5 85 Z " /><path fill="rgb(116,121,128)" stroke="rgb(116,121,128)" stroke-width="1" opacity="0.996078431372549" d="M 17.5 90 L 15.5 93 L 17.5 90 Z " /><path fill="rgb(116,121,128)" stroke="rgb(116,121,128)" stroke-width="1" opacity="0.996078431372549" d="M 14.5 94 L 19 94.5 L 17.5 96 L 14 95.5 Q 15.1 98.8 12.5 98 L 13 96.5 L 14.5 94 Z " /><path fill="rgb(116,121,128)" stroke="rgb(116,121,128)" stroke-width="1" opacity="0.996078431372549" d="M 91.5 95 L 92 97.5 L 90.5 99 Q 87 97 91.5 95 Z " /><path fill="rgb(116,121,128)" stroke="rgb(116,121,128)" stroke-width="1" opacity="0.996078431372549" d="M 16.5 97 L 15.5 99 L 16.5 97 Z " /><path fill="rgb(116,121,128)" stroke="rgb(116,121,128)" stroke-width="1" opacity="0.996078431372549" d="M 61.5 98 L 69 98.5 L 61.5 99 L 61.5 98 Z " /><path fill="rgb(116,121,128)" stroke="rgb(116,121,128)" stroke-width="1" opacity="0.996078431372549" d="M 63.5 106 L 71 106.5 L 63.5 107 L 63.5 106 Z " /><path fill="rgb(116,121,128)" stroke="rgb(116,121,128)" stroke-width="1" opacity="0.996078431372549" d="M 92.5 108 L 93.5 110 L 92.5 108 Z " /><path fill="rgb(116,121,128)" stroke="rgb(116,121,128)" stroke-width="1" opacity="0.996078431372549" d="M 98.5 113 L 99.5 115 L 98.5 113 Z " /><path fill="rgb(116,121,128)" stroke="rgb(116,121,128)" stroke-width="1" opacity="0.996078431372549" d="M 67.5 115 L 68 117.5 L 67 117.5 L 67.5 115 Z " /><path fill="rgb(200,212,222)" stroke="rgb(200,212,222)" stroke-width="1" opacity="0.9686274509803922" d="M 58.5 1 Q 64 0 65 3.5 L 69.5 14 L 77.5 17 L 81 14.5 Q 82.5 8 87.5 5 L 94 8.5 L 93 12.5 L 94 14.5 Q 90.1 16.6 91 22 L 88.5 21 L 87 21.5 L 87.5 20 Q 83.8 19.3 83 21.5 Q 92.9 25.6 99 33.5 L 104 41.5 L 103 41.5 L 102 38.5 L 91.5 28 Q 81.4 19.1 61.5 20 Q 42.5 24 33 37.5 L 26 50.5 L 25 59.5 L 23.5 61 L 23 56.5 Q 25.7 54.2 25 48.5 L 24 48.5 L 23.5 50 L 22 49.5 L 23 53.5 Q 20.5 55 22 60.5 L 17.5 66 L 11.5 67 L 8 69.5 Q 5.9 75.3 10.5 74 L 11.5 76 L 8.5 75 Q 5.1 75.9 7 70.5 Q 4.3 68.8 8.5 67 L 16.5 65 L 19 62.5 L 21 51.5 L 10 42.5 L 12 36 L 21.5 36 L 22 37.5 L 24.5 39 L 27 38 L 32 30.5 L 33 26.5 Q 28.3 22.3 28 15 L 32.5 12 L 35.5 12 L 43 18.5 L 44.5 21 L 54 17 L 55 14.5 Q 53.8 5.6 56 2 L 58.5 1 Z M 81 20 L 81 21 L 83 21 L 81 20 Z " /><path fill="rgb(200,212,222)" stroke="rgb(200,212,222)" stroke-width="1" opacity="0.9686274509803922" d="M 92.5 20 L 94.5 24 L 98 26.5 Q 96.7 31.1 102.5 29 L 107.5 26 L 107.5 27 L 100.5 31 L 97 28.5 Q 97.8 26.3 95.5 27 L 93 26 Q 94.1 23.3 91.5 24 L 92 22.5 L 92.5 20 Z " /><path fill="rgb(200,212,222)" stroke="rgb(200,212,222)" stroke-width="1" opacity="0.9686274509803922" d="M 111.5 24 L 116 27.5 L 114 28.5 L 114.5 27 L 109 25.5 L 111.5 24 Z " /><path fill="rgb(200,212,222)" stroke="rgb(200,212,222)" stroke-width="1" opacity="0.9686274509803922" d="M 64.5 42 L 75.5 43 L 84 48 L 87 53.5 L 85 52.5 L 83.5 50 Q 78.3 43.2 64.5 45 L 60 46 Q 61.1 48.7 58.5 48 L 56 49 L 54.5 52 Q 52.3 51.3 53 53.5 L 50 57.5 L 49 66.5 L 50 68.5 L 48 67.5 L 47 58.5 Q 49.4 49.4 56.5 45 L 64.5 42 Z " /><path fill="rgb(200,212,222)" stroke="rgb(200,212,222)" stroke-width="1" opacity="0.9686274509803922" d="M 81.5 62 L 82 66.5 L 75.5 76 Q 72.8 78.8 66.5 78 L 60 73.5 L 61.5 73 Q 63.7 76.7 70.5 76 L 78 70.5 L 81.5 62 Z " /><path fill="rgb(200,212,222)" stroke="rgb(200,212,222)" stroke-width="1" opacity="0.9686274509803922" d="M 120.5 80 L 122.5 83 L 120.5 80 Z " /><path fill="rgb(200,212,222)" stroke="rgb(200,212,222)" stroke-width="1" opacity="0.9686274509803922" d="M 104.5 83 L 104 84.5 L 102.5 88 L 102 86.5 L 104.5 83 Z " /><path fill="rgb(200,212,222)" stroke="rgb(200,212,222)" stroke-width="1" opacity="0.9686274509803922" d="M 25.5 88 L 26 89.5 L 17.5 100 L 17 98.5 L 25.5 88 Z " /><path fill="rgb(200,212,222)" stroke="rgb(200,212,222)" stroke-width="1" opacity="0.9686274509803922" d="M 99.5 91 L 98.5 93 L 99.5 91 Z " /><path fill="rgb(94,98,103)" stroke="rgb(94,98,103)" stroke-width="1" opacity="0.9882352941176471" d="M 52.5 7 L 54 14 L 49 16.5 L 48.5 18 L 48 16.5 L 49 14.5 L 48.5 13 Q 51.5 13.9 50 9.5 L 51 9.5 L 51.5 11 L 52.5 7 Z " /><path fill="rgb(94,98,103)" stroke="rgb(94,98,103)" stroke-width="1" opacity="0.9882352941176471" d="M 82.5 7 L 84 7.5 L 82 8 L 80.5 11 L 78 10.5 L 79 8 L 82.5 7 Z " /><path fill="rgb(94,98,103)" stroke="rgb(94,98,103)" stroke-width="1" opacity="0.9882352941176471" d="M 79.5 12 L 80 13.5 Q 78.8 16 75 15 Q 73.7 11.7 78.5 13 L 79.5 12 Z " /><path fill="rgb(94,98,103)" stroke="rgb(94,98,103)" stroke-width="1" opacity="0.9882352941176471" d="M 27.5 13 L 29 13.5 L 26 16.5 L 27 17.5 L 29 22.5 L 27 22.5 L 26.5 25 L 26 23 Q 21.5 24.8 23 19.5 L 23 17.5 L 27.5 13 Z " /><path fill="rgb(94,98,103)" stroke="rgb(94,98,103)" stroke-width="1" opacity="0.9882352941176471" d="M 63.5 21 L 72 21.5 L 63.5 22 L 63.5 21 Z " /><path fill="rgb(94,98,103)" stroke="rgb(94,98,103)" stroke-width="1" opacity="0.9882352941176471" d="M 58.5 22 Q 62.3 21 61 24 Q 53 23.1 48.5 27 L 48.5 26 L 58.5 22 Z " /><path fill="rgb(94,98,103)" stroke="rgb(94,98,103)" stroke-width="1" opacity="0.9882352941176471" d="M 24.5 25 L 25.5 27 L 24.5 25 Z " /><path fill="rgb(94,98,103)" stroke="rgb(94,98,103)" stroke-width="1" opacity="0.9882352941176471" d="M 102.5 25 L 104 25.5 L 100 28 Q 98.9 25.3 101.5 26 L 102.5 25 Z " /><path fill="rgb(94,98,103)" stroke="rgb(94,98,103)" stroke-width="1" opacity="0.9882352941176471" d="M 85.5 28 L 86.5 30 L 85.5 28 Z " /><path fill="rgb(94,98,103)" stroke="rgb(94,98,103)" stroke-width="1" opacity="0.9882352941176471" d="M 27 29 Q 30 28 29 31 Q 26 32 27 29 Z " /><path fill="rgb(94,98,103)" stroke="rgb(94,98,103)" stroke-width="1" opacity="0.9882352941176471" d="M 59.5 29 L 70 29.5 L 59.5 30 L 56 31.5 L 59 32.5 Q 49.7 33.7 44.5 39 L 44 37.5 Q 49.8 31.3 59.5 29 Z " /><path fill="rgb(94,98,103)" stroke="rgb(94,98,103)" stroke-width="1" opacity="0.9882352941176471" d="M 72.5 30 L 77 31.5 L 75.5 32 L 72.5 31 L 72.5 30 Z " /><path fill="rgb(94,98,103)" stroke="rgb(94,98,103)" stroke-width="1" opacity="0.9882352941176471" d="M 88.5 30 Q 99.5 38 104.5 52 L 105.5 50 L 106 51.5 L 105 54 L 107 54.5 L 107 61.5 L 106 61.5 L 105 55.5 L 99 42.5 L 88.5 30 Z " /><path fill="rgb(94,98,103)" stroke="rgb(94,98,103)" stroke-width="1" opacity="0.9882352941176471" d="M 92.5 30 L 97.5 36 L 92.5 30 Z " /><path fill="rgb(94,98,103)" stroke="rgb(94,98,103)" stroke-width="1" opacity="0.9882352941176471" d="M 26.5 32 L 26 33.5 L 26.5 35 L 28 34.5 L 25 36.5 L 25.5 35 L 24 34.5 L 26.5 32 Z " /><path fill="rgb(94,98,103)" stroke="rgb(94,98,103)" stroke-width="1" opacity="0.9882352941176471" d="M 82.5 34 L 83.5 36 L 82.5 34 Z " /><path fill="rgb(94,98,103)" stroke="rgb(94,98,103)" stroke-width="1" opacity="0.9882352941176471" d="M 78.5 35 L 83 38.5 L 80.5 37 L 78.5 35 Z " /><path fill="rgb(94,98,103)" stroke="rgb(94,98,103)" stroke-width="1" opacity="0.9882352941176471" d="M 85.5 36 L 90.5 42 L 85.5 36 Z " /><path fill="rgb(94,98,103)" stroke="rgb(94,98,103)" stroke-width="1" opacity="0.9882352941176471" d="M 8.5 37 Q 10.8 36.3 10 38.5 L 8 42.5 L 8.5 44 L 6.5 43 L 5 43.5 L 8.5 37 Z " /><path fill="rgb(94,98,103)" stroke="rgb(94,98,103)" stroke-width="1" opacity="0.9882352941176471" d="M 62.5 40 L 66 40.5 L 59.5 43 L 58.5 41 L 62.5 40 Z " /><path fill="rgb(94,98,103)" stroke="rgb(94,98,103)" stroke-width="1" opacity="0.9882352941176471" d="M 56.5 42 L 57.5 44 L 56.5 42 Z " /><path fill="rgb(94,98,103)" stroke="rgb(94,98,103)" stroke-width="1" opacity="0.9882352941176471" d="M 54.5 43 L 55 45.5 L 53.5 47 L 53.5 45 L 51 46.5 L 52 47.5 L 49 50.5 L 47 53.5 L 44 60.5 L 48 71.5 L 44 68.5 L 43.5 67 L 43 73.5 Q 45.6 80.9 51.5 85 L 59.5 88 L 66.5 88 L 66.5 87 L 65 86.5 Q 80.3 86.3 86.5 77 L 80.5 84 L 70.5 89 L 59.5 90 L 54.5 89 L 47 85 L 47 83 Q 44.3 84.1 45 81.5 Q 39.4 77.1 41 65.5 L 45 52.5 L 52.5 44 L 54.5 43 Z " /><path fill="rgb(94,98,103)" stroke="rgb(94,98,103)" stroke-width="1" opacity="0.9882352941176471" d="M 87.5 43 L 89.5 46 L 87.5 43 Z " /><path fill="rgb(94,98,103)" stroke="rgb(94,98,103)" stroke-width="1" opacity="0.9882352941176471" d="M 93.5 46 L 94.5 48 L 93.5 46 Z " /><path fill="rgb(94,98,103)" stroke="rgb(94,98,103)" stroke-width="1" opacity="0.9882352941176471" d="M 90.5 47 L 93 51.5 L 92 51.5 L 90.5 47 Z " /><path fill="rgb(94,98,103)" stroke="rgb(94,98,103)" stroke-width="1" opacity="0.9882352941176471" d="M 19.5 52 L 20 53.5 L 18.5 57 L 18 54.5 L 19.5 52 Z " /><path fill="rgb(94,98,103)" stroke="rgb(94,98,103)" stroke-width="1" opacity="0.9882352941176471" d="M 15.5 53 L 18 58.5 L 17 61 L 15 60.5 L 15.5 53 Z " /><path fill="rgb(94,98,103)" stroke="rgb(94,98,103)" stroke-width="1" opacity="0.9882352941176471" d="M 93.5 53 Q 97.3 59.3 96 70.5 L 93.5 77 L 93 75.5 Q 96.4 70.4 95 60.5 L 93.5 53 Z " /><path fill="rgb(94,98,103)" stroke="rgb(94,98,103)" stroke-width="1" opacity="0.9882352941176471" d="M 74.5 54 L 76.5 57 L 74.5 54 Z " /><path fill="rgb(94,98,103)" stroke="rgb(94,98,103)" stroke-width="1" opacity="0.9882352941176471" d="M 97.5 56 L 98 59.5 L 97 59.5 L 97.5 56 Z " /><path fill="rgb(94,98,103)" stroke="rgb(94,98,103)" stroke-width="1" opacity="0.9882352941176471" d="M 77.5 58 L 79 62.5 L 78 62.5 L 77.5 58 Z " /><path fill="rgb(94,98,103)" stroke="rgb(94,98,103)" stroke-width="1" opacity="0.9882352941176471" d="M 14.5 62 L 16.5 63 L 18 62.5 L 15.5 64 L 13 63.5 L 14.5 62 Z " /><path fill="rgb(94,98,103)" stroke="rgb(94,98,103)" stroke-width="1" opacity="0.9882352941176471" d="M 70.5 62 L 71.5 65 L 76.5 63 Q 78.8 63.8 78 67.5 L 77 70 L 70.5 72 L 68.5 72 L 66.5 73 L 69 69.5 L 70.5 62 Z " /><path fill="rgb(94,98,103)" stroke="rgb(94,98,103)" stroke-width="1" opacity="0.9882352941176471" d="M 9.5 64 L 11 64.5 L 5 68.5 L 2.5 76 L 1 69.5 L 9.5 64 Z " /><path fill="rgb(94,98,103)" stroke="rgb(94,98,103)" stroke-width="1" opacity="0.9882352941176471" d="M 97.5 65 L 98 68.5 L 97 68.5 L 97.5 65 Z " /><path fill="rgb(94,98,103)" stroke="rgb(94,98,103)" stroke-width="1" opacity="0.9882352941176471" d="M 33.5 68 Q 36.4 82.6 46.5 90 L 53.5 94 L 66 96.5 L 63.5 97 Q 62.3 94.7 57.5 96 L 55.5 97 L 55.5 95 L 52.5 96 L 47 92.5 L 46.5 91 L 45.5 92 L 39 85.5 Q 32.9 78.8 33.5 68 Z " /><path fill="rgb(94,98,103)" stroke="rgb(94,98,103)" stroke-width="1" opacity="0.9882352941176471" d="M 75.5 71 L 74.5 73 L 75.5 71 Z " /><path fill="rgb(94,98,103)" stroke="rgb(94,98,103)" stroke-width="1" opacity="0.9882352941176471" d="M 5.5 72 L 6 74.5 L 4 73.5 L 5.5 72 Z " /><path fill="rgb(94,98,103)" stroke="rgb(94,98,103)" stroke-width="1" opacity="0.9882352941176471" d="M 66.5 74 L 71 74.5 L 66.5 75 L 66.5 74 Z " /><path fill="rgb(94,98,103)" stroke="rgb(94,98,103)" stroke-width="1" opacity="0.9882352941176471" d="M 49.5 75 L 50.5 77 L 49.5 75 Z " /><path fill="rgb(94,98,103)" stroke="rgb(94,98,103)" stroke-width="1" opacity="0.9882352941176471" d="M 7.5 76 L 8 78 L 6 77.5 L 7.5 76 Z " /><path fill="rgb(94,98,103)" stroke="rgb(94,98,103)" stroke-width="1" opacity="0.9882352941176471" d="M 92.5 78 L 94 80.5 L 91 81.5 L 89 85.5 L 91 85.5 Q 89.8 88.3 88.5 86 L 85.5 89 L 76.5 94 L 76.5 93 L 86 88 L 92.5 78 Z " /><path fill="rgb(94,98,103)" stroke="rgb(94,98,103)" stroke-width="1" opacity="0.9882352941176471" d="M 19.5 88 L 22 88.5 Q 18.5 90 21 91.5 L 17 95.5 L 15 98.5 L 17.5 102 L 12 98.5 L 14 98 Q 14.5 91.4 19.5 88 Z " /><path fill="rgb(94,98,103)" stroke="rgb(94,98,103)" stroke-width="1" opacity="0.9882352941176471" d="M 109.5 89 L 112 90.5 L 110.5 91 L 108 90.5 L 109.5 89 Z " /><path fill="rgb(94,98,103)" stroke="rgb(94,98,103)" stroke-width="1" opacity="0.9882352941176471" d="M 73.5 94 L 75 94.5 Q 72.9 96.9 67.5 96 L 67.5 95 Q 72.3 96.3 73.5 94 Z " /><path fill="rgb(94,98,103)" stroke="rgb(94,98,103)" stroke-width="1" opacity="0.9882352941176471" d="M 93.5 94 L 94 95.5 L 78.5 105 Q 71.4 107.4 60.5 106 L 49 101.5 L 50.5 101 L 61.5 105 L 71.5 105 L 84.5 101 L 93.5 94 Z " /><path fill="rgb(94,98,103)" stroke="rgb(94,98,103)" stroke-width="1" opacity="0.9882352941176471" d="M 58.5 97 L 61 97.5 L 58.5 98 L 58.5 97 Z " /><path fill="rgb(94,98,103)" stroke="rgb(94,98,103)" stroke-width="1" opacity="0.9882352941176471" d="M 44.5 98 L 45.5 100 L 44.5 98 Z " /><path fill="rgb(94,98,103)" stroke="rgb(94,98,103)" stroke-width="1" opacity="0.9882352941176471" d="M 13.5 101 L 14.5 103 L 13.5 101 Z " /><path fill="rgb(94,98,103)" stroke="rgb(94,98,103)" stroke-width="1" opacity="0.9882352941176471" d="M 37.5 107 L 40 108 L 41 110.5 L 40 111.5 L 40 119.5 L 40.5 121 L 35 118.5 L 36 109.5 L 37.5 107 Z " /><path fill="rgb(94,98,103)" stroke="rgb(94,98,103)" stroke-width="1" opacity="0.9882352941176471" d="M 96.5 112 L 98.5 115 L 96.5 112 Z " /><path fill="rgb(94,98,103)" stroke="rgb(94,98,103)" stroke-width="1" opacity="0.9882352941176471" d="M 63.5 113 L 67 114.5 L 65.5 114 Q 62.5 114.5 63.5 113 Z " /><path fill="rgb(94,98,103)" stroke="rgb(94,98,103)" stroke-width="1" opacity="0.9882352941176471" d="M 61.5 115 L 62.5 117 L 65 116 L 64.5 118 L 63 117.5 L 62.5 120 L 61.5 115 Z " /><path fill="rgb(94,98,103)" stroke="rgb(94,98,103)" stroke-width="1" opacity="0.9882352941176471" d="M 69.5 123 L 71 126.5 L 70 126.5 L 69.5 123 Z " /><path fill="rgb(182,188,197)" stroke="rgb(182,188,197)" stroke-width="1" opacity="0.9686274509803922" d="M 53.5 47 L 52.5 49 L 53.5 47 Z " /><path fill="rgb(182,188,197)" stroke="rgb(182,188,197)" stroke-width="1" opacity="0.9686274509803922" d="M 109.5 47 L 110 49.5 L 109 49.5 L 109.5 47 Z " /><path fill="rgb(182,188,197)" stroke="rgb(182,188,197)" stroke-width="1" opacity="0.9686274509803922" d="M 66.5 50 L 72 50.5 L 66.5 51 L 66.5 50 Z " /><path fill="rgb(182,188,197)" stroke="rgb(182,188,197)" stroke-width="1" opacity="0.9686274509803922" d="M 75.5 52 L 77.5 55 L 75.5 52 Z " /><path fill="rgb(182,188,197)" stroke="rgb(182,188,197)" stroke-width="1" opacity="0.9686274509803922" d="M 110.5 52 L 111.5 56 L 112.5 53 L 115.5 54 Q 116.7 51.8 121.5 53 L 125 54 L 126 59.5 L 123.5 58 L 121.5 60 L 120 60.5 L 120.5 62 L 114 64.5 L 113.5 72 L 112.5 67 L 112 72.5 L 115 78.5 L 113 77.5 Q 113.8 75.3 111.5 76 Q 108.5 75.5 109 71.5 L 110 71.5 L 110.5 73 L 111 68.5 L 110 67.5 L 110.5 52 Z M 117 61 L 117 62 L 119 62 L 117 61 Z " /><path fill="rgb(182,188,197)" stroke="rgb(182,188,197)" stroke-width="1" opacity="0.9686274509803922" d="M 108.5 57 L 109 60.5 L 108 60.5 L 108.5 57 Z " /><path fill="rgb(182,188,197)" stroke="rgb(182,188,197)" stroke-width="1" opacity="0.9686274509803922" d="M 86.5 60 L 87 62 Q 90.7 60.6 89 66.5 L 85.5 74 L 84 73.5 L 82.5 76 L 72.5 82 Q 66.4 81.3 64 83 Q 65.3 80 61.5 81 L 59 82 L 58.5 80 Q 57 82.5 55.5 79 L 52 76.5 L 53 74 L 60.5 78 L 65.5 79 L 70.5 78 L 70.5 79 L 66 79.5 L 71.5 80 L 80 76 L 84 69.5 L 86.5 60 Z " /><path fill="rgb(182,188,197)" stroke="rgb(182,188,197)" stroke-width="1" opacity="0.9686274509803922" d="M 108.5 62 L 109 65.5 L 108 65.5 L 108.5 62 Z " /><path fill="rgb(182,188,197)" stroke="rgb(182,188,197)" stroke-width="1" opacity="0.9686274509803922" d="M 56.5 65 L 57.5 67 Q 54.7 67.7 56.5 65 Z " /><path fill="rgb(182,188,197)" stroke="rgb(182,188,197)" stroke-width="1" opacity="0.9686274509803922" d="M 82.5 65 L 83 67.5 L 82 67.5 L 82.5 65 Z " /><path fill="rgb(182,188,197)" stroke="rgb(182,188,197)" stroke-width="1" opacity="0.9686274509803922" d="M 58.5 68 L 60 70.5 L 59 70.5 L 58.5 68 Z " /><path fill="rgb(182,188,197)" stroke="rgb(182,188,197)" stroke-width="1" opacity="0.9686274509803922" d="M 118.5 80 Q 120.8 79.3 120 81.5 L 123 83.5 L 121.5 84 L 118.5 80 Z " /><path fill="rgb(182,188,197)" stroke="rgb(182,188,197)" stroke-width="1" opacity="0.9686274509803922" d="M 26.5 82 L 27 85 Q 29.7 83.9 29 86.5 L 32.5 91 L 34 90.5 L 34 92.5 L 35.5 95 L 40 98.5 L 38.5 98 L 37 98.5 L 38.5 102 L 40 101.5 Q 38 105 36 100.5 L 35.5 99 L 32.5 100 L 32.5 99 L 36 97.5 L 31 97 L 31 100 Q 28.3 98.9 29 101.5 L 22 104 L 21.5 101 L 20.5 104 L 19 102.5 L 20 99.5 Q 19.3 95.8 21.5 95 Q 23.8 95.8 23 93.5 Q 27 91.5 27 85.5 L 26.5 82 Z " /><path fill="rgb(182,188,197)" stroke="rgb(182,188,197)" stroke-width="1" opacity="0.9686274509803922" d="M 109.5 86 Q 110.8 88.8 115 88.5 L 111.5 89 L 108 87.5 L 109.5 86 Z " /><path fill="rgb(182,188,197)" stroke="rgb(182,188,197)" stroke-width="1" opacity="0.9686274509803922" d="M 42.5 99 L 44 101.5 L 42.5 102 Q 39.5 100.5 42.5 99 Z " /><path fill="rgb(182,188,197)" stroke="rgb(182,188,197)" stroke-width="1" opacity="0.9686274509803922" d="M 101.5 99 L 104 102.5 L 101 100.5 L 101.5 99 Z " /><path fill="rgb(182,188,197)" stroke="rgb(182,188,197)" stroke-width="1" opacity="0.9686274509803922" d="M 45.5 102 Q 51.7 106.8 62 107.5 L 57.5 108 L 46.5 104 L 45.5 102 Z " /><path fill="rgb(182,188,197)" stroke="rgb(182,188,197)" stroke-width="1" opacity="0.9686274509803922" d="M 41.5 103 Q 45.8 104.3 45 109 L 43 109 L 43 105 Q 39.8 106 41.5 103 Z " /><path fill="rgb(182,188,197)" stroke="rgb(182,188,197)" stroke-width="1" opacity="0.9686274509803922" d="M 77.5 106 L 76.5 108 L 75 107.5 L 77.5 106 Z " /><path fill="rgb(182,188,197)" stroke="rgb(182,188,197)" stroke-width="1" opacity="0.9686274509803922" d="M 64.5 108 L 68 108.5 L 64.5 109 L 64.5 108 Z " /><path fill="rgb(182,188,197)" stroke="rgb(182,188,197)" stroke-width="1" opacity="0.9686274509803922" d="M 94.5 108 L 96.5 111 L 94.5 108 Z " /><path fill="rgb(182,188,197)" stroke="rgb(182,188,197)" stroke-width="1" opacity="0.9686274509803922" d="M 62.5 111 L 66 111.5 L 62.5 112 L 62.5 111 Z " /><path fill="rgb(182,188,197)" stroke="rgb(182,188,197)" stroke-width="1" opacity="0.9686274509803922" d="M 41 114 Q 44.3 112.9 43 117 Q 39.7 118.1 41 114 Z " /><path fill="rgb(182,188,197)" stroke="rgb(182,188,197)" stroke-width="1" opacity="0.9686274509803922" d="M 41.5 118 Q 43.8 117.3 43 119.5 L 41.5 118 Z " /><path fill="rgb(127,130,133)" stroke="rgb(127,130,133)" stroke-width="1" opacity="0.6588235294117647" d="M 84.5 5 L 86 5.5 L 81.5 7 L 81.5 6 L 84.5 5 Z " /><path fill="rgb(127,130,133)" stroke="rgb(127,130,133)" stroke-width="1" opacity="0.6588235294117647" d="M 78.5 8 L 76.5 11 L 78.5 8 Z " /><path fill="rgb(127,130,133)" stroke="rgb(127,130,133)" stroke-width="1" opacity="0.6588235294117647" d="M 26.5 13 L 22.5 18 L 26.5 13 Z " /><path fill="rgb(127,130,133)" stroke="rgb(127,130,133)" stroke-width="1" opacity="0.6588235294117647" d="M 47.5 17 L 46.5 19 L 45 18.5 L 47.5 17 Z " /><path fill="rgb(127,130,133)" stroke="rgb(127,130,133)" stroke-width="1" opacity="0.6588235294117647" d="M 22.5 19 L 23 21.5 L 22 21.5 L 22.5 19 Z " /><path fill="rgb(127,130,133)" stroke="rgb(127,130,133)" stroke-width="1" opacity="0.6588235294117647" d="M 25.5 27 Q 27.8 27.8 27 31.5 L 24 33.5 Q 26.8 32.7 26 28.5 L 25.5 27 Z " /><path fill="rgb(127,130,133)" stroke="rgb(127,130,133)" stroke-width="1" opacity="0.6588235294117647" d="M 5.5 45 L 8.5 49 L 5.5 45 Z " /><path fill="rgb(127,130,133)" stroke="rgb(127,130,133)" stroke-width="1" opacity="0.6588235294117647" d="M 13.5 51 Q 16.8 52.8 15 59.5 L 14 59.5 Q 14.6 52.8 13.5 51 Z " /><path fill="rgb(127,130,133)" stroke="rgb(127,130,133)" stroke-width="1" opacity="0.6588235294117647" d="M 63.5 54 L 61.5 57 L 63.5 54 Z " /><path fill="rgb(127,130,133)" stroke="rgb(127,130,133)" stroke-width="1" opacity="0.6588235294117647" d="M 69.5 61 L 70 66.5 L 69 66.5 L 69.5 61 Z " /><path fill="rgb(127,130,133)" stroke="rgb(127,130,133)" stroke-width="1" opacity="0.6588235294117647" d="M 13.5 62 L 12.5 64 L 13.5 62 Z " /><path fill="rgb(127,130,133)" stroke="rgb(127,130,133)" stroke-width="1" opacity="0.6588235294117647" d="M 5.5 65 L 4.5 67 L 1.5 69 L 3.5 66 L 5.5 65 Z " /><path fill="rgb(127,130,133)" stroke="rgb(127,130,133)" stroke-width="1" opacity="0.6588235294117647" d="M 1.5 70 L 2 74.5 L 1 74.5 L 1.5 70 Z " /><path fill="rgb(127,130,133)" stroke="rgb(127,130,133)" stroke-width="1" opacity="0.6588235294117647" d="M 67.5 70 L 65.5 73 L 67.5 70 Z " /><path fill="rgb(127,130,133)" stroke="rgb(127,130,133)" stroke-width="1" opacity="0.6588235294117647" d="M 8.5 77 L 11 77.5 L 8.5 78 L 8.5 77 Z " /><path fill="rgb(127,130,133)" stroke="rgb(127,130,133)" stroke-width="1" opacity="0.6588235294117647" d="M 17.5 82 L 19 85.5 L 18 85.5 L 17.5 82 Z " /><path fill="rgb(127,130,133)" stroke="rgb(127,130,133)" stroke-width="1" opacity="0.6588235294117647" d="M 115.5 91 L 119 91.5 L 115.5 92 L 115.5 91 Z " /><path fill="rgb(127,130,133)" stroke="rgb(127,130,133)" stroke-width="1" opacity="0.6588235294117647" d="M 14.5 93 L 13.5 95 L 14.5 93 Z " /><path fill="rgb(127,130,133)" stroke="rgb(127,130,133)" stroke-width="1" opacity="0.6588235294117647" d="M 86.5 109 L 87.5 111 L 86.5 109 Z " /><path fill="rgb(127,130,133)" stroke="rgb(127,130,133)" stroke-width="1" opacity="0.6588235294117647" d="M 34.5 113 L 35 117.5 L 34 117.5 L 34.5 113 Z " /><path fill="rgb(127,130,133)" stroke="rgb(127,130,133)" stroke-width="1" opacity="0.6588235294117647" d="M 40.5 121 L 45 122.5 L 42.5 123 L 40.5 121 Z " /><path fill="rgb(174,176,185)" stroke="rgb(174,176,185)" stroke-width="1" opacity="0.996078431372549" d="M 85.5 6 L 83.5 9 L 85.5 6 Z " /><path fill="rgb(174,176,185)" stroke="rgb(174,176,185)" stroke-width="1" opacity="0.996078431372549" d="M 65.5 20 L 69 20.5 L 65.5 21 L 65.5 20 Z " /><path fill="rgb(174,176,185)" stroke="rgb(174,176,185)" stroke-width="1" opacity="0.996078431372549" d="M 30.5 24 L 31.5 26 L 30.5 24 Z " /><path fill="rgb(174,176,185)" stroke="rgb(174,176,185)" stroke-width="1" opacity="0.996078431372549" d="M 105.5 25 L 104.5 27 L 105.5 25 Z " /><path fill="rgb(174,176,185)" stroke="rgb(174,176,185)" stroke-width="1" opacity="0.996078431372549" d="M 41.5 29 L 35.5 36 L 41.5 29 Z " /><path fill="rgb(174,176,185)" stroke="rgb(174,176,185)" stroke-width="1" opacity="0.996078431372549" d="M 93.5 30 L 98.5 36 L 93.5 30 Z " /><path fill="rgb(174,176,185)" stroke="rgb(174,176,185)" stroke-width="1" opacity="0.996078431372549" d="M 113.5 34 L 109.5 39 L 113.5 34 Z " /><path fill="rgb(174,176,185)" stroke="rgb(174,176,185)" stroke-width="1" opacity="0.996078431372549" d="M 33.5 38 L 32.5 40 L 33.5 38 Z " /><path fill="rgb(174,176,185)" stroke="rgb(174,176,185)" stroke-width="1" opacity="0.996078431372549" d="M 66.5 41 L 71 41.5 L 66.5 42 L 66.5 41 Z " /><path fill="rgb(174,176,185)" stroke="rgb(174,176,185)" stroke-width="1" opacity="0.996078431372549" d="M 30.5 43 L 30 44.5 L 29.5 46 L 29 44.5 L 30.5 43 Z " /><path fill="rgb(174,176,185)" stroke="rgb(174,176,185)" stroke-width="1" opacity="0.996078431372549" d="M 51.5 49 L 50.5 51 L 51.5 49 Z " /><path fill="rgb(174,176,185)" stroke="rgb(174,176,185)" stroke-width="1" opacity="0.996078431372549" d="M 64.5 51 L 67 51.5 Q 61.4 52.4 59 56.5 L 57.5 66 Q 55.3 65.3 56 61.5 Q 57.5 55 62.5 52 L 64.5 51 Z " /><path fill="rgb(174,176,185)" stroke="rgb(174,176,185)" stroke-width="1" opacity="0.996078431372549" d="M 70.5 51 L 73 51.5 L 70.5 52 L 70.5 51 Z " /><path fill="rgb(174,176,185)" stroke="rgb(174,176,185)" stroke-width="1" opacity="0.996078431372549" d="M 74.5 52 L 78.5 57 L 74.5 52 Z " /><path fill="rgb(174,176,185)" stroke="rgb(174,176,185)" stroke-width="1" opacity="0.996078431372549" d="M 26.5 53 L 27 55.5 L 26 55.5 L 26.5 53 Z " /><path fill="rgb(174,176,185)" stroke="rgb(174,176,185)" stroke-width="1" opacity="0.996078431372549" d="M 25.5 58 L 26 70.5 L 25 70.5 L 25.5 58 Z " /><path fill="rgb(174,176,185)" stroke="rgb(174,176,185)" stroke-width="1" opacity="0.996078431372549" d="M 89.5 58 L 90 67.5 Q 86.8 76.8 79.5 82 L 71.5 85 L 64.5 85 Q 56.2 83.3 52 77.5 L 54.5 79 L 57.5 81 L 59 80.5 Q 58.3 82.8 60.5 82 L 64 81 Q 62.9 83.7 65.5 83 Q 67 80.5 72.5 82 L 84 74.5 L 84.5 73 L 86 73.5 Q 90.1 68.1 89.5 58 Z " /><path fill="rgb(174,176,185)" stroke="rgb(174,176,185)" stroke-width="1" opacity="0.996078431372549" d="M 99.5 58 L 100 71.5 L 98 70.5 L 99.5 58 Z " /><path fill="rgb(174,176,185)" stroke="rgb(174,176,185)" stroke-width="1" opacity="0.996078431372549" d="M 46.5 59 L 47 64.5 L 46 64.5 L 46.5 59 Z " /><path fill="rgb(174,176,185)" stroke="rgb(174,176,185)" stroke-width="1" opacity="0.996078431372549" d="M 124.5 59 L 122.5 62 L 119.5 63 L 119.5 62 L 124.5 59 Z " /><path fill="rgb(174,176,185)" stroke="rgb(174,176,185)" stroke-width="1" opacity="0.996078431372549" d="M 18.5 62 L 17.5 64 L 18.5 62 Z " /><path fill="rgb(174,176,185)" stroke="rgb(174,176,185)" stroke-width="1" opacity="0.996078431372549" d="M 115.5 63 L 114.5 65 L 115.5 63 Z " /><path fill="rgb(174,176,185)" stroke="rgb(174,176,185)" stroke-width="1" opacity="0.996078431372549" d="M 112.5 67 L 113 72.5 L 112 72.5 L 112.5 67 Z " /><path fill="rgb(174,176,185)" stroke="rgb(174,176,185)" stroke-width="1" opacity="0.996078431372549" d="M 107.5 68 L 108 70.5 L 107 70.5 L 107.5 68 Z " /><path fill="rgb(174,176,185)" stroke="rgb(174,176,185)" stroke-width="1" opacity="0.996078431372549" d="M 110.5 68 L 111 72.5 L 110 72.5 L 110.5 68 Z " /><path fill="rgb(174,176,185)" stroke="rgb(174,176,185)" stroke-width="1" opacity="0.996078431372549" d="M 6.5 71 L 7 73.5 L 6 73.5 L 6.5 71 Z " /><path fill="rgb(174,176,185)" stroke="rgb(174,176,185)" stroke-width="1" opacity="0.996078431372549" d="M 76.5 71 L 75.5 73 L 76.5 71 Z " /><path fill="rgb(174,176,185)" stroke="rgb(174,176,185)" stroke-width="1" opacity="0.996078431372549" d="M 26.5 72 L 27 75.5 L 26 75.5 L 26.5 72 Z " /><path fill="rgb(174,176,185)" stroke="rgb(174,176,185)" stroke-width="1" opacity="0.996078431372549" d="M 97 73 Q 100 71.8 99 75.5 L 96.5 80 L 95.5 78 L 97 78.5 L 96 76.5 L 98 75.5 L 97 73 Z " /><path fill="rgb(174,176,185)" stroke="rgb(174,176,185)" stroke-width="1" opacity="0.996078431372549" d="M 50.5 74 L 51.5 76 L 50.5 74 Z " /><path fill="rgb(174,176,185)" stroke="rgb(174,176,185)" stroke-width="1" opacity="0.996078431372549" d="M 109.5 74 L 113 76 L 114.5 79 L 116.5 79 L 123 84 L 120.5 90 L 112 89.5 L 115 88.5 L 111.5 88 L 107 89 L 103 94.5 L 101 100.5 L 106 108.5 L 105.5 111 L 100.5 114 L 91.5 107 L 88.5 107 L 80 111 L 81 116.5 Q 78.7 117.8 80 122.5 L 78.5 124 L 72 126 L 66.5 113 L 64 112.5 L 66 111.5 L 62.5 111 L 61.5 112 L 55 112 L 54 115.5 L 47.5 123 L 41 119.5 L 43 119.5 Q 43.8 117.3 41.5 118 L 41.5 117 Q 44.3 117.6 43 111.5 L 45 106.5 L 42 105.5 L 43 104.5 L 39.5 101 Q 37.3 101.8 38 99.5 L 37.5 98 L 40.5 99 L 34.5 91 L 42 98.5 L 41 99.5 L 42.5 102 L 45 101.5 L 44.5 100 L 48 102.5 L 46.5 102 L 45 102.5 L 48.5 104 L 50 103.5 Q 47.8 104.8 50.5 106 L 53 105.5 L 51 104.5 L 52.5 104 L 56 105.5 L 53 106.5 L 56.5 107 L 59.5 106 L 59.5 107 L 57 107.5 L 61.5 108 L 62.5 107 L 70.5 107 Q 71.8 109.3 76.5 108 L 76.5 107 L 74 106.5 L 76.5 106 L 80.5 107 Q 92.7 102.2 100 92.5 Q 106.6 85.1 109.5 74 Z M 110 86 L 108 88 L 111 88 L 110 86 Z M 65 108 L 65 109 L 68 109 L 65 108 Z " /><path fill="rgb(174,176,185)" stroke="rgb(174,176,185)" stroke-width="1" opacity="0.996078431372549" d="M 20.5 77 L 21.5 79 L 20.5 77 Z " /><path fill="rgb(174,176,185)" stroke="rgb(174,176,185)" stroke-width="1" opacity="0.996078431372549" d="M 94.5 80 L 95.5 82 L 94.5 80 Z " /><path fill="rgb(174,176,185)" stroke="rgb(174,176,185)" stroke-width="1" opacity="0.996078431372549" d="M 29.5 82 L 32 86.5 L 30 85.5 L 29.5 82 Z " /><path fill="rgb(174,176,185)" stroke="rgb(174,176,185)" stroke-width="1" opacity="0.996078431372549" d="M 93.5 82 L 94.5 84 L 93.5 82 Z " /><path fill="rgb(174,176,185)" stroke="rgb(174,176,185)" stroke-width="1" opacity="0.996078431372549" d="M 91.5 85 L 94 85.5 L 85.5 94 L 84 93.5 L 82.5 96 L 71.5 100 L 59.5 100 L 59.5 99 Q 75 101 81.5 94 L 83 94.5 L 84.5 92 L 85.5 93 L 92 86.5 L 91.5 85 Z " /><path fill="rgb(174,176,185)" stroke="rgb(174,176,185)" stroke-width="1" opacity="0.996078431372549" d="M 32.5 88 L 33.5 90 L 32.5 88 Z " /><path fill="rgb(174,176,185)" stroke="rgb(174,176,185)" stroke-width="1" opacity="0.996078431372549" d="M 23.5 90 L 22.5 92 L 23.5 90 Z " /><path fill="rgb(174,176,185)" stroke="rgb(174,176,185)" stroke-width="1" opacity="0.996078431372549" d="M 98.5 91 L 96.5 94 L 98.5 91 Z " /><path fill="rgb(174,176,185)" stroke="rgb(174,176,185)" stroke-width="1" opacity="0.996078431372549" d="M 93.5 96 L 91.5 99 L 93.5 96 Z " /><path fill="rgb(174,176,185)" stroke="rgb(174,176,185)" stroke-width="1" opacity="0.996078431372549" d="M 31.5 97 L 36 97.5 L 31.5 98 L 31.5 97 Z " /><path fill="rgb(174,176,185)" stroke="rgb(174,176,185)" stroke-width="1" opacity="0.996078431372549" d="M 16.5 98 L 19 101.5 L 16 99.5 L 16.5 98 Z " /><path fill="rgb(174,176,185)" stroke="rgb(174,176,185)" stroke-width="1" opacity="0.996078431372549" d="M 55.5 98 L 58 98.5 L 55.5 99 L 55.5 98 Z " /><path fill="rgb(174,176,185)" stroke="rgb(174,176,185)" stroke-width="1" opacity="0.996078431372549" d="M 30.5 100 L 31 102 L 28.5 103 L 30.5 100 Z " /><path fill="rgb(174,176,185)" stroke="rgb(174,176,185)" stroke-width="1" opacity="0.996078431372549" d="M 88.5 100 L 87.5 102 L 88.5 100 Z " /><path fill="rgb(174,176,185)" stroke="rgb(174,176,185)" stroke-width="1" opacity="0.996078431372549" d="M 21.5 104 L 24 104.5 L 21.5 105 L 21.5 104 Z " /><path fill="rgb(164,165,170)" stroke="rgb(164,165,170)" stroke-width="1" opacity="0.6313725490196078" d="M 52.5 2 L 51.5 4 L 49.5 5 L 50.5 3 L 52.5 2 Z " /><path fill="rgb(164,165,170)" stroke="rgb(164,165,170)" stroke-width="1" opacity="0.6313725490196078" d="M 31.5 11 L 34 11.5 L 31.5 12 L 31.5 11 Z " /><path fill="rgb(164,165,170)" stroke="rgb(164,165,170)" stroke-width="1" opacity="0.6313725490196078" d="M 75.5 11 L 74.5 13 L 75.5 11 Z " /><path fill="rgb(164,165,170)" stroke="rgb(164,165,170)" stroke-width="1" opacity="0.6313725490196078" d="M 23.5 15 L 22 17.5 L 21.5 19 L 21 17.5 L 23.5 15 Z " /><path fill="rgb(164,165,170)" stroke="rgb(164,165,170)" stroke-width="1" opacity="0.6313725490196078" d="M 93.5 16 L 94 18.5 L 92 19.5 L 93.5 16 Z " /><path fill="rgb(164,165,170)" stroke="rgb(164,165,170)" stroke-width="1" opacity="0.6313725490196078" d="M 43.5 18 L 44.5 20 L 43.5 18 Z " /><path fill="rgb(164,165,170)" stroke="rgb(164,165,170)" stroke-width="1" opacity="0.6313725490196078" d="M 22.5 23 L 25 26.5 L 23 25.5 L 22.5 23 Z " /><path fill="rgb(164,165,170)" stroke="rgb(164,165,170)" stroke-width="1" opacity="0.6313725490196078" d="M 99.5 25 L 101 25.5 L 98.5 27 L 99.5 25 Z " /><path fill="rgb(164,165,170)" stroke="rgb(164,165,170)" stroke-width="1" opacity="0.6313725490196078" d="M 115.5 32 L 115 33.5 L 111.5 39 Q 109.3 38.3 110 40.5 L 109 40.5 L 115.5 32 Z " /><path fill="rgb(164,165,170)" stroke="rgb(164,165,170)" stroke-width="1" opacity="0.6313725490196078" d="M 7.5 36 L 9 36.5 L 6.5 38 L 7.5 36 Z " /><path fill="rgb(164,165,170)" stroke="rgb(164,165,170)" stroke-width="1" opacity="0.6313725490196078" d="M 114.5 50 L 117 50.5 L 114.5 51 L 114.5 50 Z " /><path fill="rgb(164,165,170)" stroke="rgb(164,165,170)" stroke-width="1" opacity="0.6313725490196078" d="M 126.5 56 L 127 61 L 115 66.5 L 114.5 71 L 114 65.5 L 126 59.5 L 126.5 56 Z " /><path fill="rgb(164,165,170)" stroke="rgb(164,165,170)" stroke-width="1" opacity="0.6313725490196078" d="M 13.5 59 L 14 61.5 L 13 61.5 L 13.5 59 Z " /><path fill="rgb(164,165,170)" stroke="rgb(164,165,170)" stroke-width="1" opacity="0.6313725490196078" d="M 59.5 59 L 59 60.5 L 58.5 68 L 58 60.5 L 59.5 59 Z " /><path fill="rgb(164,165,170)" stroke="rgb(164,165,170)" stroke-width="1" opacity="0.6313725490196078" d="M 2.5 66 L 1.5 68 L 2.5 66 Z " /><path fill="rgb(164,165,170)" stroke="rgb(164,165,170)" stroke-width="1" opacity="0.6313725490196078" d="M 60.5 70 Q 62.8 74.3 65 72.5 L 63.5 74 L 60.5 70 Z " /><path fill="rgb(164,165,170)" stroke="rgb(164,165,170)" stroke-width="1" opacity="0.6313725490196078" d="M 113.5 72 L 114 74.5 L 113 74.5 L 113.5 72 Z " /><path fill="rgb(164,165,170)" stroke="rgb(164,165,170)" stroke-width="1" opacity="0.6313725490196078" d="M 1.5 75 L 2.5 77 L 1.5 75 Z " /><path fill="rgb(164,165,170)" stroke="rgb(164,165,170)" stroke-width="1" opacity="0.6313725490196078" d="M 11 77 Q 14.8 76.3 16 79.5 L 13.5 78 L 11.5 79 L 11 77 Z " /><path fill="rgb(164,165,170)" stroke="rgb(164,165,170)" stroke-width="1" opacity="0.6313725490196078" d="M 115.5 77 L 118 78.5 L 116.5 78 L 115.5 77 Z " /><path fill="rgb(164,165,170)" stroke="rgb(164,165,170)" stroke-width="1" opacity="0.6313725490196078" d="M 123.5 84 L 124 85.5 L 120.5 92 L 119 91.5 Q 122.8 89.3 123.5 84 Z " /><path fill="rgb(164,165,170)" stroke="rgb(164,165,170)" stroke-width="1" opacity="0.6313725490196078" d="M 18.5 88 L 14.5 93 L 18.5 88 Z " /><path fill="rgb(164,165,170)" stroke="rgb(164,165,170)" stroke-width="1" opacity="0.6313725490196078" d="M 106.5 91 L 106 92.5 Q 102.6 94.6 102.5 100 L 102 96.5 L 106.5 91 Z " /><path fill="rgb(164,165,170)" stroke="rgb(164,165,170)" stroke-width="1" opacity="0.6313725490196078" d="M 11.5 97 L 12 99.5 L 11 99.5 L 11.5 97 Z " /><path fill="rgb(164,165,170)" stroke="rgb(164,165,170)" stroke-width="1" opacity="0.6313725490196078" d="M 29 102 L 31 102.5 L 29 103.5 L 29 102 Z " /><path fill="rgb(164,165,170)" stroke="rgb(164,165,170)" stroke-width="1" opacity="0.6313725490196078" d="M 21.5 105 L 25 105.5 L 22.5 107 L 21.5 105 Z " /><path fill="rgb(164,165,170)" stroke="rgb(164,165,170)" stroke-width="1" opacity="0.6313725490196078" d="M 106.5 108 L 107 111.5 L 106 111.5 L 106.5 108 Z " /><path fill="rgb(164,165,170)" stroke="rgb(164,165,170)" stroke-width="1" opacity="0.6313725490196078" d="M 35.5 109 L 36 110.5 L 34.5 113 L 34 111.5 L 35.5 109 Z " /><path fill="rgb(164,165,170)" stroke="rgb(164,165,170)" stroke-width="1" opacity="0.6313725490196078" d="M 84 109 L 86 109.5 L 84 110.5 L 84 109 Z " /><path fill="rgb(164,165,170)" stroke="rgb(164,165,170)" stroke-width="1" opacity="0.6313725490196078" d="M 81.5 111 L 83 111.5 L 80.5 116 L 80 112.5 L 81.5 111 Z " /><path fill="rgb(164,165,170)" stroke="rgb(164,165,170)" stroke-width="1" opacity="0.6313725490196078" d="M 55.5 113 L 55 114.5 Q 53.9 122.5 47.5 125 L 52 119.5 L 55.5 113 Z " /><path fill="rgb(164,165,170)" stroke="rgb(164,165,170)" stroke-width="1" opacity="0.6313725490196078" d="M 103.5 113 L 101.5 116 L 103.5 113 Z " /><path fill="rgb(164,165,170)" stroke="rgb(164,165,170)" stroke-width="1" opacity="0.6313725490196078" d="M 80 117 L 82 117.5 L 81 122.5 L 78.5 126 L 79 124.5 L 80 117 Z " /><path fill="rgb(164,165,170)" stroke="rgb(164,165,170)" stroke-width="1" opacity="0.6313725490196078" d="M 63.5 123 L 64.5 125 L 63.5 123 Z " /></svg>